<?xml version="1.0" encoding="UTF-8" standalone="no"?>
<!-- Created with Inkscape (http://www.inkscape.org/) -->

<svg
   width="210mm"
   height="297mm"
   viewBox="0 0 210 297"
   version="1.1"
   id="svg322995"
   inkscape:version="1.1.2 (0a00cf5339, 2022-02-04)"
   sodipodi:docname="dropout.svg"
   xmlns:inkscape="http://www.inkscape.org/namespaces/inkscape"
   xmlns:sodipodi="http://sodipodi.sourceforge.net/DTD/sodipodi-0.dtd"
   xmlns="http://www.w3.org/2000/svg"
   xmlns:svg="http://www.w3.org/2000/svg">
  <sodipodi:namedview
     id="namedview322997"
     pagecolor="#ffffff"
     bordercolor="#666666"
     borderopacity="1.0"
     inkscape:pageshadow="2"
     inkscape:pageopacity="0.0"
     inkscape:pagecheckerboard="0"
     inkscape:document-units="mm"
     showgrid="false"
     inkscape:zoom="0.81890663"
     inkscape:cx="203.93045"
     inkscape:cy="384.04867"
     inkscape:window-width="1440"
     inkscape:window-height="838"
     inkscape:window-x="0"
     inkscape:window-y="25"
     inkscape:window-maximized="1"
     inkscape:current-layer="layer1" />
  <defs
     id="defs322992" />
  <g
     inkscape:label="Layer 1"
     inkscape:groupmode="layer"
     id="layer1">
    <path
       style="fill:#000000;stroke-width:0.264583"
       d="m 100.91124,167.69014 c -1.964489,-0.4608 -4.958163,-2.2799 -4.958163,-3.62057 l 3.101606,-3.16898 c -2.831764,-3.262 -4.902409,-6.35344 -5.755632,-9.18646 -0.9157,-3.06924 -2.62895,-6.15201 -4.62739,-8.3264 -2.735975,-2.97687 -5.329619,-3.80242 -13.718647,-4.36662 -7.945445,-0.53436 -11.105528,-1.39166 -15.396925,-4.17703 -6.224028,-3.3673 -11.308576,-9.82966 -8.260988,-20.1794 1.814803,-6.26039 4.442625,-7.44491 10.477019,-15.562929 2.63448,-3.544141 10.459009,-11.699234 12.740596,-14.676694 3.526547,-4.60214 6.307619,-9.67766 8.362048,-15.26093 2.03631,-5.534039 2.589697,-6.749985 3.303199,-7.258043 0.663998,-0.47281 0.725408,-0.701691 1.045968,-3.898172 0.45523,-4.53943 0.6533,-5.21748 1.77381,-6.07213 0.89805,-0.684974 1.00714,-0.702042 3.62975,-0.567883 1.51791,0.07765 3.13004,0.316541 3.67548,0.544651 1.66067,0.694504 1.83734,1.226527 2.00421,6.035222 0.1336,3.849862 0.21244,4.399812 0.78509,5.47683 0.35012,0.658485 0.930889,2.457375 1.290599,3.997545 1.62999,6.97914 3.50232,10.5748 7.49066,14.38524 3.20619,3.06317 6.93769,5.26355 11.13804,6.56783 2.14055,0.66467 3.91819,0.72836 15.34585,0.54985 2.69213,-0.0421 5.25198,-0.0624 5.68854,-0.0452 1.55093,0.0612 9.02101,-0.21052 10.58333,-0.38496 2.66306,-0.29733 3.45003,0.47208 4.91465,4.80498 1.04076,3.07897 1.16728,4.23315 0.58608,5.34641 -0.71986,1.378843 -1.51519,1.784613 -4.97156,2.536463 -1.74625,0.37985 -3.85702,0.87671 -4.6906,1.10412 -1.42945,0.38998 -1.52531,0.468 -1.68634,1.37242 -0.20668,1.16087 -0.97948,2.06134 -2.22202,2.5891 -7.75004,1.74449 -14.85064,7.53392 -22.87609,8.31971 l -50.63443,-0.19432 c -3.794806,1.00097 -3.980969,9.22083 0.169278,8.73814 l 47.847722,0.95302 c 4.70558,0 2.511,2.95774 -0.22006,6.52096 -1.71851,2.03895 -2.6454,4.76886 -2.53853,6.74004 0.12007,2.10919 0.41018,2.8509 3.07852,7.87071 1.44053,2.70999 1.57446,4.32695 2.07323,7.04659 1.45714,7.94538 -4.36837,14.07201 -10.97778,15.45032 -1.65255,0.34462 -6.09482,0.34258 -7.57012,-0.003 z M 83.088709,156.1972 c -0.202399,-0.36166 -0.35087,-0.38683 -0.81542,-0.13821 -0.562858,0.30123 -0.567965,0.28075 -0.567965,-2.27739 v -2.58135 l 1.707052,1.69188 c 1.625177,1.61073 1.886199,2.12929 1.071793,2.12929 -0.232683,0 -0.346874,0.25991 -0.315114,0.71724 0.05831,0.83966 -0.689448,1.15704 -1.080346,0.45854 z m 0.490135,-0.87114 c -0.370581,-0.69244 -0.361516,-0.77798 0.09333,-0.88055 0.26669,-0.0601 0.07259,-0.43914 -0.653563,-1.27617 l -1.032912,-1.19063 -0.0079,1.65365 c -0.0074,1.54917 0.2442,2.05142 0.676908,1.35129 0.118935,-0.19245 0.324506,-0.0397 0.565488,0.42026 0.208241,0.39745 0.438481,0.66277 0.511644,0.5896 0.07316,-0.0732 0.0043,-0.37351 -0.152998,-0.66745 z"
       id="path323068"
       sodipodi:nodetypes="ccccssccsssssssssssssccsssssscccccccsssccssscssssscscssssss" />
    <path
       id="path329549"
       style="fill:#ffffff;stroke:none;stroke-width:0.264583px;stroke-linecap:butt;stroke-linejoin:miter;stroke-opacity:1"
       d="m 87.895633,86.180812 c 3.203966,-2.67282 6.215342,-2.505259 8.845364,-1.111268 4.600263,4.109734 9.200533,8.219468 13.800803,12.329202 6.31528,4.187004 1.80453,6.838634 -2.08421,7.245564 -4.19874,0.23593 -18.242625,-0.44197 -27.363937,-0.66296 -3.1638,0.58066 -4.965854,-1.19308 -2.974927,-6.702397 z"
       sodipodi:nodetypes="ccccccc" />
    <circle
       style="fill:#ffffff;stroke:none;stroke-width:4.58361;stroke-linecap:round;stroke-linejoin:round;paint-order:stroke markers fill"
       id="path331524"
       cx="108.04311"
       cy="154.07448"
       r="6.9365377" />
  </g>
</svg>
