<?xml version="1.0" encoding="UTF-8" standalone="no"?>
<!-- Created with Inkscape (http://www.inkscape.org/) -->

<svg
   width="11in"
   height="8.5in"
   viewBox="0 0 279.4 215.9"
   version="1.1"
   id="svg5"
   inkscape:version="1.1.2 (0a00cf5339, 2022-02-04)"
   sodipodi:docname="drawing.svg"
   xmlns:inkscape="http://www.inkscape.org/namespaces/inkscape"
   xmlns:sodipodi="http://sodipodi.sourceforge.net/DTD/sodipodi-0.dtd"
   xmlns="http://www.w3.org/2000/svg"
   xmlns:svg="http://www.w3.org/2000/svg">
  <sodipodi:namedview
     id="namedview7"
     pagecolor="#ffffff"
     bordercolor="#666666"
     borderopacity="1.0"
     inkscape:pageshadow="2"
     inkscape:pageopacity="0.0"
     inkscape:pagecheckerboard="0"
     inkscape:document-units="mm"
     showgrid="false"
     units="in"
     inkscape:zoom="0.27577164"
     inkscape:cx="282.84271"
     inkscape:cy="179.49634"
     inkscape:window-width="1440"
     inkscape:window-height="838"
     inkscape:window-x="0"
     inkscape:window-y="25"
     inkscape:window-maximized="1"
     inkscape:current-layer="layer1" />
  <defs
     id="defs2" />
  <g
     inkscape:label="Layer 1"
     inkscape:groupmode="layer"
     id="layer1">
    <path
       style="fill:#ff0000;stroke-width:0.204156"
       d="m 19.694317,105.63287 -1.543877,-1.47995 0.220831,-7.198992 c 0.21068,-6.8708 0.236566,-7.209471 0.560962,-7.429311 0.666901,-0.451894 1.273245,-0.169649 2.791183,1.299291 0.836796,0.80981 1.548821,1.50348 1.582257,1.54152 0.03339,0.0381 0.09967,0.41289 0.147139,0.83298 l 0.08633,0.76382 2.530679,-2.43984 c 2.271616,-2.190068 2.584693,-2.421105 3.058255,-2.256877 0.545058,0.189027 3.824801,3.280937 3.817941,3.599277 -0.002,0.0986 -1.316886,1.43759 -2.921672,2.97548 -1.604793,1.53789 -2.923401,2.86863 -2.930221,2.95721 -0.0072,0.0886 1.253412,1.786402 2.800537,3.772962 1.547119,1.98656 2.808086,3.76906 2.802135,3.96112 -0.01151,0.3777 -0.691327,0.78072 -1.257693,0.74583 -0.544791,-0.0335 -3.016666,-2.46723 -4.756404,-4.68291 l -1.57274,-2.00298 -0.960757,0.93345 -0.960746,0.93345 -0.06509,2.10283 c -0.0406,1.3125 -0.145917,2.20731 -0.28013,2.38084 -0.118291,0.15296 -0.527855,0.25389 -0.910178,0.2244 -0.538055,-0.0415 -1.043966,-0.38807 -2.238984,-1.53362 z m 36.686156,1.21685 c -0.8047,-0.32021 -1.307418,-0.72262 -3.381328,-2.70681 -2.591673,-2.47949 -3.201985,-3.62843 -3.34231,-6.291922 -0.277668,-5.27036 2.737163,-8.745809 7.486635,-8.630519 0.797355,0.01931 1.517881,-0.01863 1.601173,-0.08436 0.243686,-0.192279 3.42901,2.433219 5.235586,4.315449 2.137571,2.22706 2.489303,3.15123 2.384266,6.26451 -0.06123,1.816492 -0.134475,2.213552 -0.613697,3.329662 -0.91367,2.12791 -2.600986,3.61142 -4.650843,4.08904 -1.069603,0.24923 -3.789548,0.0849 -4.719482,-0.2852 z m 1.72632,-4.38175 c 1.291413,-0.45562 2.223833,-1.31286 2.805814,-2.579612 0.427763,-0.93107 0.504657,-1.34912 0.555239,-3.01893 0.08544,-2.82121 -0.02996,-3.03596 -1.68665,-3.138 -1.151782,-0.071 -1.49153,0.0119 -2.415955,0.59478 -2.388443,1.50395 -3.399598,4.42953 -2.643919,7.649672 0.15155,0.64582 0.212399,0.68059 1.308948,0.74813 0.6325,0.039 1.566947,-0.0762 2.076523,-0.25604 z m 31.696991,4.43319 c -1.10472,-0.44019 -1.924422,-1.07702 -3.854732,-2.99477 -1.801892,-1.79018 -2.264693,-2.45794 -2.772751,-4.000662 -0.549822,-1.66951 -0.496204,-4.07191 0.130995,-5.86927 0.476762,-1.36622 1.738985,-3.0398 2.813573,-3.73049 2.292797,-1.473701 6.159187,-1.547438 8.645586,-0.16482 0.762264,0.42384 3.713609,3.24509 3.704451,3.54114 -0.0026,0.10655 -0.159113,0.43795 -0.346251,0.73641 l -0.340258,0.5426 -1.252567,-0.49661 c -1.678172,-0.66538 -4.069529,-0.85455 -5.311159,-0.42015 -2.058112,0.72006 -3.420034,2.87061 -3.504674,5.53409 -0.02342,0.732812 0.04815,1.681852 0.15876,2.108962 0.16759,0.64712 0.319742,0.80882 0.912688,0.97 0.866294,0.23549 2.693856,0.0779 4.126405,-0.35568 0.816077,-0.24704 0.908711,-0.89076 0.135025,-0.93842 -0.805846,-0.0496 -3.671938,-2.839452 -3.65103,-3.553852 0.0092,-0.29515 0.154088,-0.63001 0.32321,-0.74413 0.169135,-0.11418 1.546064,-0.20301 3.059876,-0.1975 l 2.75238,0.0102 1.543198,1.55747 1.543186,1.55748 -0.09002,2.908252 -0.09002,2.90823 -0.482754,0.31138 c -1.677857,1.08223 -6.288154,1.52352 -8.153162,0.7804 z m 33.199046,0.16821 c -0.80033,-0.12857 -1.91289,-0.4522 -2.47238,-0.71903 -1.09922,-0.52426 -4.28284,-3.42251 -4.26432,-3.8821 0.044,-1.089 0.88298,-1.35573 2.1572,-0.68577 1.48486,0.78068 4.50338,1.12496 5.83752,0.66577 0.90405,-0.31115 2.21458,-1.51436 2.00347,-1.83939 -0.0404,-0.0623 -0.87559,-0.27462 -1.85581,-0.47176 -2.78877,-0.560902 -3.29134,-0.810032 -5.12865,-2.542312 -2.08402,-1.96491 -2.26796,-2.19807 -2.53665,-3.2155 -0.2897,-1.09698 0.0105,-2.38741 0.77336,-3.32301 1.19765,-1.469077 2.35484,-1.871474 5.52513,-1.921326 2.24322,-0.03523 2.36762,-0.01186 3.59159,0.688538 1.41061,0.806678 4.3636,3.538688 4.34861,4.023168 -0.005,0.17114 -0.17398,0.50331 -0.37487,0.73816 -0.33263,0.38884 -0.45184,0.39421 -1.33519,0.0601 -2.91249,-1.10147 -5.22865,-1.22757 -6.59352,-0.359 -1.20096,0.76428 -1.02632,1.16444 0.63839,1.46276 2.43788,0.43685 3.12418,0.7906 5.06109,2.60869 0.99539,0.93435 1.97449,1.933102 2.17578,2.219482 0.77858,1.10767 0.80122,3.00846 0.0521,4.37334 -1.04384,1.90181 -3.93732,2.70833 -7.60283,2.11914 z m 28.63344,-1.22716 c -0.76122,-0.74542 -1.48459,-1.51723 -1.60747,-1.71514 -0.20714,-0.3336 -1.75767,-13.025742 -1.72403,-14.112482 0.008,-0.267539 0.13933,-0.545075 0.29122,-0.616763 0.72096,-0.340212 1.38569,-0.01525 2.85246,1.392893 0.8351,0.80194 1.53724,1.48275 1.56032,1.51297 0.023,0.0303 0.10258,0.70448 0.17656,1.4984 0.21235,2.27776 0.2457,2.31076 0.83938,0.83076 0.46817,-1.16715 0.62489,-1.36768 1.15178,-1.47382 0.5334,-0.1074 0.80694,0.06 2.18136,1.33502 0.8643,0.80182 1.71271,1.75809 1.88533,2.12505 l 0.31385,0.66719 0.57001,-3.46315 c 0.74971,-4.554968 0.7463,-4.545753 1.65727,-4.483432 0.60235,0.04116 1.01244,0.329862 2.29614,1.616212 l 1.56284,1.56605 -0.1368,0.88339 c -0.0752,0.48586 -0.64075,3.68647 -1.25667,7.112472 -0.83779,4.66013 -1.19938,6.30384 -1.43559,6.52588 -0.65567,0.61636 -1.41393,0.28722 -3.14606,-1.36558 -1.39372,-1.32988 -1.74045,-1.79192 -2.11473,-2.81798 l -0.44766,-1.22728 -1.06039,2.63456 c -1.12071,2.78444 -1.38137,3.09845 -2.47887,2.98602 -0.34364,-0.0352 -1.05945,-0.55853 -1.93025,-1.41124 z m 33.88252,0.56207 c -0.39169,-0.32307 -1.144,-1.0299 -1.67181,-1.57076 l -0.95967,-0.98336 0.17368,-7.086042 0.17364,-7.086064 0.39588,-0.199292 c 0.21773,-0.109599 2.53852,-0.191111 5.15732,-0.181083 l 4.76146,0.01829 1.55606,1.534989 c 1.54862,1.52767 1.89936,2.21558 1.39798,2.74202 -0.18152,0.19056 -6.15998,0.41373 -8.01791,0.29929 -0.32668,-0.0202 -0.39006,0.10655 -0.41226,0.82414 l -0.0263,0.84792 1.8713,0.11519 1.87129,0.11519 1.52105,1.45261 c 1.22456,1.16945 1.51759,1.56436 1.50329,2.02587 -0.0251,0.811522 -0.50774,1.045622 -1.96998,0.955562 -0.69984,-0.043 -2.09801,-0.0581 -3.10705,-0.033 l -1.83462,0.0452 -0.0339,1.08994 -0.0339,1.08992 2.76737,0.005 2.76735,0.005 1.57379,1.49973 c 0.86556,0.82487 1.61377,1.70555 1.66269,1.95707 0.19753,1.0157 -0.17149,1.09085 -5.38816,1.09722 l -4.98686,0.007 z m 32.07238,-0.97859 -1.50156,-1.51249 0.17463,-7.122962 c 0.19307,-7.874696 0.16876,-7.730118 1.28637,-7.661276 0.4728,0.02914 3.37221,2.597736 3.66753,3.249056 0.065,0.14348 0.0514,2.45942 -0.0306,5.14643 l -0.14858,4.885442 2.64494,0.0266 2.64492,0.0266 1.0656,0.98797 c 1.60586,1.48886 2.14731,2.17013 2.13146,2.68194 -0.008,0.25501 -0.15261,0.55352 -0.32159,0.6633 -0.16899,0.10977 -1.66172,0.1876 -3.31718,0.17294 -1.65546,-0.0153 -3.86151,-0.0276 -4.90233,-0.029 l -1.8924,-0.002 -1.50158,-1.51249 z m 33.9939,0.91888 c -0.39175,-0.32143 -1.1441,-1.02692 -1.67192,-1.56778 l -0.95967,-0.98334 0.16623,-6.849132 c 0.10794,-4.44657 0.2347,-7.01209 0.3614,-7.313694 0.14693,-0.349732 0.37408,-0.452843 0.91884,-0.417134 0.5899,0.03879 1.00902,0.332352 2.26736,1.588738 l 1.5437,1.5413 -0.15505,5.01017 -0.15505,5.010182 2.70888,0.0247 2.70892,0.0247 1.50193,1.50118 c 1.31979,1.31912 1.4993,1.58585 1.48032,2.1993 l -0.0215,0.69811 -1.63672,0.0752 c -0.90019,0.0413 -3.14616,0.0678 -4.99105,0.0584 -3.26742,-0.0169 -3.37275,-0.0319 -4.06654,-0.60112 z"
       id="path836" />
  </g>
</svg>
