<svg width="100mm" height="100mm">



<g transform="translate(50,50) scale(1) rotate(80)">

    <path
       style="fill:#4d4d4d;fill-opacity:0.726048;stroke:none;stroke-width:0.264583px;stroke-linecap:butt;stroke-linejoin:miter;stroke-opacity:1"
       d="m -1.322917,0 c 0,-1.322917 1.322917030000001,-1.322917 2.645833,-1.322917 l 1.852084,7e-7 C 3.175001,-1.8520833 1.8520833,-3.175 0,-3.175 l -0.26458333,0 c -2.38124967,7e-7 -3.43958337,1.852083 -3.43958337,3.175 0,1.322916 1.0583334,3.175 3.43958337,3.175 L 0,3.175 c 1.8520833,0 3.175001,-1.3229163 3.175,-1.8520833 l -1.852084,-7e-7 c -1.58749897,0 -2.645833,0 -2.645833,-1.322916 z"
/>
    <path
       style="fill:#999999;fill-opacity:0.726048;stroke:none;stroke-width:0.264583px;stroke-linecap:butt;stroke-linejoin:miter;stroke-opacity:1"
       d="m -1.322917,0 c 0,-1.322917 1.322917030000001,-1.322917 2.645833,-1.322917 l 1.852084,7e-7 c 1e-6,-0.529167 -1.587499,-1.058333 -2.64583303,-1.058333 l -0.7937503,-7e-7 c -1.32291697,0 -2.38124997,1.058333 -2.38124997,2.38125 0,1.322916 1.058333,2.38125 2.38124997,2.38125 l 0.7937503,7e-7 C 1.587501,2.3812507 3.175001,1.8520837 3.175,1.3229167 l -1.852084,-7e-7 c -1.58749897,0 -2.645833,0 -2.645833,-1.322916 z"
/>

</g>

<circle cx="50" cy="50" r="5" fill="#f00"></circle>

</svg>

