<?xml version="1.0" encoding="UTF-8" standalone="no"?>
<svg
   style="font-style:normal;font-weight:normal;font-size:12px;font-family:Dialog;color-interpolation:auto;fill:#000000;fill-opacity:1;stroke:#000000;stroke-width:1;stroke-linecap:square;stroke-linejoin:miter;stroke-miterlimit:10;stroke-dasharray:none;stroke-dashoffset:0;stroke-opacity:1;color-rendering:auto;image-rendering:auto;shape-rendering:auto;text-rendering:auto"
   width="1600"
   height="1600"
   version="1.1"
   id="svg208"
   sodipodi:docname="BikeCADicon.svg"
   inkscape:version="1.1.2 (0a00cf5339, 2022-02-04)"
   xmlns:inkscape="http://www.inkscape.org/namespaces/inkscape"
   xmlns:sodipodi="http://sodipodi.sourceforge.net/DTD/sodipodi-0.dtd"
   xmlns="http://www.w3.org/2000/svg"
   xmlns:svg="http://www.w3.org/2000/svg">
  <sodipodi:namedview
     id="namedview210"
     pagecolor="#ffffff"
     bordercolor="#666666"
     borderopacity="1.0"
     inkscape:pageshadow="2"
     inkscape:pageopacity="0.0"
     inkscape:pagecheckerboard="0"
     showgrid="false"
     inkscape:zoom="0.23073263"
     inkscape:cx="281.71135"
     inkscape:cy="777.95672"
     inkscape:window-width="1440"
     inkscape:window-height="838"
     inkscape:window-x="0"
     inkscape:window-y="25"
     inkscape:window-maximized="1"
     inkscape:current-layer="svg208" />
  <!--Generated by the Batik Graphics2D SVG Generator-->
  <defs
     id="genericDefs">
    <defs
       id="defs1">
      <clipPath
         clipPathUnits="userSpaceOnUse"
         id="clipPath1">
        <path
           d="M 0,0 H 1663 V 996 H 0 Z"
           id="path3" />
      </clipPath>
      <clipPath
         clipPathUnits="userSpaceOnUse"
         id="clipPath2">
        <path
           d="M 0,996.9341 H 1664.5596 V 0 H 0 Z"
           id="path6" />
      </clipPath>
      <clipPath
         clipPathUnits="userSpaceOnUse"
         id="clipPath3">
        <path
           d="m 742.7049,300.9695 13,14.66 96.8529,109.2211 -1.4964,1.327 5.9713,6.7337 1.4964,-1.3269 v 0 0 0 0 0 l 36.491,41.151 v 0 l -1.4964,1.3269 5.9713,6.7338 1.4965,-1.327 172.8101,194.8781 58.9378,66.464 v 0 l -13.763,45.0163 v 0 l -66.544,-11.319 -385.6064,-65.5905 -39.1871,-6.6657 v 0 0 l 0.9229,-3.2186 48.6184,-169.5523 v 0 0 0 l 1.9225,0.5513 2.4807,-8.6514 -1.9225,-0.5512 v 0 l 15.1601,-52.8694 v 0 l 1.9225,0.5512 2.4807,-8.6513 -1.9225,-0.5513 v 0 l 43.9275,-153.1935 z m 12.7453,-38.2291 c 0.2977,1.3726 0.4545,2.7978 0.4545,4.2596 0,11.0457 -8.9543,20 -20,20 -8.474,0 -15.7172,-5.2703 -18.6305,-12.7119 v 0 l -6.6131,23.0625 -112.6674,392.9178 -19.3814,67.591 30.5681,8.7652 9.6392,-33.6156 v 0 l 42.6739,7.2586 385.6064,65.5906 62.5022,10.6315 v 0 0 l -2.9142,9.5319 43.0337,13.1567 42.3947,-138.6667 -43.0337,-13.1567 -4.3842,14.3404 -44.7846,-50.5034 L 781.817,292.4743 Z"
           id="path9" />
      </clipPath>
      <clipPath
         clipPathUnits="userSpaceOnUse"
         id="clipPath4">
        <path
           d="M 0,-1 V 997 H 1665 V -1 Z"
           id="path12" />
      </clipPath>
    </defs>
  </defs>
  <circle
     style="fill:#008000;fill-opacity:1;stroke:none;stroke-width:37.7953;stroke-linecap:round;stroke-linejoin:round;stroke-opacity:0.996211;paint-order:stroke markers fill"
     id="path1129"
     cx="800"
     cy="800"
     r="800" />
  <g
     transform="matrix(0.80899913,0,0,-0.80899913,126.71391,1204.275)"
     style="fill:#ffffff;stroke:#ffffff;stroke-width:12.1259;stroke-linecap:butt;stroke-linejoin:round;stroke-miterlimit:2;stroke-dasharray:none;text-rendering:optimizeLegibility"
     id="g90">
    <path
       d="m 623.0922,611.0838 -74.422,259.5407 q -2.8941,10.0928 -6.2294,14.325 v 0 l 11.3534,11.3502 -0.5065,2.8724 v 0 0 0 0 0 l -19.515,-3.441 v 0 l -0.97,3.383 v 0 l 19.8773,3.5049 v 0 l -0.5065,2.8723 -7.2436,3.3766 v 0 q 21.451,-1.3277 29.8866,-30.7461 l 74.4221,-259.5407 z"
       style="fill:#ffffff;stroke:#ffffff;stroke-width:12.1259;stroke-miterlimit:2;stroke-dasharray:none"
       clip-path="url(#clipPath2)"
       id="path24" />
    <path
       d="m 623.0922,611.0838 -74.422,259.5407 q -2.8941,10.0928 -6.2294,14.325 v 0 l 11.3534,11.3502 -0.5065,2.8724 v 0 0 0 0 0 l -19.515,-3.441 v 0 l -0.97,3.383 v 0 l 19.8773,3.5049 v 0 l -0.5065,2.8723 -7.2436,3.3766 v 0 q 21.451,-1.3277 29.8866,-30.7461 l 74.4221,-259.5407 z"
       style="fill:#ffffff;stroke:#ffffff;stroke-width:12.1259;stroke-miterlimit:2;stroke-dasharray:none"
       clip-path="url(#clipPath2)"
       id="path26" />
    <path
       d="m 719.9928,254.8818 -173.1817,32.5644 -185.5541,41.3522 -9.8278,1.848 3.1416,16.7072 9.8278,-1.848 187.901,-28.8709 173.179,-32.564 v 0 c -5.7422,-3.5146 -9.5739,-9.8452 -9.5739,-17.0707 0,-4.5557 1.5232,-8.7556 4.0881,-12.1182 z"
       style="fill:#ffffff;stroke:#ffffff;stroke-width:12.1259;stroke-miterlimit:2;stroke-dasharray:none"
       clip-path="url(#clipPath2)"
       id="path28" />
    <path
       d="m 719.9928,254.8818 -173.1817,32.5644 -185.5541,41.3522 -9.8278,1.848 3.1416,16.7072 9.8278,-1.848 187.901,-28.8709 173.179,-32.564 v 0 c -5.7422,-3.5146 -9.5739,-9.8452 -9.5739,-17.0707 0,-4.5557 1.5232,-8.7556 4.0881,-12.1182 z"
       style="fill:#ffffff;stroke:#ffffff;stroke-width:12.1259;stroke-miterlimit:2;stroke-dasharray:none"
       clip-path="url(#clipPath2)"
       id="path30" />
    <path
       d="m 1328.4935,316.8772 c 0.2647,0 0.5312,0.0872 0.7532,0.2664 0.5156,0.4164 0.5961,1.1719 0.1797,1.6875 -0.2371,0.2937 -0.5842,0.4462 -0.9343,0.4462 -0.2647,0 -0.5312,-0.0871 -0.7532,-0.2664 -0.5156,-0.4163 -0.5961,-1.1718 -0.1797,-1.6875 0.2371,-0.2936 0.5842,-0.4462 0.9343,-0.4462 z m -7.3717,0.7854 c 0.2647,0 0.5312,0.0871 0.7532,0.2664 0.5156,0.4163 0.5961,1.1718 0.1797,1.6875 -0.2371,0.2936 -0.5842,0.4462 -0.9343,0.4462 -0.2648,0 -0.5312,-0.0872 -0.7532,-0.2665 -0.5156,-0.4163 -0.5961,-1.1718 -0.1798,-1.6875 0.2372,-0.2936 0.5842,-0.4461 0.9344,-0.4461 z m 14.4828,1.3101 c 0.2648,0 0.5311,0.0872 0.7532,0.2664 0.5156,0.4164 0.5961,1.1719 0.1798,1.6875 -0.2372,0.2937 -0.5842,0.4462 -0.9345,0.4462 -0.2646,0 -0.5311,-0.0872 -0.753,-0.2664 -0.5157,-0.4164 -0.5962,-1.1719 -0.1798,-1.6875 0.237,-0.2937 0.5842,-0.4462 0.9343,-0.4462 z m -20.9928,2.2364 c 0.2647,0 0.5311,0.0872 0.7531,0.2665 0.5156,0.4163 0.5962,1.1718 0.1798,1.6875 -0.2371,0.2936 -0.5843,0.4461 -0.9343,0.4461 -0.2648,0 -0.5313,-0.0871 -0.7532,-0.2664 -0.5156,-0.4163 -0.5962,-1.1718 -0.1798,-1.6875 0.2372,-0.2936 0.5842,-0.4462 0.9344,-0.4462 z m 26.7608,2.4209 c 0.2646,0 0.5311,0.0871 0.7531,0.2664 0.5157,0.4163 0.5961,1.1719 0.1797,1.6875 -0.237,0.2936 -0.5842,0.4462 -0.9343,0.4462 -0.2648,0 -0.5311,-0.0872 -0.7532,-0.2664 -0.5156,-0.4164 -0.596,-1.1719 -0.1797,-1.6875 0.2371,-0.2937 0.5841,-0.4462 0.9344,-0.4462 z m -31.4181,3.3471 c 0.2647,0 0.5311,0.0871 0.7531,0.2664 0.5157,0.4163 0.5961,1.1718 0.1799,1.6875 -0.2372,0.2936 -0.5843,0.4461 -0.9345,0.4461 -0.2646,0 -0.5311,-0.0871 -0.7532,-0.2664 -0.5156,-0.4163 -0.596,-1.1718 -0.1797,-1.6875 0.2371,-0.2936 0.5843,-0.4461 0.9344,-0.4461 z m 34.9647,3.1629 c 0.2646,0 0.5311,0.0872 0.753,0.2664 0.5157,0.4164 0.5962,1.1719 0.1799,1.6875 -0.2371,0.2937 -0.5843,0.4462 -0.9344,0.4462 -0.2647,0 -0.5312,-0.0872 -0.7531,-0.2664 -0.5157,-0.4163 -0.5962,-1.1719 -0.1799,-1.6875 0.2372,-0.2937 0.5843,-0.4462 0.9345,-0.4462 z m -37.0602,3.9482 c 0.2647,0 0.5311,0.0871 0.7532,0.2664 0.5156,0.4163 0.5961,1.1718 0.1797,1.6875 -0.2371,0.2936 -0.5843,0.4462 -0.9344,0.4462 -0.2646,0 -0.5311,-0.0872 -0.7531,-0.2664 -0.5157,-0.4164 -0.5961,-1.1719 -0.1797,-1.6876 0.237,-0.2936 0.5842,-0.4461 0.9343,-0.4461 z m 37.8455,3.4235 c 0.2646,0 0.5311,0.0872 0.7531,0.2664 0.5157,0.4164 0.5961,1.1719 0.1797,1.6876 -0.237,0.2936 -0.5842,0.4461 -0.9343,0.4461 -0.2646,0 -0.5311,-0.0871 -0.7532,-0.2664 -0.5156,-0.4163 -0.596,-1.1718 -0.1797,-1.6875 0.2371,-0.2936 0.5843,-0.4462 0.9344,-0.4462 z m -37.0602,3.9482 c 0.2648,0 0.5312,0.0872 0.7532,0.2664 0.5156,0.4163 0.5962,1.1719 0.1798,1.6875 -0.2372,0.2937 -0.5843,0.4462 -0.9345,0.4462 -0.2646,0 -0.5311,-0.0872 -0.753,-0.2664 -0.5157,-0.4164 -0.5962,-1.1719 -0.1798,-1.6875 0.237,-0.2937 0.5842,-0.4462 0.9343,-0.4462 z m 34.9647,3.163 c 0.2647,0 0.5311,0.0871 0.7532,0.2664 0.5156,0.4163 0.5961,1.1718 0.1797,1.6875 -0.2371,0.2936 -0.5843,0.4461 -0.9344,0.4461 -0.2647,0 -0.5311,-0.0871 -0.7531,-0.2664 -0.5157,-0.4163 -0.5961,-1.1718 -0.1798,-1.6875 0.2371,-0.2936 0.5842,-0.4461 0.9344,-0.4461 z m -31.4181,3.347 c 0.2648,0 0.5311,0.0872 0.7532,0.2664 0.5156,0.4164 0.5961,1.1719 0.1797,1.6875 -0.2371,0.2937 -0.5841,0.4462 -0.9343,0.4462 -0.2647,0 -0.5312,-0.0871 -0.7532,-0.2664 -0.5156,-0.4163 -0.5961,-1.1719 -0.1797,-1.6875 0.2371,-0.2936 0.5842,-0.4462 0.9343,-0.4462 z m 26.7608,2.4209 c 0.2647,0 0.5312,0.0871 0.7531,0.2664 0.5157,0.4163 0.5962,1.1718 0.1798,1.6875 -0.2371,0.2936 -0.5842,0.4462 -0.9344,0.4462 -0.2647,0 -0.5311,-0.0872 -0.7531,-0.2665 -0.5156,-0.4163 -0.5961,-1.1718 -0.1798,-1.6875 0.2371,-0.2936 0.5843,-0.4461 0.9344,-0.4461 z m -20.9928,2.2364 c 0.2646,0 0.5311,0.0872 0.753,0.2664 0.5158,0.4164 0.5962,1.1719 0.1798,1.6875 -0.237,0.2937 -0.5842,0.4462 -0.9343,0.4462 -0.2648,0 -0.5311,-0.0872 -0.7532,-0.2664 -0.5156,-0.4164 -0.596,-1.1719 -0.1798,-1.6875 0.2372,-0.2937 0.5842,-0.4462 0.9345,-0.4462 z m 14.4828,1.3101 c 0.2647,0 0.5311,0.0872 0.7531,0.2665 0.5156,0.4163 0.5961,1.1718 0.1798,1.6875 -0.2371,0.2936 -0.5842,0.4461 -0.9344,0.4461 -0.2647,0 -0.5311,-0.0871 -0.7532,-0.2664 -0.5156,-0.4163 -0.5961,-1.1718 -0.1797,-1.6875 0.2371,-0.2936 0.5843,-0.4462 0.9344,-0.4462 z m -7.3718,0.7854 c 0.2647,0 0.5312,0.0871 0.7532,0.2664 0.5156,0.4163 0.5961,1.1718 0.1797,1.6875 -0.2371,0.2936 -0.5842,0.4462 -0.9343,0.4462 -0.2647,0 -0.5311,-0.0872 -0.7532,-0.2664 -0.5156,-0.4164 -0.5961,-1.1719 -0.1797,-1.6875 0.2371,-0.2937 0.5842,-0.4462 0.9343,-0.4462 z m 1.7249,-40.2235 c -6.5654,0 -13.0737,2.8598 -17.5195,8.3658 -7.8065,9.6682 -6.2974,23.8342 3.3707,31.6408 4.1622,3.3607 9.1581,4.995 14.1212,4.995 6.5654,0 13.0737,-2.8598 17.5195,-8.3658 7.8066,-9.6682 6.2974,-23.8342 -3.3707,-31.6408 -4.1622,-3.3607 -9.1581,-4.995 -14.1212,-4.995 z"
       style="fill:#ffffff;stroke:#ffffff;stroke-width:12.1259;stroke-miterlimit:2;stroke-dasharray:none"
       clip-path="url(#clipPath2)"
       id="path32" />
    <path
       d="m 1328.4935,316.8772 c 0.2647,0 0.5312,0.0872 0.7532,0.2664 0.5156,0.4164 0.5961,1.1719 0.1797,1.6875 -0.2371,0.2937 -0.5842,0.4462 -0.9343,0.4462 -0.2647,0 -0.5312,-0.0871 -0.7532,-0.2664 -0.5156,-0.4163 -0.5961,-1.1718 -0.1797,-1.6875 0.2371,-0.2936 0.5842,-0.4462 0.9343,-0.4462 z m -7.3717,0.7854 c 0.2647,0 0.5312,0.0871 0.7532,0.2664 0.5156,0.4163 0.5961,1.1718 0.1797,1.6875 -0.2371,0.2936 -0.5842,0.4462 -0.9343,0.4462 -0.2648,0 -0.5312,-0.0872 -0.7532,-0.2665 -0.5156,-0.4163 -0.5961,-1.1718 -0.1798,-1.6875 0.2372,-0.2936 0.5842,-0.4461 0.9344,-0.4461 z m 14.4828,1.3101 c 0.2648,0 0.5311,0.0872 0.7532,0.2664 0.5156,0.4164 0.5961,1.1719 0.1798,1.6875 -0.2372,0.2937 -0.5842,0.4462 -0.9345,0.4462 -0.2646,0 -0.5311,-0.0872 -0.753,-0.2664 -0.5157,-0.4164 -0.5962,-1.1719 -0.1798,-1.6875 0.237,-0.2937 0.5842,-0.4462 0.9343,-0.4462 z m -20.9928,2.2364 c 0.2647,0 0.5311,0.0872 0.7531,0.2665 0.5156,0.4163 0.5962,1.1718 0.1798,1.6875 -0.2371,0.2936 -0.5843,0.4461 -0.9343,0.4461 -0.2648,0 -0.5313,-0.0871 -0.7532,-0.2664 -0.5156,-0.4163 -0.5962,-1.1718 -0.1798,-1.6875 0.2372,-0.2936 0.5842,-0.4462 0.9344,-0.4462 z m 26.7608,2.4209 c 0.2646,0 0.5311,0.0871 0.7531,0.2664 0.5157,0.4163 0.5961,1.1719 0.1797,1.6875 -0.237,0.2936 -0.5842,0.4462 -0.9343,0.4462 -0.2648,0 -0.5311,-0.0872 -0.7532,-0.2664 -0.5156,-0.4164 -0.596,-1.1719 -0.1797,-1.6875 0.2371,-0.2937 0.5841,-0.4462 0.9344,-0.4462 z m -31.4181,3.3471 c 0.2647,0 0.5311,0.0871 0.7531,0.2664 0.5157,0.4163 0.5961,1.1718 0.1799,1.6875 -0.2372,0.2936 -0.5843,0.4461 -0.9345,0.4461 -0.2646,0 -0.5311,-0.0871 -0.7532,-0.2664 -0.5156,-0.4163 -0.596,-1.1718 -0.1797,-1.6875 0.2371,-0.2936 0.5843,-0.4461 0.9344,-0.4461 z m 34.9647,3.1629 c 0.2646,0 0.5311,0.0872 0.753,0.2664 0.5157,0.4164 0.5962,1.1719 0.1799,1.6875 -0.2371,0.2937 -0.5843,0.4462 -0.9344,0.4462 -0.2647,0 -0.5312,-0.0872 -0.7531,-0.2664 -0.5157,-0.4163 -0.5962,-1.1719 -0.1799,-1.6875 0.2372,-0.2937 0.5843,-0.4462 0.9345,-0.4462 z m -37.0602,3.9482 c 0.2647,0 0.5311,0.0871 0.7532,0.2664 0.5156,0.4163 0.5961,1.1718 0.1797,1.6875 -0.2371,0.2936 -0.5843,0.4462 -0.9344,0.4462 -0.2646,0 -0.5311,-0.0872 -0.7531,-0.2664 -0.5157,-0.4164 -0.5961,-1.1719 -0.1797,-1.6876 0.237,-0.2936 0.5842,-0.4461 0.9343,-0.4461 z m 37.8455,3.4235 c 0.2646,0 0.5311,0.0872 0.7531,0.2664 0.5157,0.4164 0.5961,1.1719 0.1797,1.6876 -0.237,0.2936 -0.5842,0.4461 -0.9343,0.4461 -0.2646,0 -0.5311,-0.0871 -0.7532,-0.2664 -0.5156,-0.4163 -0.596,-1.1718 -0.1797,-1.6875 0.2371,-0.2936 0.5843,-0.4462 0.9344,-0.4462 z m -37.0602,3.9482 c 0.2648,0 0.5312,0.0872 0.7532,0.2664 0.5156,0.4163 0.5962,1.1719 0.1798,1.6875 -0.2372,0.2937 -0.5843,0.4462 -0.9345,0.4462 -0.2646,0 -0.5311,-0.0872 -0.753,-0.2664 -0.5157,-0.4164 -0.5962,-1.1719 -0.1798,-1.6875 0.237,-0.2937 0.5842,-0.4462 0.9343,-0.4462 z m 34.9647,3.163 c 0.2647,0 0.5311,0.0871 0.7532,0.2664 0.5156,0.4163 0.5961,1.1718 0.1797,1.6875 -0.2371,0.2936 -0.5843,0.4461 -0.9344,0.4461 -0.2647,0 -0.5311,-0.0871 -0.7531,-0.2664 -0.5157,-0.4163 -0.5961,-1.1718 -0.1798,-1.6875 0.2371,-0.2936 0.5842,-0.4461 0.9344,-0.4461 z m -31.4181,3.347 c 0.2648,0 0.5311,0.0872 0.7532,0.2664 0.5156,0.4164 0.5961,1.1719 0.1797,1.6875 -0.2371,0.2937 -0.5841,0.4462 -0.9343,0.4462 -0.2647,0 -0.5312,-0.0871 -0.7532,-0.2664 -0.5156,-0.4163 -0.5961,-1.1719 -0.1797,-1.6875 0.2371,-0.2936 0.5842,-0.4462 0.9343,-0.4462 z m 26.7608,2.4209 c 0.2647,0 0.5312,0.0871 0.7531,0.2664 0.5157,0.4163 0.5962,1.1718 0.1798,1.6875 -0.2371,0.2936 -0.5842,0.4462 -0.9344,0.4462 -0.2647,0 -0.5311,-0.0872 -0.7531,-0.2665 -0.5156,-0.4163 -0.5961,-1.1718 -0.1798,-1.6875 0.2371,-0.2936 0.5843,-0.4461 0.9344,-0.4461 z m -20.9928,2.2364 c 0.2646,0 0.5311,0.0872 0.753,0.2664 0.5158,0.4164 0.5962,1.1719 0.1798,1.6875 -0.237,0.2937 -0.5842,0.4462 -0.9343,0.4462 -0.2648,0 -0.5311,-0.0872 -0.7532,-0.2664 -0.5156,-0.4164 -0.596,-1.1719 -0.1798,-1.6875 0.2372,-0.2937 0.5842,-0.4462 0.9345,-0.4462 z m 14.4828,1.3101 c 0.2647,0 0.5311,0.0872 0.7531,0.2665 0.5156,0.4163 0.5961,1.1718 0.1798,1.6875 -0.2371,0.2936 -0.5842,0.4461 -0.9344,0.4461 -0.2647,0 -0.5311,-0.0871 -0.7532,-0.2664 -0.5156,-0.4163 -0.5961,-1.1718 -0.1797,-1.6875 0.2371,-0.2936 0.5843,-0.4462 0.9344,-0.4462 z m -7.3718,0.7854 c 0.2647,0 0.5312,0.0871 0.7532,0.2664 0.5156,0.4163 0.5961,1.1718 0.1797,1.6875 -0.2371,0.2936 -0.5842,0.4462 -0.9343,0.4462 -0.2647,0 -0.5311,-0.0872 -0.7532,-0.2664 -0.5156,-0.4164 -0.5961,-1.1719 -0.1797,-1.6875 0.2371,-0.2937 0.5842,-0.4462 0.9343,-0.4462 z m 1.7249,-40.2235 c -6.5654,0 -13.0737,2.8598 -17.5195,8.3658 -7.8065,9.6682 -6.2974,23.8342 3.3707,31.6408 4.1622,3.3607 9.1581,4.995 14.1212,4.995 6.5654,0 13.0737,-2.8598 17.5195,-8.3658 7.8066,-9.6682 6.2974,-23.8342 -3.3707,-31.6408 -4.1622,-3.3607 -9.1581,-4.995 -14.1212,-4.995 z"
       style="fill:#ffffff;stroke:#ffffff;stroke-width:12.1259;stroke-miterlimit:2;stroke-dasharray:none"
       clip-path="url(#clipPath2)"
       id="path34" />
    <path
       d="m 1324.769,316.9069 c 0.2647,0 0.5312,0.0871 0.7531,0.2664 0.5156,0.4163 0.5962,1.1719 0.1798,1.6875 -0.2371,0.2936 -0.5842,0.4461 -0.9343,0.4461 -0.2648,0 -0.5313,-0.0871 -0.7532,-0.2663 -0.5156,-0.4164 -0.5962,-1.1719 -0.1798,-1.6875 0.2372,-0.2937 0.5842,-0.4462 0.9344,-0.4462 z m 7.3833,0.6679 c 0.2647,0 0.5312,0.0871 0.7531,0.2664 0.5156,0.4163 0.5962,1.1719 0.1798,1.6875 -0.2372,0.2936 -0.5842,0.4462 -0.9344,0.4462 -0.2647,0 -0.5312,-0.0872 -0.7531,-0.2664 -0.5156,-0.4164 -0.5962,-1.1719 -0.1798,-1.6875 0.2371,-0.2937 0.5842,-0.4462 0.9344,-0.4462 z m -14.4602,1.5405 c 0.2647,0 0.5312,0.0871 0.7532,0.2664 0.5156,0.4163 0.5961,1.1718 0.1797,1.6875 -0.2371,0.2936 -0.5842,0.4462 -0.9343,0.4462 -0.2648,0 -0.5312,-0.0872 -0.7532,-0.2665 -0.5156,-0.4163 -0.5961,-1.1718 -0.1797,-1.6875 0.2371,-0.2936 0.5841,-0.4461 0.9343,-0.4461 z m 21.0258,1.902 c 0.2648,0 0.5312,0.0872 0.7532,0.2664 0.5156,0.4163 0.5962,1.1719 0.1798,1.6875 -0.2372,0.2937 -0.5842,0.4462 -0.9345,0.4462 -0.2646,0 -0.5311,-0.0872 -0.753,-0.2664 -0.5156,-0.4164 -0.5962,-1.1719 -0.1798,-1.6875 0.237,-0.2937 0.5842,-0.4462 0.9343,-0.4462 z m -26.7188,2.8464 c 0.2647,0 0.5312,0.0872 0.7531,0.2665 0.5156,0.4163 0.5962,1.1718 0.1798,1.6875 -0.2372,0.2936 -0.5842,0.4461 -0.9344,0.4461 -0.2647,0 -0.5312,-0.0871 -0.7531,-0.2664 -0.5156,-0.4163 -0.5962,-1.1718 -0.1798,-1.6875 0.2371,-0.2936 0.5842,-0.4462 0.9344,-0.4462 z m 31.4673,2.8467 c 0.2647,0 0.5312,0.0871 0.7532,0.2663 0.5156,0.4164 0.5961,1.1719 0.1797,1.6875 -0.2371,0.2937 -0.5842,0.4462 -0.9343,0.4462 -0.2647,0 -0.5312,-0.0871 -0.7532,-0.2664 -0.5156,-0.4163 -0.5961,-1.1719 -0.1797,-1.6875 0.2371,-0.2936 0.5842,-0.4461 0.9343,-0.4461 z m -34.9099,3.719 c 0.2648,0 0.5311,0.0872 0.7532,0.2664 0.5156,0.4164 0.5961,1.1719 0.1798,1.6875 -0.2372,0.2937 -0.5842,0.4462 -0.9344,0.4462 -0.2647,0 -0.5312,-0.0872 -0.7531,-0.2664 -0.5156,-0.4163 -0.5962,-1.1719 -0.1798,-1.6875 0.2371,-0.2937 0.5842,-0.4462 0.9343,-0.4462 z m 37.1183,3.3578 c 0.2648,0 0.5311,0.0872 0.7532,0.2664 0.5156,0.4164 0.596,1.1719 0.1798,1.6875 -0.2372,0.2937 -0.5842,0.4462 -0.9345,0.4462 -0.2646,0 -0.5311,-0.0872 -0.753,-0.2664 -0.5158,-0.4164 -0.5962,-1.1719 -0.1798,-1.6875 0.237,-0.2937 0.5842,-0.4462 0.9343,-0.4462 z m -37.7861,4.0255 c 0.2646,0 0.5311,0.0872 0.753,0.2664 0.5158,0.4164 0.5962,1.1719 0.1798,1.6875 -0.237,0.2937 -0.5842,0.4462 -0.9343,0.4462 -0.2648,0 -0.5311,-0.0872 -0.7532,-0.2664 -0.5156,-0.4164 -0.596,-1.1719 -0.1798,-1.6875 0.2372,-0.2937 0.5843,-0.4462 0.9345,-0.4462 z m 37.1183,3.3578 c 0.2646,0 0.5311,0.0872 0.753,0.2664 0.5156,0.4163 0.5962,1.1719 0.1798,1.6875 -0.237,0.2937 -0.5842,0.4462 -0.9343,0.4462 -0.2648,0 -0.5311,-0.0872 -0.7532,-0.2664 -0.5156,-0.4164 -0.5961,-1.1719 -0.1798,-1.6875 0.2372,-0.2937 0.5842,-0.4462 0.9345,-0.4462 z m -34.91,3.7191 c 0.2647,0 0.5312,0.0871 0.7532,0.2664 0.5156,0.4163 0.5961,1.1719 0.1797,1.6875 -0.2371,0.2936 -0.5842,0.4461 -0.9343,0.4461 -0.2648,0 -0.5311,-0.0871 -0.7532,-0.2663 -0.5156,-0.4164 -0.5961,-1.1719 -0.1797,-1.6875 0.2371,-0.2937 0.5842,-0.4462 0.9343,-0.4462 z m 31.4675,2.8466 c 0.2646,0 0.5311,0.0871 0.753,0.2664 0.5156,0.4163 0.5962,1.1718 0.1798,1.6875 -0.237,0.2936 -0.5842,0.4462 -0.9344,0.4462 -0.2647,0 -0.5312,-0.0872 -0.7531,-0.2665 -0.5156,-0.4163 -0.5962,-1.1718 -0.1798,-1.6875 0.2372,-0.2936 0.5842,-0.4461 0.9345,-0.4461 z m -26.7189,2.8464 c 0.2646,0 0.5311,0.0872 0.753,0.2664 0.5157,0.4164 0.5962,1.1719 0.1798,1.6875 -0.237,0.2937 -0.5842,0.4462 -0.9343,0.4462 -0.2648,0 -0.5312,-0.0872 -0.7532,-0.2664 -0.5156,-0.4163 -0.5961,-1.1719 -0.1798,-1.6875 0.2372,-0.2937 0.5843,-0.4462 0.9345,-0.4462 z m 21.0257,1.902 c 0.2648,0 0.5312,0.0872 0.7532,0.2665 0.5156,0.4163 0.5961,1.1718 0.1797,1.6875 -0.2371,0.2936 -0.5841,0.4461 -0.9343,0.4461 -0.2647,0 -0.5312,-0.0871 -0.7532,-0.2664 -0.5156,-0.4163 -0.5961,-1.1718 -0.1797,-1.6875 0.2371,-0.2936 0.5842,-0.4462 0.9343,-0.4462 z m -14.46,1.5405 c 0.2646,0 0.5311,0.0872 0.753,0.2664 0.5156,0.4164 0.5962,1.1719 0.1798,1.6875 -0.237,0.2937 -0.5842,0.4462 -0.9344,0.4462 -0.2647,0 -0.5312,-0.0871 -0.7531,-0.2664 -0.5156,-0.4163 -0.5962,-1.1719 -0.1798,-1.6875 0.2372,-0.2936 0.5842,-0.4462 0.9345,-0.4462 z m 7.3831,0.668 c 0.2648,0 0.5313,0.0871 0.7532,0.2663 0.5156,0.4164 0.5962,1.1719 0.1798,1.6875 -0.2372,0.2937 -0.5842,0.4462 -0.9344,0.4462 -0.2647,0 -0.5312,-0.0871 -0.7531,-0.2664 -0.5156,-0.4163 -0.5962,-1.1719 -0.1798,-1.6875 0.2371,-0.2936 0.5842,-0.4461 0.9343,-0.4461 z m -1.9996,-40.1939 c -6.5654,0 -13.0737,2.8598 -17.5195,8.3658 -7.8065,9.6682 -6.2974,23.8342 3.3707,31.6408 4.1622,3.3607 9.1581,4.995 14.1212,4.995 6.5654,0 13.0737,-2.8598 17.5195,-8.3658 7.8066,-9.6682 6.2974,-23.8342 -3.3707,-31.6408 -4.1622,-3.3607 -9.1581,-4.995 -14.1212,-4.995 z"
       style="fill:#ffffff;stroke:#ffffff;stroke-width:12.1259;stroke-miterlimit:2;stroke-dasharray:none"
       clip-path="url(#clipPath2)"
       id="path36" />
    <path
       d="m 1324.769,316.9069 c 0.2647,0 0.5312,0.0871 0.7531,0.2664 0.5156,0.4163 0.5962,1.1719 0.1798,1.6875 -0.2371,0.2936 -0.5842,0.4461 -0.9343,0.4461 -0.2648,0 -0.5313,-0.0871 -0.7532,-0.2663 -0.5156,-0.4164 -0.5962,-1.1719 -0.1798,-1.6875 0.2372,-0.2937 0.5842,-0.4462 0.9344,-0.4462 z m 7.3833,0.6679 c 0.2647,0 0.5312,0.0871 0.7531,0.2664 0.5156,0.4163 0.5962,1.1719 0.1798,1.6875 -0.2372,0.2936 -0.5842,0.4462 -0.9344,0.4462 -0.2647,0 -0.5312,-0.0872 -0.7531,-0.2664 -0.5156,-0.4164 -0.5962,-1.1719 -0.1798,-1.6875 0.2371,-0.2937 0.5842,-0.4462 0.9344,-0.4462 z m -14.4602,1.5405 c 0.2647,0 0.5312,0.0871 0.7532,0.2664 0.5156,0.4163 0.5961,1.1718 0.1797,1.6875 -0.2371,0.2936 -0.5842,0.4462 -0.9343,0.4462 -0.2648,0 -0.5312,-0.0872 -0.7532,-0.2665 -0.5156,-0.4163 -0.5961,-1.1718 -0.1797,-1.6875 0.2371,-0.2936 0.5841,-0.4461 0.9343,-0.4461 z m 21.0258,1.902 c 0.2648,0 0.5312,0.0872 0.7532,0.2664 0.5156,0.4163 0.5962,1.1719 0.1798,1.6875 -0.2372,0.2937 -0.5842,0.4462 -0.9345,0.4462 -0.2646,0 -0.5311,-0.0872 -0.753,-0.2664 -0.5156,-0.4164 -0.5962,-1.1719 -0.1798,-1.6875 0.237,-0.2937 0.5842,-0.4462 0.9343,-0.4462 z m -26.7188,2.8464 c 0.2647,0 0.5312,0.0872 0.7531,0.2665 0.5156,0.4163 0.5962,1.1718 0.1798,1.6875 -0.2372,0.2936 -0.5842,0.4461 -0.9344,0.4461 -0.2647,0 -0.5312,-0.0871 -0.7531,-0.2664 -0.5156,-0.4163 -0.5962,-1.1718 -0.1798,-1.6875 0.2371,-0.2936 0.5842,-0.4462 0.9344,-0.4462 z m 31.4673,2.8467 c 0.2647,0 0.5312,0.0871 0.7532,0.2663 0.5156,0.4164 0.5961,1.1719 0.1797,1.6875 -0.2371,0.2937 -0.5842,0.4462 -0.9343,0.4462 -0.2647,0 -0.5312,-0.0871 -0.7532,-0.2664 -0.5156,-0.4163 -0.5961,-1.1719 -0.1797,-1.6875 0.2371,-0.2936 0.5842,-0.4461 0.9343,-0.4461 z m -34.9099,3.719 c 0.2648,0 0.5311,0.0872 0.7532,0.2664 0.5156,0.4164 0.5961,1.1719 0.1798,1.6875 -0.2372,0.2937 -0.5842,0.4462 -0.9344,0.4462 -0.2647,0 -0.5312,-0.0872 -0.7531,-0.2664 -0.5156,-0.4163 -0.5962,-1.1719 -0.1798,-1.6875 0.2371,-0.2937 0.5842,-0.4462 0.9343,-0.4462 z m 37.1183,3.3578 c 0.2648,0 0.5311,0.0872 0.7532,0.2664 0.5156,0.4164 0.596,1.1719 0.1798,1.6875 -0.2372,0.2937 -0.5842,0.4462 -0.9345,0.4462 -0.2646,0 -0.5311,-0.0872 -0.753,-0.2664 -0.5158,-0.4164 -0.5962,-1.1719 -0.1798,-1.6875 0.237,-0.2937 0.5842,-0.4462 0.9343,-0.4462 z m -37.7861,4.0255 c 0.2646,0 0.5311,0.0872 0.753,0.2664 0.5158,0.4164 0.5962,1.1719 0.1798,1.6875 -0.237,0.2937 -0.5842,0.4462 -0.9343,0.4462 -0.2648,0 -0.5311,-0.0872 -0.7532,-0.2664 -0.5156,-0.4164 -0.596,-1.1719 -0.1798,-1.6875 0.2372,-0.2937 0.5843,-0.4462 0.9345,-0.4462 z m 37.1183,3.3578 c 0.2646,0 0.5311,0.0872 0.753,0.2664 0.5156,0.4163 0.5962,1.1719 0.1798,1.6875 -0.237,0.2937 -0.5842,0.4462 -0.9343,0.4462 -0.2648,0 -0.5311,-0.0872 -0.7532,-0.2664 -0.5156,-0.4164 -0.5961,-1.1719 -0.1798,-1.6875 0.2372,-0.2937 0.5842,-0.4462 0.9345,-0.4462 z m -34.91,3.7191 c 0.2647,0 0.5312,0.0871 0.7532,0.2664 0.5156,0.4163 0.5961,1.1719 0.1797,1.6875 -0.2371,0.2936 -0.5842,0.4461 -0.9343,0.4461 -0.2648,0 -0.5311,-0.0871 -0.7532,-0.2663 -0.5156,-0.4164 -0.5961,-1.1719 -0.1797,-1.6875 0.2371,-0.2937 0.5842,-0.4462 0.9343,-0.4462 z m 31.4675,2.8466 c 0.2646,0 0.5311,0.0871 0.753,0.2664 0.5156,0.4163 0.5962,1.1718 0.1798,1.6875 -0.237,0.2936 -0.5842,0.4462 -0.9344,0.4462 -0.2647,0 -0.5312,-0.0872 -0.7531,-0.2665 -0.5156,-0.4163 -0.5962,-1.1718 -0.1798,-1.6875 0.2372,-0.2936 0.5842,-0.4461 0.9345,-0.4461 z m -26.7189,2.8464 c 0.2646,0 0.5311,0.0872 0.753,0.2664 0.5157,0.4164 0.5962,1.1719 0.1798,1.6875 -0.237,0.2937 -0.5842,0.4462 -0.9343,0.4462 -0.2648,0 -0.5312,-0.0872 -0.7532,-0.2664 -0.5156,-0.4163 -0.5961,-1.1719 -0.1798,-1.6875 0.2372,-0.2937 0.5843,-0.4462 0.9345,-0.4462 z m 21.0257,1.902 c 0.2648,0 0.5312,0.0872 0.7532,0.2665 0.5156,0.4163 0.5961,1.1718 0.1797,1.6875 -0.2371,0.2936 -0.5841,0.4461 -0.9343,0.4461 -0.2647,0 -0.5312,-0.0871 -0.7532,-0.2664 -0.5156,-0.4163 -0.5961,-1.1718 -0.1797,-1.6875 0.2371,-0.2936 0.5842,-0.4462 0.9343,-0.4462 z m -14.46,1.5405 c 0.2646,0 0.5311,0.0872 0.753,0.2664 0.5156,0.4164 0.5962,1.1719 0.1798,1.6875 -0.237,0.2937 -0.5842,0.4462 -0.9344,0.4462 -0.2647,0 -0.5312,-0.0871 -0.7531,-0.2664 -0.5156,-0.4163 -0.5962,-1.1719 -0.1798,-1.6875 0.2372,-0.2936 0.5842,-0.4462 0.9345,-0.4462 z m 7.3831,0.668 c 0.2648,0 0.5313,0.0871 0.7532,0.2663 0.5156,0.4164 0.5962,1.1719 0.1798,1.6875 -0.2372,0.2937 -0.5842,0.4462 -0.9344,0.4462 -0.2647,0 -0.5312,-0.0871 -0.7531,-0.2664 -0.5156,-0.4163 -0.5962,-1.1719 -0.1798,-1.6875 0.2371,-0.2936 0.5842,-0.4461 0.9343,-0.4461 z m -1.9996,-40.1939 c -6.5654,0 -13.0737,2.8598 -17.5195,8.3658 -7.8065,9.6682 -6.2974,23.8342 3.3707,31.6408 4.1622,3.3607 9.1581,4.995 14.1212,4.995 6.5654,0 13.0737,-2.8598 17.5195,-8.3658 7.8066,-9.6682 6.2974,-23.8342 -3.3707,-31.6408 -4.1622,-3.3607 -9.1581,-4.995 -14.1212,-4.995 z"
       style="fill:#ffffff;stroke:#ffffff;stroke-width:12.1259;stroke-miterlimit:2;stroke-dasharray:none"
       clip-path="url(#clipPath2)"
       id="path38" />
    <path
       d="m 1326.9821,9.9889 c 72.1309,0 144.7367,23.7508 205.2274,72.5938 140.5107,113.455 162.4438,319.3349 48.9889,459.8457 -64.6121,80.0202 -159.1997,121.5827 -254.6184,121.5827 -72.131,0 -144.7367,-23.7508 -205.2275,-72.5938 C 980.8418,477.9623 958.9087,272.0824 1072.3636,131.5716 1136.9757,51.5514 1231.5634,9.9889 1326.9821,9.9889 Z m 0.01,-10.0004 c -98.3366,0 -195.8169,42.8336 -262.4048,125.3009 -116.9246,144.8077 -94.3208,356.9837 50.487,473.9082 62.3405,50.3367 137.1667,74.8139 211.5035,74.8139 98.3365,0 195.8168,-42.8336 262.4047,-125.3009 116.9246,-144.8077 94.3208,-356.9837 -50.487,-473.9083 C 1476.1511,24.4657 1401.325,-0.0115 1326.9882,-0.0115 Z"
       style="fill:#ffffff;stroke:#ffffff;stroke-width:12.1259;stroke-miterlimit:2;stroke-dasharray:none"
       clip-path="url(#clipPath2)"
       id="path40" />
    <path
       d="m 1326.9821,9.9889 c 72.1309,0 144.7367,23.7508 205.2274,72.5938 140.5107,113.455 162.4438,319.3349 48.9889,459.8457 -64.6121,80.0202 -159.1997,121.5827 -254.6184,121.5827 -72.131,0 -144.7367,-23.7508 -205.2275,-72.5938 C 980.8418,477.9623 958.9087,272.0824 1072.3636,131.5716 1136.9757,51.5514 1231.5634,9.9889 1326.9821,9.9889 Z m 0.01,-10.0004 c -98.3366,0 -195.8169,42.8336 -262.4048,125.3009 -116.9246,144.8077 -94.3208,356.9837 50.487,473.9082 62.3405,50.3367 137.1667,74.8139 211.5035,74.8139 98.3365,0 195.8168,-42.8336 262.4047,-125.3009 116.9246,-144.8077 94.3208,-356.9837 -50.487,-473.9083 C 1476.1511,24.4657 1401.325,-0.0115 1326.9882,-0.0115 Z"
       style="fill:#ffffff;stroke:#ffffff;stroke-width:12.1259;stroke-miterlimit:2;stroke-dasharray:none"
       clip-path="url(#clipPath2)"
       id="path42" />
    <path
       d="m 1326.9758,19.9892 c 69.9252,0 140.3107,23.0245 198.9514,70.3738 136.2138,109.9854 157.4761,309.5694 47.4908,445.7832 -62.6361,77.5731 -154.3312,117.8646 -246.8318,117.8646 -69.9252,0 -140.3107,-23.0245 -198.9514,-70.3738 C 991.421,473.6516 970.1586,274.0676 1080.144,137.8538 1142.7802,60.2807 1234.4752,19.9892 1326.9758,19.9892 Z m 0.01,-10.0003 c -95.4187,0 -190.0064,41.5625 -254.6185,121.5827 -113.4549,140.5108 -91.5218,346.3907 48.9889,459.8457 60.4908,48.843 133.0965,72.5938 205.2275,72.5938 95.4187,0 190.0063,-41.5625 254.6184,-121.5827 C 1694.6533,401.9176 1672.7202,196.0377 1532.2095,82.5827 1471.7188,33.7397 1399.113,9.9889 1326.9821,9.9889 Z"
       style="fill:#ffffff;stroke:#ffffff;stroke-width:12.1259;stroke-miterlimit:2;stroke-dasharray:none"
       clip-path="url(#clipPath2)"
       id="path44" />
    <path
       d="m 1326.9758,19.9892 c 69.9252,0 140.3107,23.0245 198.9514,70.3738 136.2138,109.9854 157.4761,309.5694 47.4908,445.7832 -62.6361,77.5731 -154.3312,117.8646 -246.8318,117.8646 -69.9252,0 -140.3107,-23.0245 -198.9514,-70.3738 C 991.421,473.6516 970.1586,274.0676 1080.144,137.8538 1142.7802,60.2807 1234.4752,19.9892 1326.9758,19.9892 Z m 0.01,-10.0003 c -95.4187,0 -190.0064,41.5625 -254.6185,121.5827 -113.4549,140.5108 -91.5218,346.3907 48.9889,459.8457 60.4908,48.843 133.0965,72.5938 205.2275,72.5938 95.4187,0 190.0063,-41.5625 254.6184,-121.5827 C 1694.6533,401.9176 1672.7202,196.0377 1532.2095,82.5827 1471.7188,33.7397 1399.113,9.9889 1326.9821,9.9889 Z"
       style="fill:#ffffff;stroke:#ffffff;stroke-width:12.1259;stroke-miterlimit:2;stroke-dasharray:none"
       clip-path="url(#clipPath2)"
       id="path46" />
    <path
       d="m 1326.9565,51.3903 c 62.9988,0 126.4124,20.7439 179.2445,63.403 122.7214,99.091 141.8776,278.9054 42.7867,401.6267 -56.4318,69.8892 -139.0442,106.1897 -222.3822,106.1897 -62.9988,0 -126.4124,-20.7439 -179.2445,-63.403 C 1024.6396,460.1157 1005.4834,280.3013 1104.5743,157.58 1161.0061,87.6908 1243.6185,51.3903 1326.9565,51.3903 Z m 0.019,-31.4011 c -92.5006,0 -184.1956,40.2915 -246.8318,117.8646 -109.9854,136.2138 -88.723,335.7978 47.4908,445.7832 58.6407,47.3493 129.0262,70.3738 198.9514,70.3738 92.5006,0 184.1957,-40.2915 246.8318,-117.8646 C 1683.4033,399.9324 1662.141,200.3484 1525.9272,90.363 1467.2865,43.0137 1396.901,19.9892 1326.9758,19.9892 Z"
       style="fill:#ffffff;stroke:#ffffff;stroke-width:12.1259;stroke-miterlimit:2;stroke-dasharray:none"
       clip-path="url(#clipPath2)"
       id="path48" />
    <path
       d="m 1326.9697,29.9896 c 67.7193,0 135.8844,22.2982 192.6753,68.1538 131.9169,106.5158 152.5084,299.8037 45.9926,431.7206 -60.6602,75.1259 -149.4627,114.1464 -239.0453,114.1464 -67.7193,0 -135.8844,-22.2982 -192.6753,-68.1538 C 1002.0002,469.3408 981.4086,276.0529 1087.9244,144.136 1148.5846,69.01 1237.3871,29.9896 1326.9697,29.9896 Z m 0.01,-10.0004 c -92.5006,0 -184.1956,40.2915 -246.8318,117.8646 -109.9854,136.2138 -88.723,335.7978 47.4908,445.7832 58.6407,47.3493 129.0262,70.3738 198.9514,70.3738 92.5006,0 184.1957,-40.2915 246.8318,-117.8646 C 1683.4033,399.9324 1662.141,200.3484 1525.9272,90.363 1467.2865,43.0137 1396.901,19.9892 1326.9758,19.9892 Z"
       style="fill:#ffffff;stroke:#ffffff;stroke-width:12.1259;stroke-miterlimit:2;stroke-dasharray:none"
       clip-path="url(#clipPath2)"
       id="path50" />
    <path
       d="m 1326.9697,29.9896 c 67.7193,0 135.8844,22.2982 192.6753,68.1538 131.9169,106.5158 152.5084,299.8037 45.9926,431.7206 -60.6602,75.1259 -149.4627,114.1464 -239.0453,114.1464 -67.7193,0 -135.8844,-22.2982 -192.6753,-68.1538 C 1002.0002,469.3408 981.4086,276.0529 1087.9244,144.136 1148.5846,69.01 1237.3871,29.9896 1326.9697,29.9896 Z m 0.01,-10.0004 c -92.5006,0 -184.1956,40.2915 -246.8318,117.8646 -109.9854,136.2138 -88.723,335.7978 47.4908,445.7832 58.6407,47.3493 129.0262,70.3738 198.9514,70.3738 92.5006,0 184.1957,-40.2915 246.8318,-117.8646 C 1683.4033,399.9324 1662.141,200.3484 1525.9272,90.363 1467.2865,43.0137 1396.901,19.9892 1326.9758,19.9892 Z"
       style="fill:#ffffff;stroke:#ffffff;stroke-width:12.1259;stroke-miterlimit:2;stroke-dasharray:none"
       clip-path="url(#clipPath2)"
       id="path52" />
    <path
       d="m 1326.9565,51.3903 c 62.9988,0 126.4124,20.7439 179.2445,63.403 122.7214,99.091 141.8776,278.9054 42.7867,401.6267 -56.4318,69.8892 -139.0442,106.1897 -222.3822,106.1897 -62.9988,0 -126.4124,-20.7439 -179.2445,-63.403 C 1024.6396,460.1157 1005.4834,280.3013 1104.5743,157.58 1161.0061,87.6908 1243.6185,51.3903 1326.9565,51.3903 Z m 0.019,-31.4011 c -92.5006,0 -184.1956,40.2915 -246.8318,117.8646 -109.9854,136.2138 -88.723,335.7978 47.4908,445.7832 58.6407,47.3493 129.0262,70.3738 198.9514,70.3738 92.5006,0 184.1957,-40.2915 246.8318,-117.8646 C 1683.4033,399.9324 1662.141,200.3484 1525.9272,90.363 1467.2865,43.0137 1396.901,19.9892 1326.9758,19.9892 Z"
       style="fill:#ffffff;stroke:#ffffff;stroke-width:12.1259;stroke-miterlimit:2;stroke-dasharray:none"
       clip-path="url(#clipPath2)"
       id="path54" />
    <path
       d="m 1326.781,332.5 c -2.4852,0 -4.5,2.0147 -4.5,4.5 0,2.4853 2.0148,4.5 4.5,4.5 2.4852,0 4.5,-2.0147 4.5,-4.5 0,-2.4853 -2.0148,-4.5 -4.5,-4.5 z"
       style="fill:#ffffff;stroke:#ffffff;stroke-width:12.1259;stroke-miterlimit:2;stroke-dasharray:none"
       clip-path="url(#clipPath2)"
       id="path56" />
    <path
       d="m 338.7125,316.8772 c 0.2647,0 0.5312,0.0872 0.7532,0.2664 0.5156,0.4164 0.5961,1.1719 0.1797,1.6875 -0.2371,0.2937 -0.5842,0.4462 -0.9343,0.4462 -0.2647,0 -0.5312,-0.0871 -0.7532,-0.2664 -0.5156,-0.4163 -0.5961,-1.1718 -0.1798,-1.6875 0.2372,-0.2936 0.5843,-0.4462 0.9344,-0.4462 z m -7.3717,0.7854 c 0.2647,0 0.5311,0.0871 0.7531,0.2664 0.5157,0.4163 0.5962,1.1718 0.1798,1.6875 -0.2371,0.2936 -0.5842,0.4462 -0.9344,0.4462 -0.2647,0 -0.5311,-0.0872 -0.7531,-0.2665 -0.5156,-0.4163 -0.5961,-1.1718 -0.1798,-1.6875 0.2371,-0.2936 0.5843,-0.4461 0.9344,-0.4461 z m 14.4828,1.3101 c 0.2647,0 0.5312,0.0872 0.7532,0.2664 0.5156,0.4164 0.5961,1.1719 0.1797,1.6875 -0.2371,0.2937 -0.5842,0.4462 -0.9343,0.4462 -0.2647,0 -0.5312,-0.0872 -0.7532,-0.2664 -0.5156,-0.4164 -0.5961,-1.1719 -0.1797,-1.6875 0.2371,-0.2937 0.5842,-0.4462 0.9343,-0.4462 z m -20.9929,2.2364 c 0.2648,0 0.5312,0.0872 0.7532,0.2665 0.5156,0.4163 0.5961,1.1718 0.1798,1.6875 -0.2371,0.2936 -0.5843,0.4461 -0.9344,0.4461 -0.2647,0 -0.5311,-0.0871 -0.7531,-0.2664 -0.5157,-0.4163 -0.5962,-1.1718 -0.1798,-1.6875 0.2371,-0.2936 0.5842,-0.4462 0.9343,-0.4462 z m 26.7609,2.4209 c 0.2647,0 0.5311,0.0871 0.7531,0.2664 0.5156,0.4163 0.5961,1.1719 0.1797,1.6875 -0.237,0.2936 -0.5842,0.4462 -0.9343,0.4462 -0.2647,0 -0.5312,-0.0872 -0.7532,-0.2664 -0.5156,-0.4164 -0.5961,-1.1719 -0.1797,-1.6875 0.2371,-0.2937 0.5842,-0.4462 0.9344,-0.4462 z m -31.4181,3.3471 c 0.2647,0 0.5311,0.0871 0.7531,0.2664 0.5157,0.4163 0.5961,1.1718 0.1798,1.6875 -0.2371,0.2936 -0.5842,0.4461 -0.9344,0.4461 -0.2647,0 -0.5311,-0.0871 -0.7531,-0.2664 -0.5156,-0.4163 -0.5961,-1.1718 -0.1798,-1.6875 0.2371,-0.2936 0.5842,-0.4461 0.9344,-0.4461 z m 34.9646,3.1629 c 0.2647,0 0.5312,0.0872 0.7532,0.2664 0.5156,0.4164 0.5961,1.1719 0.1797,1.6875 -0.2371,0.2937 -0.5842,0.4462 -0.9343,0.4462 -0.2648,0 -0.5312,-0.0872 -0.7532,-0.2664 -0.5156,-0.4163 -0.5961,-1.1719 -0.1797,-1.6875 0.2371,-0.2937 0.5842,-0.4462 0.9343,-0.4462 z m -37.0601,3.9482 c 0.2647,0 0.5312,0.0871 0.7531,0.2664 0.5157,0.4163 0.5961,1.1718 0.1798,1.6875 -0.2371,0.2936 -0.5842,0.4462 -0.9344,0.4462 -0.2647,0 -0.5311,-0.0872 -0.7531,-0.2664 -0.5156,-0.4164 -0.5961,-1.1719 -0.1798,-1.6876 0.2371,-0.2936 0.5842,-0.4461 0.9344,-0.4461 z m 37.8455,3.4235 c 0.2647,0 0.5311,0.0872 0.7531,0.2664 0.5156,0.4164 0.5961,1.1719 0.1798,1.6876 -0.2371,0.2936 -0.5842,0.4461 -0.9344,0.4461 -0.2647,0 -0.5312,-0.0871 -0.7531,-0.2664 -0.5157,-0.4163 -0.5961,-1.1718 -0.1798,-1.6875 0.2371,-0.2936 0.5842,-0.4462 0.9344,-0.4462 z m -37.0602,3.9482 c 0.2648,0 0.5312,0.0872 0.7532,0.2664 0.5156,0.4163 0.5961,1.1719 0.1797,1.6875 -0.2371,0.2937 -0.5842,0.4462 -0.9343,0.4462 -0.2647,0 -0.5312,-0.0872 -0.7532,-0.2664 -0.5156,-0.4164 -0.5961,-1.1719 -0.1797,-1.6875 0.2371,-0.2937 0.5842,-0.4462 0.9343,-0.4462 z m 34.9647,3.163 c 0.2647,0 0.5311,0.0871 0.7531,0.2664 0.5156,0.4163 0.5961,1.1718 0.1798,1.6875 -0.2371,0.2936 -0.5842,0.4461 -0.9344,0.4461 -0.2647,0 -0.5311,-0.0871 -0.7531,-0.2664 -0.5157,-0.4163 -0.5961,-1.1718 -0.1798,-1.6875 0.2371,-0.2936 0.5842,-0.4461 0.9344,-0.4461 z m -31.4181,3.347 c 0.2647,0 0.5312,0.0872 0.7532,0.2664 0.5156,0.4164 0.5961,1.1719 0.1797,1.6875 -0.2371,0.2937 -0.5842,0.4462 -0.9344,0.4462 -0.2647,0 -0.5311,-0.0871 -0.7531,-0.2664 -0.5156,-0.4163 -0.5961,-1.1719 -0.1797,-1.6875 0.237,-0.2936 0.5842,-0.4462 0.9343,-0.4462 z m 26.7608,2.4209 c 0.2647,0 0.5311,0.0871 0.7531,0.2664 0.5157,0.4163 0.5962,1.1718 0.1798,1.6875 -0.2371,0.2936 -0.5842,0.4462 -0.9343,0.4462 -0.2648,0 -0.5312,-0.0872 -0.7532,-0.2665 -0.5156,-0.4163 -0.5961,-1.1718 -0.1798,-1.6875 0.2371,-0.2936 0.5843,-0.4461 0.9344,-0.4461 z m -20.9929,2.2364 c 0.2647,0 0.5312,0.0872 0.7532,0.2664 0.5156,0.4164 0.5961,1.1719 0.1797,1.6875 -0.2371,0.2937 -0.5842,0.4462 -0.9343,0.4462 -0.2647,0 -0.5312,-0.0872 -0.7532,-0.2664 -0.5156,-0.4164 -0.5961,-1.1719 -0.1797,-1.6875 0.2371,-0.2937 0.5842,-0.4462 0.9343,-0.4462 z m 14.4829,1.3101 c 0.2647,0 0.5311,0.0872 0.7531,0.2665 0.5156,0.4163 0.5961,1.1718 0.1798,1.6875 -0.2371,0.2936 -0.5843,0.4461 -0.9344,0.4461 -0.2647,0 -0.5311,-0.0871 -0.7531,-0.2664 -0.5157,-0.4163 -0.5962,-1.1718 -0.1798,-1.6875 0.2371,-0.2936 0.5842,-0.4462 0.9344,-0.4462 z m -7.3718,0.7854 c 0.2647,0 0.5312,0.0871 0.7532,0.2664 0.5156,0.4163 0.5961,1.1718 0.1798,1.6875 -0.2372,0.2936 -0.5843,0.4462 -0.9344,0.4462 -0.2647,0 -0.5312,-0.0872 -0.7532,-0.2664 -0.5156,-0.4164 -0.5961,-1.1719 -0.1797,-1.6875 0.2371,-0.2937 0.5842,-0.4462 0.9343,-0.4462 z m 1.7249,-40.2235 c -6.5655,0 -13.0738,2.8598 -17.5196,8.3658 -7.8065,9.6682 -6.2974,23.8342 3.3708,31.6408 4.1622,3.3607 9.158,4.995 14.1212,4.995 6.5655,0 13.0738,-2.8598 17.5196,-8.3658 7.8065,-9.6682 6.2974,-23.8342 -3.3708,-31.6408 -4.1622,-3.3607 -9.158,-4.995 -14.1212,-4.995 z"
       style="fill:#ffffff;stroke:#ffffff;stroke-width:12.1259;stroke-miterlimit:2;stroke-dasharray:none"
       clip-path="url(#clipPath2)"
       id="path58" />
    <path
       d="m 338.7125,316.8772 c 0.2647,0 0.5312,0.0872 0.7532,0.2664 0.5156,0.4164 0.5961,1.1719 0.1797,1.6875 -0.2371,0.2937 -0.5842,0.4462 -0.9343,0.4462 -0.2647,0 -0.5312,-0.0871 -0.7532,-0.2664 -0.5156,-0.4163 -0.5961,-1.1718 -0.1798,-1.6875 0.2372,-0.2936 0.5843,-0.4462 0.9344,-0.4462 z m -7.3717,0.7854 c 0.2647,0 0.5311,0.0871 0.7531,0.2664 0.5157,0.4163 0.5962,1.1718 0.1798,1.6875 -0.2371,0.2936 -0.5842,0.4462 -0.9344,0.4462 -0.2647,0 -0.5311,-0.0872 -0.7531,-0.2665 -0.5156,-0.4163 -0.5961,-1.1718 -0.1798,-1.6875 0.2371,-0.2936 0.5843,-0.4461 0.9344,-0.4461 z m 14.4828,1.3101 c 0.2647,0 0.5312,0.0872 0.7532,0.2664 0.5156,0.4164 0.5961,1.1719 0.1797,1.6875 -0.2371,0.2937 -0.5842,0.4462 -0.9343,0.4462 -0.2647,0 -0.5312,-0.0872 -0.7532,-0.2664 -0.5156,-0.4164 -0.5961,-1.1719 -0.1797,-1.6875 0.2371,-0.2937 0.5842,-0.4462 0.9343,-0.4462 z m -20.9929,2.2364 c 0.2648,0 0.5312,0.0872 0.7532,0.2665 0.5156,0.4163 0.5961,1.1718 0.1798,1.6875 -0.2371,0.2936 -0.5843,0.4461 -0.9344,0.4461 -0.2647,0 -0.5311,-0.0871 -0.7531,-0.2664 -0.5157,-0.4163 -0.5962,-1.1718 -0.1798,-1.6875 0.2371,-0.2936 0.5842,-0.4462 0.9343,-0.4462 z m 26.7609,2.4209 c 0.2647,0 0.5311,0.0871 0.7531,0.2664 0.5156,0.4163 0.5961,1.1719 0.1797,1.6875 -0.237,0.2936 -0.5842,0.4462 -0.9343,0.4462 -0.2647,0 -0.5312,-0.0872 -0.7532,-0.2664 -0.5156,-0.4164 -0.5961,-1.1719 -0.1797,-1.6875 0.2371,-0.2937 0.5842,-0.4462 0.9344,-0.4462 z m -31.4181,3.3471 c 0.2647,0 0.5311,0.0871 0.7531,0.2664 0.5157,0.4163 0.5961,1.1718 0.1798,1.6875 -0.2371,0.2936 -0.5842,0.4461 -0.9344,0.4461 -0.2647,0 -0.5311,-0.0871 -0.7531,-0.2664 -0.5156,-0.4163 -0.5961,-1.1718 -0.1798,-1.6875 0.2371,-0.2936 0.5842,-0.4461 0.9344,-0.4461 z m 34.9646,3.1629 c 0.2647,0 0.5312,0.0872 0.7532,0.2664 0.5156,0.4164 0.5961,1.1719 0.1797,1.6875 -0.2371,0.2937 -0.5842,0.4462 -0.9343,0.4462 -0.2648,0 -0.5312,-0.0872 -0.7532,-0.2664 -0.5156,-0.4163 -0.5961,-1.1719 -0.1797,-1.6875 0.2371,-0.2937 0.5842,-0.4462 0.9343,-0.4462 z m -37.0601,3.9482 c 0.2647,0 0.5312,0.0871 0.7531,0.2664 0.5157,0.4163 0.5961,1.1718 0.1798,1.6875 -0.2371,0.2936 -0.5842,0.4462 -0.9344,0.4462 -0.2647,0 -0.5311,-0.0872 -0.7531,-0.2664 -0.5156,-0.4164 -0.5961,-1.1719 -0.1798,-1.6876 0.2371,-0.2936 0.5842,-0.4461 0.9344,-0.4461 z m 37.8455,3.4235 c 0.2647,0 0.5311,0.0872 0.7531,0.2664 0.5156,0.4164 0.5961,1.1719 0.1798,1.6876 -0.2371,0.2936 -0.5842,0.4461 -0.9344,0.4461 -0.2647,0 -0.5312,-0.0871 -0.7531,-0.2664 -0.5157,-0.4163 -0.5961,-1.1718 -0.1798,-1.6875 0.2371,-0.2936 0.5842,-0.4462 0.9344,-0.4462 z m -37.0602,3.9482 c 0.2648,0 0.5312,0.0872 0.7532,0.2664 0.5156,0.4163 0.5961,1.1719 0.1797,1.6875 -0.2371,0.2937 -0.5842,0.4462 -0.9343,0.4462 -0.2647,0 -0.5312,-0.0872 -0.7532,-0.2664 -0.5156,-0.4164 -0.5961,-1.1719 -0.1797,-1.6875 0.2371,-0.2937 0.5842,-0.4462 0.9343,-0.4462 z m 34.9647,3.163 c 0.2647,0 0.5311,0.0871 0.7531,0.2664 0.5156,0.4163 0.5961,1.1718 0.1798,1.6875 -0.2371,0.2936 -0.5842,0.4461 -0.9344,0.4461 -0.2647,0 -0.5311,-0.0871 -0.7531,-0.2664 -0.5157,-0.4163 -0.5961,-1.1718 -0.1798,-1.6875 0.2371,-0.2936 0.5842,-0.4461 0.9344,-0.4461 z m -31.4181,3.347 c 0.2647,0 0.5312,0.0872 0.7532,0.2664 0.5156,0.4164 0.5961,1.1719 0.1797,1.6875 -0.2371,0.2937 -0.5842,0.4462 -0.9344,0.4462 -0.2647,0 -0.5311,-0.0871 -0.7531,-0.2664 -0.5156,-0.4163 -0.5961,-1.1719 -0.1797,-1.6875 0.237,-0.2936 0.5842,-0.4462 0.9343,-0.4462 z m 26.7608,2.4209 c 0.2647,0 0.5311,0.0871 0.7531,0.2664 0.5157,0.4163 0.5962,1.1718 0.1798,1.6875 -0.2371,0.2936 -0.5842,0.4462 -0.9343,0.4462 -0.2648,0 -0.5312,-0.0872 -0.7532,-0.2665 -0.5156,-0.4163 -0.5961,-1.1718 -0.1798,-1.6875 0.2371,-0.2936 0.5843,-0.4461 0.9344,-0.4461 z m -20.9929,2.2364 c 0.2647,0 0.5312,0.0872 0.7532,0.2664 0.5156,0.4164 0.5961,1.1719 0.1797,1.6875 -0.2371,0.2937 -0.5842,0.4462 -0.9343,0.4462 -0.2647,0 -0.5312,-0.0872 -0.7532,-0.2664 -0.5156,-0.4164 -0.5961,-1.1719 -0.1797,-1.6875 0.2371,-0.2937 0.5842,-0.4462 0.9343,-0.4462 z m 14.4829,1.3101 c 0.2647,0 0.5311,0.0872 0.7531,0.2665 0.5156,0.4163 0.5961,1.1718 0.1798,1.6875 -0.2371,0.2936 -0.5843,0.4461 -0.9344,0.4461 -0.2647,0 -0.5311,-0.0871 -0.7531,-0.2664 -0.5157,-0.4163 -0.5962,-1.1718 -0.1798,-1.6875 0.2371,-0.2936 0.5842,-0.4462 0.9344,-0.4462 z m -7.3718,0.7854 c 0.2647,0 0.5312,0.0871 0.7532,0.2664 0.5156,0.4163 0.5961,1.1718 0.1798,1.6875 -0.2372,0.2936 -0.5843,0.4462 -0.9344,0.4462 -0.2647,0 -0.5312,-0.0872 -0.7532,-0.2664 -0.5156,-0.4164 -0.5961,-1.1719 -0.1797,-1.6875 0.2371,-0.2937 0.5842,-0.4462 0.9343,-0.4462 z m 1.7249,-40.2235 c -6.5655,0 -13.0738,2.8598 -17.5196,8.3658 -7.8065,9.6682 -6.2974,23.8342 3.3708,31.6408 4.1622,3.3607 9.158,4.995 14.1212,4.995 6.5655,0 13.0738,-2.8598 17.5196,-8.3658 7.8065,-9.6682 6.2974,-23.8342 -3.3708,-31.6408 -4.1622,-3.3607 -9.158,-4.995 -14.1212,-4.995 z"
       style="fill:#ffffff;stroke:#ffffff;stroke-width:12.1259;stroke-miterlimit:2;stroke-dasharray:none"
       clip-path="url(#clipPath2)"
       id="path60" />
    <path
       d="m 334.988,316.9069 c 0.2647,0 0.5311,0.0871 0.7531,0.2664 0.5156,0.4163 0.5961,1.1719 0.1798,1.6875 -0.2371,0.2936 -0.5842,0.4461 -0.9344,0.4461 -0.2647,0 -0.5311,-0.0871 -0.7531,-0.2663 -0.5157,-0.4164 -0.5961,-1.1719 -0.1798,-1.6875 0.2371,-0.2937 0.5842,-0.4462 0.9344,-0.4462 z m 7.3833,0.6679 c 0.2647,0 0.5311,0.0871 0.7531,0.2664 0.5156,0.4163 0.5961,1.1719 0.1798,1.6875 -0.2371,0.2936 -0.5842,0.4462 -0.9344,0.4462 -0.2647,0 -0.5311,-0.0872 -0.7531,-0.2664 -0.5157,-0.4164 -0.5962,-1.1719 -0.1798,-1.6875 0.2371,-0.2937 0.5842,-0.4462 0.9344,-0.4462 z m -14.4602,1.5405 c 0.2647,0 0.5312,0.0871 0.7531,0.2664 0.5157,0.4163 0.5962,1.1718 0.1798,1.6875 -0.2371,0.2936 -0.5842,0.4462 -0.9343,0.4462 -0.2647,0 -0.5312,-0.0872 -0.7532,-0.2665 -0.5156,-0.4163 -0.5961,-1.1718 -0.1798,-1.6875 0.2372,-0.2936 0.5843,-0.4461 0.9344,-0.4461 z m 21.0259,1.902 c 0.2647,0 0.5311,0.0872 0.7531,0.2664 0.5156,0.4163 0.5961,1.1719 0.1797,1.6875 -0.237,0.2937 -0.5842,0.4462 -0.9343,0.4462 -0.2647,0 -0.5312,-0.0872 -0.7532,-0.2664 -0.5156,-0.4164 -0.5961,-1.1719 -0.1797,-1.6875 0.2371,-0.2937 0.5842,-0.4462 0.9344,-0.4462 z m -26.7189,2.8464 c 0.2647,0 0.5311,0.0872 0.7531,0.2665 0.5156,0.4163 0.5961,1.1718 0.1798,1.6875 -0.2371,0.2936 -0.5842,0.4461 -0.9344,0.4461 -0.2647,0 -0.5311,-0.0871 -0.7531,-0.2664 -0.5157,-0.4163 -0.5962,-1.1718 -0.1798,-1.6875 0.2371,-0.2936 0.5842,-0.4462 0.9344,-0.4462 z m 31.4673,2.8467 c 0.2647,0 0.5312,0.0871 0.7532,0.2663 0.5156,0.4164 0.5961,1.1719 0.1797,1.6875 -0.2371,0.2937 -0.5842,0.4462 -0.9343,0.4462 -0.2647,0 -0.5312,-0.0871 -0.7532,-0.2664 -0.5156,-0.4163 -0.5961,-1.1719 -0.1797,-1.6875 0.2371,-0.2936 0.5842,-0.4461 0.9343,-0.4461 z m -34.9099,3.719 c 0.2648,0 0.5312,0.0872 0.7532,0.2664 0.5156,0.4164 0.5961,1.1719 0.1798,1.6875 -0.2372,0.2937 -0.5843,0.4462 -0.9344,0.4462 -0.2647,0 -0.5312,-0.0872 -0.7531,-0.2664 -0.5157,-0.4163 -0.5962,-1.1719 -0.1798,-1.6875 0.2371,-0.2937 0.5842,-0.4462 0.9343,-0.4462 z m 37.1183,3.3578 c 0.2647,0 0.5312,0.0872 0.7531,0.2664 0.5157,0.4164 0.5962,1.1719 0.1798,1.6875 -0.2371,0.2937 -0.5842,0.4462 -0.9343,0.4462 -0.2647,0 -0.5312,-0.0872 -0.7532,-0.2664 -0.5156,-0.4164 -0.5961,-1.1719 -0.1798,-1.6875 0.2372,-0.2937 0.5843,-0.4462 0.9344,-0.4462 z m -37.7862,4.0255 c 0.2647,0 0.5312,0.0872 0.7532,0.2664 0.5156,0.4164 0.5961,1.1719 0.1798,1.6875 -0.2372,0.2937 -0.5843,0.4462 -0.9344,0.4462 -0.2647,0 -0.5312,-0.0872 -0.7531,-0.2664 -0.5157,-0.4164 -0.5962,-1.1719 -0.1798,-1.6875 0.2371,-0.2937 0.5842,-0.4462 0.9343,-0.4462 z m 37.1183,3.3578 c 0.2647,0 0.5312,0.0872 0.7531,0.2664 0.5157,0.4163 0.5962,1.1719 0.1798,1.6875 -0.2371,0.2937 -0.5842,0.4462 -0.9343,0.4462 -0.2648,0 -0.5312,-0.0872 -0.7532,-0.2664 -0.5156,-0.4164 -0.5961,-1.1719 -0.1798,-1.6875 0.2372,-0.2937 0.5843,-0.4462 0.9344,-0.4462 z m -34.9099,3.7191 c 0.2647,0 0.5312,0.0871 0.7532,0.2664 0.5156,0.4163 0.5961,1.1719 0.1797,1.6875 -0.2371,0.2936 -0.5842,0.4461 -0.9343,0.4461 -0.2647,0 -0.5312,-0.0871 -0.7532,-0.2663 -0.5156,-0.4164 -0.5961,-1.1719 -0.1797,-1.6875 0.2371,-0.2937 0.5842,-0.4462 0.9343,-0.4462 z m 31.4674,2.8466 c 0.2647,0 0.5311,0.0871 0.7531,0.2664 0.5157,0.4163 0.5962,1.1718 0.1798,1.6875 -0.2371,0.2936 -0.5842,0.4462 -0.9344,0.4462 -0.2647,0 -0.5311,-0.0872 -0.7531,-0.2665 -0.5156,-0.4163 -0.5961,-1.1718 -0.1798,-1.6875 0.2371,-0.2936 0.5842,-0.4461 0.9344,-0.4461 z m -26.7189,2.8464 c 0.2647,0 0.5312,0.0872 0.7532,0.2664 0.5156,0.4164 0.5961,1.1719 0.1797,1.6875 -0.2371,0.2937 -0.5842,0.4462 -0.9344,0.4462 -0.2647,0 -0.5311,-0.0872 -0.7531,-0.2664 -0.5156,-0.4163 -0.5961,-1.1719 -0.1797,-1.6875 0.237,-0.2937 0.5842,-0.4462 0.9343,-0.4462 z m 21.0258,1.902 c 0.2647,0 0.5312,0.0872 0.7532,0.2665 0.5156,0.4163 0.5961,1.1718 0.1798,1.6875 -0.2372,0.2936 -0.5843,0.4461 -0.9344,0.4461 -0.2647,0 -0.5312,-0.0871 -0.7531,-0.2664 -0.5157,-0.4163 -0.5962,-1.1718 -0.1798,-1.6875 0.2371,-0.2936 0.5842,-0.4462 0.9343,-0.4462 z m -14.4601,1.5405 c 0.2647,0 0.5311,0.0872 0.7531,0.2664 0.5157,0.4164 0.5962,1.1719 0.1798,1.6875 -0.2371,0.2937 -0.5842,0.4462 -0.9344,0.4462 -0.2647,0 -0.5311,-0.0871 -0.7531,-0.2664 -0.5156,-0.4163 -0.5961,-1.1719 -0.1798,-1.6875 0.2371,-0.2936 0.5842,-0.4462 0.9344,-0.4462 z m 7.3833,0.668 c 0.2647,0 0.5311,0.0871 0.7531,0.2663 0.5157,0.4164 0.5961,1.1719 0.1798,1.6875 -0.2371,0.2937 -0.5842,0.4462 -0.9344,0.4462 -0.2647,0 -0.5311,-0.0871 -0.7531,-0.2664 -0.5156,-0.4163 -0.5961,-1.1719 -0.1798,-1.6875 0.2371,-0.2936 0.5842,-0.4461 0.9344,-0.4461 z m -1.9997,-40.1939 c -6.5655,0 -13.0738,2.8598 -17.5196,8.3658 -7.8065,9.6682 -6.2974,23.8342 3.3708,31.6408 4.1622,3.3607 9.158,4.995 14.1212,4.995 6.5655,0 13.0738,-2.8598 17.5196,-8.3658 7.8065,-9.6682 6.2974,-23.8342 -3.3708,-31.6408 -4.1622,-3.3607 -9.158,-4.995 -14.1212,-4.995 z"
       style="fill:#ffffff;stroke:#ffffff;stroke-width:12.1259;stroke-miterlimit:2;stroke-dasharray:none"
       clip-path="url(#clipPath2)"
       id="path62" />
    <path
       d="m 334.988,316.9069 c 0.2647,0 0.5311,0.0871 0.7531,0.2664 0.5156,0.4163 0.5961,1.1719 0.1798,1.6875 -0.2371,0.2936 -0.5842,0.4461 -0.9344,0.4461 -0.2647,0 -0.5311,-0.0871 -0.7531,-0.2663 -0.5157,-0.4164 -0.5961,-1.1719 -0.1798,-1.6875 0.2371,-0.2937 0.5842,-0.4462 0.9344,-0.4462 z m 7.3833,0.6679 c 0.2647,0 0.5311,0.0871 0.7531,0.2664 0.5156,0.4163 0.5961,1.1719 0.1798,1.6875 -0.2371,0.2936 -0.5842,0.4462 -0.9344,0.4462 -0.2647,0 -0.5311,-0.0872 -0.7531,-0.2664 -0.5157,-0.4164 -0.5962,-1.1719 -0.1798,-1.6875 0.2371,-0.2937 0.5842,-0.4462 0.9344,-0.4462 z m -14.4602,1.5405 c 0.2647,0 0.5312,0.0871 0.7531,0.2664 0.5157,0.4163 0.5962,1.1718 0.1798,1.6875 -0.2371,0.2936 -0.5842,0.4462 -0.9343,0.4462 -0.2647,0 -0.5312,-0.0872 -0.7532,-0.2665 -0.5156,-0.4163 -0.5961,-1.1718 -0.1798,-1.6875 0.2372,-0.2936 0.5843,-0.4461 0.9344,-0.4461 z m 21.0259,1.902 c 0.2647,0 0.5311,0.0872 0.7531,0.2664 0.5156,0.4163 0.5961,1.1719 0.1797,1.6875 -0.237,0.2937 -0.5842,0.4462 -0.9343,0.4462 -0.2647,0 -0.5312,-0.0872 -0.7532,-0.2664 -0.5156,-0.4164 -0.5961,-1.1719 -0.1797,-1.6875 0.2371,-0.2937 0.5842,-0.4462 0.9344,-0.4462 z m -26.7189,2.8464 c 0.2647,0 0.5311,0.0872 0.7531,0.2665 0.5156,0.4163 0.5961,1.1718 0.1798,1.6875 -0.2371,0.2936 -0.5842,0.4461 -0.9344,0.4461 -0.2647,0 -0.5311,-0.0871 -0.7531,-0.2664 -0.5157,-0.4163 -0.5962,-1.1718 -0.1798,-1.6875 0.2371,-0.2936 0.5842,-0.4462 0.9344,-0.4462 z m 31.4673,2.8467 c 0.2647,0 0.5312,0.0871 0.7532,0.2663 0.5156,0.4164 0.5961,1.1719 0.1797,1.6875 -0.2371,0.2937 -0.5842,0.4462 -0.9343,0.4462 -0.2647,0 -0.5312,-0.0871 -0.7532,-0.2664 -0.5156,-0.4163 -0.5961,-1.1719 -0.1797,-1.6875 0.2371,-0.2936 0.5842,-0.4461 0.9343,-0.4461 z m -34.9099,3.719 c 0.2648,0 0.5312,0.0872 0.7532,0.2664 0.5156,0.4164 0.5961,1.1719 0.1798,1.6875 -0.2372,0.2937 -0.5843,0.4462 -0.9344,0.4462 -0.2647,0 -0.5312,-0.0872 -0.7531,-0.2664 -0.5157,-0.4163 -0.5962,-1.1719 -0.1798,-1.6875 0.2371,-0.2937 0.5842,-0.4462 0.9343,-0.4462 z m 37.1183,3.3578 c 0.2647,0 0.5312,0.0872 0.7531,0.2664 0.5157,0.4164 0.5962,1.1719 0.1798,1.6875 -0.2371,0.2937 -0.5842,0.4462 -0.9343,0.4462 -0.2647,0 -0.5312,-0.0872 -0.7532,-0.2664 -0.5156,-0.4164 -0.5961,-1.1719 -0.1798,-1.6875 0.2372,-0.2937 0.5843,-0.4462 0.9344,-0.4462 z m -37.7862,4.0255 c 0.2647,0 0.5312,0.0872 0.7532,0.2664 0.5156,0.4164 0.5961,1.1719 0.1798,1.6875 -0.2372,0.2937 -0.5843,0.4462 -0.9344,0.4462 -0.2647,0 -0.5312,-0.0872 -0.7531,-0.2664 -0.5157,-0.4164 -0.5962,-1.1719 -0.1798,-1.6875 0.2371,-0.2937 0.5842,-0.4462 0.9343,-0.4462 z m 37.1183,3.3578 c 0.2647,0 0.5312,0.0872 0.7531,0.2664 0.5157,0.4163 0.5962,1.1719 0.1798,1.6875 -0.2371,0.2937 -0.5842,0.4462 -0.9343,0.4462 -0.2648,0 -0.5312,-0.0872 -0.7532,-0.2664 -0.5156,-0.4164 -0.5961,-1.1719 -0.1798,-1.6875 0.2372,-0.2937 0.5843,-0.4462 0.9344,-0.4462 z m -34.9099,3.7191 c 0.2647,0 0.5312,0.0871 0.7532,0.2664 0.5156,0.4163 0.5961,1.1719 0.1797,1.6875 -0.2371,0.2936 -0.5842,0.4461 -0.9343,0.4461 -0.2647,0 -0.5312,-0.0871 -0.7532,-0.2663 -0.5156,-0.4164 -0.5961,-1.1719 -0.1797,-1.6875 0.2371,-0.2937 0.5842,-0.4462 0.9343,-0.4462 z m 31.4674,2.8466 c 0.2647,0 0.5311,0.0871 0.7531,0.2664 0.5157,0.4163 0.5962,1.1718 0.1798,1.6875 -0.2371,0.2936 -0.5842,0.4462 -0.9344,0.4462 -0.2647,0 -0.5311,-0.0872 -0.7531,-0.2665 -0.5156,-0.4163 -0.5961,-1.1718 -0.1798,-1.6875 0.2371,-0.2936 0.5842,-0.4461 0.9344,-0.4461 z m -26.7189,2.8464 c 0.2647,0 0.5312,0.0872 0.7532,0.2664 0.5156,0.4164 0.5961,1.1719 0.1797,1.6875 -0.2371,0.2937 -0.5842,0.4462 -0.9344,0.4462 -0.2647,0 -0.5311,-0.0872 -0.7531,-0.2664 -0.5156,-0.4163 -0.5961,-1.1719 -0.1797,-1.6875 0.237,-0.2937 0.5842,-0.4462 0.9343,-0.4462 z m 21.0258,1.902 c 0.2647,0 0.5312,0.0872 0.7532,0.2665 0.5156,0.4163 0.5961,1.1718 0.1798,1.6875 -0.2372,0.2936 -0.5843,0.4461 -0.9344,0.4461 -0.2647,0 -0.5312,-0.0871 -0.7531,-0.2664 -0.5157,-0.4163 -0.5962,-1.1718 -0.1798,-1.6875 0.2371,-0.2936 0.5842,-0.4462 0.9343,-0.4462 z m -14.4601,1.5405 c 0.2647,0 0.5311,0.0872 0.7531,0.2664 0.5157,0.4164 0.5962,1.1719 0.1798,1.6875 -0.2371,0.2937 -0.5842,0.4462 -0.9344,0.4462 -0.2647,0 -0.5311,-0.0871 -0.7531,-0.2664 -0.5156,-0.4163 -0.5961,-1.1719 -0.1798,-1.6875 0.2371,-0.2936 0.5842,-0.4462 0.9344,-0.4462 z m 7.3833,0.668 c 0.2647,0 0.5311,0.0871 0.7531,0.2663 0.5157,0.4164 0.5961,1.1719 0.1798,1.6875 -0.2371,0.2937 -0.5842,0.4462 -0.9344,0.4462 -0.2647,0 -0.5311,-0.0871 -0.7531,-0.2664 -0.5156,-0.4163 -0.5961,-1.1719 -0.1798,-1.6875 0.2371,-0.2936 0.5842,-0.4461 0.9344,-0.4461 z m -1.9997,-40.1939 c -6.5655,0 -13.0738,2.8598 -17.5196,8.3658 -7.8065,9.6682 -6.2974,23.8342 3.3708,31.6408 4.1622,3.3607 9.158,4.995 14.1212,4.995 6.5655,0 13.0738,-2.8598 17.5196,-8.3658 7.8065,-9.6682 6.2974,-23.8342 -3.3708,-31.6408 -4.1622,-3.3607 -9.158,-4.995 -14.1212,-4.995 z"
       style="fill:#ffffff;stroke:#ffffff;stroke-width:12.1259;stroke-miterlimit:2;stroke-dasharray:none"
       clip-path="url(#clipPath2)"
       id="path64" />
    <path
       d="m 337.201,9.9889 c 72.131,0 144.7368,23.7508 205.2274,72.5938 140.5108,113.455 162.4439,319.3349 48.9889,459.8457 -64.612,80.0202 -159.1997,121.5827 -254.6183,121.5827 -72.131,0 -144.7368,-23.7508 -205.2274,-72.5938 C -8.9392,477.9623 -30.8723,272.0824 82.5827,131.5716 147.1947,51.5514 241.7824,9.9889 337.201,9.9889 Z m 0.006,-10.0004 c -98.3367,0 -195.8169,42.8336 -262.4049,125.3009 -116.9245,144.8077 -94.3207,356.9837 50.4871,473.9082 62.3405,50.3367 137.1666,74.8139 211.5034,74.8139 98.3367,0 195.8169,-42.8336 262.4048,-125.3009 C 716.1222,403.9029 693.5184,191.7269 548.7106,74.8023 486.3701,24.4657 411.544,-0.0115 337.2072,-0.0115 Z"
       style="fill:#ffffff;stroke:#ffffff;stroke-width:12.1259;stroke-miterlimit:2;stroke-dasharray:none"
       clip-path="url(#clipPath2)"
       id="path66" />
    <path
       d="m 337.201,9.9889 c 72.131,0 144.7368,23.7508 205.2274,72.5938 140.5108,113.455 162.4439,319.3349 48.9889,459.8457 -64.612,80.0202 -159.1997,121.5827 -254.6183,121.5827 -72.131,0 -144.7368,-23.7508 -205.2274,-72.5938 C -8.9392,477.9623 -30.8723,272.0824 82.5827,131.5716 147.1947,51.5514 241.7824,9.9889 337.201,9.9889 Z m 0.006,-10.0004 c -98.3367,0 -195.8169,42.8336 -262.4049,125.3009 -116.9245,144.8077 -94.3207,356.9837 50.4871,473.9082 62.3405,50.3367 137.1666,74.8139 211.5034,74.8139 98.3367,0 195.8169,-42.8336 262.4048,-125.3009 C 716.1222,403.9029 693.5184,191.7269 548.7106,74.8023 486.3701,24.4657 411.544,-0.0115 337.2072,-0.0115 Z"
       style="fill:#ffffff;stroke:#ffffff;stroke-width:12.1259;stroke-miterlimit:2;stroke-dasharray:none"
       clip-path="url(#clipPath2)"
       id="path68" />
    <path
       d="m 337.1949,19.9892 c 69.9251,0 140.3105,23.0245 198.9513,70.3738 C 672.36,200.3484 693.6224,399.9324 583.637,536.1462 521.0009,613.7193 429.3058,654.0108 336.8051,654.0108 266.88,654.0108 196.4946,630.9863 137.8538,583.637 1.64,473.6516 -19.6224,274.0676 90.363,137.8538 152.9992,60.2807 244.6943,19.9892 337.1949,19.9892 Z m 0.006,-10.0003 c -95.4186,0 -190.0063,41.5625 -254.6183,121.5827 -113.455,140.5108 -91.5219,346.3907 48.9889,459.8457 60.4906,48.843 133.0964,72.5938 205.2274,72.5938 95.4186,0 190.0063,-41.5625 254.6183,-121.5827 C 704.8723,401.9176 682.9392,196.0377 542.4284,82.5827 481.9378,33.7397 409.332,9.9889 337.201,9.9889 Z"
       style="fill:#ffffff;stroke:#ffffff;stroke-width:12.1259;stroke-miterlimit:2;stroke-dasharray:none"
       clip-path="url(#clipPath2)"
       id="path70" />
    <path
       d="m 337.1949,19.9892 c 69.9251,0 140.3105,23.0245 198.9513,70.3738 C 672.36,200.3484 693.6224,399.9324 583.637,536.1462 521.0009,613.7193 429.3058,654.0108 336.8051,654.0108 266.88,654.0108 196.4946,630.9863 137.8538,583.637 1.64,473.6516 -19.6224,274.0676 90.363,137.8538 152.9992,60.2807 244.6943,19.9892 337.1949,19.9892 Z m 0.006,-10.0003 c -95.4186,0 -190.0063,41.5625 -254.6183,121.5827 -113.455,140.5108 -91.5219,346.3907 48.9889,459.8457 60.4906,48.843 133.0964,72.5938 205.2274,72.5938 95.4186,0 190.0063,-41.5625 254.6183,-121.5827 C 704.8723,401.9176 682.9392,196.0377 542.4284,82.5827 481.9378,33.7397 409.332,9.9889 337.201,9.9889 Z"
       style="fill:#ffffff;stroke:#ffffff;stroke-width:12.1259;stroke-miterlimit:2;stroke-dasharray:none"
       clip-path="url(#clipPath2)"
       id="path72" />
    <path
       d="m 337.1756,51.3903 c 62.9987,0 126.4123,20.7439 179.2444,63.403 122.7214,99.091 141.8776,278.9054 42.7867,401.6267 -56.4318,69.8892 -139.0442,106.1897 -222.3823,106.1897 -62.9987,0 -126.4123,-20.7439 -179.2444,-63.403 C 34.8586,460.1157 15.7024,280.3013 114.7933,157.58 171.2251,87.6908 253.8375,51.3903 337.1756,51.3903 Z m 0.0193,-31.4011 c -92.5006,0 -184.1957,40.2915 -246.8319,117.8646 -109.9854,136.2138 -88.723,335.7978 47.4908,445.7832 58.6408,47.3493 129.0262,70.3738 198.9513,70.3738 92.5007,0 184.1958,-40.2915 246.8319,-117.8646 C 693.6224,399.9324 672.36,200.3484 536.1462,90.363 477.5054,43.0137 407.12,19.9892 337.1949,19.9892 Z"
       style="fill:#ffffff;stroke:#ffffff;stroke-width:12.1259;stroke-miterlimit:2;stroke-dasharray:none"
       clip-path="url(#clipPath2)"
       id="path74" />
    <path
       d="m 337.1887,29.9896 c 67.7193,0 135.8844,22.2982 192.6753,68.1538 131.9168,106.5158 152.5084,299.8037 45.9926,431.7206 -60.6602,75.1259 -149.4627,114.1464 -239.0453,114.1464 -67.7193,0 -135.8844,-22.2982 -192.6753,-68.1538 C 12.2191,469.3408 -8.3725,276.0529 98.1434,144.136 158.8036,69.01 247.6061,29.9896 337.1887,29.9896 Z m 0.006,-10.0004 c -92.5006,0 -184.1957,40.2915 -246.8319,117.8646 -109.9854,136.2138 -88.723,335.7978 47.4908,445.7832 58.6408,47.3493 129.0262,70.3738 198.9513,70.3738 92.5007,0 184.1958,-40.2915 246.8319,-117.8646 C 693.6224,399.9324 672.36,200.3484 536.1462,90.363 477.5054,43.0137 407.12,19.9892 337.1949,19.9892 Z"
       style="fill:#ffffff;stroke:#ffffff;stroke-width:12.1259;stroke-miterlimit:2;stroke-dasharray:none"
       clip-path="url(#clipPath2)"
       id="path76" />
    <path
       d="m 337.1887,29.9896 c 67.7193,0 135.8844,22.2982 192.6753,68.1538 131.9168,106.5158 152.5084,299.8037 45.9926,431.7206 -60.6602,75.1259 -149.4627,114.1464 -239.0453,114.1464 -67.7193,0 -135.8844,-22.2982 -192.6753,-68.1538 C 12.2191,469.3408 -8.3725,276.0529 98.1434,144.136 158.8036,69.01 247.6061,29.9896 337.1887,29.9896 Z m 0.006,-10.0004 c -92.5006,0 -184.1957,40.2915 -246.8319,117.8646 -109.9854,136.2138 -88.723,335.7978 47.4908,445.7832 58.6408,47.3493 129.0262,70.3738 198.9513,70.3738 92.5007,0 184.1958,-40.2915 246.8319,-117.8646 C 693.6224,399.9324 672.36,200.3484 536.1462,90.363 477.5054,43.0137 407.12,19.9892 337.1949,19.9892 Z"
       style="fill:#ffffff;stroke:#ffffff;stroke-width:12.1259;stroke-miterlimit:2;stroke-dasharray:none"
       clip-path="url(#clipPath2)"
       id="path78" />
    <path
       d="m 337.1756,51.3903 c 62.9987,0 126.4123,20.7439 179.2444,63.403 122.7214,99.091 141.8776,278.9054 42.7867,401.6267 -56.4318,69.8892 -139.0442,106.1897 -222.3823,106.1897 -62.9987,0 -126.4123,-20.7439 -179.2444,-63.403 C 34.8586,460.1157 15.7024,280.3013 114.7933,157.58 171.2251,87.6908 253.8375,51.3903 337.1756,51.3903 Z m 0.0193,-31.4011 c -92.5006,0 -184.1957,40.2915 -246.8319,117.8646 -109.9854,136.2138 -88.723,335.7978 47.4908,445.7832 58.6408,47.3493 129.0262,70.3738 198.9513,70.3738 92.5007,0 184.1958,-40.2915 246.8319,-117.8646 C 693.6224,399.9324 672.36,200.3484 536.1462,90.363 477.5054,43.0137 407.12,19.9892 337.1949,19.9892 Z"
       style="fill:#ffffff;stroke:#ffffff;stroke-width:12.1259;stroke-miterlimit:2;stroke-dasharray:none"
       clip-path="url(#clipPath2)"
       id="path80" />
    <path
       d="m 337,332 c -2.7614,0 -5,2.2386 -5,5 0,2.7614 2.2386,5 5,5 2.7614,0 5,-2.2386 5,-5 0,-2.7614 -2.2386,-5 -5,-5 z"
       style="fill:#ffffff;stroke:#ffffff;stroke-width:12.1259;stroke-miterlimit:2;stroke-dasharray:none"
       clip-path="url(#clipPath2)"
       id="path82" />
    <path
       d="m 735.9047,250 c 9.3889,0 17,7.6111 17,17 0,9.3889 -7.6111,17 -17,17 -9.3888,0 -17,-7.6111 -17,-17 0,-9.3889 7.6112,-17 17,-17 z m 6.8002,50.9695 13,14.66 96.8529,109.2211 -1.4964,1.327 5.9713,6.7337 1.4964,-1.3269 v 0 0 0 0 0 l 36.491,41.151 v 0 l -1.4964,1.3269 5.9713,6.7338 1.4965,-1.327 172.8101,194.8781 58.9378,66.464 v 0 l -13.763,45.0163 v 0 l -66.544,-11.319 -385.6064,-65.5905 -39.1871,-6.6657 v 0 0 l 0.9229,-3.2186 48.6184,-169.5523 v 0 0 0 l 1.9225,0.5513 2.4807,-8.6514 -1.9225,-0.5512 v 0 l 15.1601,-52.8694 v 0 l 1.9225,0.5512 2.4807,-8.6513 -1.9225,-0.5513 v 0 L 741.2292,306.1158 Z M 735.9047,247 c -11.0456,0 -20,8.9543 -20,20 0,2.5716 0.4854,5.0298 1.3695,7.2881 v 0 l -6.6131,23.0625 -112.6674,392.9178 -19.3814,67.591 30.5681,8.7652 9.6392,-33.6156 v 0 l 42.6739,7.2586 385.6064,65.5906 62.5022,10.6315 v 0 0 l -2.9142,9.5319 43.0337,13.1567 42.3947,-138.6667 -43.0337,-13.1567 -4.3842,14.3404 -44.7846,-50.5034 L 781.817,292.4743 755.4502,262.7404 v 0 C 753.4981,253.7411 745.4886,247 735.9047,247 Z"
       style="fill:#ffffff;stroke:#ffffff;stroke-width:12.1259;stroke-miterlimit:2;stroke-dasharray:none"
       clip-path="url(#clipPath2)"
       id="path84" />
    <path
       d="m 735.9047,250 c 9.3889,0 17,7.6111 17,17 0,9.3889 -7.6111,17 -17,17 -9.3888,0 -17,-7.6111 -17,-17 0,-9.3889 7.6112,-17 17,-17 z m 6.8002,50.9695 13,14.66 96.8529,109.2211 -1.4964,1.327 5.9713,6.7337 1.4964,-1.3269 v 0 0 0 0 0 l 36.491,41.151 v 0 l -1.4964,1.3269 5.9713,6.7338 1.4965,-1.327 172.8101,194.8781 58.9378,66.464 v 0 l -13.763,45.0163 v 0 l -66.544,-11.319 -385.6064,-65.5905 -39.1871,-6.6657 v 0 0 l 0.9229,-3.2186 48.6184,-169.5523 v 0 0 0 l 1.9225,0.5513 2.4807,-8.6514 -1.9225,-0.5512 v 0 l 15.1601,-52.8694 v 0 l 1.9225,0.5512 2.4807,-8.6513 -1.9225,-0.5513 v 0 L 741.2292,306.1158 Z M 735.9047,247 c -11.0456,0 -20,8.9543 -20,20 0,2.5716 0.4854,5.0298 1.3695,7.2881 v 0 l -6.6131,23.0625 -112.6674,392.9178 -19.3814,67.591 30.5681,8.7652 9.6392,-33.6156 v 0 l 42.6739,7.2586 385.6064,65.5906 62.5022,10.6315 v 0 0 l -2.9142,9.5319 43.0337,13.1567 42.3947,-138.6667 -43.0337,-13.1567 -4.3842,14.3404 -44.7846,-50.5034 L 781.817,292.4743 755.4502,262.7404 v 0 C 753.4981,253.7411 745.4886,247 735.9047,247 Z"
       style="fill:#ffffff;stroke:#ffffff;stroke-width:12.1259;stroke-miterlimit:2;stroke-dasharray:none"
       clip-path="url(#clipPath2)"
       id="path86" />
    <path
       d="m 698.4531,392.5803 c -0.4348,0 -0.8349,0.2858 -0.9607,0.7247 l -7.7179,26.9153 c -0.1522,0.5309 0.1548,1.0846 0.6856,1.2369 l 12.0158,3.4454 c 0.0921,0.0264 0.1849,0.0391 0.2761,0.0391 0.4348,0 0.835,-0.2859 0.9608,-0.7247 l 0.8269,-2.8838 q -0.4662,-0.9139 0.0162,-2.5961 l 4.6859,-16.3414 q 0.4823,-1.6822 1.362,-2.2102 l 0.8269,-2.8838 c 0.1522,-0.5309 -0.1548,-1.0847 -0.6856,-1.2369 l -12.0159,-3.4455 c -0.0921,-0.0264 -0.1848,-0.039 -0.2761,-0.039 z m 6.5511,1.8785 c -0.4349,0 -0.835,0.2858 -0.9609,0.7246 l -7.7178,26.9154 c -0.1522,0.5308 0.1547,1.0846 0.6856,1.2368 l 5.4696,1.5684 c 0.0921,0.0264 0.1849,0.039 0.2761,0.039 0.4349,0 0.835,-0.2858 0.9608,-0.7246 l 0.8269,-2.8838 -0.005,-0.001 q -0.4662,-0.9139 0.0162,-2.5961 l 4.6859,-16.3414 q 0.4823,-1.6822 1.362,-2.2102 l 0.005,10e-4 0.827,-2.8838 c 0.1522,-0.5309 -0.1548,-1.0847 -0.6857,-1.2369 l -5.4695,-1.5684 c -0.0921,-0.0264 -0.1849,-0.039 -0.2761,-0.039 z"
       style="fill:#ffffff;stroke:#ffffff;stroke-width:12.1259;stroke-miterlimit:2;stroke-dasharray:none"
       clip-path="url(#clipPath2)"
       id="path88" />
  </g>
  <g
     transform="matrix(0.80899913,0,0,-0.80899913,126.71391,1204.275)"
     style="fill:#ffffff;stroke:#ffffff;stroke-width:12.1259;stroke-linecap:butt;stroke-linejoin:round;stroke-miterlimit:2;stroke-dasharray:none;text-rendering:optimizeLegibility"
     id="g126">
    <path
       d="m 681.8575,268.1631 c -0.5517,0 -1.1113,0.051 -1.6732,0.1567 -4.885,0.9185 -8.1004,5.6232 -7.1819,10.5081 0.8129,4.323 4.5909,7.3385 8.8349,7.3385 0.5517,0 1.1113,-0.051 1.6733,-0.1567 4.885,-0.9185 8.1004,-5.6232 7.1818,-10.5081 -0.8129,-4.323 -4.5908,-7.3385 -8.8349,-7.3385 z"
       style="fill:#ffffff;stroke:#ffffff;stroke-width:12.1259;stroke-miterlimit:2;stroke-dasharray:none"
       clip-path="url(#clipPath2)"
       id="path92" />
    <path
       d="m 533.4184,620.8336 c -1.5781,0 -3.1722,0.4657 -4.5653,1.4361 -3.6255,2.5252 -4.5175,7.5114 -1.9923,11.1369 1.5549,2.2324 4.0428,3.4284 6.5716,3.4284 1.5782,0 3.1722,-0.4658 4.5653,-1.4361 3.6256,-2.5252 4.5176,-7.5114 1.9924,-11.1369 -1.555,-2.2325 -4.0429,-3.4284 -6.5717,-3.4284 z"
       style="fill:#ffffff;stroke:#ffffff;stroke-width:12.1259;stroke-miterlimit:2;stroke-dasharray:none"
       clip-path="url(#clipPath2)"
       id="path94" />
    <path
       d="m 719.9928,254.8818 -173.1817,32.5644 -185.5541,41.3522 -9.8278,1.848 3.1416,16.7072 9.8278,-1.848 187.901,-28.8709 173.179,-32.564 v 0 c -5.7422,-3.5146 -9.5739,-9.8452 -9.5739,-17.0707 0,-4.5557 1.5232,-8.7556 4.0881,-12.1182 z"
       style="fill:#ffffff;stroke:#ffffff;stroke-width:12.1259;stroke-miterlimit:2;stroke-dasharray:none"
       clip-path="url(#clipPath2)"
       id="path96" />
    <path
       d="m 719.9928,254.8818 -173.1817,32.5644 -185.5541,41.3522 -9.8278,1.848 3.1416,16.7072 9.8278,-1.848 187.901,-28.8709 173.179,-32.564 v 0 c -5.7422,-3.5146 -9.5739,-9.8452 -9.5739,-17.0707 0,-4.5557 1.5232,-8.7556 4.0881,-12.1182 z"
       style="fill:#ffffff;stroke:#ffffff;stroke-width:12.1259;stroke-miterlimit:2;stroke-dasharray:none"
       clip-path="url(#clipPath2)"
       id="path98" />
    <path
       d="m 347.3337,350.285 -10.6674,7.43 5.7154,8.2057 106.9514,157.0523 141.3462,202.9343 v 0 l -0.3284,-0.4716 0.2056,0.2747 0.2263,0.2639 0.247,0.2531 0.2676,0.2423 0.2879,0.2315 0.3078,0.2207 0.3272,0.21 0.3463,0.1992 0.3645,0.1881 0.3821,0.1772 0.399,0.1658 0.4147,0.1545 0.4295,0.1426 0.4431,0.1305 0.4553,0.1179 0.4662,0.1044 0.4752,0.0901 0.4822,0.0747 0.4871,0.0577 0.4894,0.0387 0.4883,0.0168 0.4837,-0.008 0.4745,-0.0381 0.4597,-0.074 0.4381,-0.1175 0.4085,-0.1707 0.3693,-0.2354 0.32,-0.3124 0.2611,-0.4014 0.195,-0.4983 0.1259,-0.5976 0.059,-0.6915 -0.002,-0.7745 -0.0536,-0.8425 -0.0963,-0.8954 -0.1303,-0.9336 -0.1571,-0.9595 -0.1779,-0.9747 -0.1939,-0.9812 -0.2063,-0.9804 -0.2156,-0.9734 -0.2225,-0.9611 -0.2276,-0.9444 -0.231,-0.9238 -0.2332,-0.8997 -0.2344,-0.8725 -0.2346,-0.8424 -0.234,-0.8101 -0.233,-0.7754 -0.2311,-0.7387 -0.2289,-0.7002 -0.2264,-0.6601 -0.2233,-0.6187 -0.2201,-0.5759 -0.2167,-0.5321 -0.2128,-0.4875 -0.2092,-0.442 -0.2051,-0.3962 -0.2012,-0.3499 -0.1967,-0.3029 0.2376,0.3411 -0.2379,-0.3416 3e-4,5e-4 v 0 L 463.2829,513.2568 353.0491,358.4907 Z"
       style="fill:#ffffff;stroke:#ffffff;stroke-width:12.1259;stroke-miterlimit:2;stroke-dasharray:none"
       clip-path="url(#clipPath2)"
       id="path100" />
    <path
       d="M 596.7211,704.8373 463.2829,513.2568 353.0491,358.4907 l -5.7154,-8.2057 -10.6674,7.43 5.7154,8.2057 106.9514,157.0523 141.3462,202.9343"
       style="fill:#ffffff;stroke:#ffffff;stroke-width:12.1259;stroke-miterlimit:2;stroke-dasharray:none"
       clip-path="url(#clipPath2)"
       id="path102" />
    <path
       d="m 735.9047,247 c -11.0456,0 -20,8.9543 -20,20 0,11.0457 8.9544,20 20,20 11.0457,0 20,-8.9543 20,-20 0,-11.0457 -8.9543,-20 -20,-20 z"
       style="fill:#ffffff;stroke:#ffffff;stroke-width:12.1259;stroke-miterlimit:2;stroke-dasharray:none"
       clip-path="url(#clipPath2)"
       id="path104" />
    <path
       d="m 326.401,303.916 c 2.7614,0 5,2.2386 5,5 0,2.7614 -2.2386,5 -5,5 -2.7614,0 -5,-2.2386 -5,-5 0,-2.7614 2.2386,-5 5,-5 z m -5.573,-6.862 1.073,2.837 c 0.532,1.408 0.221,2.996 -0.803,4.098 -1.928,2.076 -2.468,5.085 -1.383,7.701 3.413,8.226 4.276,17.287 2.478,26.006 -1.032,5.015 0.184,10.228 3.33,14.263 1.407,1.804 3.153,3.314 5.142,4.445 1.006,0.572 2.066,1.043 3.165,1.404 1.8152,0.5985 3.6585,0.8829 5.4709,0.8829 7.3323,0 14.1594,-4.6551 16.5801,-11.9989 1.036,-3.141 1.158,-6.512 0.353,-9.72 -0.704,-2.808 -2.097,-5.396 -4.052,-7.532 -0.225,-0.247 -0.459,-0.488 -0.698,-0.721 l -4.185,0.341 c -0.509,0.041 -0.995,0.236 -1.392,0.558 l -2.485,2.013 c -0.524,0.424 -0.857,1.038 -0.928,1.709 l -0.434,4.14 c -0.2505,2.6304 -2.4648,4.6009 -5.0548,4.6009 -0.16,0 -0.3216,-0.007 -0.4842,-0.0229 -2.793,-0.264 -4.842,-2.745 -4.577,-5.538 0.003,-0.033 0.007,-0.067 0.011,-0.102 l 2.513,-23.915 c 0.37,-3.513 -0.581,-7.037 -2.664,-9.889 -1.093,-1.495 -2.493,-2.739 -4.106,-3.647 -2.086,-1.221 -4.453,-1.881 -6.87,-1.913 z"
       style="fill:#ffffff;stroke:#ffffff;stroke-width:12.1259;stroke-miterlimit:2;stroke-dasharray:none"
       clip-path="url(#clipPath2)"
       id="path106" />
    <path
       d="m 326.401,303.916 c 2.7614,0 5,2.2386 5,5 0,2.7614 -2.2386,5 -5,5 -2.7614,0 -5,-2.2386 -5,-5 0,-2.7614 2.2386,-5 5,-5 z m -5.573,-6.862 1.073,2.837 c 0.532,1.408 0.221,2.996 -0.803,4.098 -1.928,2.076 -2.468,5.085 -1.383,7.701 3.413,8.226 4.276,17.287 2.478,26.006 -1.032,5.015 0.184,10.228 3.33,14.263 1.407,1.804 3.153,3.314 5.142,4.445 1.006,0.572 2.066,1.043 3.165,1.404 1.8152,0.5985 3.6585,0.8829 5.4709,0.8829 7.3323,0 14.1594,-4.6551 16.5801,-11.9989 1.036,-3.141 1.158,-6.512 0.353,-9.72 -0.704,-2.808 -2.097,-5.396 -4.052,-7.532 -0.225,-0.247 -0.459,-0.488 -0.698,-0.721 l -4.185,0.341 c -0.509,0.041 -0.995,0.236 -1.392,0.558 l -2.485,2.013 c -0.524,0.424 -0.857,1.038 -0.928,1.709 l -0.434,4.14 c -0.2505,2.6304 -2.4648,4.6009 -5.0548,4.6009 -0.16,0 -0.3216,-0.007 -0.4842,-0.0229 -2.793,-0.264 -4.842,-2.745 -4.577,-5.538 0.003,-0.033 0.007,-0.067 0.011,-0.102 l 2.513,-23.915 c 0.37,-3.513 -0.581,-7.037 -2.664,-9.889 -1.093,-1.495 -2.493,-2.739 -4.106,-3.647 -2.086,-1.221 -4.453,-1.881 -6.87,-1.913 z"
       style="fill:#ffffff;stroke:#ffffff;stroke-width:12.1259;stroke-miterlimit:2;stroke-dasharray:none"
       clip-path="url(#clipPath2)"
       id="path108" />
    <path
       d="m 352.183,329.439 -1.137,1.307 m 0,0 0.012,0.285 0.211,0.458 m 0,0 c 1.736,2.136 2.87,4.696 3.284,7.417 m 1.68,-1.933 -1.68,1.933 m -0.494,6.813 1.823,0.972 m -1.329,-7.785 c 0.346,2.279 0.177,4.607 -0.494,6.813 m -23.394,10.685 c 1.942,-0.503 3.432,-0.615 4.43,-0.332 m 18.964,-10.353 c -2.448,8.039 -10.878,12.642 -18.964,10.353 m -7.36,-4.629 -0.641,-0.336 -0.74,0.205 -0.005,0.003 m -0.826,0.644 0.826,-0.644 m 8.746,4.757 c -2.846,-0.806 -5.4,-2.412 -7.359,-4.629"
       style="fill:#ffffff;stroke:#ffffff;stroke-width:12.1259;stroke-miterlimit:2;stroke-dasharray:none"
       clip-path="url(#clipPath2)"
       id="path110" />
    <path
       d="m 627.6389,702.2523 -0.0277,0.0174 -0.0829,0.0522 -0.1379,0.0867 -0.1925,0.1212 -0.2467,0.1551 -0.3,0.1888 -0.3527,0.2219 -0.4043,0.2543 -0.4549,0.2861 -0.5042,0.3172 -0.552,0.3473 -0.5985,0.3765 -0.6432,0.4046 -0.6861,0.4316 -0.7273,0.4576 -0.7665,0.4821 -0.8034,0.5054 -0.8382,0.5274 -0.8707,0.5477 -0.9009,0.5668 -0.9285,0.5841 -0.9537,0.5999 -0.9761,0.6141 -0.996,0.6265 -1.013,0.6372 -1.0274,0.6463 -1.0389,0.6536 -1.0474,0.659 -1.0534,0.6626 -1.0562,0.6644 0.5947,0.9453 0.593,0.9426 0.5897,0.9375 0.5848,0.9298 0.5785,0.9194 0.5703,0.9066 0.5607,0.8913 0.5496,0.8736 0.5369,0.8535 0.5228,0.831 0.5071,0.8062 0.4902,0.7793 0.472,0.7501 0.4523,0.719 0.4315,0.6859 0.4094,0.6509 0.3863,0.614 0.3622,0.5757 0.3369,0.5356 0.3108,0.494 0.2838,0.4512 0.2561,0.4071 0.2276,0.3618 0.1986,0.3157 0.1689,0.2686 0.139,0.2207 0.1083,0.1723 0.0776,0.1234 0.0467,0.0742 0.0156,0.0248 m 490.7825,83.4807 0.022,-0.0184 0.065,-0.0552 0.108,-0.0919 0.1504,-0.1283 0.1918,-0.1645 0.2321,-0.2003 0.2713,-0.2357 0.3086,-0.2706 0.3441,-0.305 0.3774,-0.3387 0.4085,-0.3717 0.4367,-0.404 0.4622,-0.4354 0.4843,-0.466 0.5029,-0.4957 0.5179,-0.5244 0.529,-0.5521 0.5356,-0.5788 0.5378,-0.6044 0.5354,-0.6288 0.5285,-0.6523 0.5163,-0.6742 0.4996,-0.6952 0.4777,-0.7147 0.4517,-0.7328 0.4211,-0.7494 0.3869,-0.7644 0.3494,-0.7777 0.3089,-0.7893 0.2671,-0.7986 0.2235,-0.8061 0.1804,-0.8111 0.1372,-0.8139 0.096,-0.8139 0.056,-0.8115 0.019,-0.8064 -0.015,-0.7986 -0.046,-0.7879 -0.073,-0.7746 -0.097,-0.7586 -0.1171,-0.7398 -0.1333,-0.7186 -0.1463,-0.6948 -0.1557,-0.6685 -0.1618,-0.6401 -0.1652,-0.6093 -0.1655,-0.5765 -0.1635,-0.5418 -0.1587,-0.5053 -0.1521,-0.4671 -0.1433,-0.4272 -0.1327,-0.3861 -0.1208,-0.3437 -0.1074,-0.3001 -0.093,-0.2556 -0.077,-0.2103 -0.061,-0.1642 -0.044,-0.1177 -0.027,-0.0708 -0.01,-0.0236"
       style="fill:#ffffff;stroke:#ffffff;stroke-width:12.1259;stroke-miterlimit:2;stroke-dasharray:none"
       clip-path="url(#clipPath3)"
       id="path112" />
    <path
       d="m 748.9608,255.4224 -0.0179,0.0158 -0.0536,0.0476 -0.0892,0.0791 -0.1246,0.1105 -0.1596,0.1415 -0.1941,0.1721 -0.2282,0.2023 -0.2615,0.232 -0.2943,0.261 -0.3261,0.2892 -0.3572,0.3167 -0.3872,0.3433 -0.4161,0.369 -0.4439,0.3936 -0.4705,0.4173 -0.4958,0.4397 -0.5198,0.4609 -0.5423,0.4809 -0.5633,0.4995 -0.5828,0.5168 -0.6007,0.5327 -0.617,0.5471 -0.6315,0.56 -0.6443,0.5713 -0.6554,0.5812 -0.6646,0.5894 -0.6722,0.596 -0.6776,0.6009 -0.6814,0.6043 -0.6834,0.6059 -0.2983,1.0401 -0.2974,1.0373 -0.2958,1.0316 -0.2934,1.0231 -0.2901,1.0117 -0.286,0.9977 -0.2813,0.9808 -0.2756,0.9613 2.3459,3.8884 1.0083,2.347 0.746,2.0153 0.6184,1.8323 0.5382,1.6993 0.4802,1.5885 0.4342,1.4885 0.3955,1.3938 0.3613,1.3018 0.3301,1.2105 0.3008,1.119 0.2728,1.0271 0.2456,0.9341 0.2191,0.8398 0.1929,0.7445 0.167,0.648 0.1412,0.5502 0.1154,0.4517 0.0898,0.3521 0.0641,0.2521 0.0385,0.1514 0.0128,0.0505 m 390.0345,439.8417 0.023,-0.0105 0.068,-0.0317 0.1126,-0.0528 0.1567,-0.0742 0.2002,-0.0956 0.2428,-0.1174 0.2839,-0.1394 0.3238,-0.1619 0.3618,-0.1848 0.3979,-0.2082 0.4322,-0.2322 0.4635,-0.2572 0.4923,-0.283 0.5182,-0.3099 0.5407,-0.3381 0.5597,-0.3676 0.5748,-0.3988 0.5859,-0.4318 0.5922,-0.4669 0.594,-0.5042 0.5907,-0.544 0.5822,-0.5863 0.5682,-0.6312 0.5491,-0.6789 0.5244,-0.729 0.4948,-0.7809 0.4602,-0.8348 0.4217,-0.8896 0.38,-0.9442 0.3358,-0.9979 0.2901,-1.0493 0.2442,-1.0974 0.199,-1.1407 0.1553,-1.1787 0.114,-1.2104 0.076,-1.2346 0.041,-1.2515 0.01,-1.2607 -0.017,-1.2621 -0.041,-1.2558 -0.06,-1.2418 -0.076,-1.2208 -0.089,-1.1929 -0.099,-1.1584 -0.1056,-1.1178 -0.1097,-1.0717 -0.1116,-1.02 -0.1112,-0.9637 -0.1089,-0.9027 -0.1049,-0.8378 -0.099,-0.7689 -0.092,-0.6969 -0.084,-0.6218 -0.075,-0.5442 -0.065,-0.4642 -0.054,-0.3824 -0.043,-0.2991 -0.031,-0.2145 -0.019,-0.129 -0.01,-0.043"
       style="fill:#ffffff;stroke:#ffffff;stroke-width:12.1259;stroke-miterlimit:2;stroke-dasharray:none"
       clip-path="url(#clipPath3)"
       id="path114" />
    <path
       d="m 590.3509,725.4357 0.2056,0.2747 0.2263,0.2639 0.247,0.2531 0.2676,0.2423 0.2879,0.2315 0.3078,0.2207 0.3272,0.21 0.3463,0.1992 0.3645,0.1881 0.3821,0.1772 0.399,0.1658 0.4147,0.1545 0.4295,0.1426 0.4431,0.1305 0.4553,0.1179 0.4662,0.1044 0.4752,0.0901 0.4822,0.0747 0.4871,0.0577 0.4894,0.0387 0.4883,0.0168 0.4837,-0.008 0.4745,-0.0381 0.4597,-0.074 0.4381,-0.1175 0.4085,-0.1707 0.3693,-0.2354 0.32,-0.3124 0.2611,-0.4014 0.195,-0.4983 0.1259,-0.5976 0.059,-0.6915 -0.002,-0.7745 -0.0536,-0.8425 -0.0963,-0.8954 -0.1303,-0.9336 -0.1571,-0.9595 -0.1779,-0.9747 -0.1939,-0.9812 -0.2063,-0.9804 -0.2156,-0.9734 -0.2225,-0.9611 -0.2276,-0.9444 -0.231,-0.9238 -0.2332,-0.8997 -0.2344,-0.8725 -0.2346,-0.8424 -0.234,-0.8101 -0.233,-0.7754 -0.2311,-0.7387 -0.2289,-0.7002 -0.2264,-0.6601 -0.2233,-0.6187 -0.2201,-0.5759 -0.2167,-0.5321 -0.2128,-0.4875 -0.2092,-0.442 -0.2051,-0.3962 -0.2012,-0.3499 -0.197,-0.3034"
       style="fill:#ffffff;stroke:#ffffff;stroke-width:12.1259;stroke-miterlimit:2;stroke-dasharray:none"
       clip-path="url(#clipPath3)"
       id="path116" />
    <path
       d="m 699.1277,460.197 -2.2877,7.9785 4.7101,1.3506 2.2878,-7.9785 z m -17.6408,61.5208 -2.2877,7.9784 4.7102,1.3507 2.2877,-7.9785 z"
       style="fill:#ffffff;stroke:#ffffff;stroke-width:12.1259;stroke-miterlimit:2;stroke-dasharray:none"
       clip-path="url(#clipPath4)"
       id="path118" />
    <path
       d="m 699.1277,460.197 -2.2877,7.9785 4.7101,1.3506 2.2878,-7.9785 z m -17.6408,61.5208 -2.2877,7.9784 4.7102,1.3507 2.2877,-7.9785 z"
       style="fill:#ffffff;stroke:#ffffff;stroke-width:12.1259;stroke-miterlimit:2;stroke-dasharray:none"
       clip-path="url(#clipPath4)"
       id="path120" />
    <path
       d="m 851.2936,426.4394 -3.6662,3.251 5.5069,6.2101 3.6662,-3.251 z m 42.4624,47.8848 -3.6662,3.251 5.5068,6.21 3.6662,-3.251 z"
       style="fill:#ffffff;stroke:#ffffff;stroke-width:12.1259;stroke-miterlimit:2;stroke-dasharray:none"
       clip-path="url(#clipPath4)"
       id="path122" />
    <path
       d="m 851.2936,426.4394 -3.6662,3.251 5.5069,6.2101 3.6662,-3.251 z m 42.4624,47.8848 -3.6662,3.251 5.5068,6.21 3.6662,-3.251 z"
       style="fill:#ffffff;stroke:#ffffff;stroke-width:12.1259;stroke-miterlimit:2;stroke-dasharray:none"
       clip-path="url(#clipPath4)"
       id="path124" />
  </g>
  <g
     transform="matrix(0.80899913,0,0,-0.80899913,126.71391,1204.275)"
     style="fill:#ffffff;stroke:#ffffff;stroke-width:12.1259;stroke-linecap:butt;stroke-linejoin:round;stroke-miterlimit:2;stroke-dasharray:none;text-rendering:optimizeLegibility"
     id="g170">
    <path
       d="m 574.7426,745.5275 c -2.3915,0 -4.5923,1.572 -5.2843,3.9854 l -0.2756,0.9612 c -0.8373,2.9199 0.8511,5.9657 3.7709,6.803 l 0.9613,0.2756 v 0 l 36.0473,10.3364 c 0.0921,0.0264 0.1849,0.039 0.2761,0.039 0.4349,0 0.8349,-0.2858 0.9608,-0.7246 l 2.7563,-9.6126 c 0.1523,-0.5309 -0.1547,-1.0847 -0.6856,-1.2369 l -4.3252,-1.2403 v 0 c -1e-4,0 -3e-4,-10e-5 -4e-4,-10e-5 l -32.6829,-9.3717 c -0.5065,-0.1452 -1.0169,-0.2144 -1.5187,-0.2144 z"
       style="fill:#ffffff;stroke:#ffffff;stroke-width:12.1259;stroke-miterlimit:2;stroke-dasharray:none"
       clip-path="url(#clipPath4)"
       id="path128" />
    <path
       d="m 574.7426,745.5275 c -2.3915,0 -4.5923,1.572 -5.2843,3.9854 l -0.2756,0.9612 c -0.8373,2.9199 0.8511,5.9657 3.7709,6.803 l 0.9613,0.2756 v 0 l 36.0473,10.3364 c 0.0921,0.0264 0.1849,0.039 0.2761,0.039 0.4349,0 0.8349,-0.2858 0.9608,-0.7246 l 2.7563,-9.6126 c 0.1523,-0.5309 -0.1547,-1.0847 -0.6856,-1.2369 l -4.3252,-1.2403 v 0 c -1e-4,0 -3e-4,-10e-5 -4e-4,-10e-5 l -32.6829,-9.3717 c -0.5065,-0.1452 -1.0169,-0.2144 -1.5187,-0.2144 z"
       style="fill:#ffffff;stroke:#ffffff;stroke-width:12.1259;stroke-miterlimit:2;stroke-dasharray:none"
       clip-path="url(#clipPath4)"
       id="path130" />
    <path
       d="m 575.0881,746.6473 c -2.7614,0 -5,2.2386 -5,5 0,2.7615 2.2386,5 5,5 2.7614,0 5,-2.2385 5,-5 0,-2.7614 -2.2386,-5 -5,-5 z"
       style="fill:#ffffff;stroke:#ffffff;stroke-width:12.1259;stroke-miterlimit:2;stroke-dasharray:none"
       clip-path="url(#clipPath4)"
       id="path132" />
    <path
       d="m 575.0881,746.6473 c -2.7614,0 -5,2.2386 -5,5 0,2.7615 2.2386,5 5,5 2.7614,0 5,-2.2385 5,-5 0,-2.7614 -2.2386,-5 -5,-5 z"
       style="fill:#ffffff;stroke:#ffffff;stroke-width:12.1259;stroke-miterlimit:2;stroke-dasharray:none"
       clip-path="url(#clipPath4)"
       id="path134" />
    <path
       d="m 578.0881,751.6473 -1.5,2.5981 h -3 l -1.5,-2.5981 1.5,-2.598 h 3 z"
       style="fill:#ffffff;stroke:#ffffff;stroke-width:12.1259;stroke-miterlimit:2;stroke-dasharray:none"
       clip-path="url(#clipPath4)"
       id="path136" />
    <path
       d="m 1151.1038,675.6566 c -2.4208,0 -4.7222,1.7212 -5.5267,4.3524 -0.9688,3.1689 0.6006,6.4577 3.5055,7.3459 l 43.0337,13.1567 c 0.493,0.1507 0.9926,0.2226 1.4873,0.2226 2.4207,0 4.7222,-1.7212 5.5266,-4.3524 0.9688,-3.1689 -0.6007,-6.4578 -3.5054,-7.3459 l -43.0337,-13.1567 c -0.493,-0.1507 -0.9927,-0.2226 -1.4873,-0.2226 z m -46.0258,150.1232 c -2.3549,0 -4.5336,1.5244 -5.2578,3.8935 -0.8881,2.9048 0.7468,5.9796 3.6516,6.8677 l 43.0337,13.1567 c 0.5358,0.1638 1.0774,0.2418 1.61,0.2418 2.3547,0 4.5334,-1.5244 5.2578,-3.8934 0.8881,-2.9049 -0.7468,-5.9796 -3.6517,-6.8678 l -43.0337,-13.1567 c -0.5358,-0.1638 -1.0774,-0.2418 -1.6099,-0.2418 z"
       style="fill:#ffffff;stroke:#ffffff;stroke-width:12.1259;stroke-miterlimit:2;stroke-dasharray:none"
       clip-path="url(#clipPath4)"
       id="path138" />
    <path
       d="m 1151.1038,675.6566 c -2.4208,0 -4.7222,1.7212 -5.5267,4.3524 -0.9688,3.1689 0.6006,6.4577 3.5055,7.3459 l 43.0337,13.1567 c 0.493,0.1507 0.9926,0.2226 1.4873,0.2226 2.4207,0 4.7222,-1.7212 5.5266,-4.3524 0.9688,-3.1689 -0.6007,-6.4578 -3.5054,-7.3459 l -43.0337,-13.1567 c -0.493,-0.1507 -0.9927,-0.2226 -1.4873,-0.2226 z m -46.0258,150.1232 c -2.3549,0 -4.5336,1.5244 -5.2578,3.8935 -0.8881,2.9048 0.7468,5.9796 3.6516,6.8677 l 43.0337,13.1567 c 0.5358,0.1638 1.0774,0.2418 1.61,0.2418 2.3547,0 4.5334,-1.5244 5.2578,-3.8934 0.8881,-2.9049 -0.7468,-5.9796 -3.6517,-6.8678 l -43.0337,-13.1567 c -0.5358,-0.1638 -1.0774,-0.2418 -1.6099,-0.2418 z"
       style="fill:#ffffff;stroke:#ffffff;stroke-width:12.1259;stroke-miterlimit:2;stroke-dasharray:none"
       clip-path="url(#clipPath4)"
       id="path140" />
    <path
       d="m 1103.4718,836.541 1.8374,5.7902 36.4352,11.1394 4.7611,-3.7729 z"
       style="fill:#ffffff;stroke:#ffffff;stroke-width:12.1259;stroke-miterlimit:2;stroke-dasharray:none"
       clip-path="url(#clipPath4)"
       id="path142" />
    <path
       d="m 1103.4718,836.541 1.8374,5.7902 36.4352,11.1394 4.7611,-3.7729 z"
       style="fill:#ffffff;stroke:#ffffff;stroke-width:12.1259;stroke-miterlimit:2;stroke-dasharray:none"
       clip-path="url(#clipPath4)"
       id="path144" />
    <path
       d="m 1105.3092,842.3312 -2.9237,9.563 36.4352,11.1394 2.9237,-9.563 z"
       style="fill:#ffffff;stroke:#ffffff;stroke-width:12.1259;stroke-miterlimit:2;stroke-dasharray:none"
       clip-path="url(#clipPath4)"
       id="path146" />
    <path
       d="m 1105.3092,842.3312 -2.9237,9.563 36.4352,11.1394 2.9237,-9.563 z"
       style="fill:#ffffff;stroke:#ffffff;stroke-width:12.1259;stroke-miterlimit:2;stroke-dasharray:none"
       clip-path="url(#clipPath4)"
       id="path148" />
    <path
       d="m 495.4555,887.483 c -4.339,0 -8.5796,1.5277 -11.9451,4.3736 l -32.6935,27.6451 v 0 c 5.3463,-1.5005 10.5962,-2.8499 15.5471,-3.9792 v 0 l 21.6663,-18.3207 c 2.092,-1.7691 4.7281,-2.7187 7.4253,-2.7187 0.6644,0 1.3325,0.0576 1.9971,0.1748 l 70.142,12.3679 c 0.8762,0.1545 1.7315,0.4102 2.5487,0.7619 l 37.393,16.091 v 0 q 8.4911,0.0517 17.8417,0.057 v 0 l -52.4677,-22.578 c -1.3147,-0.5657 -2.6906,-0.977 -4.1002,-1.2256 l -70.142,-12.3679 c -1.0691,-0.1885 -2.1439,-0.2812 -3.2127,-0.2812 z"
       style="fill:#ffffff;stroke:#ffffff;stroke-width:12.1259;stroke-miterlimit:2;stroke-dasharray:none"
       clip-path="url(#clipPath4)"
       id="path150" />
    <path
       d="m 495.4555,887.483 c -4.339,0 -8.5796,1.5277 -11.9451,4.3736 l -32.6935,27.6451 v 0 c 5.3463,-1.5005 10.5962,-2.8499 15.5471,-3.9792 v 0 l 21.6663,-18.3207 c 2.092,-1.7691 4.7281,-2.7187 7.4253,-2.7187 0.6644,0 1.3325,0.0576 1.9971,0.1748 l 70.142,12.3679 c 0.8762,0.1545 1.7315,0.4102 2.5487,0.7619 l 37.393,16.091 v 0 q 8.4911,0.0517 17.8417,0.057 v 0 l -52.4677,-22.578 c -1.3147,-0.5657 -2.6906,-0.977 -4.1002,-1.2256 l -70.142,-12.3679 c -1.0691,-0.1885 -2.1439,-0.2812 -3.2127,-0.2812 z"
       style="fill:#ffffff;stroke:#ffffff;stroke-width:12.1259;stroke-miterlimit:2;stroke-dasharray:none"
       clip-path="url(#clipPath4)"
       id="path152" />
    <path
       d="m 529.1534,882.4776 -14.7515,6.8762 -0.5065,2.8724 v 0 l 39.3923,6.9459 v 0 l 0.5065,-2.8724 -11.51,-11.5068 z m -15.8657,13.1954 -0.5065,2.8724 11.5101,11.5068 13.1307,2.3154 14.7515,-6.8763 0.5065,-2.8723 v 0 z"
       style="fill:#ffffff;stroke:#ffffff;stroke-width:12.1259;stroke-miterlimit:2;stroke-dasharray:none"
       clip-path="url(#clipPath4)"
       id="path154" />
    <path
       d="m 529.1534,882.4776 -14.7515,6.8762 -0.5065,2.8724 v 0 l 39.3923,6.9459 v 0 l 0.5065,-2.8724 -11.51,-11.5068 z m -15.8657,13.1954 -0.5065,2.8724 11.5101,11.5068 13.1307,2.3154 14.7515,-6.8763 0.5065,-2.8723 v 0 z"
       style="fill:#ffffff;stroke:#ffffff;stroke-width:12.1259;stroke-miterlimit:2;stroke-dasharray:none"
       clip-path="url(#clipPath4)"
       id="path156" />
    <path
       d="m 490.5302,911.9363 c -25.75,0 -103,26.25 -103,35 q 0,5 25,5 h 213 q 60,0 60,-22 0,-6 -58,-6 -62,0 -87,-2 -25,-10 -50,-10 z"
       style="fill:#ffffff;stroke:#ffffff;stroke-width:12.1259;stroke-miterlimit:2;stroke-dasharray:none"
       clip-path="url(#clipPath4)"
       id="path158" />
    <path
       d="m 490.5302,911.9363 c -25.75,0 -103,26.25 -103,35 q 0,5 25,5 h 213 q 60,0 60,-22 0,-6 -58,-6 -62,0 -87,-2 -25,-10 -50,-10 z"
       style="fill:#ffffff;stroke:#ffffff;stroke-width:12.1259;stroke-miterlimit:2;stroke-dasharray:none"
       clip-path="url(#clipPath4)"
       id="path160" />
    <path
       d="m 1165.2148,643.1395 -12.6237,32.7397 43.0337,13.1567 2.0798,-6.8029 8.1532,-26.6678 v 0 z"
       style="fill:#ffffff;stroke:#ffffff;stroke-width:12.1259;stroke-miterlimit:2;stroke-dasharray:none"
       clip-path="url(#clipPath4)"
       id="path162" />
    <path
       d="m 1165.2148,643.1395 -12.6237,32.7397 43.0337,13.1567 2.0798,-6.8029 8.1532,-26.6678 v 0 z"
       style="fill:#ffffff;stroke:#ffffff;stroke-width:12.1259;stroke-miterlimit:2;stroke-dasharray:none"
       clip-path="url(#clipPath4)"
       id="path164" />
    <path
       d="m 1322.281,328.0678 c -1.2914,0.6496 -2.4597,1.5892 -3.4008,2.8021 -60.6427,78.1601 -106.5485,166.708 -135.4719,261.3122 l -5.5697,18.2176 -25.2475,65.4795 43.0337,13.1567 26.0356,-85.1589 c 27.9165,-91.3107 66.0878,-179.1649 113.7836,-261.8818 2.6263,-4.5546 1.2772,-10.3651 -3.0873,-13.2965 -0.3495,-0.2347 -0.7088,-0.4446 -1.0757,-0.6299 v 0 V 337 c 0,2.4853 -2.0148,4.5 -4.5,4.5 -2.4852,0 -4.5,-2.0147 -4.5,-4.5 z"
       style="fill:#ffffff;stroke:#ffffff;stroke-width:12.1259;stroke-miterlimit:2;stroke-dasharray:none"
       clip-path="url(#clipPath4)"
       id="path166" />
    <path
       d="m 1322.281,328.0678 c -1.2914,0.6496 -2.4597,1.5892 -3.4008,2.8021 -60.6427,78.1601 -106.5485,166.708 -135.4719,261.3122 l -5.5697,18.2176 -25.2475,65.4795 43.0337,13.1567 26.0356,-85.1589 c 27.9165,-91.3107 66.0878,-179.1649 113.7836,-261.8818 2.6263,-4.5546 1.2772,-10.3651 -3.0873,-13.2965 -0.3495,-0.2347 -0.7088,-0.4446 -1.0757,-0.6299 v 0 V 337 c 0,2.4853 -2.0148,4.5 -4.5,4.5 -2.4852,0 -4.5,-2.0147 -4.5,-4.5 z"
       style="fill:#ffffff;stroke:#ffffff;stroke-width:12.1259;stroke-miterlimit:2;stroke-dasharray:none"
       clip-path="url(#clipPath4)"
       id="path168" />
  </g>
  <g
     transform="matrix(0.80899913,0,0,-0.80899913,126.71391,1204.275)"
     style="fill:#ffffff;stroke:#ffffff;stroke-width:12.1259;stroke-linecap:butt;stroke-linejoin:round;stroke-miterlimit:2;stroke-dasharray:none;text-rendering:optimizeLegibility"
     id="g180">
    <path
       d="m 1212.0831,883.075 c 8.7814,0 15.9001,7.1187 15.9001,15.9 0,8.7813 -7.1187,15.9 -15.9001,15.9 -8.7813,0 -15.9,-7.1187 -15.9,-15.9 0,-8.7813 7.1187,-15.9 15.9,-15.9 z m -109.6976,-31.1808 -11.6949,38.2522 36.4353,11.1394 1.445,-4.7267 20.7041,4.4007 27.6382,5.8747 20.6434,4.3879 c 3.4854,4.1297 8.6996,6.7526 14.5265,6.7526 10.4934,0 19,-8.5066 19,-19 0,-10.4934 -8.5066,-19 -19,-19 -2.9742,0 -5.7888,0.6834 -8.2953,1.9017 v 0 l -20.6373,-4.3866 -27.638,-5.8747 -18.1369,-3.8551 v 0 l 1.4451,-4.7267 z"
       style="fill:#ffffff;stroke:#ffffff;stroke-width:12.1259;stroke-miterlimit:2;stroke-dasharray:none"
       clip-path="url(#clipPath4)"
       id="path172" />
    <path
       d="m 1212.0831,883.075 c 8.7814,0 15.9001,7.1187 15.9001,15.9 0,8.7813 -7.1187,15.9 -15.9001,15.9 -8.7813,0 -15.9,-7.1187 -15.9,-15.9 0,-8.7813 7.1187,-15.9 15.9,-15.9 z m -109.6976,-31.1808 -11.6949,38.2522 36.4353,11.1394 1.445,-4.7267 20.7041,4.4007 27.6382,5.8747 20.6434,4.3879 c 3.4854,4.1297 8.6996,6.7526 14.5265,6.7526 10.4934,0 19,-8.5066 19,-19 0,-10.4934 -8.5066,-19 -19,-19 -2.9742,0 -5.7888,0.6834 -8.2953,1.9017 v 0 l -20.6373,-4.3866 -27.638,-5.8747 -18.1369,-3.8551 v 0 l 1.4451,-4.7267 z"
       style="fill:#ffffff;stroke:#ffffff;stroke-width:12.1259;stroke-miterlimit:2;stroke-dasharray:none"
       clip-path="url(#clipPath4)"
       id="path174" />
    <path
       d="m 1137.3756,867.7603 -0.022,0.0164 -0.066,0.049 -0.109,0.0816 -0.1519,0.1141 -0.1941,0.1461 -0.235,0.1781 -0.275,0.2096 -0.3132,0.2406 -0.35,0.2713 -0.3847,0.3013 -0.4171,0.3308 -0.4471,0.3597 -0.4744,0.3879 -0.4984,0.4155 -0.5194,0.4423 -0.5364,0.4683 -0.5495,0.4937 -0.5583,0.5183 -0.5622,0.5421 -0.5613,0.5653 -0.5552,0.5875 -0.5431,0.6092 -0.5256,0.6301 -0.5022,0.65 -0.4729,0.6692 -0.4382,0.6876 -0.3983,0.7047 -0.3542,0.7207 -0.3064,0.7353 -0.2561,0.7481 -0.2047,0.7591 -0.1532,0.7678 -0.1028,0.7741 -0.055,0.7778 -0.01,0.7785 0.031,0.7764 0.068,0.7712 0.1,0.7629 0.127,0.7517 0.1501,0.7374 0.1682,0.7203 0.1825,0.7004 0.1925,0.6779 0.1989,0.6528 0.2021,0.6253 0.202,0.5956 0.1992,0.5637 0.1936,0.53 0.1862,0.4943 0.1761,0.4569 0.1648,0.4181 0.1515,0.3778 0.1368,0.3364 0.1211,0.2937 0.1042,0.2502 0.086,0.2057 0.068,0.1608 0.049,0.1152 0.029,0.0692 0.01,0.0232"
       style="fill:#ffffff;stroke:#ffffff;stroke-width:12.1259;stroke-miterlimit:2;stroke-dasharray:none"
       clip-path="url(#clipPath4)"
       id="path176" />
    <path
       d="m 1212.0831,879.975 c -10.4934,0 -19,8.5066 -19,19 0,10.4934 8.5066,19 19,19 10.4934,0 19,-8.5066 19,-19 0,-10.4934 -8.5066,-19 -19,-19 z"
       style="fill:#ffffff;stroke:#ffffff;stroke-width:12.1259;stroke-miterlimit:2;stroke-dasharray:none"
       clip-path="url(#clipPath4)"
       id="path178" />
  </g>
  <g
     transform="matrix(0.80899913,0,0,-0.80899913,126.71391,1204.275)"
     style="fill:#ffffff;stroke:#ffffff;stroke-width:12.1259;stroke-linecap:butt;stroke-linejoin:round;stroke-miterlimit:2;stroke-dasharray:none;text-rendering:optimizeLegibility"
     id="g204">
    <path
       d="m 1212.0831,883.075 c -8.7813,0 -15.9,7.1187 -15.9,15.9 0,8.7813 7.1187,15.9 15.9,15.9 8.7814,0 15.9001,-7.1187 15.9001,-15.9 0,-8.7813 -7.1187,-15.9 -15.9001,-15.9 z"
       style="fill:#ffffff;stroke:#ffffff;stroke-width:12.1259;stroke-miterlimit:2;stroke-dasharray:none"
       clip-path="url(#clipPath4)"
       id="path182" />
    <path
       d="m 1212.0831,883.075 c -8.7813,0 -15.9,7.1187 -15.9,15.9 0,8.7813 7.1187,15.9 15.9,15.9 8.7814,0 15.9001,-7.1187 15.9001,-15.9 0,-8.7813 -7.1187,-15.9 -15.9001,-15.9 z"
       style="fill:#ffffff;stroke:#ffffff;stroke-width:12.1259;stroke-miterlimit:2;stroke-dasharray:none"
       clip-path="url(#clipPath4)"
       id="path184" />
    <path
       d="m 1183.1256,746.6252 -6.2373,29.3445 37.5377,7.9788 c 24.1464,5.1325 45.7123,18.6084 60.9104,38.0611 l 5.3273,6.8185 c 8.3743,10.7187 9.78,25.3183 3.6049,37.4379 -5.9891,11.754 -18.0566,19.1104 -31.1796,19.1104 -0.4081,0 -0.8171,-0.007 -1.2272,-0.0214 l -39.2552,-1.3709 c -0.1783,-0.006 -0.356,-0.009 -0.533,-0.009 -8.0422,0 -14.6985,6.3757 -14.9813,14.4766 -0.2892,8.2793 6.1881,15.2253 14.4674,15.5144 l 39.2551,1.3708 c 0.7615,0.0266 1.5213,0.0398 2.2791,0.0398 24.3713,0 46.7824,-13.6619 57.9049,-35.4908 11.4682,-22.5078 8.8574,-49.6214 -6.6947,-69.5274 l -5.3273,-6.8186 c -19.5404,-25.0105 -47.2681,-42.3367 -78.3133,-48.9356 z"
       style="fill:#ffffff;stroke:#ffffff;stroke-width:12.1259;stroke-miterlimit:2;stroke-dasharray:none"
       clip-path="url(#clipPath4)"
       id="path186" />
    <path
       d="m 1183.1256,746.6252 -6.2373,29.3445 37.5377,7.9788 c 24.1464,5.1325 45.7123,18.6084 60.9104,38.0611 l 5.3273,6.8185 c 8.3743,10.7187 9.78,25.3183 3.6049,37.4379 -5.9891,11.754 -18.0566,19.1104 -31.1796,19.1104 -0.4081,0 -0.8171,-0.007 -1.2272,-0.0214 l -39.2552,-1.3709 c -0.1783,-0.006 -0.356,-0.009 -0.533,-0.009 -8.0422,0 -14.6985,6.3757 -14.9813,14.4766 -0.2892,8.2793 6.1881,15.2253 14.4674,15.5144 l 39.2551,1.3708 c 0.7615,0.0266 1.5213,0.0398 2.2791,0.0398 24.3713,0 46.7824,-13.6619 57.9049,-35.4908 11.4682,-22.5078 8.8574,-49.6214 -6.6947,-69.5274 l -5.3273,-6.8186 c -19.5404,-25.0105 -47.2681,-42.3367 -78.3133,-48.9356 z"
       style="fill:#ffffff;stroke:#ffffff;stroke-width:12.1259;stroke-miterlimit:2;stroke-dasharray:none"
       clip-path="url(#clipPath4)"
       id="path188" />
    <path
       d="m 1310.0621,877.7898 c -24.8825,8.711 -37.9852,20.0201 -40.6887,35.4858 l 1.6375,1.2544 c 12.6217,2.1187 21.877,3.5158 29.8891,4.8059 7.0962,1.5232 14.0016,3.8037 18.6354,5.1987 12.0674,5.3398 16.4491,10.4732 21.5225,20.6216 2.7775,7.6974 7.3121,14.6197 11.4607,19.4969 0.6517,0.7355 2.9279,2.0835 5.073,2.0835 0.4283,0 0.8514,-0.0538 1.2553,-0.1769 l 21.4976,-6.4644 c 7.9128,-2.3023 7.6371,-6.3451 5.2084,-12.8979 v 0 l -9.1282,0.2001 c -3.8329,-0.0721 -6.9746,-1.1041 -9.1145,-5.28 l -18.5198,-44.8205 c -18.9534,-3.8712 -29.7114,-11.9655 -38.7283,-19.5072 z"
       style="fill:#ffffff;stroke:#ffffff;stroke-width:12.1259;stroke-miterlimit:2;stroke-dasharray:none"
       clip-path="url(#clipPath4)"
       id="path190" />
    <path
       d="m 1310.0621,877.7898 c -24.8825,8.711 -37.9852,20.0201 -40.6887,35.4858 l 1.6375,1.2544 c 12.6217,2.1187 21.877,3.5158 29.8891,4.8059 7.0962,1.5232 14.0016,3.8037 18.6354,5.1987 12.0674,5.3398 16.4491,10.4732 21.5225,20.6216 2.7775,7.6974 7.3121,14.6197 11.4607,19.4969 0.6517,0.7355 2.9279,2.0835 5.073,2.0835 0.4283,0 0.8514,-0.0538 1.2553,-0.1769 l 21.4976,-6.4644 c 7.9128,-2.3023 7.6371,-6.3451 5.2084,-12.8979 v 0 l -9.1282,0.2001 c -3.8329,-0.0721 -6.9746,-1.1041 -9.1145,-5.28 l -18.5198,-44.8205 c -18.9534,-3.8712 -29.7114,-11.9655 -38.7283,-19.5072 z"
       style="fill:#ffffff;stroke:#ffffff;stroke-width:12.1259;stroke-miterlimit:2;stroke-dasharray:none"
       clip-path="url(#clipPath4)"
       id="path192" />
    <path
       d="m 1362.3153,910.7868 c 0.6465,0 1.2894,0.2706 1.7455,0.7991 0.8309,0.9631 0.7241,2.4179 -0.239,3.249 -0.4353,0.3761 -0.9713,0.5604 -1.5049,0.5604 -0.6464,0 -1.2889,-0.2704 -1.7443,-0.798 -0.8316,-0.9639 -0.7254,-2.4194 0.2377,-3.2505 0.4354,-0.3757 0.9714,-0.56 1.505,-0.56 z m -13.5264,-13.4884 18.5213,44.8206 c 2.1413,4.1773 5.2815,5.2092 9.1145,5.2799 l 9.1274,-0.1993 -6.514,-17.5726 c -1.7527,-4.7267 -1.4059,-7.8658 -0.6852,-12.7629 l -7.116,-7.004 c -4.122,-3.9707 -6.7133,-4.0497 -9.6499,-4.7035 l -5.6892,-1.2671 c -0.5952,-0.2405 -1.1152,-0.547 -1.4128,-1.1873 l -1.8288,-4.4258 z"
       style="fill:#ffffff;stroke:#ffffff;stroke-width:12.1259;stroke-miterlimit:2;stroke-dasharray:none"
       clip-path="url(#clipPath4)"
       id="path194" />
    <path
       d="m 1362.3153,910.7868 c 0.6465,0 1.2894,0.2706 1.7455,0.7991 0.8309,0.9631 0.7241,2.4179 -0.239,3.249 -0.4353,0.3761 -0.9713,0.5604 -1.5049,0.5604 -0.6464,0 -1.2889,-0.2704 -1.7443,-0.798 -0.8316,-0.9639 -0.7254,-2.4194 0.2377,-3.2505 0.4354,-0.3757 0.9714,-0.56 1.505,-0.56 z m -13.5264,-13.4884 18.5213,44.8206 c 2.1413,4.1773 5.2815,5.2092 9.1145,5.2799 l 9.1274,-0.1993 -6.514,-17.5726 c -1.7527,-4.7267 -1.4059,-7.8658 -0.6852,-12.7629 l -7.116,-7.004 c -4.122,-3.9707 -6.7133,-4.0497 -9.6499,-4.7035 l -5.6892,-1.2671 c -0.5952,-0.2405 -1.1152,-0.547 -1.4128,-1.1873 l -1.8288,-4.4258 z"
       style="fill:#ffffff;stroke:#ffffff;stroke-width:12.1259;stroke-miterlimit:2;stroke-dasharray:none"
       clip-path="url(#clipPath4)"
       id="path196" />
    <path
       d="m 1385.6731,805.7653 c -0.1166,0 -0.2269,0.0175 -0.3268,0.0559 -6.9515,4.0366 -13.9477,8.2895 -13.8451,12.727 0.2154,1.9001 0.8023,4.1288 0.8736,11.0694 l -0.6082,-4.457 c -0.3403,-1.759 -1.0957,-5.5624 -1.1351,-5.8262 -0.094,-0.373 -0.5016,-0.7634 -0.9694,-0.7634 -0.2381,0 -0.4918,0.1011 -0.7277,0.3572 -2.1995,1.9715 -10.4627,11.4342 -10.7967,11.7138 -1.7315,1.935 -3.614,5.459 -4.5225,7.8508 -0.025,0.0458 -3.2894,10.6949 -4.7143,15.2062 -0.3064,1.2625 -0.8353,4.7121 1.5305,7.4038 4.2303,4.9385 8.4358,9.7367 9.5128,11.1052 0.2975,0.2062 0.5693,0.3325 0.8185,0.3325 0.3572,0 0.6676,-0.2595 0.9393,-0.9154 0.1059,-1.5866 0.3351,-2.4256 0.5375,-2.4256 0.2843,0 0.5156,1.6553 0.2772,5.2187 0.01,1.0338 1.6057,3.7031 2.0811,5.6691 0.3055,2.2278 0.4234,3.0788 0.6117,4.4534 0.1364,0.4833 0.5157,0.8423 0.9786,0.8423 0.2476,0 0.5191,-0.1027 0.7902,-0.3439 1.0272,-1.1575 2.8969,-4.0051 3.2877,-4.0051 0.086,0 0.1002,0.1377 0.018,0.4612 -0.2132,1.1335 -0.6279,1.8413 -0.6279,1.8413 l -3.0623,3.7624 c -0.7263,1.247 -1.6809,2.0696 -2.2548,5.2283 l -1.5702,10.2562 c 0,0 -0.4289,1.7139 -1.1822,2.5718 2.9366,0.6538 5.5279,0.7328 9.6499,4.7035 l 5.1435,5.0632 v 0.004 c 3.2164,-7.3964 4.8515,-9.1147 3.7964,-27.3038 0.083,-8.5473 -2.4002,-41.8588 -1.0511,-60.461 0.5942,-4.5616 2.4059,-10.6195 7.9261,-15.4559 2.0835,-1.728 1.2306,-3.701 0.4041,-4.9335 -0.3253,-0.4847 -1.1497,-1.0066 -1.787,-1.0066 z m -23.3578,105.0215 c -0.5336,0 -1.0696,0.1843 -1.505,0.56 -0.9631,0.8311 -1.0693,2.2866 -0.2377,3.2505 0.4554,0.5276 1.0979,0.798 1.7443,0.798 0.5336,0 1.0696,-0.1843 1.5049,-0.5604 0.9631,-0.8311 1.0699,-2.2859 0.239,-3.249 -0.4561,-0.5285 -1.099,-0.7991 -1.7455,-0.7991 z"
       style="fill:#ffffff;stroke:#ffffff;stroke-width:12.1259;stroke-miterlimit:2;stroke-dasharray:none"
       clip-path="url(#clipPath4)"
       id="path198" />
    <path
       d="m 1385.6731,805.7653 c -0.1166,0 -0.2269,0.0175 -0.3268,0.0559 -6.9515,4.0366 -13.9477,8.2895 -13.8451,12.727 0.2154,1.9001 0.8023,4.1288 0.8736,11.0694 l -0.6082,-4.457 c -0.3403,-1.759 -1.0957,-5.5624 -1.1351,-5.8262 -0.094,-0.373 -0.5016,-0.7634 -0.9694,-0.7634 -0.2381,0 -0.4918,0.1011 -0.7277,0.3572 -2.1995,1.9715 -10.4627,11.4342 -10.7967,11.7138 -1.7315,1.935 -3.614,5.459 -4.5225,7.8508 -0.025,0.0458 -3.2894,10.6949 -4.7143,15.2062 -0.3064,1.2625 -0.8353,4.7121 1.5305,7.4038 4.2303,4.9385 8.4358,9.7367 9.5128,11.1052 0.2975,0.2062 0.5693,0.3325 0.8185,0.3325 0.3572,0 0.6676,-0.2595 0.9393,-0.9154 0.1059,-1.5866 0.3351,-2.4256 0.5375,-2.4256 0.2843,0 0.5156,1.6553 0.2772,5.2187 0.01,1.0338 1.6057,3.7031 2.0811,5.6691 0.3055,2.2278 0.4234,3.0788 0.6117,4.4534 0.1364,0.4833 0.5157,0.8423 0.9786,0.8423 0.2476,0 0.5191,-0.1027 0.7902,-0.3439 1.0272,-1.1575 2.8969,-4.0051 3.2877,-4.0051 0.086,0 0.1002,0.1377 0.018,0.4612 -0.2132,1.1335 -0.6279,1.8413 -0.6279,1.8413 l -3.0623,3.7624 c -0.7263,1.247 -1.6809,2.0696 -2.2548,5.2283 l -1.5702,10.2562 c 0,0 -0.4289,1.7139 -1.1822,2.5718 2.9366,0.6538 5.5279,0.7328 9.6499,4.7035 l 5.1435,5.0632 v 0.004 c 3.2164,-7.3964 4.8515,-9.1147 3.7964,-27.3038 0.083,-8.5473 -2.4002,-41.8588 -1.0511,-60.461 0.5942,-4.5616 2.4059,-10.6195 7.9261,-15.4559 2.0835,-1.728 1.2306,-3.701 0.4041,-4.9335 -0.3253,-0.4847 -1.1497,-1.0066 -1.787,-1.0066 z m -23.3578,105.0215 c -0.5336,0 -1.0696,0.1843 -1.505,0.56 -0.9631,0.8311 -1.0693,2.2866 -0.2377,3.2505 0.4554,0.5276 1.0979,0.798 1.7443,0.798 0.5336,0 1.0696,-0.1843 1.5049,-0.5604 0.9631,-0.8311 1.0699,-2.2859 0.239,-3.249 -0.4561,-0.5285 -1.099,-0.7991 -1.7455,-0.7991 z"
       style="fill:#ffffff;stroke:#ffffff;stroke-width:12.1259;stroke-miterlimit:2;stroke-dasharray:none"
       clip-path="url(#clipPath4)"
       id="path200" />
    <path
       d="m 1362.6844,871.9588 2.2139,-29.546 c 0.9143,-5.2612 5.9892,-15.1516 7.48,-12.7945 0.771,1.9288 1.2821,3.6086 1.0041,14.7418 -0.4024,16.0401 -1.0199,32.1078 -3.1176,36.6755 m -8.4226,-11.4592 2.1732,-27.8356 c 1.691,-6.3977 3.763,-9.8956 7.7648,-14.8038"
       style="fill:#ffffff;stroke:#ffffff;stroke-width:12.1259;stroke-miterlimit:2;stroke-dasharray:none"
       clip-path="url(#clipPath4)"
       id="path202" />
  </g>
</svg>
