<?xml version="1.0" encoding="UTF-8" standalone="no"?>
<svg
   width="96"
   height="96"
   viewBox="0 0 96 96"
   fill="none"
   version="1.1">
  <path
     d="m 48,1.1841527 c -26.52,0 -48,21.4800003 -48,48.0000003 0,21.24 13.74,39.18 32.82,45.54 2.4,0.42 3.3,-1.02 3.3,-2.28 0,-1.14 -0.06,-4.92 -0.06,-8.94 -12.06,2.22 -15.18,-2.94 -16.14,-5.64 -0.54,-1.38 -2.88,-5.64 -4.92,-6.78 -1.68,-0.9 -4.08,-3.12 -0.06,-3.18 3.78,-0.06 6.48,3.48 7.38,4.92 4.32,7.26 11.22,5.22 13.98,3.96 0.42,-3.12 1.68,-5.22 3.06,-6.42 -10.68,-1.2 -21.84,-5.34 -21.84,-23.7 0,-5.22 1.86,-9.54 4.92,-12.9 -0.48,-1.2 -2.16,-6.12 0.48,-12.72 0,0 4.02,-1.26 13.2,4.92 3.84,-1.08 7.92,-1.62 12,-1.62 4.08,0 8.16,0.54 12,1.62 9.18,-6.24 13.2,-4.92 13.2,-4.92 2.64,6.6 0.96,11.52 0.48,12.72 3.06,3.36 4.92,7.62 4.92,12.9 0,18.42 -11.22,22.5 -21.9,23.7 1.74,1.5 3.24,4.38 3.24,8.88 0,6.42 -0.06,11.58 -0.06,13.2 0,1.26 0.9,2.76 3.3,2.28 18.96,-6.36 32.7,-24.36 32.7,-45.54 0,-26.52 -21.48,-48.0000003 -48,-48.0000003 z"
     fill="#444488"
     id="path2"
     style="stroke-width:6" />
</svg>
