<?xml version="1.0" encoding="UTF-8" standalone="no"?>
<!-- Created with Inkscape (http://www.inkscape.org/) -->

<svg
   xmlns:dc="http://purl.org/dc/elements/1.1/"
   xmlns:cc="http://creativecommons.org/ns#"
   xmlns:rdf="http://www.w3.org/1999/02/22-rdf-syntax-ns#"
   xmlns:svg="http://www.w3.org/2000/svg"
   xmlns="http://www.w3.org/2000/svg"
   xmlns:sodipodi="http://sodipodi.sourceforge.net/DTD/sodipodi-0.dtd"
   xmlns:inkscape="http://www.inkscape.org/namespaces/inkscape"
   width="141.73228"
   height="354.33069"
   id="svg2"
   version="1.1"
   inkscape:version="0.48.4 r9939"
   sodipodi:docname="Farol Regulado Integrado.svg"
   inkscape:export-filename="/home/helton/Dropbox/02Projetinhos/06 Bike Projects/Sistema elétrico da bike/02 Desenhos/Farol Regulado Integrado.png"
   inkscape:export-xdpi="150.11401"
   inkscape:export-ydpi="150.11401">
  <defs
     id="defs4" />
  <sodipodi:namedview
     id="base"
     pagecolor="#ffffff"
     bordercolor="#666666"
     borderopacity="1.0"
     inkscape:pageopacity="0.0"
     inkscape:pageshadow="2"
     inkscape:zoom="2.1279557"
     inkscape:cx="-64.679231"
     inkscape:cy="170.62399"
     inkscape:document-units="mm"
     inkscape:current-layer="layer3"
     showgrid="true"
     inkscape:window-width="1440"
     inkscape:window-height="878"
     inkscape:window-x="-8"
     inkscape:window-y="-8"
     inkscape:window-maximized="1"
     units="mm"
     showguides="true"
     inkscape:guide-bbox="true">
    <inkscape:grid
       type="xygrid"
       id="grid3216"
       empspacing="5"
       visible="true"
       enabled="true"
       snapvisiblegridlinesonly="true" />
  </sodipodi:namedview>
  <metadata
     id="metadata7">
    <rdf:RDF>
      <cc:Work
         rdf:about="">
        <dc:format>image/svg+xml</dc:format>
        <dc:type
           rdf:resource="http://purl.org/dc/dcmitype/StillImage" />
        <dc:title />
      </cc:Work>
    </rdf:RDF>
  </metadata>
  <g
     inkscape:label="placa"
     inkscape:groupmode="layer"
     id="layer1"
     transform="translate(0,-698.03147)"
     style="display:inline">
    <rect
       transform="translate(0,520.86614)"
       style="opacity:0.46350366999999998;display:inline;fill:#efe2d8;fill-opacity:1;stroke:black;stroke-width:0.35433071999999999;stroke-miterlimit:4;stroke-dasharray:none"
       id="rect4129"
       width="85.714287"
       height="301.02664"
       x="28.008999"
       y="203.86926" />
  </g>
  <g
     inkscape:groupmode="layer"
     id="layer2"
     inkscape:label="trilhas"
     style="opacity:1;display:inline"
     transform="translate(0,-177.16533)">
    <path
       style="opacity:0.46350366999999998;fill:#2eb0e0;fill-opacity:1;stroke:none;display:inline"
       d="m 28.215511,203.98827 28.329364,0 0,170.92219 10.62793,0 0,53.52759 -20.99978,0 0,76.1383 -17.957514,0 z"
       id="rect4094"
       inkscape:connector-curvature="0"
       sodipodi:nodetypes="ccccccccc" />
    <path
       sodipodi:nodetypes="ccccccccc"
       inkscape:connector-curvature="0"
       id="path4097"
       d="m 113.38082,203.98827 -29.585655,0 0,170.54656 -9.72674,0 0,53.90322 21.35489,0 0,76.1383 17.957515,0 z"
       style="opacity:0.48350363000000002;fill:#ed8787;fill-opacity:1;stroke:none;display:inline" />
    <rect
       style="opacity:0.46350366999999998;fill:#77dc8b;fill-opacity:1;stroke:none;display:inline"
       id="rect4099"
       width="21.104452"
       height="167.45244"
       x="59.622845"
       y="203.58827" />
    <path
       style="opacity:0.46350366999999998;color:black;fill:#77dc8b;fill-opacity:1;fill-rule:nonzero;stroke:none;marker:none;visibility:visible;display:inline;overflow:visible;enable-background:accumulate"
       d="m 50.286585,432.19283 17.88404,0 0,30.41965 -10,0 0,25.51422 26,0 0,9.51245 -33.88404,0 z"
       id="rect4143"
       inkscape:connector-curvature="0"
       sodipodi:nodetypes="ccccccccc" />
    <path
       style="opacity:0.46350366999999998;color:black;fill:#77dc8b;fill-opacity:1;fill-rule:nonzero;stroke:none;marker:none;visibility:visible;display:inline;overflow:visible;enable-background:accumulate"
       d="m 73.014775,432.19283 17.88404,0 0,45.34544 -29.88404,0 0,-8.25615 12,0 z"
       id="rect4147"
       inkscape:connector-curvature="0"
       sodipodi:nodetypes="ccccccc" />
  </g>
  <g
     inkscape:groupmode="layer"
     id="layer3"
     inkscape:label="componentes"
     style="display:inline;opacity:0.76388889"
     transform="translate(0,-177.16533)">
    <g
       id="g3829"
       transform="matrix(0,-1,1,0,-922.15552,512.7736)">
      <path
         style="fill:none;stroke:black;stroke-width:1.77165353000000000;stroke-linecap:square;stroke-linejoin:miter;stroke-miterlimit:4;stroke-opacity:1;stroke-dasharray:none"
         d="m 59.817856,961.44605 0,63.16255"
         id="path3808"
         inkscape:connector-curvature="0"
         sodipodi:nodetypes="cc" />
      <rect
         y="978.85413"
         x="54.502895"
         height="28.346457"
         width="10.629921"
         id="rect3806"
         style="fill:#999;stroke:none" />
    </g>
    <g
       transform="matrix(0,1,-1,0,1027.1269,343.18604)"
       id="g3820">
      <g
         transform="translate(-50.769774,-11.918109)"
         id="g3026">
        <path
           inkscape:connector-curvature="0"
           style="fill:#ccc;stroke:none"
           d="m 72.84375,59.75 c -5.870743,0 -10.625,4.754256 -10.625,10.625 0,3.734529 1.931033,7.010261 4.84375,8.90625 l 11.5625,0 c 2.912717,-1.895989 4.84375,-5.171721 4.84375,-8.90625 0,-5.870744 -4.754256,-10.625 -10.625,-10.625 z"
           transform="translate(0,910.62991)"
           id="path3017" />
      </g>
      <g
         id="g3816">
        <path
           sodipodi:type="arc"
           style="fill:#999;stroke:none"
           id="path3019"
           sodipodi:cx="71.301666"
           sodipodi:cy="71.674973"
           sodipodi:rx="9.0838079"
           sodipodi:ry="9.3326788"
           d="m 80.385474,71.674973 a 9.0838079,9.3326788 0 1 1 -18.167616,0 9.0838079,9.3326788 0 1 1 18.167616,0 z"
           transform="matrix(0.97517118,0,0,0.94916668,-47.453325,901.05804)" />
        <path
           style="fill:none;stroke:black;stroke-width:1.77165353000000000;stroke-linecap:square;stroke-linejoin:miter;stroke-miterlimit:4;stroke-opacity:1;stroke-dasharray:none"
           d="m 22.073976,965.44127 0,7.29653"
           id="path3030"
           inkscape:connector-curvature="0"
           sodipodi:nodetypes="cc" />
      </g>
    </g>
    <g
       id="g3017"
       transform="matrix(0,1,-1,0,1027.1269,318.83958)">
      <g
         id="g3019"
         transform="translate(-50.769774,-11.918109)">
        <path
           id="path3021"
           transform="translate(0,910.62991)"
           d="m 72.84375,59.75 c -5.870743,0 -10.625,4.754256 -10.625,10.625 0,3.734529 1.931033,7.010261 4.84375,8.90625 l 11.5625,0 c 2.912717,-1.895989 4.84375,-5.171721 4.84375,-8.90625 0,-5.870744 -4.754256,-10.625 -10.625,-10.625 z"
           style="fill:#ccc;stroke:none"
           inkscape:connector-curvature="0" />
      </g>
      <g
         id="g3023">
        <path
           transform="matrix(0.97517118,0,0,0.94916668,-47.453325,901.05804)"
           d="m 80.385474,71.674973 a 9.0838079,9.3326788 0 1 1 -18.167616,0 9.0838079,9.3326788 0 1 1 18.167616,0 z"
           sodipodi:ry="9.3326788"
           sodipodi:rx="9.0838079"
           sodipodi:cy="71.674973"
           sodipodi:cx="71.301666"
           id="path3025"
           style="fill:#999;stroke:none"
           sodipodi:type="arc" />
        <path
           sodipodi:nodetypes="cc"
           inkscape:connector-curvature="0"
           id="path3027"
           d="m 22.073976,965.44127 0,7.29653"
           style="fill:none;stroke:black;stroke-width:1.77165353000000000;stroke-linecap:square;stroke-linejoin:miter;stroke-miterlimit:4;stroke-opacity:1;stroke-dasharray:none" />
      </g>
    </g>
    <g
       transform="matrix(0,1,-1,0,1027.1269,294.49312)"
       id="g3029">
      <g
         transform="translate(-50.769774,-11.918109)"
         id="g3031">
        <path
           inkscape:connector-curvature="0"
           style="fill:#ccc;stroke:none"
           d="m 72.84375,59.75 c -5.870743,0 -10.625,4.754256 -10.625,10.625 0,3.734529 1.931033,7.010261 4.84375,8.90625 l 11.5625,0 c 2.912717,-1.895989 4.84375,-5.171721 4.84375,-8.90625 0,-5.870744 -4.754256,-10.625 -10.625,-10.625 z"
           transform="translate(0,910.62991)"
           id="path3033" />
      </g>
      <g
         id="g3035">
        <path
           sodipodi:type="arc"
           style="fill:#999;stroke:none"
           id="path3037"
           sodipodi:cx="71.301666"
           sodipodi:cy="71.674973"
           sodipodi:rx="9.0838079"
           sodipodi:ry="9.3326788"
           d="m 80.385474,71.674973 a 9.0838079,9.3326788 0 1 1 -18.167616,0 9.0838079,9.3326788 0 1 1 18.167616,0 z"
           transform="matrix(0.97517118,0,0,0.94916668,-47.453325,901.05804)" />
        <path
           style="fill:none;stroke:black;stroke-width:1.77165353000000000;stroke-linecap:square;stroke-linejoin:miter;stroke-miterlimit:4;stroke-opacity:1;stroke-dasharray:none"
           d="m 22.073976,965.44127 0,7.29653"
           id="path3039"
           inkscape:connector-curvature="0"
           sodipodi:nodetypes="cc" />
      </g>
    </g>
    <g
       id="g3041"
       transform="matrix(0,1,-1,0,1027.1269,270.14666)">
      <g
         id="g3043"
         transform="translate(-50.769774,-11.918109)">
        <path
           id="path3045"
           transform="translate(0,910.62991)"
           d="m 72.84375,59.75 c -5.870743,0 -10.625,4.754256 -10.625,10.625 0,3.734529 1.931033,7.010261 4.84375,8.90625 l 11.5625,0 c 2.912717,-1.895989 4.84375,-5.171721 4.84375,-8.90625 0,-5.870744 -4.754256,-10.625 -10.625,-10.625 z"
           style="fill:#ccc;stroke:none"
           inkscape:connector-curvature="0" />
      </g>
      <g
         id="g3047">
        <path
           transform="matrix(0.97517118,0,0,0.94916668,-47.453325,901.05804)"
           d="m 80.385474,71.674973 a 9.0838079,9.3326788 0 1 1 -18.167616,0 9.0838079,9.3326788 0 1 1 18.167616,0 z"
           sodipodi:ry="9.3326788"
           sodipodi:rx="9.0838079"
           sodipodi:cy="71.674973"
           sodipodi:cx="71.301666"
           id="path3049"
           style="fill:#999;stroke:none"
           sodipodi:type="arc" />
        <path
           sodipodi:nodetypes="cc"
           inkscape:connector-curvature="0"
           id="path3051"
           d="m 22.073976,965.44127 0,7.29653"
           style="fill:none;stroke:black;stroke-width:1.77165353000000000;stroke-linecap:square;stroke-linejoin:miter;stroke-miterlimit:4;stroke-opacity:1;stroke-dasharray:none" />
      </g>
    </g>
    <g
       transform="matrix(0,1,-1,0,1027.1269,245.8002)"
       id="g3053">
      <g
         transform="translate(-50.769774,-11.918109)"
         id="g3055">
        <path
           inkscape:connector-curvature="0"
           style="fill:#ccc;stroke:none"
           d="m 72.84375,59.75 c -5.870743,0 -10.625,4.754256 -10.625,10.625 0,3.734529 1.931033,7.010261 4.84375,8.90625 l 11.5625,0 c 2.912717,-1.895989 4.84375,-5.171721 4.84375,-8.90625 0,-5.870744 -4.754256,-10.625 -10.625,-10.625 z"
           transform="translate(0,910.62991)"
           id="path3057" />
      </g>
      <g
         id="g3059">
        <path
           sodipodi:type="arc"
           style="fill:#999;stroke:none"
           id="path3061"
           sodipodi:cx="71.301666"
           sodipodi:cy="71.674973"
           sodipodi:rx="9.0838079"
           sodipodi:ry="9.3326788"
           d="m 80.385474,71.674973 a 9.0838079,9.3326788 0 1 1 -18.167616,0 9.0838079,9.3326788 0 1 1 18.167616,0 z"
           transform="matrix(0.97517118,0,0,0.94916668,-47.453325,901.05804)" />
        <path
           style="fill:none;stroke:black;stroke-width:1.77165353000000000;stroke-linecap:square;stroke-linejoin:miter;stroke-miterlimit:4;stroke-opacity:1;stroke-dasharray:none"
           d="m 22.073976,965.44127 0,7.29653"
           id="path3063"
           inkscape:connector-curvature="0"
           sodipodi:nodetypes="cc" />
      </g>
    </g>
    <g
       id="g3065"
       transform="matrix(0,1,-1,0,1027.1269,221.45374)">
      <g
         id="g3067"
         transform="translate(-50.769774,-11.918109)">
        <path
           id="path3069"
           transform="translate(0,910.62991)"
           d="m 72.84375,59.75 c -5.870743,0 -10.625,4.754256 -10.625,10.625 0,3.734529 1.931033,7.010261 4.84375,8.90625 l 11.5625,0 c 2.912717,-1.895989 4.84375,-5.171721 4.84375,-8.90625 0,-5.870744 -4.754256,-10.625 -10.625,-10.625 z"
           style="fill:#ccc;stroke:none"
           inkscape:connector-curvature="0" />
      </g>
      <g
         id="g3071">
        <path
           transform="matrix(0.97517118,0,0,0.94916668,-47.453325,901.05804)"
           d="m 80.385474,71.674973 a 9.0838079,9.3326788 0 1 1 -18.167616,0 9.0838079,9.3326788 0 1 1 18.167616,0 z"
           sodipodi:ry="9.3326788"
           sodipodi:rx="9.0838079"
           sodipodi:cy="71.674973"
           sodipodi:cx="71.301666"
           id="path3073"
           style="fill:#999;stroke:none"
           sodipodi:type="arc" />
        <path
           sodipodi:nodetypes="cc"
           inkscape:connector-curvature="0"
           id="path3075"
           d="m 22.073976,965.44127 0,7.29653"
           style="fill:none;stroke:black;stroke-width:1.77165353000000000;stroke-linecap:square;stroke-linejoin:miter;stroke-miterlimit:4;stroke-opacity:1;stroke-dasharray:none" />
      </g>
    </g>
    <g
       transform="matrix(0,1,-1,0,1027.1269,197.10728)"
       id="g3077">
      <g
         transform="translate(-50.769774,-11.918109)"
         id="g3079">
        <path
           inkscape:connector-curvature="0"
           style="fill:#ccc;stroke:none"
           d="m 72.84375,59.75 c -5.870743,0 -10.625,4.754256 -10.625,10.625 0,3.734529 1.931033,7.010261 4.84375,8.90625 l 11.5625,0 c 2.912717,-1.895989 4.84375,-5.171721 4.84375,-8.90625 0,-5.870744 -4.754256,-10.625 -10.625,-10.625 z"
           transform="translate(0,910.62991)"
           id="path3081" />
      </g>
      <g
         id="g3083">
        <path
           sodipodi:type="arc"
           style="fill:#999;stroke:none"
           id="path3085"
           sodipodi:cx="71.301666"
           sodipodi:cy="71.674973"
           sodipodi:rx="9.0838079"
           sodipodi:ry="9.3326788"
           d="m 80.385474,71.674973 a 9.0838079,9.3326788 0 1 1 -18.167616,0 9.0838079,9.3326788 0 1 1 18.167616,0 z"
           transform="matrix(0.97517118,0,0,0.94916668,-47.453325,901.05804)" />
        <path
           style="fill:none;stroke:black;stroke-width:1.77165353000000000;stroke-linecap:square;stroke-linejoin:miter;stroke-miterlimit:4;stroke-opacity:1;stroke-dasharray:none"
           d="m 22.073976,965.44127 0,7.29653"
           id="path3087"
           inkscape:connector-curvature="0"
           sodipodi:nodetypes="cc" />
      </g>
    </g>
    <g
       id="g3135"
       transform="matrix(0,1,-1,0,1051.1269,343.18604)">
      <g
         id="g3137"
         transform="translate(-50.769774,-11.918109)">
        <path
           id="path3139"
           transform="translate(0,910.62991)"
           d="m 72.84375,59.75 c -5.870743,0 -10.625,4.754256 -10.625,10.625 0,3.734529 1.931033,7.010261 4.84375,8.90625 l 11.5625,0 c 2.912717,-1.895989 4.84375,-5.171721 4.84375,-8.90625 0,-5.870744 -4.754256,-10.625 -10.625,-10.625 z"
           style="fill:#ccc;stroke:none"
           inkscape:connector-curvature="0" />
      </g>
      <g
         id="g3141">
        <path
           transform="matrix(0.97517118,0,0,0.94916668,-47.453325,901.05804)"
           d="m 80.385474,71.674973 a 9.0838079,9.3326788 0 1 1 -18.167616,0 9.0838079,9.3326788 0 1 1 18.167616,0 z"
           sodipodi:ry="9.3326788"
           sodipodi:rx="9.0838079"
           sodipodi:cy="71.674973"
           sodipodi:cx="71.301666"
           id="path3143"
           style="fill:#999;stroke:none"
           sodipodi:type="arc" />
        <path
           sodipodi:nodetypes="cc"
           inkscape:connector-curvature="0"
           id="path3145"
           d="m 22.073976,965.44127 0,7.29653"
           style="fill:none;stroke:black;stroke-width:1.77165353000000000;stroke-linecap:square;stroke-linejoin:miter;stroke-miterlimit:4;stroke-opacity:1;stroke-dasharray:none" />
      </g>
    </g>
    <g
       transform="matrix(0,1,-1,0,1051.1269,318.83958)"
       id="g3147">
      <g
         transform="translate(-50.769774,-11.918109)"
         id="g3149">
        <path
           inkscape:connector-curvature="0"
           style="fill:#ccc;stroke:none"
           d="m 72.84375,59.75 c -5.870743,0 -10.625,4.754256 -10.625,10.625 0,3.734529 1.931033,7.010261 4.84375,8.90625 l 11.5625,0 c 2.912717,-1.895989 4.84375,-5.171721 4.84375,-8.90625 0,-5.870744 -4.754256,-10.625 -10.625,-10.625 z"
           transform="translate(0,910.62991)"
           id="path3151" />
      </g>
      <g
         id="g3153">
        <path
           sodipodi:type="arc"
           style="fill:#999;stroke:none"
           id="path3155"
           sodipodi:cx="71.301666"
           sodipodi:cy="71.674973"
           sodipodi:rx="9.0838079"
           sodipodi:ry="9.3326788"
           d="m 80.385474,71.674973 a 9.0838079,9.3326788 0 1 1 -18.167616,0 9.0838079,9.3326788 0 1 1 18.167616,0 z"
           transform="matrix(0.97517118,0,0,0.94916668,-47.453325,901.05804)" />
        <path
           style="fill:none;stroke:black;stroke-width:1.77165353000000000;stroke-linecap:square;stroke-linejoin:miter;stroke-miterlimit:4;stroke-opacity:1;stroke-dasharray:none"
           d="m 22.073976,965.44127 0,7.29653"
           id="path3157"
           inkscape:connector-curvature="0"
           sodipodi:nodetypes="cc" />
      </g>
    </g>
    <g
       id="g3159"
       transform="matrix(0,1,-1,0,1051.1269,294.49312)">
      <g
         id="g3161"
         transform="translate(-50.769774,-11.918109)">
        <path
           id="path3163"
           transform="translate(0,910.62991)"
           d="m 72.84375,59.75 c -5.870743,0 -10.625,4.754256 -10.625,10.625 0,3.734529 1.931033,7.010261 4.84375,8.90625 l 11.5625,0 c 2.912717,-1.895989 4.84375,-5.171721 4.84375,-8.90625 0,-5.870744 -4.754256,-10.625 -10.625,-10.625 z"
           style="fill:#ccc;stroke:none"
           inkscape:connector-curvature="0" />
      </g>
      <g
         id="g3165">
        <path
           transform="matrix(0.97517118,0,0,0.94916668,-47.453325,901.05804)"
           d="m 80.385474,71.674973 a 9.0838079,9.3326788 0 1 1 -18.167616,0 9.0838079,9.3326788 0 1 1 18.167616,0 z"
           sodipodi:ry="9.3326788"
           sodipodi:rx="9.0838079"
           sodipodi:cy="71.674973"
           sodipodi:cx="71.301666"
           id="path3167"
           style="fill:#999;stroke:none"
           sodipodi:type="arc" />
        <path
           sodipodi:nodetypes="cc"
           inkscape:connector-curvature="0"
           id="path3169"
           d="m 22.073976,965.44127 0,7.29653"
           style="fill:none;stroke:black;stroke-width:1.77165353000000000;stroke-linecap:square;stroke-linejoin:miter;stroke-miterlimit:4;stroke-opacity:1;stroke-dasharray:none" />
      </g>
    </g>
    <g
       transform="matrix(0,1,-1,0,1051.1269,270.14666)"
       id="g3171">
      <g
         transform="translate(-50.769774,-11.918109)"
         id="g3173">
        <path
           inkscape:connector-curvature="0"
           style="fill:#ccc;stroke:none"
           d="m 72.84375,59.75 c -5.870743,0 -10.625,4.754256 -10.625,10.625 0,3.734529 1.931033,7.010261 4.84375,8.90625 l 11.5625,0 c 2.912717,-1.895989 4.84375,-5.171721 4.84375,-8.90625 0,-5.870744 -4.754256,-10.625 -10.625,-10.625 z"
           transform="translate(0,910.62991)"
           id="path3175" />
      </g>
      <g
         id="g3177">
        <path
           sodipodi:type="arc"
           style="fill:#999;stroke:none"
           id="path3179"
           sodipodi:cx="71.301666"
           sodipodi:cy="71.674973"
           sodipodi:rx="9.0838079"
           sodipodi:ry="9.3326788"
           d="m 80.385474,71.674973 a 9.0838079,9.3326788 0 1 1 -18.167616,0 9.0838079,9.3326788 0 1 1 18.167616,0 z"
           transform="matrix(0.97517118,0,0,0.94916668,-47.453325,901.05804)" />
        <path
           style="fill:none;stroke:black;stroke-width:1.77165353000000000;stroke-linecap:square;stroke-linejoin:miter;stroke-miterlimit:4;stroke-opacity:1;stroke-dasharray:none"
           d="m 22.073976,965.44127 0,7.29653"
           id="path3181"
           inkscape:connector-curvature="0"
           sodipodi:nodetypes="cc" />
      </g>
    </g>
    <g
       id="g3183"
       transform="matrix(0,1,-1,0,1051.1269,245.8002)">
      <g
         id="g3185"
         transform="translate(-50.769774,-11.918109)">
        <path
           id="path3187"
           transform="translate(0,910.62991)"
           d="m 72.84375,59.75 c -5.870743,0 -10.625,4.754256 -10.625,10.625 0,3.734529 1.931033,7.010261 4.84375,8.90625 l 11.5625,0 c 2.912717,-1.895989 4.84375,-5.171721 4.84375,-8.90625 0,-5.870744 -4.754256,-10.625 -10.625,-10.625 z"
           style="fill:#ccc;stroke:none"
           inkscape:connector-curvature="0" />
      </g>
      <g
         id="g3189">
        <path
           transform="matrix(0.97517118,0,0,0.94916668,-47.453325,901.05804)"
           d="m 80.385474,71.674973 a 9.0838079,9.3326788 0 1 1 -18.167616,0 9.0838079,9.3326788 0 1 1 18.167616,0 z"
           sodipodi:ry="9.3326788"
           sodipodi:rx="9.0838079"
           sodipodi:cy="71.674973"
           sodipodi:cx="71.301666"
           id="path3191"
           style="fill:#999;stroke:none"
           sodipodi:type="arc" />
        <path
           sodipodi:nodetypes="cc"
           inkscape:connector-curvature="0"
           id="path3193"
           d="m 22.073976,965.44127 0,7.29653"
           style="fill:none;stroke:black;stroke-width:1.77165353000000000;stroke-linecap:square;stroke-linejoin:miter;stroke-miterlimit:4;stroke-opacity:1;stroke-dasharray:none" />
      </g>
    </g>
    <g
       transform="matrix(0,1,-1,0,1051.1269,221.45374)"
       id="g3195">
      <g
         transform="translate(-50.769774,-11.918109)"
         id="g3197">
        <path
           inkscape:connector-curvature="0"
           style="fill:#ccc;stroke:none"
           d="m 72.84375,59.75 c -5.870743,0 -10.625,4.754256 -10.625,10.625 0,3.734529 1.931033,7.010261 4.84375,8.90625 l 11.5625,0 c 2.912717,-1.895989 4.84375,-5.171721 4.84375,-8.90625 0,-5.870744 -4.754256,-10.625 -10.625,-10.625 z"
           transform="translate(0,910.62991)"
           id="path3199" />
      </g>
      <g
         id="g3201">
        <path
           sodipodi:type="arc"
           style="fill:#999;stroke:none"
           id="path3203"
           sodipodi:cx="71.301666"
           sodipodi:cy="71.674973"
           sodipodi:rx="9.0838079"
           sodipodi:ry="9.3326788"
           d="m 80.385474,71.674973 a 9.0838079,9.3326788 0 1 1 -18.167616,0 9.0838079,9.3326788 0 1 1 18.167616,0 z"
           transform="matrix(0.97517118,0,0,0.94916668,-47.453325,901.05804)" />
        <path
           style="fill:none;stroke:black;stroke-width:1.77165353000000000;stroke-linecap:square;stroke-linejoin:miter;stroke-miterlimit:4;stroke-opacity:1;stroke-dasharray:none"
           d="m 22.073976,965.44127 0,7.29653"
           id="path3205"
           inkscape:connector-curvature="0"
           sodipodi:nodetypes="cc" />
      </g>
    </g>
    <g
       id="g3207"
       transform="matrix(0,1,-1,0,1051.1269,197.10728)">
      <g
         id="g3209"
         transform="translate(-50.769774,-11.918109)">
        <path
           id="path3211"
           transform="translate(0,910.62991)"
           d="m 72.84375,59.75 c -5.870743,0 -10.625,4.754256 -10.625,10.625 0,3.734529 1.931033,7.010261 4.84375,8.90625 l 11.5625,0 c 2.912717,-1.895989 4.84375,-5.171721 4.84375,-8.90625 0,-5.870744 -4.754256,-10.625 -10.625,-10.625 z"
           style="fill:#ccc;stroke:none"
           inkscape:connector-curvature="0" />
      </g>
      <g
         id="g3213">
        <path
           transform="matrix(0.97517118,0,0,0.94916668,-47.453325,901.05804)"
           d="m 80.385474,71.674973 a 9.0838079,9.3326788 0 1 1 -18.167616,0 9.0838079,9.3326788 0 1 1 18.167616,0 z"
           sodipodi:ry="9.3326788"
           sodipodi:rx="9.0838079"
           sodipodi:cy="71.674973"
           sodipodi:cx="71.301666"
           id="path3215"
           style="fill:#999;stroke:none"
           sodipodi:type="arc" />
        <path
           sodipodi:nodetypes="cc"
           inkscape:connector-curvature="0"
           id="path3217"
           d="m 22.073976,965.44127 0,7.29653"
           style="fill:none;stroke:black;stroke-width:1.77165353000000000;stroke-linecap:square;stroke-linejoin:miter;stroke-miterlimit:4;stroke-opacity:1;stroke-dasharray:none" />
      </g>
    </g>
    <g
       id="g4106"
       transform="matrix(0,1,-1,0,542.88937,93.496957)">
      <g
         transform="matrix(0.99936513,-0.03562804,-0.03562804,-0.99936513,17.016748,954.94174)"
         id="g3315">
        <path
           sodipodi:type="arc"
           style="fill:black;stroke:none"
           id="path3307"
           sodipodi:cx="320"
           sodipodi:cy="467.36218"
           sodipodi:rx="31.428572"
           sodipodi:ry="32.142857"
           d="m 351.42857,467.36218 a 31.428572,32.142857 0 1 1 -62.85714,0 31.428572,32.142857 0 1 1 62.85714,0 z"
           transform="matrix(0.90193271,0,0,0.88188978,27.468062,59.827989)" />
        <path
           transform="matrix(0.90193271,0,0,0.88188978,27.468062,59.827989)"
           d="m 303.46097,440.02999 a 31.428572,32.142857 0 0 1 30.34184,-1.54492 L 320,467.36218 z"
           sodipodi:ry="32.142857"
           sodipodi:rx="31.428572"
           sodipodi:cy="467.36218"
           sodipodi:cx="320"
           id="path3313"
           style="fill:#f2f2f2;stroke:none"
           sodipodi:type="arc"
           sodipodi:start="4.1582142"
           sodipodi:end="5.1670751" />
        <path
           transform="matrix(0.60647817,0,0,0.59300089,122.01352,194.84373)"
           d="m 351.42857,467.36218 a 31.428572,32.142857 0 1 1 -62.85714,0 31.428572,32.142857 0 1 1 62.85714,0 z"
           sodipodi:ry="32.142857"
           sodipodi:rx="31.428572"
           sodipodi:cy="467.36218"
           sodipodi:cx="320"
           id="path3311"
           style="fill:#b3b3b3;stroke:none"
           sodipodi:type="arc" />
      </g>
      <path
         sodipodi:nodetypes="cc"
         inkscape:connector-curvature="0"
         id="path3839-6"
         d="m 316.08653,484.23533 0,-24.4908"
         style="fill:none;stroke:black;stroke-width:2.08291887999999980;stroke-linecap:square;stroke-linejoin:miter;stroke-miterlimit:4;stroke-opacity:1;stroke-dasharray:none" />
    </g>
    <g
       transform="matrix(0,1,-1,0,606.54764,84.591617)"
       id="g4153">
      <path
         sodipodi:type="arc"
         style="fill:#b3b3b3;fill-opacity:1;fill-rule:evenodd;stroke:none"
         id="path4155"
         sodipodi:cx="212.63712"
         sodipodi:cy="580.11584"
         sodipodi:rx="94.449265"
         sodipodi:ry="94.449265"
         d="m 307.08638,580.11584 a 94.449265,94.449265 0 1 1 -188.89853,0 94.449265,94.449265 0 1 1 188.89853,0 z"
         transform="matrix(0.07567772,0,0,-0.07567782,392.47954,590.65589)" />
      <path
         sodipodi:nodetypes="cc"
         inkscape:connector-curvature="0"
         id="path4157"
         d="m 408.51034,567.49203 0,-22.19167"
         style="fill:none;stroke:black;stroke-width:1.77165353000000000;stroke-linecap:butt;stroke-linejoin:miter;stroke-miterlimit:4;stroke-opacity:1;stroke-dasharray:none" />
    </g>
    <g
       id="g4587"
       transform="matrix(0,1,-1,0,610.54764,64.591617)">
      <path
         transform="matrix(0.07567772,0,0,-0.07567782,392.47954,590.65589)"
         d="m 307.08638,580.11584 a 94.449265,94.449265 0 1 1 -188.89853,0 94.449265,94.449265 0 1 1 188.89853,0 z"
         sodipodi:ry="94.449265"
         sodipodi:rx="94.449265"
         sodipodi:cy="580.11584"
         sodipodi:cx="212.63712"
         id="path4589"
         style="fill:#b3b3b3;fill-opacity:1;fill-rule:evenodd;stroke:none"
         sodipodi:type="arc" />
      <path
         style="fill:none;stroke:black;stroke-width:1.77165353000000000;stroke-linecap:butt;stroke-linejoin:miter;stroke-miterlimit:4;stroke-opacity:1;stroke-dasharray:none"
         d="m 408.51034,567.49203 0,-22.19167"
         id="path4591"
         inkscape:connector-curvature="0"
         sodipodi:nodetypes="cc" />
    </g>
    <g
       transform="matrix(0,1,1,0,-465.4365,64.591617)"
       id="g4593">
      <path
         sodipodi:type="arc"
         style="fill:#b3b3b3;fill-opacity:1;fill-rule:evenodd;stroke:none"
         id="path4595"
         sodipodi:cx="212.63712"
         sodipodi:cy="580.11584"
         sodipodi:rx="94.449265"
         sodipodi:ry="94.449265"
         d="m 307.08638,580.11584 a 94.449265,94.449265 0 1 1 -188.89853,0 94.449265,94.449265 0 1 1 188.89853,0 z"
         transform="matrix(0.07567772,0,0,-0.07567782,392.47954,590.65589)" />
      <path
         sodipodi:nodetypes="cc"
         inkscape:connector-curvature="0"
         id="path4597"
         d="m 408.51034,567.49203 0,-22.19167"
         style="fill:none;stroke:black;stroke-width:1.77165353000000000;stroke-linecap:butt;stroke-linejoin:miter;stroke-miterlimit:4;stroke-opacity:1;stroke-dasharray:none" />
    </g>
    <g
       id="g4599"
       transform="matrix(0,1,1,0,-465.4365,84.591617)">
      <path
         transform="matrix(0.07567772,0,0,-0.07567782,392.47954,590.65589)"
         d="m 307.08638,580.11584 a 94.449265,94.449265 0 1 1 -188.89853,0 94.449265,94.449265 0 1 1 188.89853,0 z"
         sodipodi:ry="94.449265"
         sodipodi:rx="94.449265"
         sodipodi:cy="580.11584"
         sodipodi:cx="212.63712"
         id="path4601"
         style="fill:#b3b3b3;fill-opacity:1;fill-rule:evenodd;stroke:none"
         sodipodi:type="arc" />
      <path
         style="fill:none;stroke:black;stroke-width:1.77165353000000000;stroke-linecap:butt;stroke-linejoin:miter;stroke-miterlimit:4;stroke-opacity:1;stroke-dasharray:none"
         d="m 408.51034,567.49203 0,-22.19167"
         id="path4603"
         inkscape:connector-curvature="0"
         sodipodi:nodetypes="cc" />
    </g>
  </g>
  <g
     inkscape:groupmode="layer"
     id="layer4"
     inkscape:label="sandbox"
     style="display:none"
     transform="translate(0,-177.16533)" />
</svg>

