<svg xmlns="http://www.w3.org/2000/svg" width="250" height="200">
<path d="m10,47.4 15,40 40-25 10,125 100,0 10-125 40,25 15-40-50-35-27.5,0c-24.5,15.5-50,15-75,0l-27.5,0-50,35z" fill="#fff"/>
<path d="m65,74.7l.9 10h118.3l.9-10h-120zM48.8 19.4l-7.6 5.3l15.7 40.5l5.9-2.25l2.2-1.4l0 .5l.3-0l-16.5-42.6zM201.2 19.4l-16.5 42.6l.3,0l0-.5l2.2 1.4l5.9 2.25l15.7-40.5l-7.6-5.3z" fill="#007fff"/>
<path d="m65.9 84.7l.9,10.2h116.6l.9-10.2h-118.3zM41.3 24.7l-8.2 5.3l15.9 41.2l8.4-4.9l-16.2-41.6zM208.8 24.7l-16.2 41.6l8.3 4.9l15.9-41.2l-8.1-5.3z" fill="#f00"/>
<path d="m 67.6 104.8l.9 10h113.22l.9-10h-114.9zM25.8 36.3l-7.6 5.3l15.6 40.25l7.8-4.9l-15.8-40.7zM224.2 36.3l-15.8 40.7l7.8 4.9l15.6-40.25l-7.6-5.3z" fill="#ff0"/>
<path d="m68.4 114.8l.8 10h111.6l.8-10h-113.2zM18.5,42.4l-3,1.2-5,3.5 15.4,39.6 .7-0.25L33.8,81.9 18.5,42.4zM231.5,42.4l-15.3,39.5 7.3,4.6 .7,.25 15.4-39.6-5,-3.5L231.5,42.4z" fill="#007f00"/>
<path d="m66.7 94.9l.8 10h114.9l.8-10h-116.6zM33.5 30.9l-7.7 5.4l15.8 40.7l7.8-4.9l-15.9-41.2zM216.5 30.9l-15.9 41.2l7.8 4.9l15.8-40.7l-7.7-5.4z"/>
<path style="fill:none;stroke:#000;stroke-width:3" d="m10,47 15,40 40-25 10,125h100l10-125 40,25 15-40-50-35H162a64,64 0 0,1-74,0H60z"/>
</svg>