<?xml version="1.0" encoding="UTF-8" standalone="no"?>
<!-- Created with Inkscape (http://www.inkscape.org/) -->

<svg
   width="210mm"
   height="297mm"
   viewBox="0 0 210 297"
   version="1.1"
   id="svg3150"
   xmlns="http://www.w3.org/2000/svg"
   xmlns:svg="http://www.w3.org/2000/svg">
  <defs
     id="defs3147" />
  <g
     id="layer1">
    <path
       style="fill:#000000;stroke-width:0.184055"
       d="m 44.366155,74.433077 c -0.16139,-0.0941 -0.483849,-0.425397 -0.716568,-0.736206 -0.889048,-1.187355 -3.88099,-5.336241 -4.368334,-6.057514 l -0.510194,-0.755089 1.599735,-2.25375 c 3.688069,-5.195858 3.459048,-4.937638 4.41906,-4.982488 0.878271,-0.04103 4.03828,0.55381 4.03828,0.760169 0,0.05998 -0.420217,0.60029 -0.933813,1.20069 -0.513596,0.600403 -1.646031,2.022909 -2.516521,3.161128 l -1.582708,2.069489 1.765022,2.249879 c 0.970764,1.237435 2.228281,2.763225 2.794481,3.390646 1.158129,1.283346 1.246487,1.159367 -1.246253,1.748655 -1.762376,0.416629 -2.308397,0.457325 -2.742187,0.204391 z m 23.776562,-0.19875 c -3.10093,-0.431159 -3.90085,-0.618693 -4.606415,-1.079942 -0.539586,-0.352745 -0.55296,-0.487449 -0.55296,-5.569553 0,-5.126808 0.0091,-5.216311 0.58425,-5.736622 1.188757,-1.075441 4.648864,-2.224209 6.699353,-2.224209 1.144103,0 5.443209,0.548389 6.670675,0.850905 1.676932,0.41329 1.656138,0.336436 1.656138,6.121408 0,5.945 0.109286,5.611583 -2.18858,6.677039 -1.390944,0.64494 -4.040002,1.335847 -5.063575,1.320641 -0.376941,-0.0056 -1.816439,-0.16745 -3.198886,-0.359667 z m 4.642233,-2.633171 0.649433,-0.314268 v -4.228045 -4.228047 l -0.595312,-0.184584 c -0.327422,-0.101521 -1.099381,-0.248857 -1.715463,-0.327411 -0.907362,-0.115697 -1.265666,-0.106416 -1.886167,0.04886 -0.42131,0.105429 -0.839976,0.284956 -0.930371,0.39895 -0.248732,0.313668 -0.188896,8.419708 0.06358,8.612355 0.243514,0.185813 2.20968,0.514528 3.157534,0.527895 0.334037,0.0047 0.899584,-0.132857 1.256771,-0.305705 z m 26.314016,2.574526 c -1.527969,-0.229232 -3.044782,-0.487576 -3.370699,-0.5741 -1.357199,-0.360313 -1.391801,-0.51089 -1.391801,-6.056604 0,-4.961999 0.02032,-5.171681 0.552426,-5.703605 1.040392,-1.040011 4.531546,-2.214091 6.589828,-2.216174 1.47853,-0.0016 6.88728,0.754423 7.0729,0.988492 0.1567,0.197609 -2.14216,1.932201 -2.69739,2.035307 -0.20241,0.03759 -1.28354,-0.05321 -2.40251,-0.201763 -2.26248,-0.300369 -2.77073,-0.270256 -3.552101,0.210439 -0.513236,0.31574 -0.536069,0.505912 -0.536069,4.464534 0,3.504163 0.06051,4.164032 0.396777,4.326755 0.218228,0.105604 1.056093,0.263408 1.861933,0.350676 1.34669,0.14584 1.52319,0.137788 2.18291,-0.09959 1.26053,-0.453552 1.51917,-2.217303 0.32515,-2.217303 -0.79613,0 -1.0626,-0.399248 -1.0626,-1.59203 v -1.096722 h 3.0017 c 4.13432,0 3.94544,-0.136757 3.83188,2.774474 -0.0811,2.078068 -0.14271,2.331631 -0.68694,2.825547 -1.00842,0.915175 -4.94745,2.215078 -6.67581,2.203053 -0.3638,-0.0026 -1.91162,-0.192154 -3.439584,-0.421389 z m 27.422054,-0.02911 c -3.40987,-0.478835 -3.60955,-0.518216 -3.60955,-0.711864 0,-0.227346 2.36392,-1.908209 2.79667,-1.988568 0.22843,-0.04242 1.28969,0.04582 2.35836,0.19608 2.53475,0.356404 3.13759,0.344854 4.11754,-0.07889 1.04555,-0.452106 1.30628,-1.200467 0.65107,-1.868643 -0.2502,-0.255143 -2.0476,-1.27146 -3.99422,-2.25848 -4.04298,-2.04996 -4.91985,-2.731664 -4.94145,-3.841626 -0.0263,-1.348743 1.90749,-2.752241 4.9591,-3.599291 1.72559,-0.478978 2.72422,-0.474329 6.4222,0.02989 2.32317,0.31677 2.97656,0.454517 2.97656,0.627521 0,0.300984 -2.14674,1.897308 -2.66268,1.979974 -0.22755,0.03646 -1.00145,-0.01998 -1.71979,-0.125433 -2.07902,-0.305189 -3.41289,-0.25831 -4.06499,0.142862 -0.66014,0.406111 -0.70135,0.940599 -0.11484,1.489445 0.23844,0.223131 1.88797,1.133636 3.66563,2.023345 3.94828,1.976097 4.76739,2.668778 4.7585,4.024048 -0.008,1.177333 -0.90387,2.133138 -2.8717,3.062841 -1.55719,0.735695 -3.83445,1.359474 -4.91343,1.34587 -0.37161,-0.0047 -2.08746,-0.206775 -3.81298,-0.449083 z m 31.31544,0.184941 c -2.77703,-0.359841 -4.10991,-0.669512 -4.67404,-1.085943 -0.45091,-0.332859 -0.4907,-0.795147 -0.561,-6.51778 -0.0864,-7.030083 -0.33677,-6.341941 2.48408,-6.826457 2.73497,-0.469759 2.46101,-1.073269 2.54483,5.606 0.0511,4.067728 0.16376,5.926819 0.36522,6.024244 0.16026,0.0775 0.92765,0.22213 1.70531,0.321401 1.77673,0.226808 2.62433,0.06749 3.08161,-0.579233 0.2233,-0.315805 0.32017,-1.970255 0.33073,-5.6484 0.0115,-4.006072 0.091,-5.228984 0.34566,-5.320144 0.62898,-0.225107 3.90208,-0.708697 4.29848,-0.635087 0.34603,0.06425 0.39787,0.831522 0.39787,5.88785 0,4.910809 0.0593,5.837793 0.38196,5.967361 0.60636,0.243524 2.88355,0.490931 3.50111,0.380381 1.40476,-0.251468 1.40828,-0.266409 1.41265,-6.004438 0.002,-2.924352 0.0941,-5.385506 0.20408,-5.469239 0.22152,-0.168592 3.70162,-0.808029 4.39767,-0.808029 0.40618,0 0.43479,0.480854 0.36486,6.133264 l -0.0759,6.133266 -0.82099,0.556599 c -1.02909,0.69768 -3.62406,1.668643 -5.27497,1.973744 -1.24005,0.229175 -1.28847,0.228262 -3.66576,-0.069 -1.32501,-0.165679 -2.7663,-0.381873 -3.20286,-0.480428 -0.74489,-0.168164 -0.90487,-0.151127 -2.59891,0.276765 -2.07204,0.523367 -2.26267,0.530439 -4.94172,0.183298 z m 42.12685,-0.279202 c -2.46034,-0.349313 -4.07551,-0.652893 -4.63021,-0.870275 l -0.85185,-0.333838 -0.0759,-5.171697 c -0.0868,-5.915819 -0.097,-5.881502 2.01412,-6.784041 1.93007,-0.825151 3.69387,-1.265867 5.07171,-1.267262 1.43763,-0.0016 6.885,0.751547 7.06328,0.976368 0.15255,0.192376 -2.14064,1.945831 -2.67441,2.044949 -0.20626,0.0383 -1.28964,-0.05455 -2.4075,-0.206343 -2.30686,-0.31324 -3.26675,-0.22847 -3.79764,0.335378 -0.40463,0.429755 -0.39055,2.386454 0.0186,2.584447 0.20571,0.09954 1.27381,0.153644 3.0334,0.153644 3.25386,0 3.26369,0.0046 3.26369,1.528011 v 1.032703 h -3.30729 -3.3073 v 1.452565 c 0,1.222047 0.0735,1.484225 0.46302,1.652052 0.25467,0.109717 1.77271,0.380184 3.37344,0.601036 1.60073,0.220854 3.11878,0.431979 3.37344,0.469165 0.25466,0.03719 0.4556,0.164561 0.44654,0.283049 -0.0238,0.310944 -2.43665,2.000827 -2.89997,2.031042 -0.21497,0.01402 -2.0911,-0.21591 -4.1692,-0.510953 z m -167.000868,0.04814 c -0.320485,-0.289782 -0.383686,-13.426454 -0.06576,-13.668421 0.219824,-0.167301 3.699243,-0.808029 4.387943,-0.808029 0.393292,0 0.431009,0.644223 0.431009,7.362052 v 7.36205 h -2.239651 c -1.943486,0 -2.275866,-0.03275 -2.513541,-0.247652 z m 190.470338,-0.126606 -0.7734,-0.374256 v -6.596132 c 0,-5.137261 0.0731,-6.618641 0.33073,-6.697916 0.1819,-0.05599 1.09537,-0.232233 2.02994,-0.391665 2.95885,-0.504764 2.65134,-1.146358 2.72994,5.695794 l 0.0688,5.985667 4.02265,0.06402 c 2.24367,0.03571 4.1438,0.122861 4.29662,0.197072 0.18895,0.09176 0.13808,0.499041 -0.16391,1.312368 l -0.43789,1.179308 h -5.66503 -5.66502 z m 25.42996,0.0145 c -0.56956,-0.275619 -0.79641,-0.534667 -0.92724,-1.05886 -0.0953,-0.381685 -0.13613,-3.3279 -0.0908,-6.547144 0.0704,-5.00113 0.14017,-5.879571 0.47927,-6.034495 0.53903,-0.246266 3.8938,-0.765161 4.37238,-0.676293 0.32765,0.06084 0.39505,0.951918 0.45362,5.99762 l 0.0688,5.926163 4.02265,0.06402 c 2.26668,0.03607 4.14325,0.122588 4.29894,0.198194 0.19204,0.09326 0.13527,0.483672 -0.18619,1.280359 l -0.46248,1.14618 -5.63744,0.03458 -5.63745,0.03457 z"
       id="path861" />
  </g>
</svg>
