<?xml version="1.0" encoding="UTF-8" standalone="no"?>
<svg
   width="7.25in"
   height="10.5in"
   viewBox="0 0 184.15 266.7"
   version="1.1"
   id="svg10"
   xmlns="http://www.w3.org/2000/svg"
   xmlns:svg="http://www.w3.org/2000/svg">
  <defs
     id="defs14" />
  <g
     id="g835"
     transform="matrix(0.65630808,-3.7221081,3.7221081,0.65630808,-218.92868,153.29)">
    <g
       transform="matrix(0.5904038,3.3483464,-3.3483464,0.5904038,50,50)"
       id="g6">
      <path
         style="fill:#4d4d4d;fill-opacity:0.726048;stroke:none;stroke-width:0.264583px;stroke-linecap:butt;stroke-linejoin:miter;stroke-opacity:1"
         d="m -1.322917,0 c 0,-1.322917 1.322917030000001,-1.322917 2.645833,-1.322917 l 1.852084,7e-7 C 3.175001,-1.8520833 1.8520833,-3.175 0,-3.175 h -0.26458333 c -2.38124967,7e-7 -3.43958337,1.852083 -3.43958337,3.175 0,1.322916 1.0583334,3.175 3.43958337,3.175 H 0 c 1.8520833,0 3.175001,-1.3229163 3.175,-1.8520833 l -1.852084,-7e-7 c -1.58749897,0 -2.645833,0 -2.645833,-1.322916 z"
         id="path2" />
      <path
         style="fill:#999999;fill-opacity:0.726048;stroke:none;stroke-width:0.264583px;stroke-linecap:butt;stroke-linejoin:miter;stroke-opacity:1"
         d="m -1.322917,0 c 0,-1.322917 1.322917030000001,-1.322917 2.645833,-1.322917 l 1.852084,7e-7 c 1e-6,-0.529167 -1.587499,-1.058333 -2.64583303,-1.058333 l -0.7937503,-7e-7 c -1.32291697,0 -2.38124997,1.058333 -2.38124997,2.38125 0,1.322916 1.058333,2.38125 2.38124997,2.38125 l 0.7937503,7e-7 C 1.587501,2.3812507 3.175001,1.8520837 3.175,1.3229167 l -1.852084,-7e-7 c -1.58749897,0 -2.645833,0 -2.645833,-1.322916 z"
         id="path4" />
    </g>
    <circle
       cx="50"
       cy="50"
       r="5"
       fill="#ff0000"
       id="circle8" />
  </g>
  <!--
<circle cx="130" cy="60" r="4" fill="#aa0"></circle>
<circle cx="150" cy="60" r="4" fill="#f00"></circle>
<circle cx="160" cy="70" r="4" fill="#0a0"></circle>
<circle cx="160" cy="80" r="4" fill="#44f"></circle>
-->
</svg>
