<?xml version="1.0" encoding="UTF-8" standalone="no"?>
<!-- Created with Inkscape (http://www.inkscape.org/) -->

<svg
   width="210mm"
   height="297mm"
   viewBox="0 0 210 297"
   version="1.1"
   id="svg5"
   inkscape:version="1.1.2 (0a00cf5339, 2022-02-04)"
   sodipodi:docname="adso.svg"
   xmlns:inkscape="http://www.inkscape.org/namespaces/inkscape"
   xmlns:sodipodi="http://sodipodi.sourceforge.net/DTD/sodipodi-0.dtd"
   xmlns="http://www.w3.org/2000/svg"
   xmlns:svg="http://www.w3.org/2000/svg">
  <sodipodi:namedview
     id="namedview7"
     pagecolor="#ffffff"
     bordercolor="#666666"
     borderopacity="1.0"
     inkscape:pageshadow="2"
     inkscape:pageopacity="0.0"
     inkscape:pagecheckerboard="0"
     inkscape:document-units="mm"
     showgrid="true"
     inkscape:zoom="0.60836342"
     inkscape:cx="-82.187716"
     inkscape:cy="987.07447"
     inkscape:window-width="1366"
     inkscape:window-height="715"
     inkscape:window-x="0"
     inkscape:window-y="29"
     inkscape:window-maximized="1"
     inkscape:current-layer="layer1">
    <inkscape:grid
       type="xygrid"
       id="grid936" />
  </sodipodi:namedview>
  <defs
     id="defs2" />
  <g
     inkscape:label="Layer 1"
     inkscape:groupmode="layer"
     id="layer1">
    <path
       style="fill:#cccccc;stroke-width:0.288287"
       d="m -97.95001,261.21195 c -0.777077,-0.44161 -10.33576,-14.54872 -10.33576,-15.25395 0,-0.73329 9.077811,-14.12747 9.886111,-14.58683 0.984639,-0.55957 2.091301,-0.49229 5.872523,0.35703 1.834738,0.41211 3.374591,0.76539 3.421898,0.78507 0.04731,0.0197 -0.970822,1.38039 -2.262512,3.0238 -3.15883,4.01898 -7.270262,9.82584 -7.270262,10.2683 0,0.46205 5.956043,8.57644 8.465691,11.53349 1.061563,1.25081 1.807025,2.3361 1.656589,2.41177 -0.150441,0.0757 -1.684061,0.51758 -3.408046,0.98203 -3.405743,0.91754 -5.02804,1.04656 -6.026232,0.47929 z m 45.339845,-0.43264 c -5.753698,-0.85334 -6.414424,-1.00098 -7.738133,-1.72905 -1.586859,-0.87281 -1.761685,-2.23445 -1.607228,-12.51793 0.113618,-7.56458 0.266491,-9.84066 0.704427,-10.48817 1.259708,-1.86255 9.510012,-5.06525 13.048312,-5.06525 1.807592,0 11.271074,1.3629 13.065947,1.88172 0.82094,0.2373 1.838115,0.72504 2.260389,1.08388 0.729596,0.61999 0.767773,1.187 0.767773,11.40316 0,10.6383 -0.0091,10.75937 -0.872009,11.5777 -1.546415,1.46656 -6.377148,3.53075 -10.302125,4.40213 -1.783175,0.39588 -3.735616,0.28113 -9.327353,-0.54819 z m 8.933487,-4.98539 c 0.712624,-0.22347 1.436205,-0.66504 1.60796,-0.98127 0.171754,-0.31623 0.312281,-4.27055 0.312281,-8.78738 0,-9.46366 0.298293,-8.78476 -4.114399,-9.3642 -2.295531,-0.30143 -2.620648,-0.30125 -3.863702,0.002 -0.746495,0.18219 -1.563226,0.56373 -1.814952,0.84787 -0.318364,0.35936 -0.45769,3.08423 -0.45769,8.95139 0,9.59775 -0.287374,8.85155 3.61791,9.39441 2.958296,0.41122 3.211284,0.40784 4.712592,-0.0629 z m 51.1540835,4.99027 c -2.769136,-0.4227 -5.6634635,-0.95686 -6.4318391,-1.18702 -2.6694423,-0.79961 -2.6030094,-0.48343 -2.6030094,-12.3888 0,-10.64674 0.00848,-10.75886 0.87512808,-11.59156 2.02668442,-1.94728 9.29768142,-4.6379 12.53324592,-4.6379 1.804573,0 12.930002,1.59985 13.677442,1.96683 0.467675,0.22962 0.19324,0.56531 -1.752853,2.14414 -1.269038,1.02955 -2.560234,1.97984 -2.869328,2.11178 -0.629323,0.26861 -1.744262,0.19155 -6.118765,-0.42291 -2.656547,-0.37315 -3.088714,-0.38479 -4.33586,-0.11679 -2.5526235,0.54853 -2.6026945,0.75197 -2.4749225,10.05593 0.127342,9.27264 -0.100188,8.60877 3.1100265,9.07411 3.539759,0.51312 4.249227,0.49179 5.692773,-0.17114 1.351795,-0.6208 1.360619,-0.6367 1.360619,-2.45123 0,-1.79123 -0.01934,-1.82774 -1.004975,-1.89786 -1.868031,-0.1329 -2.009949,-0.34131 -2.009949,-2.95162 v -2.45562 h 5.800139 c 4.736869,0 5.915942,0.0596 6.431839,0.32488 0.537686,0.27654 0.630385,1.02268 0.622872,5.01356 -0.008,4.25978 -0.08336,4.77378 -0.823605,5.61903 -1.782239,2.03504 -9.273502,4.77032 -12.989734,4.74293 -0.909945,-0.007 -3.920105,-0.35804 -6.6892445,-0.78074 z m 52.6522225,-0.0983 c -6.316315,-0.96444 -6.815446,-1.07083 -6.815446,-1.45276 0,-0.13871 1.078724,-1.11009 2.397162,-2.15862 2.794683,-2.22256 2.55371,-2.18319 8.373125,-1.36782 3.286131,0.46042 4.064118,0.50468 5.360463,0.30492 3.140804,-0.48396 4.480331,-2.63681 2.77076,-4.45307 -0.541581,-0.57538 -3.356785,-2.26958 -7.150991,-4.3035 -6.320383,-3.3881 -8.411635,-4.78041 -9.31276,-6.20021 -0.622706,-0.98113 -0.656743,-2.68988 -0.07545,-3.78803 0.620797,-1.17279 3.194533,-3.15296 5.306516,-4.08271 2.455005,-1.08075 6.969151,-2.20863 8.766279,-2.1903 2.378365,0.0243 13.08595,1.70459 13.224781,2.07534 0.145103,0.3875 -4.494078,4.0773 -5.335061,4.24328 -0.327912,0.0647 -1.847852,-0.0779 -3.377644,-0.31684 -5.280866,-0.82495 -8.080633,-0.41081 -8.699899,1.28689 -0.493261,1.35227 0.364408,2.05231 6.785908,5.53873 3.350152,1.81889 6.769985,3.82327 7.599632,4.45418 3.219762,2.44846 3.552666,5.10705 0.975336,7.78907 -1.668475,1.73626 -5.060101,3.5962 -8.516213,4.67025 -3.381785,1.05094 -5.119253,1.04403 -12.276495,-0.0488 z m 61.522842,0.56359 c -4.09551,-0.55661 -7.42891,-1.15202 -8.70272,-1.55447 -2.5703,-0.81208 -2.553,-0.71425 -2.553,-14.44008 0,-10.67247 0.0825,-12.42816 0.59633,-12.69243 0.77124,-0.39665 8.09977,-1.65488 8.63953,-1.48332 0.27341,0.0869 0.4119,4.09353 0.4119,11.91677 0,7.59457 0.14541,11.92557 0.40889,12.17878 0.46864,0.45035 3.85228,1.02708 6.02584,1.02708 1.8696,0 3.19197,-0.68933 3.6476,-1.90144 0.18391,-0.48929 0.34227,-5.56223 0.3519,-11.27322 l 0.0175,-10.38361 1.10548,-0.28356 c 2.12957,-0.54625 7.73738,-1.45041 8.03788,-1.29597 0.16688,0.0858 0.39386,5.56753 0.5044,12.1817 l 0.201,12.02575 1.52041,0.38202 c 0.83623,0.2101 2.55473,0.42918 3.81891,0.48683 2.10604,0.0961 2.38263,0.0584 3.30346,-0.45016 l 1.00498,-0.55499 0.20099,-11.14055 c 0.17225,-9.54701 0.28725,-11.18132 0.80398,-11.42555 0.64838,-0.30647 7.34362,-1.5901 8.2937,-1.5901 0.4924,0 0.55811,1.7731 0.46161,12.45637 -0.10505,11.62856 -0.16154,12.50259 -0.8501,13.15193 -2.36377,2.22912 -9.8377,4.97367 -13.57613,4.98538 -1.57638,0.005 -9.52136,-1.10178 -11.32107,-1.577 -1.0275,-0.27132 -1.21445,-0.25435 -2.42337,0.21988 -1.9457,0.76326 -4.72001,1.35377 -6.31199,1.34351 -0.77384,-0.005 -2.40189,-0.14428 -3.61791,-0.30955 z m 79.13256,-0.78641 c -3.90185,-0.59668 -7.5801,-1.24858 -8.17387,-1.44867 -2.40387,-0.81007 -2.41941,-0.88791 -2.41941,-12.1161 v -10.23391 l 0.95393,-0.98771 c 1.26581,-1.31063 5.18114,-3.10145 8.78184,-4.01668 2.59574,-0.65979 3.13637,-0.72536 5.03481,-0.6106 1.16975,0.0707 2.93774,0.26382 3.92887,0.42914 0.99112,0.16532 3.38487,0.54218 5.31945,0.83747 2.29988,0.35105 3.51741,0.63945 3.51741,0.83317 0,0.3597 -4.02675,3.60648 -4.97397,4.01053 -0.58552,0.24976 -1.24199,0.21149 -4.88106,-0.28459 -4.77096,-0.65037 -6.16257,-0.54828 -7.2485,0.53173 -0.76493,0.76077 -0.83001,4.99694 -0.0815,5.3079 0.27637,0.11482 2.79026,0.24641 5.58641,0.29243 3.42958,0.0564 5.29364,0.17317 5.72836,0.35872 0.52215,0.22287 0.64443,0.72141 0.64443,2.62732 v 2.35225 h -6.23084 -6.23085 v 2.98303 c 0,2.41155 0.11871,3.04408 0.61964,3.30171 0.3408,0.17527 1.92363,0.51503 3.51741,0.75502 8.32957,1.25425 9.77804,1.50133 10.29883,1.75677 0.48465,0.23771 0.25387,0.5281 -1.58537,1.99487 -2.79457,2.22862 -3.16327,2.44311 -4.16953,2.42563 -0.46319,-0.008 -4.0346,-0.50281 -7.93645,-1.09948 z M -119.24,260.94038 c -0.65906,-0.19742 -0.70348,-1.09746 -0.70348,-14.25182 0,-13.73703 0.0171,-14.04579 0.7884,-14.2581 1.72614,-0.47511 7.77331,-1.47207 8.29934,-1.36825 0.47157,0.0931 0.56002,2.47872 0.56002,15.106 v 14.99548 l -4.1204,-0.006 c -2.26622,-0.003 -4.43696,-0.10112 -4.82388,-0.21702 z m 366.44235,-0.10839 c -2.60167,-0.66362 -2.54097,-0.30935 -2.54097,-14.82883 0,-11.33386 0.0817,-13.176 0.59634,-13.44066 0.77123,-0.39665 8.09977,-1.65488 8.63952,-1.48332 0.27353,0.0869 0.4119,4.1511 0.4119,12.0982 v 11.96726 l 0.89343,0.32185 c 0.72672,0.26178 2.21771,0.32184 7.99057,0.32184 5.25013,0 7.20752,0.0684 7.52122,0.26279 0.30187,0.18706 0.16943,0.94662 -0.45964,2.63599 l -0.8837,2.3732 -10.44536,0.0488 c -8.83557,0.0413 -10.64232,-10e-4 -11.72331,-0.27714 z m 49.57405,0.11912 c -1.79926,-0.27731 -2.59705,-0.78106 -3.06231,-1.93363 -0.28586,-0.70814 -0.39355,-5.28872 -0.32067,-13.63877 0.10496,-12.02457 0.14262,-12.58489 0.86444,-12.85626 1.02764,-0.38637 7.91245,-1.56015 8.34487,-1.4227 0.19094,0.0607 0.34719,5.45439 0.34719,11.98598 0,11.59996 0.0185,11.88521 0.80398,12.28911 0.74401,0.38265 1.33996,0.41349 7.9906,0.41349 5.70564,0 7.28386,0.0603 7.65863,0.29253 0.36557,0.22654 0.26732,0.83281 -0.43555,2.68768 l -0.90762,2.39515 -10.06747,-0.0178 c -5.53709,-0.01 -10.58436,-0.0974 -11.21609,-0.19481 z"
       id="path836"
       sodipodi:nodetypes="sssssssssssssssssssssscssscsssccsssssssssssssssscscsscsssssssssssssscssssssssssssssssscssscssscssssscssssssscssssssssssssscccsssssssscssssccccssssscsssscsssssssssssssccss" />
    <path
       style="fill:none;stroke:#000000;stroke-width:0.264583px;stroke-linecap:butt;stroke-linejoin:miter;stroke-opacity:1"
       d="m -124.35417,283.10417 10.58334,-2.64584 v 29.10417 l -10.58334,0 z"
       id="path990"
       sodipodi:nodetypes="ccccc" />
    <path
       style="fill:none;stroke:#000000;stroke-width:0.264583px;stroke-linecap:butt;stroke-linejoin:miter;stroke-opacity:1"
       d="m -105.83333,280.45833 10.583331,2.64583 -5.291671,10.58334 -10.58333,-2.64583 z"
       id="path1124"
       sodipodi:nodetypes="ccccc" />
    <path
       style="fill:none;stroke:#000000;stroke-width:0.264583px;stroke-linecap:butt;stroke-linejoin:miter;stroke-opacity:1"
       d="m -100.54167,296.33333 5.29167,10.58334 -10.58333,2.64583 -5.29167,-10.58333 10.58333,-2.64584"
       id="path1126"
       sodipodi:nodetypes="ccccc" />
    <path
       id="path1655"
       style="fill:#ff0000;stroke:#ff0000;stroke-width:0.264583px;stroke-linecap:butt;stroke-linejoin:miter;stroke-opacity:1"
       d="m -120.38542,232.83333 c 0,-1.32292 1.32292,-1.32291 1.32292,-1.32291 l 7.9375,-1.32292 c 1.32361,0.001 1.32292,0 1.32292,2.64583 v 10.58333 l -10.58334,1e-5 z"
       sodipodi:nodetypes="ccccccc" />
    <path
       id="path1655-3"
       style="fill:#ff0000;stroke:#ff0000;stroke-width:0.264583px;stroke-linecap:butt;stroke-linejoin:miter;stroke-opacity:1"
       d="m -109.80208,260.61458 c 0,1.32292 -1.32292,1.32292 -1.32292,1.32292 h -7.9375 c -1.32656,0.1323 -1.32292,-1.32292 -1.32292,-1.32292 l 0,-11.90624 10.58334,-1e-5 z"
       sodipodi:nodetypes="ccccccc" />
    <path
       style="fill:#ff0000;stroke:#ff0000;stroke-width:0.264583px;stroke-linecap:butt;stroke-linejoin:miter;stroke-opacity:1"
       d="m -108.47917,246.0625 9.26042,-14.55208 c 1.322917,-1.32291 1.322916,-1.32291 3.96875,-1.32292 h 5.291667 c 2.645832,1e-5 1.322916,1.32292 -1.322917,5.29167 l -6.614582,10.58333 z"
       id="path4011"
       sodipodi:nodetypes="ccccccc" />
    <path
       style="fill:#ff0000;stroke:#ff0000;stroke-width:0.264583px;stroke-linecap:butt;stroke-linejoin:miter;stroke-opacity:1"
       d="m -108.47917,246.0625 9.26042,14.55208 c 1.32292,1.32291 1.32292,1.32291 3.96875,1.32292 h 5.291667 c 2.645832,-10e-6 1.322916,-1.32292 -1.322917,-5.29167 l -6.61458,-10.58333 z"
       id="path4011-3"
       sodipodi:nodetypes="ccccccc" />
    <path
       style="fill:#ff0000;stroke:#ff0000;stroke-width:0.264583px;stroke-linecap:butt;stroke-linejoin:miter;stroke-opacity:1"
       d="m -120.38542,243.41666 h 10.58334 v 5.29167 h -10.58334 z"
       id="path5678" />
    <path
       style="fill:#ff0000;stroke:#ff0000;stroke-width:0.264583px;stroke-linecap:butt;stroke-linejoin:miter;stroke-opacity:1"
       d="m -179.3875,336.28542 h 10.58334 v 5.29167 h -10.58334 z"
       id="path5678-3" />
    <path
       style="fill:none;stroke:#000000;stroke-width:0.264583px;stroke-linecap:butt;stroke-linejoin:miter;stroke-opacity:1"
       d="m -87.312499,231.51041 1.322917,1.32292 -1.322917,1.32292 1.322917,1.32291 -1.322917,1.32292"
       id="path6151" />
    <path
       style="fill:none;stroke:#000000;stroke-width:0.264583px;stroke-linecap:butt;stroke-linejoin:miter;stroke-opacity:1"
       d="m -87.3125,236.80208 1.322917,1.32292 -1.322917,1.32292 1.322917,1.32291 -1.322917,1.32292"
       id="path6151-7" />
    <path
       style="fill:none;stroke:#000000;stroke-width:0.264583px;stroke-linecap:butt;stroke-linejoin:miter;stroke-opacity:1"
       d="m -87.3125,242.09375 1.322917,1.32292 -1.322917,1.32292 1.322917,1.32291 -1.322917,1.32292"
       id="path6151-5" />
    <path
       style="fill:none;stroke:#000000;stroke-width:0.264583px;stroke-linecap:butt;stroke-linejoin:miter;stroke-opacity:1"
       d="m -87.3125,247.38541 1.322917,1.32292 -1.322917,1.32292 1.322917,1.32291 -1.322917,1.32292"
       id="path6151-3" />
    <path
       style="fill:none;stroke:#000000;stroke-width:0.264583px;stroke-linecap:butt;stroke-linejoin:miter;stroke-opacity:1"
       d="m -87.3125,252.67708 1.322917,1.32292 -1.322917,1.32292 1.322917,1.32291 -1.322917,1.32292"
       id="path6151-56" />
    <path
       style="fill:none;stroke:#000000;stroke-width:0.264583px;stroke-linecap:butt;stroke-linejoin:miter;stroke-opacity:1"
       d="m -87.3125,257.96875 1.322917,1.32292 -1.322917,1.32292"
       id="path6151-2"
       sodipodi:nodetypes="ccc" />
    <path
       style="fill:none;stroke:#000000;stroke-width:0.264583px;stroke-linecap:butt;stroke-linejoin:miter;stroke-opacity:1"
       d="m -87.312499,231.51041 1.322917,-1.32291"
       id="path3126" />
    <path
       style="fill:none;stroke:#000000;stroke-width:0.264583px;stroke-linecap:butt;stroke-linejoin:miter;stroke-opacity:1"
       d="m -87.312499,260.61458 1.322917,1.32292"
       id="path3128" />
    <path
       style="fill:none;stroke:#000000;stroke-width:0.264583px;stroke-linecap:butt;stroke-linejoin:miter;stroke-opacity:1"
       d="m -85.989582,246.0625 18.520832,0"
       id="path3945"
       sodipodi:nodetypes="cc" />
    <path
       style="fill:none;stroke:#000000;stroke-width:0.123691px;stroke-linecap:butt;stroke-linejoin:miter;stroke-opacity:1"
       d="m -41.804167,246.0625 c 0,-7.40833 0.03685,-8.31119 -1.483351,-8.99133 -1.580604,-0.70695 -4.602065,-0.79826 -5.924982,-0.53367 -1.058333,0.26458 -2.116667,0.52917 -2.38125,1.05833 -0.529167,0.52917 -0.529167,2.49883 -0.529167,4.20392 v 4.26275 h -10.054166 v -6.61459 c 0,-2.64583 1.322916,-3.96874 3.96875,-5.29166 2.067046,-1.23139 4.349076,-1.89066 6.614583,-2.64583 3.96875,-1.32292 10.917405,0.12439 15.578157,1.22169 4.482635,1.05536 4.265593,2.74706 4.265593,13.33039 z"
       id="path3999-6"
       sodipodi:nodetypes="csccccccccscc" />
    <path
       style="fill:none;stroke:#000000;stroke-width:0.123691px;stroke-linecap:butt;stroke-linejoin:miter;stroke-opacity:1"
       d="m -52.12292,246.0625 c 0,7.40833 -0.0369,8.31119 1.48336,8.99133 1.5806,0.70695 4.60206,0.79826 5.92498,0.53367 1.05833,-0.26458 2.11666,-0.52917 2.38125,-1.05833 0.52916,-0.52917 0.52916,-2.49883 0.52916,-4.20392 V 246.0625 H -31.75 v 6.61459 c 0,2.64583 -1.32292,3.96874 -3.96875,5.29166 -2.06705,1.23139 -4.34908,1.89066 -6.61458,2.64583 -3.96875,1.32292 -10.91741,-0.12439 -15.57816,-1.22169 -4.48263,-1.05536 -4.26559,-2.74706 -4.26559,-13.33039 z"
       id="path3999-6-7"
       sodipodi:nodetypes="csccccccccscc" />
    <path
       style="fill:#ff0000;stroke:#ff0000;stroke-width:0.123691px;stroke-linecap:butt;stroke-linejoin:miter;stroke-opacity:1"
       d="m 23.01875,235.74375 c -2.645833,1.85208 -3.807366,1.58904 -5.452101,1.32742 -1.691649,-0.26909 -4.337482,-0.53367 -5.924982,-0.53367 -1.322917,0 -2.1166673,0.52917 -2.3812503,1.05833 -0.529167,0.52917 -0.529167,2.49883 -0.529167,4.20392 v 4.26275 h -10.054166 v -6.61459 c 0,-2.64583 1.32291596666667,-3.96874 3.96875,-5.29166 2.067046,-1.23139 4.349076,-1.89066 6.614583,-2.64583 3.9687503,-1.32292 10.8032773,0.86504 15.5781573,1.22169 1.355176,0.10122 0.561426,1.15956 -0.761491,2.21789 z"
       id="path3999-6-3"
       sodipodi:nodetypes="csccccccccscc" />
    <path
       style="fill:#ff0000;stroke:#ff0000;stroke-width:0.123691px;stroke-linecap:butt;stroke-linejoin:miter;stroke-opacity:1"
       d="m 8.7312467,246.0625 c 0,7.40833 -0.2744386,8.67294 1.2458217,9.35308 1.5805996,0.70695 4.5750116,0.70109 5.8979316,0.4365 1.068714,-0.23403 2.630283,-0.59027 2.645833,-1.85208 v -1.32292 c 0,-2.91041 -3.175,0.26459 -3.175,-3.96875 v -2.64583 l 12.435417,0 v 6.61458 c 0,3.43959 -0.264583,3.96875 -2.645833,5.29167 -2.06705,1.23139 -4.34908,1.89066 -6.61458,2.64583 -3.96875,1.32292 -10.9174103,-0.12439 -15.5781603,-1.22169 -4.48263,-1.05536 -4.26559,-2.74706 -4.26559,-13.33039 z"
       id="path3999-6-7-6"
       sodipodi:nodetypes="cscccccccccscc" />
    <path
       id="path1655-9"
       style="fill:#ff0000;stroke:#ff0000;stroke-width:0.264583px;stroke-linecap:butt;stroke-linejoin:miter;stroke-opacity:1"
       d="m -179.3875,325.4375 c 0,-1.32292 1.32292,-1.32291 1.32292,-1.32291 l 7.9375,-1.32292 c 1.32361,10e-4 1.32292,0 1.32292,2.64583 v 10.58333 l -10.58334,1e-5 z"
       sodipodi:nodetypes="ccccccc" />
    <path
       id="path1655-3-1"
       style="fill:#ff0000;stroke:#ff0000;stroke-width:0.264583px;stroke-linecap:butt;stroke-linejoin:miter;stroke-opacity:1"
       d="m -168.80416,353.21875 c 0,1.32292 -1.32292,1.32292 -1.32292,1.32292 h -7.9375 c -1.32656,0.1323 -1.32292,-1.32292 -1.32292,-1.32292 v -11.90624 l 10.58334,-10e-6 z"
       sodipodi:nodetypes="ccccccc" />
    <path
       style="fill:#ff0000;stroke:#ff0000;stroke-width:0.264583px;stroke-linecap:butt;stroke-linejoin:miter;stroke-opacity:1"
       d="m -167.48125,338.66667 9.26042,-14.55208 c 1.32291,-1.32291 1.32291,-1.32291 3.96875,-1.32292 h 5.29166 c 2.64584,10e-6 1.32292,1.32292 -1.32291,5.29167 l -6.61458,10.58333 z"
       id="path4011-2"
       sodipodi:nodetypes="ccccccc" />
    <path
       style="fill:#ff0000;stroke:#ff0000;stroke-width:0.264583px;stroke-linecap:butt;stroke-linejoin:miter;stroke-opacity:1"
       d="m -167.48125,338.66667 9.26042,14.55208 c 1.32292,1.32291 1.32292,1.32291 3.96875,1.32292 h 5.29166 c 2.64584,-1e-5 1.32292,-1.32292 -1.32291,-5.29167 l -6.61458,-10.58333 z"
       id="path4011-3-7"
       sodipodi:nodetypes="ccccccc" />
    <path
       style="fill:#ff0000;stroke:#ff0000;stroke-width:0.123691px;stroke-linecap:butt;stroke-linejoin:miter;stroke-opacity:1"
       d="m -100.80625,338.66667 c 0,-7.40833 0.0369,-8.31119 -1.48335,-8.99133 -1.5806,-0.70695 -4.60207,-0.79826 -5.92498,-0.53367 -1.05834,0.26458 -2.11667,0.52917 -2.38125,1.05833 -0.52917,0.52917 -0.52917,2.49883 -0.52917,4.20392 v 4.26275 h -10.05417 v -6.61459 c 0,-2.64583 1.32292,-3.96874 3.96875,-5.29166 2.06705,-1.23139 4.34908,-1.89066 6.61459,-2.64583 3.96875,-1.32292 10.917402,0.12439 15.578154,1.22169 4.482635,1.05536 4.265593,2.74706 4.265593,13.33039 z"
       id="path3999-6-0"
       sodipodi:nodetypes="csccccccccscc" />
    <path
       style="fill:#ff0000;stroke:#ff0000;stroke-width:0.123691px;stroke-linecap:butt;stroke-linejoin:miter;stroke-opacity:1"
       d="m -111.125,338.66667 c 0,7.40833 -0.0369,8.31119 1.48336,8.99133 1.5806,0.70695 4.60206,0.79826 5.92498,0.53367 1.05833,-0.26458 2.11666,-0.52917 2.38125,-1.05833 0.52916,-0.52917 0.52916,-2.49883 0.52916,-4.20392 v -4.26275 h 10.054167 v 6.61459 c 0,2.64583 -1.32292,3.96874 -3.96875,5.29166 -2.06705,1.23139 -4.34908,1.89066 -6.614577,2.64583 -3.96875,1.32292 -10.91741,-0.12439 -15.57816,-1.22169 -4.48263,-1.05536 -4.26559,-2.74706 -4.26559,-13.33039 z"
       id="path3999-6-7-9"
       sodipodi:nodetypes="csccccccccscc" />
  </g>
</svg>
