<?xml version="1.0" encoding="UTF-8" standalone="no"?>
<!-- Created with Inkscape (http://www.inkscape.org/) -->

<svg
   width="210mm"
   height="297mm"
   viewBox="0 0 210 297"
   version="1.1"
   id="svg5"
   inkscape:version="1.1.2 (0a00cf5339, 2022-02-04)"
   sodipodi:docname="kettle.svg"
   xmlns:inkscape="http://www.inkscape.org/namespaces/inkscape"
   xmlns:sodipodi="http://sodipodi.sourceforge.net/DTD/sodipodi-0.dtd"
   xmlns="http://www.w3.org/2000/svg"
   xmlns:svg="http://www.w3.org/2000/svg">
  <sodipodi:namedview
     id="namedview7"
     pagecolor="#ffffff"
     bordercolor="#666666"
     borderopacity="1.0"
     inkscape:pageshadow="2"
     inkscape:pageopacity="0.0"
     inkscape:pagecheckerboard="0"
     inkscape:document-units="mm"
     showgrid="false"
     inkscape:zoom="5.6568543"
     inkscape:cx="428.32993"
     inkscape:cy="408.44255"
     inkscape:window-width="1440"
     inkscape:window-height="838"
     inkscape:window-x="0"
     inkscape:window-y="25"
     inkscape:window-maximized="1"
     inkscape:current-layer="layer1" />
  <defs
     id="defs2" />
  <g
     inkscape:label="Layer 1"
     inkscape:groupmode="layer"
     id="layer1">
    <path
       id="path874"
       style="fill:#945500;fill-opacity:1;stroke:#945500;stroke-width:0.165;stroke-linecap:butt;stroke-linejoin:miter;stroke-miterlimit:4;stroke-dasharray:none;stroke-opacity:1"
       d="m 112.02922,100.14922 c -0.1742,5.3e-4 -0.34311,0.01 -0.50437,0.0295 -0.43002,0.0519 -0.80385,0.17539 -1.06866,0.39842 -0.2648,0.22302 -0.39109,0.57695 -0.29456,0.97462 0.0816,0.33646 0.29994,0.7102 0.67955,1.14515 -0.027,0.0574 -0.0424,0.1229 -0.0424,0.19275 v 0.66198 c 0,0.12704 0.0507,0.24025 0.13023,0.31523 -0.54,0.76058 -0.81238,1.95439 -1.11363,3.51399 -0.46938,0.57886 -0.0181,0.7321 0.58497,0.7059 l 2.75074,0.0155 2.75125,-0.0155 c 0.60311,0.0262 1.05384,-0.12704 0.58447,-0.7059 -0.29947,-1.55039 -0.57015,-2.73938 -1.10381,-3.50056 0,0 5.3e-4,-5.3e-4 5.3e-4,-5.3e-4 0.0879,-0.0745 0.14469,-0.19347 0.14469,-0.32814 v -0.66198 c 0,-0.0425 -0.006,-0.084 -0.016,-0.12247 0.27136,-0.23746 0.41879,-0.48899 0.43822,-0.75086 0.0252,-0.3392 -0.17339,-0.63805 -0.46302,-0.87695 -0.57924,-0.47781 -1.57478,-0.7994 -2.55643,-0.92759 -0.30676,-0.0401 -0.61142,-0.0634 -0.90176,-0.0625 z m 0.0858,0.37207 c 0.24653,-10e-4 0.50668,0.0154 0.76894,0.0496 0.93248,0.12176 1.89505,0.45335 2.3735,0.84801 0.23922,0.19733 0.34532,0.38936 0.33177,0.57206 -0.0105,0.14127 -0.0979,0.3129 -0.31988,0.5054 -0.0323,-0.0107 -0.0663,-0.016 -0.1018,-0.016 h -0.0548 c -0.19992,0 -0.36122,0.18246 -0.36122,0.40927 v 0.37518 c -0.40803,-0.25826 -0.92543,-0.38036 -1.60042,-0.35502 -0.66134,-0.0248 -1.1715,0.0918 -1.57561,0.33951 v -0.35967 c 0,-0.22681 -0.16079,-0.40927 -0.3607,-0.40927 H 111.16 c -0.008,0 -0.0166,5.3e-4 -0.0248,10e-4 -0.36899,-0.42017 -0.56062,-0.76234 -0.62219,-1.01596 -0.0714,-0.2941 -0.002,-0.46148 0.1757,-0.61133 0.25575,-0.21541 0.79624,-0.33038 1.42627,-0.3328 z m 1.79369,1.48415 c -0.16883,-5.3e-4 -0.27183,0.0582 -0.72605,0.0527 l 0.002,0.73587 0.45217,0.005 c -0.14925,-0.22039 0.0304,-0.24089 0.18242,-0.34468 0.36788,-0.1348 0.48184,-0.32569 0.34313,-0.41341 -0.11129,-0.0257 -0.18767,-0.035 -0.25373,-0.0352 z m -1.46193,5.3e-4 c -0.0668,1.8e-4 -0.14394,0.009 -0.25735,0.0351 -0.14137,0.0877 -0.0255,0.27861 0.34934,0.41341 0.15501,0.10378 0.33759,0.12429 0.18551,0.34468 l 0.45993,-0.005 -0.002,-0.73587 c -0.46288,0.006 -0.56475,-0.0532 -0.73535,-0.0527 z m -3.83284,0.89607 c -0.16469,5e-5 -0.32142,0.0686 -0.46302,0.18655 -0.24507,0.20016 -0.11553,0.23035 0.12713,0.36535 0.36454,0.28466 0.44061,0.59767 0.50591,1.42627 0.11709,0.83201 0.40886,1.1264 1.06453,1.73788 l 0.44184,-1.69396 c -0.64403,-0.14079 0.0138,-1.53547 -1.56115,-2.01073 -0.0388,-0.007 -0.0772,-0.0114 -0.11524,-0.0114 z"
       inkscape:export-filename="/home/matt/Desktop/kettle-icon.png"
       inkscape:export-xdpi="96"
       inkscape:export-ydpi="96" />
  </g>
</svg>
