<?xml version="1.0" encoding="UTF-8" standalone="no"?>
<!-- Created with Inkscape (http://www.inkscape.org/) -->

<svg
   width="11in"
   height="8.5in"
   viewBox="0 0 279.4 215.9"
   version="1.1"
   id="svg5"
   inkscape:version="1.1.2 (0a00cf5339, 2022-02-04)"
   sodipodi:docname="stencil.svg"
   xmlns:inkscape="http://www.inkscape.org/namespaces/inkscape"
   xmlns:sodipodi="http://sodipodi.sourceforge.net/DTD/sodipodi-0.dtd"
   xmlns="http://www.w3.org/2000/svg"
   xmlns:svg="http://www.w3.org/2000/svg">
  <sodipodi:namedview
     id="namedview7"
     pagecolor="#ffffff"
     bordercolor="#666666"
     borderopacity="1.0"
     inkscape:pageshadow="2"
     inkscape:pageopacity="0.0"
     inkscape:pagecheckerboard="0"
     inkscape:document-units="mm"
     showgrid="false"
     inkscape:zoom="0.55589225"
     inkscape:cx="502.06786"
     inkscape:cy="10.924215"
     inkscape:window-width="1440"
     inkscape:window-height="838"
     inkscape:window-x="0"
     inkscape:window-y="25"
     inkscape:window-maximized="1"
     inkscape:current-layer="layer1"
     units="in"
     inkscape:rotation="1" />
  <defs
     id="defs2" />
  <g
     inkscape:label="Layer 1"
     inkscape:groupmode="layer"
     id="layer1">
    <rect
       style="fill:#ffffff;stroke-width:9.69169;stroke-linecap:round;stroke-linejoin:round;paint-order:stroke markers fill"
       id="rect1129"
       width="275.90692"
       height="207.27583"
       x="1.0584278"
       y="6.1624956" />
    <path
       style="fill:#ff0000;stroke-width:0.264583"
       d="m 20.889011,48.453551 -1.5875,-0.441966 -0.0806,-1.256651 -0.0806,-1.256655 h 1.05393 c 1.89898,0 1.88548,0.05686 1.88548,-7.942571 v -7.111025 l -1.38906,-0.07997 -1.38906,-0.07997 -0.0314,-1.389063 -0.0314,-1.389057 h 5.38279 5.3828 l 0.0725,4.359391 0.0725,4.359396 2.47773,-4.359396 2.47774,-4.359391 h 1.98234 c 1.53242,0 1.95195,0.0792 1.84843,0.34896 -0.0737,0.19193 -1.21748,2.223278 -2.54185,4.514106 -1.32436,2.290828 -2.40794,4.217388 -2.40794,4.281244 0,0.06386 0.84521,0.116101 1.87825,0.116101 3.47775,0 4.47175,0.992838 4.47175,4.466495 0,2.013378 0.0398,2.161989 0.69445,2.590911 0.64796,0.424558 0.74538,0.425791 1.45521,0.01842 l 0.76076,-0.436626 v 1.08667 c 0,0.935141 -0.15315,1.228059 -1.09829,2.100607 -2.46254,2.273406 -5.53087,3.001475 -7.37107,1.749049 -1.70294,-1.159013 -1.93882,-1.73673 -1.98648,-4.865178 -0.0395,-2.592935 -0.0928,-2.867396 -0.64376,-3.313516 -0.33038,-0.267526 -0.92939,-0.48641 -1.33114,-0.48641 h -0.73045 l -0.12076,2.844271 c -0.0798,1.878758 -0.26292,3.113717 -0.53954,3.638021 -0.5455,1.033965 -1.72968,2.142923 -2.66605,2.496708 -1.08317,0.409253 -4.03782,0.307121 -5.86975,-0.202895 z m 41.01042,0.251351 c -2.32205,-0.600308 -3.86009,-1.899512 -4.35399,-3.677859 -0.36778,-1.324274 -0.35599,-13.115172 0.0145,-14.477722 0.35492,-1.305352 1.35865,-2.425168 2.752,-3.070258 1.21521,-0.56263 4.39148,-0.67515 6.05099,-0.21436 0.73181,0.20319 1.10543,0.20277 1.30968,-0.001 0.16137,-0.16135 1.29956,-0.28578 2.61413,-0.28578 h 2.32833 v 0.94762 0.947625 l 0.89113,-0.550745 c 0.49011,-0.30291 0.96636,-0.55075 1.05833,-0.55075 0.092,0 0.16721,0.51243 0.16721,1.138726 0,0.954045 -0.15019,1.284287 -0.92604,2.036277 l -0.92605,0.897555 v 6.306595 c 0,6.738063 -0.12343,7.521061 -1.40169,8.891425 -1.26631,1.357561 -2.47545,1.737728 -5.74206,1.80535 -1.67349,0.03464 -3.39989,-0.02936 -3.83645,-0.142219 z m 7.29639,-3.980021 0.7734,-0.773396 v -5.308469 -5.308469 l -0.8599,-0.363908 c -1.09914,-0.465159 -1.6799,-1.141179 -1.90986,-2.22313 -0.13006,-0.61192 -0.36861,-0.906776 -0.82663,-1.021732 -1.3843,-0.347437 -1.4307,-0.103576 -1.4307,7.519617 0,6.851824 0.0144,7.04352 0.57529,7.64052 0.87993,0.936639 2.6586,0.858772 3.6784,-0.161033 z m 23.92444,4.041365 c -0.29104,-0.07512 -1.33284,-0.501579 -2.3151,-0.947693 l -1.78594,-0.811112 v -1.680622 c 0,-1.565593 0.25117,-2.079901 0.67826,-1.388846 0.0992,0.160475 0.79082,0.576032 1.53697,0.923457 1.34269,0.625181 3.28412,0.822055 4.60839,0.467315 0.7917,-0.21208 1.37846,-1.382125 1.37846,-2.748766 v -1.092495 l -0.85989,0.21946 c -1.48751,0.379637 -3.95535,0.226522 -5.08186,-0.3153 -2.4928,-1.198968 -3.84993,-3.571507 -3.84525,-6.722268 0.005,-3.196824 2.01561,-5.978323 5.07736,-7.023213 1.60603,-0.54809 7.597069,-0.85526 9.339849,-0.47886 l 1.05833,0.22857 0.0784,1.477286 0.0784,1.477283 -1.13669,-0.219767 c -3.032319,-0.586265 -5.724879,-0.0157 -6.438529,1.364344 -0.55909,1.08117 -0.54548,6.398356 0.0178,6.961661 0.46911,0.469112 1.08664,0.307621 1.4549,-0.380468 0.14147,-0.264354 0.25722,-1.262378 0.25722,-2.21783 v -1.737186 h 3.836459 3.83646 l -0.002,4.564062 c -7.9e-4,2.510235 -0.1278,5.018974 -0.28219,5.574978 -0.3708,1.335341 -1.87681,2.965301 -3.536,3.827036 -1.190189,0.618149 -1.679289,0.702487 -4.382419,0.755679 -1.67349,0.03293 -3.28083,-0.0016 -3.57187,-0.07671 z m 29.235469,-0.308309 c -0.80091,-0.264453 -1.78317,-0.695068 -2.18281,-0.956921 -0.66686,-0.436941 -0.72662,-0.615037 -0.72662,-2.165458 0,-0.929148 0.0621,-1.689362 0.13797,-1.689362 0.0759,0 0.60314,0.307843 1.1717,0.684099 2.26988,1.502137 4.51116,0.901163 4.51116,-1.209619 0,-0.794561 -0.23002,-1.295452 -1.05436,-2.295901 -3.45994,-4.199125 -4.24005,-5.745462 -4.23295,-8.39049 0.005,-2.005739 0.713,-3.379254 2.3244,-4.511792 1.96671,-1.38225 5.66804,-1.21165 8.84193,0.40755 0.98923,0.504668 1.00015,0.52757 1.00015,2.096821 v 1.58658 l -1.31412,-0.665916 c -2.97305,-1.506558 -4.55306,-0.08091 -2.66347,2.403241 0.43171,0.567537 1.56619,2.043917 2.52108,3.280844 2.16543,2.805018 2.71412,4.390713 2.27842,6.584552 -0.35345,1.779715 -1.35882,3.303252 -2.88988,4.379318 -1.0376,0.729252 -1.33131,0.798195 -3.69678,0.867735 -1.93352,0.05684 -2.9301,-0.04348 -4.02582,-0.405281 z m 30.26506,-0.02625 c -1.34652,-0.611479 -2.36687,-1.909548 -2.72593,-3.467875 -0.15022,-0.651926 -0.27603,-4.191649 -0.27959,-7.86605 l -0.006,-6.680737 h -1.19062 -1.19063 v -1.455208 -1.455204 h 5.02709 5.02708 l 0.004,7.606767 c 0.004,8.128345 0.10656,8.848904 1.28131,9.017095 0.33578,0.04807 0.83882,-0.119208 1.11786,-0.371737 0.47849,-0.433024 0.50736,-0.908361 0.50736,-8.355637 v -7.896488 h 3.82548 3.82548 l 0.0771,8.042414 c 0.0717,7.476184 0.11261,8.081602 0.58115,8.598958 0.77296,0.853487 2.38776,0.768006 2.9956,-0.158578 0.40654,-0.619721 0.46912,-1.369767 0.46912,-5.622397 v -4.907276 l -0.66145,-0.08934 c -0.36381,-0.04914 -0.92935,-0.337782 -1.25678,-0.641433 -0.53069,-0.492162 -0.59531,-0.805579 -0.59531,-2.887223 v -2.335125 h 2.64584 2.64583 v 0.81727 0.817265 l 0.85989,-0.725165 0.8599,-0.72518 0.082,1.69384 c 0.0801,1.656109 0.061,1.711522 -0.85991,2.487591 l -0.94187,0.79375 -0.002,5.688541 c -8e-4,3.128698 -0.12064,6.117558 -0.26629,6.641912 -0.29672,1.068181 -1.70353,2.644614 -2.9857,3.345691 -0.66219,0.362074 -1.48414,0.463439 -3.75798,0.463439 -2.71243,0 -3.004,-0.05186 -4.28594,-0.762286 -0.75654,-0.419256 -1.63165,-1.034915 -1.94469,-1.368134 l -0.56917,-0.605848 -0.83117,0.946647 c -0.45714,0.520655 -1.30843,1.163469 -1.89176,1.42847 -1.43034,0.649787 -4.14393,0.643604 -5.58924,-0.01273 z m 41.44003,0.157922 c -0.50821,-0.161833 -1.53975,-0.893818 -2.29232,-1.626638 -1.08332,-1.054885 -1.46181,-1.656797 -1.81725,-2.889919 -0.75268,-2.611279 -0.0233,-5.531018 1.68567,-6.74792 l 0.7651,-0.544799 -0.99847,-1.049611 c -2.42703,-2.551333 -1.75327,-6.333512 1.43176,-8.037269 0.91742,-0.49075 1.51257,-0.5834 3.73703,-0.58178 2.21175,0.002 2.87373,0.10462 4.0349,0.62789 l 1.38906,0.62597 v 1.31864 c 0,1.151777 -0.0586,1.29462 -0.46302,1.128813 -0.25466,-0.104406 -0.97404,-0.252256 -1.59863,-0.328555 -1.50957,-0.184418 -2.43626,0.606999 -2.43626,2.080627 0,1.5231 0.90358,2.422255 2.46781,2.455725 l 1.23622,0.02645 7e-5,1.389062 c 6e-5,1.312511 -0.0371,1.389064 -0.67454,1.389064 -1.78924,0 -3.02956,1.46768 -3.02956,3.584895 0,3.393979 2.36754,4.45571 5.20786,2.335482 0.46324,-0.34579 0.90972,-0.628711 0.99219,-0.628711 0.0825,0 0.14995,0.48398 0.14995,1.07551 0,0.942086 -0.16374,1.235001 -1.31987,2.3611 -2.17847,2.121902 -5.60816,2.946532 -8.4677,2.035966 z m 28.70527,-0.36512 c -1.44447,-0.443307 -2.72584,-0.646494 -4.03489,-0.639813 l -1.91823,0.0098 v -1.015021 c 0,-0.905124 0.0819,-1.03141 0.75681,-1.166384 0.41624,-0.08325 1.12305,-0.459536 1.57068,-0.836195 1.19543,-1.005885 1.53995,-2.914832 1.14686,-6.35463 -0.77736,-6.802417 -0.12145,-9.170054 2.98254,-10.766013 1.57136,-0.80794 4.52787,-0.60879 6.63998,0.44727 1.41651,0.70825 1.59666,0.88932 1.67246,1.681054 l 0.0849,0.887311 -1.29046,-0.177484 c -1.0644,-0.146392 -1.40372,-0.08548 -1.93703,0.347733 l -0.64658,0.525217 0.0912,5.776414 c 0.0886,5.609109 0.0745,5.79766 -0.48688,6.509939 -0.31797,0.403438 -1.01388,0.959952 -1.54646,1.236696 l -0.96833,0.503168 0.98369,0.416952 c 1.90194,0.806164 3.93237,0.366847 5.6586,-1.22433 l 1.16292,-1.071949 -0.0116,0.761301 c -0.0154,1.012767 -0.61513,2.649472 -1.22,3.329726 -1.46411,1.646581 -4.92987,1.973307 -8.69026,0.819248 z m 29.10417,0.0091 c -1.45804,-0.458227 -2.71355,-0.663874 -4.03489,-0.660903 l -1.91823,0.0043 v -1.006295 c 0,-0.902153 0.0806,-1.022414 0.77883,-1.162058 2.29661,-0.459325 3.19581,-2.87761 2.6839,-7.21809 -0.44153,-3.743863 -0.36389,-6.654241 0.2113,-7.920598 0.60728,-1.336989 2.47328,-2.965942 3.65054,-3.186792 1.76855,-0.33179 4.14662,0.009 5.78964,0.82974 1.39901,0.69882 1.57942,0.881038 1.65512,1.671629 l 0.0849,0.88731 -1.33047,-0.182986 c -1.2025,-0.165386 -1.39596,-0.117498 -2.01131,0.497852 l -0.68084,0.680839 0.17383,5.626295 c 0.17119,5.540524 0.1649,5.637478 -0.41261,6.35982 -0.32254,0.403438 -1.02218,0.959952 -1.55476,1.236695 l -0.96833,0.503169 0.98369,0.416951 c 1.91425,0.811385 3.92879,0.367242 5.70049,-1.256778 l 1.20482,-1.104387 -0.16975,1.26133 c -0.23537,1.748916 -0.80233,2.719601 -2.08426,3.568445 -1.57222,1.041059 -4.73041,1.104006 -7.75166,0.154504 z"
       id="path921" />
    <path
       id="path921-3"
       style="fill:#ff0000;stroke-width:0.221131"
       d="m 254.39547,103.10523 c -0.49732,0.001 -0.97793,0.0301 -1.42007,0.0881 -1.17726,0.15427 -3.04314,1.29219 -3.65042,2.2261 -0.57519,0.88457 -0.65289,2.91742 -0.21136,5.53257 0.51191,3.03191 -0.38695,4.72117 -2.68356,5.04202 -0.69823,0.0975 -0.77876,0.18129 -0.77876,0.81146 v 0.70317 l 1.91823,-0.003 c 1.32134,-0.002 2.57685,0.1416 4.03489,0.46168 l -5.3e-4,-3.7e-4 c 3.02125,0.66324 6.17977,0.61927 7.75199,-0.10793 1.28193,-0.59294 1.84873,-1.27084 2.08411,-2.49249 l 0.17001,-0.88113 -1.20509,0.77139 c -1.7717,1.13441 -3.78618,1.44465 -5.70043,0.87788 l -0.98392,-0.29094 0.96842,-0.35158 c 0.53258,-0.19331 1.2324,-0.58199 1.55494,-0.8638 0.57751,-0.50457 0.58357,-0.57229 0.41238,-4.44245 l -0.17364,-3.93024 0.6811,-0.47539 c 0.61535,-0.42983 0.80875,-0.4635 2.01125,-0.34798 l 1.33015,0.12779 -0.0847,-0.61979 c -0.0757,-0.55224 -0.25619,-0.67959 -1.6552,-1.16773 -1.23226,-0.42998 -2.8778,-0.67139 -4.36976,-0.66744 z m -28.94035,0.002 c -0.94609,0.004 -1.81317,0.11726 -2.45153,0.34653 -3.10399,1.11481 -3.75961,2.76846 -2.98225,7.52007 0.39309,2.40276 0.0487,3.73621 -1.1467,4.43884 -0.44763,0.2631 -1.15472,0.52626 -1.57096,0.58441 -0.67491,0.0943 -0.75655,0.18246 -0.75655,0.81471 v 0.70894 l 1.91823,-0.007 c 1.30891,-0.005 2.5901,0.13766 4.03438,0.44724 h 5.3e-4 c 3.76021,0.80601 7.22586,0.57798 8.68991,-0.57213 0.60487,-0.47517 1.20468,-1.61865 1.22008,-2.32609 l 0.0114,-0.53171 -1.16272,0.74865 c -1.72623,1.11147 -3.75663,1.41862 -5.65857,0.8555 l -0.98392,-0.2913 0.96842,-0.35159 c 0.53258,-0.19331 1.2287,-0.58199 1.54667,-0.8638 0.56138,-0.49753 0.57539,-0.62942 0.48679,-4.54749 l -0.0915,-4.03491 0.64699,-0.36674 c 0.53331,-0.30261 0.87244,-0.34519 1.93684,-0.24294 l 1.29036,0.12418 -0.0847,-0.62015 c -0.0758,-0.55304 -0.25574,-0.67951 -1.67225,-1.17423 -1.25407,-0.438 -2.80615,-0.66477 -4.18889,-0.65877 z M 70.020678,103.12 c -1.314569,0 -2.45294,0.0869 -2.61431,0.19961 -0.01679,0.0117 -0.03508,0.022 -0.05426,0.0318 l 0.04496,1.35833 0.05426,1.63916 0.540536,0.33715 c 0.29715,0.18531 0.746682,0.36847 0.999422,0.40717 0.25276,0.0387 0.553586,0.0905 0.668176,0.11515 l 0.04392,3.42777 v 0.63205 3.70824 l -0.773596,0.54037 c -1.0198,0.71235 -2.798398,0.76652 -3.678328,0.11226 -0.56089,-0.41701 -0.575159,-0.5508 -0.575159,-5.33693 0,-4.90773 0.04024,-5.43659 1.130164,-5.29939 l -0.02015,-1.72507 c -1.718775,-0.25846 -4.596991,-0.16722 -5.740218,0.2025 -1.39335,0.45061 -2.397367,1.23271 -2.752287,2.14452 -0.37049,0.95177 -0.382249,9.18789 -0.01447,10.11292 0.4939,1.2422 2.032206,2.14969 4.354257,2.56902 v 3.7e-4 c 0.436559,0.0788 2.162968,0.12343 3.836458,0.0993 3.26661,-0.0472 4.475458,-0.31258 5.741768,-1.26086 1.27826,-0.95723 1.401982,-1.50418 1.401982,-6.21084 v -4.40527 l 0.926041,-0.627 c 0.77585,-0.52528 0.926042,-0.7558 0.926042,-1.42222 0,-0.43748 -0.07543,-0.79558 -0.167432,-0.79558 -0.09197,0 -0.568223,0.17321 -1.058333,0.38479 l -0.890902,0.3848 V 103.78202 103.12 Z m 55.549062,0.009 c -1.39302,-0.001 -2.6404,0.21368 -3.53157,0.65119 -1.6114,0.79109 -2.3194,1.75057 -2.3244,3.15162 -0.007,1.8476 0.77288,2.92753 4.23282,5.86069 0.82433,0.69884 1.05471,1.04878 1.05471,1.60379 0,1.47442 -2.24147,1.8943 -4.51135,0.84503 -0.56856,-0.26282 -1.09561,-0.47792 -1.17151,-0.47792 -0.0759,0 -0.13797,0.53098 -0.13797,1.18001 0,1.083 0.0597,1.2076 0.72657,1.51282 0.39964,0.18291 1.3819,0.48342 2.18281,0.66815 1.09572,0.25271 2.09207,0.32304 4.02559,0.28336 2.36547,-0.0486 2.65934,-0.0967 3.69694,-0.60606 1.53106,-0.75165 2.53629,-1.81605 2.88974,-3.05922 0.4357,-1.53243 -0.11298,-2.64011 -2.27841,-4.59947 -0.95489,-0.86401 -2.08958,-1.89536 -2.52129,-2.29179 -1.88959,-1.73523 -0.30914,-2.73087 2.66392,-1.67851 l 1.31413,0.46493 v -1.10818 c 0,-1.09615 -0.0112,-1.11193 -1.00046,-1.46445 -1.73572,-0.61854 -3.62904,-0.93461 -5.31027,-0.93599 z m -26.599407,0.008 c -2.443959,0.004 -5.620509,0.18728 -6.724655,0.45049 -3.061751,0.72987 -5.072208,2.67289 -5.077209,4.90593 -0.0047,2.20087 1.352444,3.85799 3.845242,4.69549 1.126512,0.37847 3.594352,0.48537 5.08186,0.22019 l 0.859896,-0.15305 v 0.76309 c 0,0.95462 -0.587025,1.77185 -1.378725,1.91999 -1.324271,0.2478 -3.265815,0.11039 -4.608504,-0.32631 -0.746152,-0.24268 -1.437659,-0.53296 -1.536859,-0.64505 -0.427088,-0.48272 -0.677995,-0.12367 -0.677995,0.96992 v 1.17423 l 1.785938,0.56636 c 0.981799,0.31148 2.02298,0.60936 2.314588,0.66202 h 5.29e-4 c 0.292092,0.0521 1.898621,0.0764 3.571359,0.0534 2.703129,-0.0372 3.191973,-0.096 4.382162,-0.52774 1.65919,-0.60194 3.16542,-1.74058 3.53622,-2.67334 0.15439,-0.38838 0.28136,-2.14069 0.28215,-3.89414 l 0.002,-3.18808 h -3.83644 -3.836459 v 1.21358 c 0,0.6674 -0.115877,1.36463 -0.257347,1.54928 -0.368261,0.48064 -0.9861,0.59336 -1.455209,0.26568 -0.563279,-0.39348 -0.576659,-4.10776 -0.01757,-4.86298 0.71365,-0.96399 3.406047,-1.36248 6.438365,-0.95296 l 1.13688,0.15341 -0.0786,-1.03165 -0.078,-1.03201 -1.05833,-0.15955 c -0.54462,-0.0822 -1.50445,-0.11789 -2.615343,-0.11623 z m 97.336177,0.0772 c -2.22446,-0.001 -2.81982,0.0637 -3.73724,0.40645 -3.18503,1.19011 -3.85899,3.832 -1.43196,5.61415 l 0.99839,0.73313 -0.76481,0.38046 c -1.70897,0.85003 -2.43836,2.88952 -1.68568,4.71354 0.35544,0.86136 0.73414,1.28169 1.81746,2.01854 0.75257,0.51189 1.78364,1.02329 2.29185,1.13633 2.85954,0.63605 6.28923,0.06 8.4677,-1.42222 1.15613,-0.78659 1.32033,-0.9912 1.32033,-1.64926 0,-0.4132 -0.0679,-0.75118 -0.15038,-0.75118 -0.0825,0 -0.52895,0.19776 -0.99219,0.4393 -2.84032,1.48102 -5.20743,0.73917 -5.20743,-1.63158 0,-1.47892 1.24003,-2.50405 3.02927,-2.50405 0.63744,0 0.67444,-0.0535 0.67438,-0.97028 v -0.97029 l -1.2361,-0.0184 c -1.56423,-0.0234 -2.46755,-0.65141 -2.46755,-1.71532 0,-1.02936 0.92646,-1.58245 2.43603,-1.45363 0.62459,0.0533 1.34421,0.15665 1.59886,0.22958 0.40443,0.11582 0.46302,0.0162 0.46302,-0.78836 v -0.92119 l -1.38906,-0.43713 c -1.16117,-0.36552 -1.82314,-0.43718 -4.03489,-0.43858 z m -177.333878,0.27578 0.03152,0.97028 0.03152,0.97029 1.389062,0.0559 1.389063,0.0559 v 4.96694 c 0,5.58775 0.01331,5.5481 -1.885673,5.5481 h -1.053682 l 0.08062,0.87787 0.08061,0.87788 1.586984,0.30863 h 5.29e-4 c 1.831967,0.35618 4.786333,0.4277 5.869411,0.14186 0.936368,-0.24713 2.120487,-1.02196 2.665986,-1.7442 0.276619,-0.36624 0.459703,-1.22888 0.539501,-2.54123 l 0.120923,-1.98677 h 0.730705 c 0.401751,0 1.000289,0.1528 1.330669,0.33967 0.55096,0.31162 0.604388,0.50332 0.643888,2.31453 0.04766,2.18528 0.283502,2.58894 1.986442,3.39853 1.8402,0.87484 4.908586,0.3665 7.371126,-1.22152 0.94514,-0.60949 1.098124,-0.81413 1.098124,-1.46734 v -0.75912 l -0.760677,0.30502 c -0.70983,0.28456 -0.807248,0.28357 -1.455208,-0.013 -0.65465,-0.29961 -0.694531,-0.40352 -0.694531,-1.8099 0,-2.42642 -0.993812,-3.11986 -4.471562,-3.11986 -1.03304,0 -1.878438,-0.0366 -1.878438,-0.0812 0,-0.0446 1.083762,-1.39008 2.408122,-2.99027 1.32437,-1.60018 2.468263,-3.01936 2.541963,-3.15342 0.10352,-0.18844 -0.316046,-0.24366 -1.848466,-0.24366 h -1.982308 l -2.477885,3.04514 -2.477885,3.04513 -0.07235,-3.04513 -0.07235,-3.04514 h -5.382604 z m 127.989088,0 v 1.01649 1.01649 h 1.19062 1.19063 l 0.006,4.66661 c 0.004,2.56663 0.12935,5.03929 0.27957,5.49467 0.35906,1.08852 1.37941,1.99534 2.72593,2.42247 1.44531,0.45843 4.15898,0.46254 5.58932,0.009 0.58333,-0.18512 1.43473,-0.63404 1.89188,-0.99772 l 0.83095,-0.6613 0.56948,0.42342 c 0.31304,0.23276 1.18804,0.66262 1.94458,0.95548 1.28194,0.49622 1.57361,0.53243 4.28604,0.53243 2.27384,0 3.09572,-0.0709 3.75791,-0.32379 1.28218,-0.48971 2.68915,-1.59077 2.98587,-2.33691 0.14565,-0.36627 0.26533,-2.45409 0.26613,-4.63954 l 0.002,-3.97355 0.94154,-0.55445 c 0.92091,-0.5421 0.94,-0.58088 0.8599,-1.7377 l -0.0816,-1.1829 -0.8599,0.50644 -0.85989,0.50644 v -0.57069 -0.57106 h -2.64584 -2.64583 v 1.63122 c 0,1.45407 0.0646,1.67299 0.59531,2.01674 0.32743,0.21211 0.89296,0.41364 1.25677,0.44796 l 0.66146,0.0624 v 3.42777 c 0,2.97054 -0.0627,3.49446 -0.46922,3.92734 -0.60784,0.64724 -2.22272,0.707 -2.99568,0.11082 -0.46854,-0.36138 -0.50966,-0.78428 -0.58136,-6.00653 l -0.077,-5.61776 h -3.82564 -3.82509 v 5.51597 c 0,5.20206 -0.029,5.53403 -0.50747,5.83651 -0.27904,0.1764 -0.78198,0.29312 -1.11776,0.25954 -1.17474,-0.11749 -1.27757,-0.62076 -1.28157,-6.29855 l -0.004,-5.31347 h -5.02708 z"
       sodipodi:nodetypes="ssssssccccsccccccscccsccssscssssccccsccssccsccccccssscscccsccccscsccscscccssccssccccssssssssssccssscccsssssssccssscscccccssccccscsscccccscssccsssssscsscccssssccccccccsscccccssccssssssccssssscscccccccccccccscsccscssscccccccccccssccsssccccssscccccccc" />
    <path
       style="fill:#000000;stroke-width:0.264583"
       d="m 17.374508,87.56916 -1.5875,-0.44197 -0.0806,-1.25665 -0.0806,-1.25665 h 1.05393 c 1.89898,0 1.88548,0.0569 1.88548,-7.942571 v -7.111025 l -1.38906,-0.07997 -1.38906,-0.07997 -0.0314,-1.389063 -0.0314,-1.389057 h 5.38279 5.3828 l 0.0725,4.359391 0.0725,4.359396 2.47773,-4.359396 2.47774,-4.359391 h 1.98234 c 1.53242,0 1.95195,0.0792 1.84843,0.34896 -0.0737,0.19193 -1.21748,2.223278 -2.54185,4.514106 -1.32436,2.290828 -2.40794,4.217388 -2.40794,4.281244 0,0.06386 0.84521,0.116101 1.87825,0.116101 3.47775,0 4.47175,0.992838 4.47175,4.466495 0,2.01338 0.0398,2.16199 0.69445,2.59091 0.64796,0.42456 0.74538,0.42579 1.45521,0.0184 l 0.76076,-0.43663 v 1.08667 c 0,0.93515 -0.15315,1.22806 -1.09829,2.10061 -2.46254,2.27341 -5.53087,3.00148 -7.37107,1.74905 -1.70294,-1.15901 -1.93882,-1.73673 -1.98648,-4.86518 -0.0395,-2.59293 -0.0928,-2.86739 -0.64376,-3.31351 -0.33038,-0.26753 -0.92939,-0.486413 -1.33114,-0.486413 h -0.73045 l -0.12076,2.844273 c -0.0798,1.87876 -0.26292,3.11371 -0.53954,3.63802 -0.5455,1.03396 -1.72968,2.14292 -2.66605,2.49671 -1.08317,0.40925 -4.03782,0.30712 -5.86975,-0.2029 z m 41.01042,0.25135 c -2.32205,-0.60031 -3.86009,-1.89951 -4.35399,-3.67786 -0.36778,-1.32427 -0.35599,-13.115168 0.0145,-14.477718 0.35492,-1.305352 1.35865,-2.425168 2.752,-3.070258 1.21521,-0.56263 4.39148,-0.67515 6.05099,-0.21436 0.73181,0.20319 1.10543,0.20277 1.30968,-0.001 0.16137,-0.16135 1.29956,-0.28578 2.61413,-0.28578 h 2.32833 v 0.94762 0.947625 l 0.89113,-0.550745 c 0.49011,-0.30291 0.96636,-0.55075 1.05833,-0.55075 0.092,0 0.16721,0.51243 0.16721,1.138726 0,0.954045 -0.15019,1.284287 -0.92604,2.036277 l -0.92605,0.897555 v 6.306595 c 0,6.738063 -0.12343,7.521063 -1.40169,8.891423 -1.26631,1.35756 -2.47545,1.73773 -5.74206,1.80535 -1.67349,0.0346 -3.39989,-0.0294 -3.83645,-0.14222 z m 7.29639,-3.98002 0.7734,-0.77339 v -5.308473 -5.308469 l -0.8599,-0.363908 c -1.09914,-0.465159 -1.6799,-1.141179 -1.90986,-2.22313 -0.13006,-0.61192 -0.36861,-0.906776 -0.82663,-1.021732 -1.3843,-0.347437 -1.4307,-0.103576 -1.4307,7.519617 0,6.851825 0.0144,7.043515 0.57529,7.640515 0.87993,0.93664 2.6586,0.85878 3.6784,-0.16103 z m 23.92444,4.04137 c -0.29104,-0.0751 -1.33284,-0.50158 -2.3151,-0.9477 l -1.78594,-0.81111 v -1.68062 c 0,-1.56559 0.25117,-2.0799 0.67826,-1.38885 0.0992,0.16048 0.79082,0.57604 1.53697,0.92346 1.34269,0.62518 3.28412,0.82206 4.60839,0.46732 0.7917,-0.21208 1.37846,-1.38213 1.37846,-2.74877 v -1.0925 l -0.85989,0.21946 c -1.48751,0.37964 -3.95535,0.22653 -5.08186,-0.3153 -2.4928,-1.19896 -3.84993,-3.571502 -3.84525,-6.722263 0.005,-3.196824 2.01561,-5.978323 5.07736,-7.023213 1.60603,-0.54809 7.597069,-0.85526 9.339849,-0.47886 l 1.05833,0.22857 0.0784,1.477286 0.0784,1.477283 -1.13669,-0.219767 c -3.032319,-0.586265 -5.724879,-0.0157 -6.438529,1.364344 -0.55909,1.08117 -0.54548,6.398356 0.0178,6.961661 0.46911,0.469112 1.08664,0.307621 1.4549,-0.380468 0.14147,-0.264354 0.25722,-1.262378 0.25722,-2.21783 v -1.737186 h 3.836459 3.836463 l -0.002,4.564062 c -7.9e-4,2.510231 -0.1278,5.018971 -0.28219,5.574981 -0.3708,1.33534 -1.876813,2.9653 -3.536003,3.82703 -1.190189,0.61815 -1.679289,0.70249 -4.382419,0.75568 -1.67349,0.0329 -3.28083,-0.002 -3.57187,-0.0767 z m 29.235472,-0.30831 c -0.80091,-0.26446 -1.78317,-0.69507 -2.18281,-0.95692 -0.66686,-0.43695 -0.72662,-0.61504 -0.72662,-2.16546 0,-0.92915 0.0621,-1.68936 0.13797,-1.68936 0.0759,0 0.60314,0.30784 1.1717,0.6841 2.26988,1.50213 4.51116,0.90116 4.51116,-1.20962 0,-0.79456 -0.23002,-1.29546 -1.05436,-2.2959 -3.45994,-4.199129 -4.24005,-5.745466 -4.23295,-8.390494 0.005,-2.005739 0.713,-3.379254 2.3244,-4.511792 1.96671,-1.38225 5.66804,-1.21165 8.84193,0.40755 0.98923,0.504668 1.00015,0.52757 1.00015,2.096821 v 1.58658 l -1.31412,-0.665916 c -2.97305,-1.506558 -4.55306,-0.08091 -2.66347,2.403241 0.43171,0.567537 1.56619,2.043917 2.52108,3.280844 2.16543,2.805016 2.71412,4.390716 2.27842,6.584556 -0.35345,1.77971 -1.35882,3.30325 -2.88988,4.37931 -1.0376,0.72925 -1.33131,0.7982 -3.69678,0.86774 -1.93352,0.0568 -2.9301,-0.0435 -4.02582,-0.40528 z m 30.26506,-0.0263 c -1.34652,-0.61148 -2.36687,-1.90955 -2.72593,-3.46788 -0.15022,-0.65192 -0.27603,-4.19165 -0.27959,-7.866047 l -0.006,-6.680737 h -1.19062 -1.19063 v -1.455208 -1.455204 h 5.02709 5.02708 l 0.004,7.606767 c 0.004,8.128349 0.10656,8.848899 1.28131,9.017099 0.33578,0.0481 0.83882,-0.11921 1.11786,-0.37174 0.47849,-0.43303 0.50736,-0.90836 0.50736,-8.355638 v -7.896488 h 3.82548 3.82548 l 0.0771,8.042414 c 0.0717,7.476182 0.11261,8.081602 0.58115,8.598962 0.77296,0.85348 2.38776,0.768 2.9956,-0.15858 0.40654,-0.61972 0.46912,-1.36977 0.46912,-5.622399 v -4.907276 l -0.66145,-0.08934 c -0.36381,-0.04914 -0.92935,-0.337782 -1.25678,-0.641433 -0.53069,-0.492112 -0.59531,-0.805529 -0.59531,-2.887173 v -2.335125 h 2.64584 2.64583 v 0.81727 0.817265 l 0.85989,-0.725165 0.8599,-0.72518 0.082,1.69384 c 0.0801,1.656109 0.061,1.711522 -0.85991,2.487591 l -0.94187,0.79375 -0.002,5.688541 c -8e-4,3.128694 -0.12064,6.117554 -0.26629,6.641914 -0.29672,1.06818 -1.70353,2.64461 -2.9857,3.34569 -0.66219,0.36207 -1.48414,0.46344 -3.75798,0.46344 -2.71243,0 -3.004,-0.0519 -4.28594,-0.76229 -0.75654,-0.41926 -1.63165,-1.03491 -1.94469,-1.36813 l -0.56917,-0.60585 -0.83117,0.94665 c -0.45714,0.52065 -1.30843,1.16346 -1.89176,1.42847 -1.43034,0.64978 -4.14393,0.6436 -5.58924,-0.0127 z m 41.44002,0.15792 c -0.50821,-0.16183 -1.53975,-0.89382 -2.29232,-1.62664 -1.08332,-1.05488 -1.46181,-1.6568 -1.81725,-2.88992 -0.75268,-2.61128 -0.0233,-5.531015 1.68567,-6.747917 l 0.7651,-0.544799 -0.99847,-1.049611 c -2.42703,-2.551333 -1.75327,-6.333512 1.43176,-8.037269 0.91742,-0.49075 1.51257,-0.5834 3.73703,-0.58178 2.21175,0.002 2.87373,0.10462 4.0349,0.62789 l 1.38906,0.62597 v 1.31864 c 0,1.151777 -0.0586,1.29462 -0.46302,1.128813 -0.25466,-0.104406 -0.97404,-0.252256 -1.59863,-0.328555 -1.50957,-0.184418 -2.43626,0.606999 -2.43626,2.080627 0,1.5231 0.90358,2.422255 2.46781,2.455725 l 1.23622,0.02645 7e-5,1.389062 c 6e-5,1.312511 -0.0371,1.389064 -0.67454,1.389064 -1.78924,0 -3.02956,1.46768 -3.02956,3.58489 0,3.39398 2.36754,4.45571 5.20786,2.33549 0.46324,-0.34579 0.90972,-0.62871 0.99219,-0.62871 0.0825,0 0.14995,0.48398 0.14995,1.07551 0,0.94208 -0.16374,1.235 -1.31987,2.36109 -2.17847,2.12191 -5.60816,2.94654 -8.4677,2.03597 z m 28.70527,-0.36512 c -1.44447,-0.44331 -2.72584,-0.6465 -4.03489,-0.63981 l -1.91823,0.01 v -1.01503 c 0,-0.90512 0.0819,-1.0314 0.75681,-1.16638 0.41624,-0.0833 1.12305,-0.45953 1.57068,-0.83619 1.19543,-1.00589 1.53995,-2.91484 1.14686,-6.354633 -0.77736,-6.802417 -0.12145,-9.170054 2.98254,-10.766013 1.57136,-0.80794 4.52787,-0.60879 6.63998,0.44727 1.41651,0.70825 1.59666,0.88932 1.67246,1.681054 l 0.0849,0.887311 -1.29046,-0.177484 c -1.0644,-0.146392 -1.40372,-0.08548 -1.93703,0.347733 l -0.64658,0.525217 0.0912,5.776414 c 0.0886,5.609111 0.0745,5.797661 -0.48688,6.509941 -0.31797,0.40344 -1.01388,0.95995 -1.54646,1.23669 l -0.96833,0.50317 0.98369,0.41695 c 1.90194,0.80617 3.93237,0.36685 5.6586,-1.22433 l 1.16292,-1.07195 -0.0116,0.76131 c -0.0154,1.01276 -0.61513,2.64947 -1.22,3.32972 -1.46411,1.64658 -4.92987,1.97331 -8.69026,0.81925 z m 29.10417,0.009 c -1.45804,-0.45823 -2.71355,-0.66388 -4.03489,-0.6609 l -1.91823,0.004 v -1.0063 c 0,-0.90215 0.0806,-1.02241 0.77883,-1.16206 2.29661,-0.45932 3.19581,-2.87761 2.6839,-7.218086 -0.44153,-3.743863 -0.36389,-6.654241 0.2113,-7.920598 0.60728,-1.336989 2.47328,-2.965942 3.65054,-3.186792 1.76855,-0.33179 4.14662,0.009 5.78964,0.82974 1.39901,0.69882 1.57942,0.881038 1.65512,1.671629 l 0.0849,0.88731 -1.33047,-0.182986 c -1.2025,-0.165386 -1.39596,-0.117498 -2.01131,0.497852 l -0.68084,0.680839 0.17383,5.626295 c 0.17119,5.540527 0.1649,5.637477 -0.41261,6.359817 -0.32254,0.40344 -1.02218,0.95995 -1.55476,1.2367 l -0.96833,0.50317 0.98369,0.41695 c 1.91425,0.81138 3.92879,0.36724 5.70049,-1.25678 l 1.20482,-1.10439 -0.16975,1.26133 c -0.23537,1.74892 -0.80233,2.7196 -2.08426,3.56845 -1.57222,1.04106 -4.73041,1.104 -7.75166,0.1545 z"
       id="path921-3-6" />
  </g>
</svg>
