<?xml version="1.0" encoding="UTF-8" standalone="no"?>
<!-- Created with Inkscape (http://www.inkscape.org/) -->

<svg
   width="210mm"
   height="297mm"
   viewBox="0 0 210 297"
   version="1.1"
   id="svg5375"
   sodipodi:docname="o.svg"
   inkscape:version="1.1.2 (0a00cf5339, 2022-02-04)"
   xmlns:inkscape="http://www.inkscape.org/namespaces/inkscape"
   xmlns:sodipodi="http://sodipodi.sourceforge.net/DTD/sodipodi-0.dtd"
   xmlns="http://www.w3.org/2000/svg"
   xmlns:svg="http://www.w3.org/2000/svg">
  <sodipodi:namedview
     id="namedview5377"
     pagecolor="#ffffff"
     bordercolor="#666666"
     borderopacity="1.0"
     inkscape:pageshadow="2"
     inkscape:pageopacity="0.0"
     inkscape:pagecheckerboard="0"
     inkscape:document-units="mm"
     showgrid="false"
     inkscape:zoom="0.27794613"
     inkscape:cx="334.59721"
     inkscape:cy="653.00424"
     inkscape:window-width="1440"
     inkscape:window-height="838"
     inkscape:window-x="0"
     inkscape:window-y="25"
     inkscape:window-maximized="1"
     inkscape:current-layer="layer1" />
  <defs
     id="defs5372" />
  <g
     inkscape:label="Layer 1"
     inkscape:groupmode="layer"
     id="layer1">
    <path
       style="color:#000000;fill:#32f0ff;stroke-width:1.98316;stroke-linecap:round;stroke-linejoin:round;-inkscape-stroke:none;paint-order:stroke markers fill"
       d="M 76.9066 58.6538 L 67.4371 59.4657 L 58.2499 61.8943 L 49.6191 65.872 L 41.7993 71.2736 L 35.0208 77.9356 L 29.4925 85.6658 L 25.3995 94.2429 L 22.8911 103.407 L 22.0506 112.873 L 22.0506 121.812 L 22.0506 130.751 L 22.0506 139.69 L 22.0506 148.628 L 22.0506 157.566 L 22.0506 166.505 L 22.0506 175.444 L 22.0506 184.383 L 22.8911 193.849 L 25.4001 203.014 L 29.4931 211.591 L 35.0209 219.32 L 41.7986 225.982 L 49.6184 231.383 L 58.2501 235.362 L 67.4381 237.79 L 76.9066 238.602 L 86.6243 238.602 L 96.3412 238.602 L 106.058 238.602 L 115.776 238.602 L 125.494 238.602 L 135.211 238.602 L 144.68 237.79 L 153.867 235.362 L 162.498 231.384 L 170.318 225.982 L 177.096 219.32 L 182.625 211.59 L 186.718 203.013 L 189.226 193.849 L 190.067 184.383 L 190.067 175.443 L 190.067 166.505 L 190.067 157.566 L 190.067 148.628 L 190.067 139.69 L 190.067 130.75 L 190.067 121.812 L 190.067 112.873 L 189.226 103.407 L 186.717 94.2414 L 182.624 85.6647 L 177.096 77.9355 L 170.319 71.2742 L 162.499 65.8724 L 153.867 61.8942 L 144.679 59.4656 L 135.211 58.6538 L 125.493 58.6538 L 115.776 58.6538 L 106.059 58.6538 L 96.3413 58.6538 L 86.6234 58.6538 L 76.9066 58.6538 M 76.9066 80.3415 L 86.6243 80.3415 L 96.3412 80.3415 L 106.058 80.3415 L 115.776 80.3415 L 125.494 80.3415 L 135.211 80.3415 L 143.709 81.3987 L 151.66 84.5744 L 158.507 89.7107 L 163.759 96.4715 L 167.03 104.382 L 168.124 112.873 L 168.124 121.812 L 168.124 130.751 L 168.124 139.69 L 168.124 148.628 L 168.124 157.566 L 168.124 166.505 L 168.124 175.444 L 168.124 184.383 L 167.03 192.874 L 163.758 200.785 L 158.508 207.545 L 151.659 212.682 L 143.709 215.857 L 135.211 216.914 L 125.493 216.914 L 115.776 216.914 L 106.059 216.914 L 96.3413 216.914 L 86.6234 216.914 L 76.9066 216.914 L 68.4083 215.857 L 60.4576 212.681 L 53.6097 207.545 L 48.3584 200.784 L 45.0866 192.874 L 43.993 184.383 L 43.993 175.443 L 43.993 166.505 L 43.993 157.566 L 43.993 148.628 L 43.993 139.69 L 43.993 130.75 L 43.993 121.812 L 43.993 112.873 L 45.0867 104.382 L 48.3588 96.4709 L 53.6093 89.711 L 60.4579 84.5743 L 68.4078 81.3989 L 76.9066 80.3415 L 76.9066 80.3415"
       id="rect5526" />
  </g>
</svg>
