<?xml version="1.0" standalone="no"?>
<!DOCTYPE svg PUBLIC "-//W3C//DTD SVG 20010904//EN"
 "http://www.w3.org/TR/2001/REC-SVG-20010904/DTD/svg10.dtd">
<svg version="1.0" xmlns="http://www.w3.org/2000/svg"
 width="700.000000pt" height="700.000000pt" viewBox="0 0 700.000000 700.000000"
 preserveAspectRatio="xMidYMid meet">
<metadata>
Created by potrace 1.14, written by Peter Selinger 2001-2017
</metadata>
<g transform="translate(0.000000,700.000000) scale(0.100000,-0.100000)"
fill="#000000" stroke="none">
<path d="M2580 5984 c-87 -23 -159 -64 -226 -129 -107 -105 -97 144 -97 -2356
l-1 -2176 24 -64 c33 -90 120 -176 216 -213 120 -46 245 -53 333 -21 60 23
160 94 205 146 71 83 70 73 70 747 l1 604 255 -4 c244 -3 257 -4 310 -28 149
-65 238 -158 256 -267 4 -21 7 -238 8 -483 2 -438 2 -446 24 -494 33 -74 68
-114 134 -156 107 -70 235 -99 345 -79 116 21 271 127 315 216 l23 48 0 500
c0 275 -4 523 -8 550 -5 28 -19 83 -33 123 -63 188 -162 313 -339 427 -78 50
-210 115 -233 115 -17 0 -15 10 12 49 13 20 68 106 121 191 54 85 117 184 140
220 222 341 368 582 382 629 42 145 -28 320 -162 404 -90 57 -227 83 -340 63
-22 -4 -73 -23 -113 -43 -85 -42 -136 -95 -191 -198 -21 -38 -104 -194 -186
-345 -81 -151 -166 -309 -188 -350 -22 -41 -51 -95 -65 -120 -13 -25 -45 -83
-70 -130 -25 -47 -65 -120 -89 -164 -24 -43 -43 -82 -43 -87 0 -11 5 -11 -140
-12 -66 -1 -121 0 -121 3 -1 3 -2 581 -4 1285 -2 1199 -3 1283 -20 1330 -38
107 -141 221 -229 254 -72 27 -202 34 -276 15z"/>
</g>
</svg>
