<?xml version="1.0" encoding="UTF-8" standalone="no"?>
<!-- Created with Inkscape (http://www.inkscape.org/) -->

<svg
   width="30"
   height="30"
   viewBox="0 0 7.9374998 7.9375003"
   version="1.1"
   id="svg5"
   inkscape:version="1.1.2 (0a00cf5339, 2022-02-04)"
   sodipodi:docname="mag2.svg"
   xmlns:inkscape="http://www.inkscape.org/namespaces/inkscape"
   xmlns:sodipodi="http://sodipodi.sourceforge.net/DTD/sodipodi-0.dtd"
   xmlns="http://www.w3.org/2000/svg"
   xmlns:svg="http://www.w3.org/2000/svg">
  <sodipodi:namedview
     id="namedview7"
     pagecolor="#ffffff"
     bordercolor="#666666"
     borderopacity="1.0"
     inkscape:pageshadow="2"
     inkscape:pageopacity="0.0"
     inkscape:pagecheckerboard="0"
     inkscape:document-units="mm"
     showgrid="false"
     units="px"
     width="128px"
     inkscape:zoom="7.5686869"
     inkscape:cx="8.1916455"
     inkscape:cy="9.645002"
     inkscape:window-width="1332"
     inkscape:window-height="690"
     inkscape:window-x="0"
     inkscape:window-y="29"
     inkscape:window-maximized="0"
     inkscape:current-layer="layer1" />
  <defs
     id="defs2" />
  <g
     inkscape:label="Layer 1"
     inkscape:groupmode="layer"
     id="layer1">
    <g
       id="g28"
       transform="matrix(0.23150585,0,0,0.23150585,0.03315149,0.03315149)"
       style="fill:#000000">
      <path
         id="path31"
         style="fill:#000000;stroke-width:0.855952"
         d="M 50.949219,11.035156 A 39.911811,39.911811 0 0 0 11.035156,50.949219 39.911811,39.911811 0 0 0 50.949219,90.859375 39.911811,39.911811 0 0 0 71.910156,84.880859 l 32.587894,32.587891 12.9707,-12.9707 L 84.880859,71.910156 A 39.911811,39.911811 0 0 0 90.859375,50.949219 39.911811,39.911811 0 0 0 50.949219,11.035156 Z m -0.002,9.978516 A 29.933858,29.933858 0 0 1 80.882812,50.947266 29.933858,29.933858 0 0 1 50.947266,80.882812 29.933858,29.933858 0 0 1 21.013672,50.947266 29.933858,29.933858 0 0 1 50.947266,21.013672 Z"
         transform="matrix(0.30066288,0,0,0.30066288,-2.3181813,-2.3181813)" />
    </g>
  </g>
</svg>
