<?xml version="1.0" encoding="UTF-8" standalone="no"?>
<!-- Created with Inkscape (http://www.inkscape.org/) -->

<svg
   width="210mm"
   height="297mm"
   viewBox="0 0 210 297"
   version="1.1"
   id="svg5"
   inkscape:version="1.1.2 (0a00cf5339, 2022-02-04)"
   sodipodi:docname="tune_hand.svg"
   xmlns:inkscape="http://www.inkscape.org/namespaces/inkscape"
   xmlns:sodipodi="http://sodipodi.sourceforge.net/DTD/sodipodi-0.dtd"
   xmlns="http://www.w3.org/2000/svg"
   xmlns:svg="http://www.w3.org/2000/svg">
  <sodipodi:namedview
     id="namedview7"
     pagecolor="#ffffff"
     bordercolor="#666666"
     borderopacity="1.0"
     inkscape:pageshadow="2"
     inkscape:pageopacity="0.0"
     inkscape:pagecheckerboard="0"
     inkscape:document-units="mm"
     showgrid="false"
     inkscape:zoom="0.35355339"
     inkscape:cx="-0.82764992"
     inkscape:cy="159.80399"
     inkscape:window-width="1440"
     inkscape:window-height="838"
     inkscape:window-x="0"
     inkscape:window-y="25"
     inkscape:window-maximized="1"
     inkscape:current-layer="layer1" />
  <defs
     id="defs2" />
  <g
     inkscape:label="Layer 1"
     inkscape:groupmode="layer"
     id="layer1">
    <path
       style="fill:#000000;stroke-width:0.965;stroke-miterlimit:4;stroke-dasharray:none;stroke:#010000;stroke-opacity:1"
       d="m 127.86049,178.87656 c -0.32798,-0.17975 -2.69775,-2.58902 -5.26616,-5.35391 l -4.66982,-5.02709 -3.06822,-1.41251 c -29.74315,-13.69282 -27.675236,-12.6848 -29.088968,-14.17961 -2.090031,-2.2099 -2.332127,-4.19152 -0.710226,-5.81342 0.461835,-0.46184 1.321242,-0.98397 1.909789,-1.16031 2.053267,-0.61517 3.45509,-0.40106 9.160635,1.39919 2.997806,0.94588 5.61445,1.71979 5.81476,1.71979 0.47856,0 2.4739,-2.68175 3.26905,-4.39362 0.82527,-1.77673 1.23395,-4.08386 1.02068,-5.76211 -0.25738,-2.02541 -1.21918,-5.48422 -1.55637,-5.59697 -0.16274,-0.0544 -8.729746,-0.19735 -12.545301,-0.31762 -7.854824,-0.24758 -7.878698,-0.2541 -9.003775,-2.45592 -0.738788,-1.44584 -0.755004,-2.67264 -0.05445,-4.11979 0.881261,-1.82044 1.519325,-1.9891 6.77393,-1.79056 2.452542,0.0927 10.794696,-0.60829 10.715326,-0.69619 -0.0794,-0.0875 -0.646586,-0.0422 -4.315105,-1.42759 -7.165127,-2.70584 -8.413093,-3.25838 -9.08288,-4.02147 -1.876671,-2.13812 -2.715618,-4.51671 -0.516242,-6.36737 1.971796,-1.65915 3.470902,-1.39695 10.947906,1.91489 3.334051,1.47677 3.595701,1.4017 3.636061,1.36134 0.0404,-0.0404 0.53453,0.27847 -1.11408,-1.19926 -3.597186,-3.22434 -4.510599,-4.72339 -4.510599,-7.40258 -0.259184,-2.73033 1.893523,-3.42828 3.620582,-2.89204 2.284177,0.66402 7.294407,5.88418 10.995237,8.75809 1.85889,1.44353 4.25706,2.46417 5.62968,4.26144 2.64839,3.46772 6.47405,11.37708 6.47405,11.37708 3.56072,6.25739 8.3425,15.00849 10.62617,19.44687 2.28367,4.43839 4.34803,8.28895 4.58748,8.55681 0.23944,0.26786 1.53035,1.25046 2.86867,2.18355 3.29529,2.29749 3.62951,2.80151 3.46306,5.2224 -0.22433,3.26254 -1.68943,6.34991 -4.38072,9.23138 -2.44813,2.62111 -6.16384,5.03726 -9.03132,5.87262 -1.71624,0.49998 -1.83299,0.50376 -2.59883,0.084 z"
       id="path928"
       sodipodi:nodetypes="cscssssssssssssccssssssccasssssssscc" />
    <g
       id="g948"
       transform="rotate(-90,-307.23674,-221.18793)"
       style="stroke-width:6;stroke-miterlimit:4;stroke-dasharray:none">
      <path
         id="path898"
         style="fill:none;stroke:#000000;stroke-width:6;stroke-linecap:round;stroke-linejoin:round;stroke-miterlimit:4;stroke-dasharray:none;stroke-opacity:1;paint-order:stroke markers fill"
         d="m -641.6146,99.218753 c -1.97839,-0.83679 -3.76005,-2.047645 -5.2563,-3.5439 -1.49626,-1.496255 -2.70711,-3.277911 -3.5439,-5.256306 -0.83679,-1.978394 -1.29952,-4.153527 -1.29952,-6.436736 0,-2.283209 0.46273,-4.458342 1.29952,-6.436736 0.83679,-1.978395 2.04764,-3.760051 3.5439,-5.256307 1.49625,-1.496255 3.27791,-2.707109 5.2563,-3.543899 1.9784,-0.836791 4.15353,-1.299517 6.43674,-1.299517 2.28321,0 4.45834,0.462727 6.43674,1.299517 1.97839,0.83679 3.76005,2.047645 5.2563,3.5439 1.49626,1.496255 2.70711,3.277911 3.5439,5.256306 0.83679,1.978394 1.29952,4.153527 1.29952,6.436736 0,2.283209 -0.46273,4.458342 -1.29952,6.436736 -0.83679,1.978395 -2.04764,3.760051 -3.5439,5.256306 -1.49625,1.496256 -3.27791,2.707109 -5.2563,3.543899"
         sodipodi:nodetypes="csssssssssssssc" />
      <path
         style="fill:none;stroke:#000000;stroke-width:7;stroke-linecap:round;stroke-linejoin:miter;stroke-miterlimit:4;stroke-dasharray:none;stroke-opacity:1"
         d="M -634.99967,93.468914 V 84.666668"
         id="path1903"
         sodipodi:nodetypes="cc" />
    </g>
    <path
       id="path14803-1-9"
       style="color:#000000;fill:#ff0000;stroke-width:1.13567;stroke-linecap:round;stroke-linejoin:round;-inkscape-stroke:none"
       d="m -12.343122,110.93932 -24.718455,19.38518 c -0.353106,0.26328 -1.914093,0.87405 -1.353391,-1.03804 l 2.16867,-6.22626 c 1.401902,-2.44955 1.465116,-5.05834 -0.984359,-6.46037 -1.176985,-0.67333 -2.573317,-0.8513 -3.881569,-0.49473 -1.307246,0.35629 -2.419496,1.21713 -3.092225,2.39326 l -6.548054,13.22635 c -4.060801,8.37171 -1.743611,9.32301 -5.11182,15.25863 -2.935117,3.95384 -6.070424,6.80998 -6.272577,7.26724 h 6.01e-4 c -0.472085,1.06773 -0.459936,1.2252 0.276416,3.51419 1.230293,3.82441 4.485585,8.68426 7.912206,11.81196 3.766991,3.43836 7.709068,5.20059 11.787316,5.26952 3.026168,0.0511 3.632169,-0.43802 6.27542,-5.06763 1.073515,-1.88023 2.211658,-3.6993 2.529417,-4.04296 0.253588,-0.27427 3.287914,-2.29657 7.22967,-4.83348 1.071121,-0.40751 2.092437,-1.00515 3.013586,-1.83456 l 11.888847,-10.70453 c 2.0980791,-1.88839 2.2678259,-5.12015 0.379119,-7.21794 -0.907161,-1.00738 -2.177409,-1.61306 -3.531207,-1.68373 -0.844451,-0.0412 -1.685925,0.12781 -2.449016,0.49179 l 1.883858,-1.69606 c 2.096998,-1.889 2.265681,-5.12026 0.376772,-7.21734 -0.906595,-1.00683 -2.175889,-1.61245 -3.528859,-1.68374 -0.38204,-0.0147 -0.76453,0.0134 -1.140292,0.0839 l 14.0121481,-11.99096 c 2.1444015,-1.83556 2.5720212,-4.43998 0.73617,-6.58413 -1.7885635,-1.75184 -4.4725552,-2.60671 -7.8583921,0.0744 z"
       sodipodi:nodetypes="cccccscccccssssscccccccccccccc" />
  </g>
</svg>
