<svg xmlns="http://www.w3.org/2000/svg" width="793.701" height="1122.52" viewBox="0 0 210 297" xmlns:v="https://vecta.io/nano"><path d="M44.366 74.433c-.161-.094-.484-.425-.717-.736l-4.368-6.058-.51-.755 1.6-2.254c3.688-5.196 3.459-4.938 4.419-4.982.878-.041 4.038.554 4.038.76 0 .06-.42.6-.934 1.201l-2.517 3.161-1.583 2.069 1.765 2.25 2.794 3.391c1.158 1.283 1.246 1.159-1.246 1.749-1.762.417-2.308.457-2.742.204zm23.777-.199c-3.101-.431-3.901-.619-4.606-1.08-.54-.353-.553-.487-.553-5.57 0-5.127.009-5.216.584-5.737 1.189-1.075 4.649-2.224 6.699-2.224 1.144 0 5.443.548 6.671.851 1.677.413 1.656.336 1.656 6.121 0 5.945.109 5.612-2.189 6.677-1.391.645-4.04 1.336-5.064 1.321-.377-.006-1.816-.167-3.199-.36zm4.642-2.633l.649-.314v-4.228-4.228l-.595-.185c-.327-.102-1.099-.249-1.715-.327-.907-.116-1.266-.106-1.886.049-.421.105-.84.285-.93.399-.249.314-.189 8.42.064 8.612.244.186 2.21.515 3.158.528.334.005.9-.133 1.257-.306zm26.314 2.575l-3.371-.574c-1.357-.36-1.392-.511-1.392-6.057 0-4.962.02-5.172.552-5.704 1.04-1.04 4.532-2.214 6.59-2.216 1.479-.002 6.887.754 7.073.988.157.198-2.142 1.932-2.697 2.035-.202.038-1.284-.053-2.403-.202-2.262-.3-2.771-.27-3.552.21-.513.316-.536.506-.536 4.465 0 3.504.061 4.164.397 4.327.218.106 1.056.263 1.862.351 1.347.146 1.523.138 2.183-.1 1.261-.454 1.519-2.217.325-2.217-.796 0-1.063-.399-1.063-1.592v-1.097h3.002c4.134 0 3.945-.137 3.832 2.774-.081 2.078-.143 2.332-.687 2.826-1.008.915-4.947 2.215-6.676 2.203-.364-.003-1.912-.192-3.44-.421zm27.422-.029c-3.41-.479-3.61-.518-3.61-.712 0-.227 2.364-1.908 2.797-1.989.228-.042 1.29.046 2.358.196 2.535.356 3.138.345 4.118-.079 1.046-.452 1.306-1.2.651-1.869-.25-.255-2.048-1.271-3.994-2.258-4.043-2.05-4.92-2.732-4.941-3.842-.026-1.349 1.907-2.752 4.959-3.599 1.726-.479 2.724-.474 6.422.03 2.323.317 2.977.455 2.977.628 0 .301-2.147 1.897-2.663 1.98-.228.036-1.001-.02-1.72-.125-2.079-.305-3.413-.258-4.065.143-.66.406-.701.941-.115 1.489.238.223 1.888 1.134 3.666 2.023 3.948 1.976 4.767 2.669 4.758 4.024-.008 1.177-.904 2.133-2.872 3.063-1.557.736-3.834 1.359-4.913 1.346-.372-.005-2.087-.207-3.813-.449zm31.315.185c-2.777-.36-4.11-.67-4.674-1.086-.451-.333-.491-.795-.561-6.518-.086-7.03-.337-6.342 2.484-6.826 2.735-.47 2.461-1.073 2.545 5.606l.365 6.024c.16.078.928.222 1.705.321 1.777.227 2.624.067 3.082-.579.223-.316.32-1.97.331-5.648.012-4.006.091-5.229.346-5.32.629-.225 3.902-.709 4.298-.635.346.064.398.832.398 5.888 0 4.911.059 5.838.382 5.967.606.244 2.884.491 3.501.38 1.405-.251 1.408-.266 1.413-6.004l.204-5.469c.222-.169 3.702-.808 4.398-.808.406 0 .435.481.365 6.133l-.076 6.133-.821.557c-1.029.698-3.624 1.669-5.275 1.974-1.24.229-1.288.228-3.666-.069l-3.203-.48c-.745-.168-.905-.151-2.599.277-2.072.523-2.263.53-4.942.183zm42.127-.279l-4.63-.87-.852-.334-.076-5.172c-.087-5.916-.097-5.882 2.014-6.784 1.93-.825 3.694-1.266 5.072-1.267 1.438-.002 6.885.752 7.063.976.153.192-2.141 1.946-2.674 2.045-.206.038-1.29-.055-2.407-.206-2.307-.313-3.267-.228-3.798.335-.405.43-.391 2.386.019 2.584.206.1 1.274.154 3.033.154 3.254 0 3.264.005 3.264 1.528v1.033h-3.307-3.307v1.453c0 1.222.073 1.484.463 1.652.255.11 1.773.38 3.373.601l3.373.469c.255.037.456.165.447.283-.024.311-2.437 2.001-2.9 2.031-.215.014-2.091-.216-4.169-.511zM32.962 74.1c-.32-.29-.384-13.426-.066-13.668.22-.167 3.699-.808 4.388-.808.393 0 .431.644.431 7.362v7.362h-2.24c-1.943 0-2.276-.033-2.514-.248zm190.47-.127l-.773-.374v-6.596c0-5.137.073-6.619.331-6.698.182-.056 1.095-.232 2.03-.392 2.959-.505 2.651-1.146 2.73 5.696l.069 5.986 4.023.064c2.244.036 4.144.123 4.297.197.189.092.138.499-.164 1.312l-.438 1.179h-5.665-5.665zm25.43.014c-.57-.276-.796-.535-.927-1.059-.095-.382-.136-3.328-.091-6.547.07-5.001.14-5.88.479-6.034.539-.246 3.894-.765 4.372-.676.328.061.395.952.454 5.998l.069 5.926 4.023.064c2.267.036 4.143.123 4.299.198.192.093.135.484-.186 1.28l-.462 1.146-5.637.035-5.637.035z"/></svg>