<?xml version="1.0" encoding="UTF-8" standalone="no"?>
<svg
   height="100%"
   version="1.1"
   width="100%"
   id="svg8"
   sodipodi:docname="example.svg"
   inkscape:version="1.1.2 (0a00cf5339, 2022-02-04)"
   xmlns:inkscape="http://www.inkscape.org/namespaces/inkscape"
   xmlns:sodipodi="http://sodipodi.sourceforge.net/DTD/sodipodi-0.dtd"
   xmlns="http://www.w3.org/2000/svg"
   xmlns:svg="http://www.w3.org/2000/svg">
  <sodipodi:namedview
     id="namedview10"
     pagecolor="#ffffff"
     bordercolor="#666666"
     borderopacity="1.0"
     inkscape:pageshadow="2"
     inkscape:pageopacity="0.0"
     inkscape:pagecheckerboard="0"
     showgrid="false"
     inkscape:zoom="3.81"
     inkscape:cx="93.700787"
     inkscape:cy="84.908136"
     inkscape:window-width="1440"
     inkscape:window-height="838"
     inkscape:window-x="0"
     inkscape:window-y="25"
     inkscape:window-maximized="1"
     inkscape:current-layer="svg8" />
  <defs
     id="defs2">
    <filter
       style="color-interpolation-filters:sRGB;"
       inkscape:label="Blur"
       id="filter829"
       x="-0.050907378"
       y="-0.14664004"
       width="1.1018148"
       height="1.2932801">
      <feGaussianBlur
         stdDeviation="1.5 1.5"
         result="fbSourceGraphic"
         id="feGaussianBlur827" />
      <feColorMatrix
         result="fbSourceGraphicAlpha"
         in="fbSourceGraphic"
         values="0 0 0 -1 0 0 0 0 -1 0 0 0 0 -1 0 0 0 0 1 0"
         id="feColorMatrix2147" />
      <feGaussianBlur
         id="feGaussianBlur2149"
         stdDeviation="0.5 0.5"
         result="fbSourceGraphic"
         in="fbSourceGraphic" />
      <feColorMatrix
         result="fbSourceGraphicAlpha"
         in="fbSourceGraphic"
         values="0 0 0 -1 0 0 0 0 -1 0 0 0 0 -1 0 0 0 0 1 0"
         id="feColorMatrix2169" />
      <feGaussianBlur
         id="feGaussianBlur2171"
         stdDeviation="0.5 0.5"
         result="fbSourceGraphic"
         in="fbSourceGraphic" />
      <feColorMatrix
         result="fbSourceGraphicAlpha"
         in="fbSourceGraphic"
         values="0 0 0 -1 0 0 0 0 -1 0 0 0 0 -1 0 0 0 0 1 0"
         id="feColorMatrix2191" />
      <feGaussianBlur
         id="feGaussianBlur2193"
         stdDeviation="0.5 0.5"
         result="fbSourceGraphic"
         in="fbSourceGraphic" />
      <feColorMatrix
         result="fbSourceGraphicAlpha"
         in="fbSourceGraphic"
         values="0 0 0 -1 0 0 0 0 -1 0 0 0 0 -1 0 0 0 0 1 0"
         id="feColorMatrix2213" />
      <feGaussianBlur
         id="feGaussianBlur2215"
         stdDeviation="0.5 0.5"
         result="fbSourceGraphic"
         in="fbSourceGraphic" />
      <feColorMatrix
         result="fbSourceGraphicAlpha"
         in="fbSourceGraphic"
         values="0 0 0 -1 0 0 0 0 -1 0 0 0 0 -1 0 0 0 0 1 0"
         id="feColorMatrix2235" />
      <feGaussianBlur
         id="feGaussianBlur2237"
         stdDeviation="0.5 0.5"
         result="fbSourceGraphic"
         in="fbSourceGraphic" />
      <feColorMatrix
         result="fbSourceGraphicAlpha"
         in="fbSourceGraphic"
         values="0 0 0 -1 0 0 0 0 -1 0 0 0 0 -1 0 0 0 0 1 0"
         id="feColorMatrix2257" />
      <feGaussianBlur
         id="feGaussianBlur2259"
         stdDeviation="0.5 0.5"
         result="fbSourceGraphic"
         in="fbSourceGraphic" />
      <feColorMatrix
         result="fbSourceGraphicAlpha"
         in="fbSourceGraphic"
         values="0 0 0 -1 0 0 0 0 -1 0 0 0 0 -1 0 0 0 0 1 0"
         id="feColorMatrix2279" />
      <feGaussianBlur
         id="feGaussianBlur2281"
         stdDeviation="0.5 0.5"
         result="blur"
         in="fbSourceGraphic" />
    </filter>
    <filter
       style="color-interpolation-filters:sRGB;"
       inkscape:label="Blur"
       id="filter2433"
       x="-0.034031575"
       y="-0.083980869"
       width="1.0680632"
       height="1.1679617">
      <feGaussianBlur
         stdDeviation="0.05 0.05"
         result="fbSourceGraphic"
         id="feGaussianBlur2431" />
      <feColorMatrix
         result="fbSourceGraphicAlpha"
         in="fbSourceGraphic"
         values="0 0 0 -1 0 0 0 0 -1 0 0 0 0 -1 0 0 0 0 1 0"
         id="feColorMatrix2453" />
      <feGaussianBlur
         id="feGaussianBlur2455"
         stdDeviation="0.05 0.05"
         result="fbSourceGraphic"
         in="fbSourceGraphic" />
      <feColorMatrix
         result="fbSourceGraphicAlpha"
         in="fbSourceGraphic"
         values="0 0 0 -1 0 0 0 0 -1 0 0 0 0 -1 0 0 0 0 1 0"
         id="feColorMatrix2475" />
      <feGaussianBlur
         id="feGaussianBlur2477"
         stdDeviation="0.05 0.05"
         result="fbSourceGraphic"
         in="fbSourceGraphic" />
      <feColorMatrix
         result="fbSourceGraphicAlpha"
         in="fbSourceGraphic"
         values="0 0 0 -1 0 0 0 0 -1 0 0 0 0 -1 0 0 0 0 1 0"
         id="feColorMatrix2497" />
      <feGaussianBlur
         id="feGaussianBlur2499"
         stdDeviation="0.05 0.05"
         result="fbSourceGraphic"
         in="fbSourceGraphic" />
      <feColorMatrix
         result="fbSourceGraphicAlpha"
         in="fbSourceGraphic"
         values="0 0 0 -1 0 0 0 0 -1 0 0 0 0 -1 0 0 0 0 1 0"
         id="feColorMatrix2519" />
      <feGaussianBlur
         id="feGaussianBlur2521"
         stdDeviation="0.05 0.05"
         result="fbSourceGraphic"
         in="fbSourceGraphic" />
      <feColorMatrix
         result="fbSourceGraphicAlpha"
         in="fbSourceGraphic"
         values="0 0 0 -1 0 0 0 0 -1 0 0 0 0 -1 0 0 0 0 1 0"
         id="feColorMatrix2541" />
      <feGaussianBlur
         id="feGaussianBlur2543"
         stdDeviation="0.05 0.05"
         result="fbSourceGraphic"
         in="fbSourceGraphic" />
      <feColorMatrix
         result="fbSourceGraphicAlpha"
         in="fbSourceGraphic"
         values="0 0 0 -1 0 0 0 0 -1 0 0 0 0 -1 0 0 0 0 1 0"
         id="feColorMatrix2563" />
      <feGaussianBlur
         id="feGaussianBlur2565"
         stdDeviation="0.05 0.05"
         result="fbSourceGraphic"
         in="fbSourceGraphic" />
      <feColorMatrix
         result="fbSourceGraphicAlpha"
         in="fbSourceGraphic"
         values="0 0 0 -1 0 0 0 0 -1 0 0 0 0 -1 0 0 0 0 1 0"
         id="feColorMatrix2585" />
      <feGaussianBlur
         id="feGaussianBlur2587"
         stdDeviation="0.05 0.05"
         result="fbSourceGraphic"
         in="fbSourceGraphic" />
      <feColorMatrix
         result="fbSourceGraphicAlpha"
         in="fbSourceGraphic"
         values="0 0 0 -1 0 0 0 0 -1 0 0 0 0 -1 0 0 0 0 1 0"
         id="feColorMatrix2607" />
      <feGaussianBlur
         id="feGaussianBlur2609"
         stdDeviation="0.05 0.05"
         result="fbSourceGraphic"
         in="fbSourceGraphic" />
      <feColorMatrix
         result="fbSourceGraphicAlpha"
         in="fbSourceGraphic"
         values="0 0 0 -1 0 0 0 0 -1 0 0 0 0 -1 0 0 0 0 1 0"
         id="feColorMatrix2629" />
      <feGaussianBlur
         id="feGaussianBlur2631"
         stdDeviation="0.05 0.05"
         result="fbSourceGraphic"
         in="fbSourceGraphic" />
      <feColorMatrix
         result="fbSourceGraphicAlpha"
         in="fbSourceGraphic"
         values="0 0 0 -1 0 0 0 0 -1 0 0 0 0 -1 0 0 0 0 1 0"
         id="feColorMatrix2651" />
      <feGaussianBlur
         id="feGaussianBlur2653"
         stdDeviation="0.05 0.05"
         result="fbSourceGraphic"
         in="fbSourceGraphic" />
      <feColorMatrix
         result="fbSourceGraphicAlpha"
         in="fbSourceGraphic"
         values="0 0 0 -1 0 0 0 0 -1 0 0 0 0 -1 0 0 0 0 1 0"
         id="feColorMatrix2673" />
      <feGaussianBlur
         id="feGaussianBlur2675"
         stdDeviation="0.05 0.05"
         result="fbSourceGraphic"
         in="fbSourceGraphic" />
      <feColorMatrix
         result="fbSourceGraphicAlpha"
         in="fbSourceGraphic"
         values="0 0 0 -1 0 0 0 0 -1 0 0 0 0 -1 0 0 0 0 1 0"
         id="feColorMatrix2695" />
      <feGaussianBlur
         id="feGaussianBlur2697"
         stdDeviation="0.05 0.05"
         result="fbSourceGraphic"
         in="fbSourceGraphic" />
      <feColorMatrix
         result="fbSourceGraphicAlpha"
         in="fbSourceGraphic"
         values="0 0 0 -1 0 0 0 0 -1 0 0 0 0 -1 0 0 0 0 1 0"
         id="feColorMatrix2717" />
      <feGaussianBlur
         id="feGaussianBlur2719"
         stdDeviation="0.05 0.05"
         result="fbSourceGraphic"
         in="fbSourceGraphic" />
      <feColorMatrix
         result="fbSourceGraphicAlpha"
         in="fbSourceGraphic"
         values="0 0 0 -1 0 0 0 0 -1 0 0 0 0 -1 0 0 0 0 1 0"
         id="feColorMatrix2739" />
      <feGaussianBlur
         id="feGaussianBlur2741"
         stdDeviation="0.05 0.05"
         result="fbSourceGraphic"
         in="fbSourceGraphic" />
      <feColorMatrix
         result="fbSourceGraphicAlpha"
         in="fbSourceGraphic"
         values="0 0 0 -1 0 0 0 0 -1 0 0 0 0 -1 0 0 0 0 1 0"
         id="feColorMatrix2761" />
      <feGaussianBlur
         id="feGaussianBlur2763"
         stdDeviation="0.05 0.05"
         result="fbSourceGraphic"
         in="fbSourceGraphic" />
      <feColorMatrix
         result="fbSourceGraphicAlpha"
         in="fbSourceGraphic"
         values="0 0 0 -1 0 0 0 0 -1 0 0 0 0 -1 0 0 0 0 1 0"
         id="feColorMatrix2783" />
      <feGaussianBlur
         id="feGaussianBlur2785"
         stdDeviation="0.05 0.05"
         result="fbSourceGraphic"
         in="fbSourceGraphic" />
      <feColorMatrix
         result="fbSourceGraphicAlpha"
         in="fbSourceGraphic"
         values="0 0 0 -1 0 0 0 0 -1 0 0 0 0 -1 0 0 0 0 1 0"
         id="feColorMatrix2805" />
      <feGaussianBlur
         id="feGaussianBlur2807"
         stdDeviation="0.05 0.05"
         result="fbSourceGraphic"
         in="fbSourceGraphic" />
      <feColorMatrix
         result="fbSourceGraphicAlpha"
         in="fbSourceGraphic"
         values="0 0 0 -1 0 0 0 0 -1 0 0 0 0 -1 0 0 0 0 1 0"
         id="feColorMatrix2827" />
      <feGaussianBlur
         id="feGaussianBlur2829"
         stdDeviation="0.05 0.05"
         result="fbSourceGraphic"
         in="fbSourceGraphic" />
      <feColorMatrix
         result="fbSourceGraphicAlpha"
         in="fbSourceGraphic"
         values="0 0 0 -1 0 0 0 0 -1 0 0 0 0 -1 0 0 0 0 1 0"
         id="feColorMatrix2849" />
      <feGaussianBlur
         id="feGaussianBlur2851"
         stdDeviation="0.05 0.05"
         result="fbSourceGraphic"
         in="fbSourceGraphic" />
      <feColorMatrix
         result="fbSourceGraphicAlpha"
         in="fbSourceGraphic"
         values="0 0 0 -1 0 0 0 0 -1 0 0 0 0 -1 0 0 0 0 1 0"
         id="feColorMatrix2871" />
      <feGaussianBlur
         id="feGaussianBlur2873"
         stdDeviation="0.05 0.05"
         result="fbSourceGraphic"
         in="fbSourceGraphic" />
      <feColorMatrix
         result="fbSourceGraphicAlpha"
         in="fbSourceGraphic"
         values="0 0 0 -1 0 0 0 0 -1 0 0 0 0 -1 0 0 0 0 1 0"
         id="feColorMatrix2893" />
      <feGaussianBlur
         id="feGaussianBlur2895"
         stdDeviation="0.05 0.05"
         result="fbSourceGraphic"
         in="fbSourceGraphic" />
      <feColorMatrix
         result="fbSourceGraphicAlpha"
         in="fbSourceGraphic"
         values="0 0 0 -1 0 0 0 0 -1 0 0 0 0 -1 0 0 0 0 1 0"
         id="feColorMatrix2915" />
      <feGaussianBlur
         id="feGaussianBlur2917"
         stdDeviation="0.05 0.05"
         result="fbSourceGraphic"
         in="fbSourceGraphic" />
      <feColorMatrix
         result="fbSourceGraphicAlpha"
         in="fbSourceGraphic"
         values="0 0 0 -1 0 0 0 0 -1 0 0 0 0 -1 0 0 0 0 1 0"
         id="feColorMatrix2937" />
      <feGaussianBlur
         id="feGaussianBlur2939"
         stdDeviation="0.05 0.05"
         result="fbSourceGraphic"
         in="fbSourceGraphic" />
      <feColorMatrix
         result="fbSourceGraphicAlpha"
         in="fbSourceGraphic"
         values="0 0 0 -1 0 0 0 0 -1 0 0 0 0 -1 0 0 0 0 1 0"
         id="feColorMatrix2959" />
      <feGaussianBlur
         id="feGaussianBlur2961"
         stdDeviation="0.05 0.05"
         result="fbSourceGraphic"
         in="fbSourceGraphic" />
      <feColorMatrix
         result="fbSourceGraphicAlpha"
         in="fbSourceGraphic"
         values="0 0 0 -1 0 0 0 0 -1 0 0 0 0 -1 0 0 0 0 1 0"
         id="feColorMatrix2981" />
      <feGaussianBlur
         id="feGaussianBlur2983"
         stdDeviation="0.05 0.05"
         result="fbSourceGraphic"
         in="fbSourceGraphic" />
      <feColorMatrix
         result="fbSourceGraphicAlpha"
         in="fbSourceGraphic"
         values="0 0 0 -1 0 0 0 0 -1 0 0 0 0 -1 0 0 0 0 1 0"
         id="feColorMatrix3003" />
      <feGaussianBlur
         id="feGaussianBlur3005"
         stdDeviation="0.05 0.05"
         result="blur"
         in="fbSourceGraphic" />
    </filter>
  </defs>
  <line
     stroke="#357"
     stroke-width="10"
     x1="10.0"
     x2="254.32008140433618"
     y1="120.0"
     y2="31.074762735326132"
     id="line4"
     style="stroke:#272859;stroke-opacity:1" />
  <path
     style="fill:#cccccc;stroke-width:0.0799998;filter:url(#filter2433)"
     d="m 77.066406,98.630838 c -0.07995,-0.01442 -0.260866,-0.101819 -0.402121,-0.194171 -0.539637,-0.352795 -2.378433,-1.602584 -2.684713,-1.82473 l -0.320628,-0.232565 0.318345,-1.158334 c 0.73394,-2.670462 0.67879,-2.53095 1.064228,-2.691983 0.35262,-0.147318 1.731716,-0.37413 1.762393,-0.289844 0.0089,0.0245 -0.08239,0.307648 -0.202908,0.629228 -0.120521,0.32158 -0.371578,1.070934 -0.557912,1.665234 l -0.338793,1.080547 1.05537,0.656551 c 0.58046,0.361102 1.320901,0.797354 1.645432,0.969446 0.663804,0.352003 0.681467,0.288229 -0.249068,0.899489 -0.657887,0.432161 -0.874855,0.529955 -1.089625,0.491132 z M 86.74814,95.01504 c -1.330642,0.284882 -1.685233,0.327199 -2.041987,0.243699 -0.272825,-0.06386 -0.29831,-0.116893 -1.053814,-2.192625 -0.762151,-2.09399 -0.771697,-2.131914 -0.61418,-2.429915 0.325664,-0.615975 1.56813,-1.599554 2.405631,-1.90438 0.4673,-0.170083 2.304742,-0.585202 2.851059,-0.644116 0.746363,-0.08049 0.726453,-0.108789 1.586445,2.254021 0.883783,2.428172 0.878852,2.275745 0.09871,3.052519 -0.472243,0.470198 -1.451513,1.1462 -1.871843,1.292154 -0.15478,0.05378 -0.766798,0.201641 -1.360017,0.328643 z m 1.504628,-1.765606 0.218528,-0.224901 -0.628541,-1.7269 -0.62854,-1.726902 -0.270586,0.01311 c -0.14883,0.0072 -0.486027,0.06179 -0.749336,0.121293 -0.387805,0.08763 -0.532762,0.144692 -0.763124,0.300358 -0.156401,0.105696 -0.30071,0.241255 -0.320685,0.301252 -0.05497,0.165094 1.174524,3.467021 1.306247,3.508186 0.127078,0.03969 0.979007,-0.118337 1.368139,-0.253786 0.137118,-0.04778 0.347668,-0.187997 0.46787,-0.311694 z m 11.130406,-2.860296 c -0.658166,0.133518 -1.316091,0.25349 -1.462071,0.266601 -0.607897,0.0546 -0.644415,-0.0018 -1.46884,-2.26685 -0.73765,-2.026677 -0.760364,-2.115398 -0.622267,-2.4117 0.270331,-0.579446 1.521719,-1.577982 2.362096,-1.884818 0.603648,-0.220444 2.925188,-0.715725 3.035798,-0.647716 0.0934,0.05742 -0.58771,1.107642 -0.79915,1.232294 -0.0771,0.04545 -0.53216,0.169074 -1.011283,0.274747 -0.968737,0.213656 -1.171848,0.301511 -1.419526,0.614005 -0.162688,0.205259 -0.143749,0.286329 0.44474,1.903186 0.520928,1.431239 0.643737,1.69176 0.805273,1.708233 0.104782,0.01071 0.470515,-0.04942 0.812616,-0.133564 0.57173,-0.140634 0.64262,-0.17016 0.87679,-0.365182 0.44742,-0.372639 0.29086,-1.131474 -0.19682,-0.953972 -0.32517,0.118352 -0.49336,-0.0051 -0.67068,-0.492282 l -0.163036,-0.447945 1.226006,-0.44623 c 1.68862,-0.614607 1.59115,-0.642386 1.97755,0.563556 0.27585,0.860804 0.28836,0.973536 0.13947,1.256185 -0.27584,0.523708 -1.69144,1.640213 -2.39916,1.89224 -0.14901,0.05296 -0.80935,0.205698 -1.467504,0.339216 z m 11.195916,-4.088442 c -1.4639,0.311333 -1.55132,0.324936 -1.58011,0.245842 -0.0338,-0.09286 0.68186,-1.13081 0.84666,-1.227962 0.087,-0.05129 0.53357,-0.173017 0.9924,-0.270504 1.08828,-0.231248 1.33278,-0.325581 1.67004,-0.644336 0.35983,-0.340089 0.35508,-0.68451 -0.0119,-0.860012 -0.14011,-0.06702 -1.02533,-0.21492 -1.96714,-0.328675 -1.95606,-0.236255 -2.41554,-0.384337 -2.58937,-0.834477 -0.21122,-0.546981 0.36994,-1.407689 1.49042,-2.207309 0.63359,-0.45216 1.04216,-0.598718 2.62752,-0.942516 0.99597,-0.215984 1.28331,-0.256852 1.30903,-0.186191 0.0447,0.122933 -0.59476,1.094067 -0.7932,1.204533 -0.0875,0.04872 -0.41201,0.140699 -0.72108,0.204431 -0.89452,0.184416 -1.43236,0.401856 -1.63906,0.662644 -0.20925,0.264009 -0.14663,0.488443 0.17453,0.625416 0.13056,0.05568 0.93965,0.182356 1.79798,0.281483 1.9064,0.220165 2.34393,0.381313 2.54178,0.936179 0.1722,0.481895 -0.0521,1.005627 -0.7176,1.677892 -0.52665,0.531979 -1.36405,1.125294 -1.80677,1.280138 -0.15246,0.05336 -0.88333,0.225868 -1.62413,0.383413 z m 12.81797,-4.579807 c -1.18775,0.265862 -1.77819,0.337526 -2.0705,0.2513 -0.23365,-0.06892 -0.31863,-0.25182 -1.19807,-2.57872 -1.08033,-2.858538 -1.08034,-2.540235 -2.2e-4,-3.157477 1.04723,-0.598448 0.84562,-0.804218 1.8728,1.911395 0.62557,1.653828 0.94798,2.396395 1.04473,2.406247 0.077,0.0078 0.4119,-0.04718 0.74429,-0.122236 0.7594,-0.171493 1.08191,-0.36257 1.17254,-0.694693 0.0443,-0.162198 -0.16213,-0.852326 -0.70461,-2.356195 -0.59084,-1.637948 -0.74022,-2.149234 -0.6497,-2.224345 0.22344,-0.185444 1.4884,-0.86954 1.66125,-0.898404 0.15088,-0.02519 0.28613,0.280476 1.0378,2.34568 0.73004,2.005768 0.89209,2.375561 1.0431,2.380528 0.28387,0.0093 1.25075,-0.228156 1.48655,-0.365114 0.53637,-0.31154 0.53559,-0.318166 -0.31564,-2.662453 -0.43387,-1.194736 -0.76218,-2.213642 -0.72971,-2.26419 0.0654,-0.101797 1.39176,-0.880311 1.67606,-0.983786 0.1659,-0.06038 0.24906,0.131765 1.06079,2.450826 l 0.88076,2.516355 -0.25257,0.349383 c -0.31661,0.437946 -1.23216,1.220293 -1.86109,1.590332 -0.47242,0.277948 -0.49234,0.284772 -1.5075,0.51677 -0.56582,0.129309 -1.18664,0.255266 -1.3796,0.27991 -0.32924,0.04205 -0.39204,0.07279 -1.02035,0.499394 -0.7685,0.521795 -0.84531,0.553023 -1.99114,0.809501 z m 17.16475,-6.376603 c -1.05683,0.223079 -1.76166,0.339197 -2.02053,0.332871 l -0.39755,-0.0097 -0.79984,-2.101038 c -0.91487,-2.40336 -0.9139,-2.387839 -0.18587,-3.070288 0.66565,-0.623949 1.32054,-1.066161 1.8831,-1.271559 0.58695,-0.214367 2.92383,-0.716562 3.03007,-0.651239 0.0909,0.0559 -0.58505,1.11298 -0.78834,1.232816 -0.0785,0.04629 -0.53484,0.169436 -1.01399,0.273615 -0.98877,0.214998 -1.36823,0.392314 -1.50124,0.701538 -0.10139,0.235683 0.19525,1.032783 0.39172,1.052854 0.0988,0.01008 0.54312,-0.126613 1.26181,-0.388194 1.32899,-0.483716 1.33369,-0.483297 1.56016,0.138924 l 0.15352,0.421797 -1.35083,0.491661 -1.35082,0.49166 0.21593,0.593285 c 0.18167,0.499132 0.25063,0.595306 0.43471,0.605931 0.12033,0.007 0.78056,-0.108247 1.46719,-0.256006 0.68664,-0.147763 1.33806,-0.287202 1.4476,-0.309872 0.10954,-0.02267 0.21056,-5.14e-4 0.22446,0.04923 0.0365,0.130526 -0.69778,1.179447 -0.88252,1.260664 -0.0857,0.03768 -0.88619,0.222672 -1.77883,0.4111 z M 72.359231,100.19026 c -0.173978,-0.0707 -2.152687,-5.426859 -2.05882,-5.572944 0.06496,-0.101032 1.390801,-0.879962 1.672089,-0.982342 0.16064,-0.05847 0.271812,0.199052 1.270483,2.942878 l 1.094441,3.006952 -0.914763,0.332946 c -0.793796,0.28892 -0.93442,0.32496 -1.06344,0.27251 z M 150.136,71.823265 l -0.37152,-0.03789 -0.98058,-2.69412 c -0.7637,-2.09826 -0.95404,-2.71419 -0.86063,-2.784859 0.066,-0.04992 0.41287,-0.257692 0.77089,-0.461742 1.13347,-0.646028 0.91249,-0.862365 1.96174,1.920556 l 0.91793,2.434556 1.65252,-0.571863 c 0.92171,-0.318961 1.71076,-0.56584 1.78421,-0.558242 0.0908,0.0094 0.13057,0.183307 0.12819,0.560375 l -0.004,0.546772 -2.31382,0.842163 -2.31382,0.84216 z m 10.38876,-3.774494 c -0.27361,-0.0279 -0.40477,-0.09999 -0.53613,-0.294636 -0.0957,-0.141735 -0.55036,-1.338998 -1.01042,-2.660601 -0.71471,-2.053125 -0.81683,-2.422278 -0.70133,-2.535976 0.18355,-0.180717 1.47663,-0.891371 1.68531,-0.926221 0.14287,-0.02385 0.30287,0.330073 1.07689,2.382228 l 0.90907,2.410253 1.65253,-0.571863 c 0.93116,-0.322231 1.71048,-0.565867 1.78531,-0.558124 0.0923,0.0095 0.12716,0.17744 0.11432,0.550618 l -0.0185,0.536898 -2.29741,0.852186 -2.29742,0.852186 z"
     id="path861-3" />
  <line
     stroke="#fefefe"
     stroke-width="2"
     x1="10.939692620785909"
     x2="253.38038878355027"
     y1="119.65797985667433"
     y2="31.4167828786518"
     id="line6"
     style="filter:url(#filter829);fill:none" />
  <path
     style="fill:#000000;stroke-width:0.69564"
     d="m -500.1302,-87.543758 c -0.60998,-0.35567 -1.82872,-1.6078 -2.70829,-2.78251 -3.36018,-4.48764 -14.66831,-20.168472 -16.51024,-22.894542 l -1.92829,-2.85388 6.04624,-8.51811 c 13.93916,-19.63789 13.07357,-18.66194 16.70196,-18.83145 3.31945,-0.15509 15.26279,2.09314 15.26279,2.87308 0,0.22669 -1.58822,2.26881 -3.52937,4.53804 -1.94115,2.26924 -6.22122,7.64564 -9.51126,11.94757 l -5.98189,7.82169 6.67095,8.50348 c 3.66903,4.67692 8.42185,10.443684 10.56182,12.815042 4.37718,4.85044 4.71113,4.38186 -4.71025,6.60909 -6.66095,1.57466 -8.72465,1.72847 -10.36417,0.7725 z m 89.86417,-0.75118 c -11.72005,-1.62958 -14.74337,-2.33837 -17.41007,-4.08167 -2.03938,-1.33321 -2.08993,-1.84233 -2.08993,-21.050282 0,-19.37691 0.0344,-19.71519 2.20819,-21.68172 4.49294,-4.06466 17.57051,-8.40646 25.32039,-8.40646 4.32417,0 20.57276,2.07265 25.212,3.21602 6.33801,1.56204 6.25942,1.27157 6.25942,23.13603 0,22.469292 0.41305,21.209133 -8.2718,25.236052 -5.25711,2.43757 -15.2693,5.04887 -19.13792,4.9914 -1.42466,-0.0211 -6.86528,-0.63288 -12.09028,-1.35937 z m 17.54545,-9.952142 2.45455,-1.187788 v -15.980012 -15.98002 l -2.25,-0.69764 c -1.2375,-0.3837 -4.15514,-0.94056 -6.48364,-1.23746 -3.4294,-0.43728 -4.78362,-0.4022 -7.12882,0.18467 -1.59235,0.39847 -3.17471,1.077 -3.51636,1.50784 -0.94009,1.18552 -0.71394,31.822522 0.24028,32.550634 0.92037,0.702286 8.35155,1.944673 11.93399,1.995194 1.2625,0.01781 3.4,-0.502134 4.75,-1.155418 z m 99.45455,9.730492 c -5.775,-0.86639 -11.50784,-1.84281 -12.73965,-2.16983 -5.12957,-1.36181 -5.26035,-1.93092 -5.26035,-22.891102 0,-18.75401 0.0768,-19.54651 2.08791,-21.55693 3.93219,-3.93075 17.1271,-8.36822 24.90645,-8.37609 5.58813,-0.006 26.03067,2.85136 26.7322,3.73603 0.59225,0.74687 -8.09633,7.30281 -10.19487,7.6925 -0.76499,0.14206 -4.85114,-0.2011 -9.08034,-0.76257 -8.55112,-1.13525 -10.47206,-1.02144 -13.42526,0.79536 -1.93979,1.19335 -2.02609,1.91211 -2.02609,16.87383 0,13.24408 0.22871,15.738074 1.49963,16.35309 0.8248,0.399133 3.99155,0.995558 7.03722,1.325389 5.08985,0.551207 5.75694,0.520774 8.25037,-0.376389 4.76422,-1.714214 5.74175,-8.38036 1.22891,-8.38036 -3.00897,0 -4.01613,-1.50897 -4.01613,-6.01712 v -4.14509 h 11.34501 c 15.6258,0 14.91192,-0.51688 14.48272,10.4862 -0.30638,7.854113 -0.53937,8.812462 -2.59633,10.679232 -3.81135,3.45893 -18.69902,8.37195 -25.2314,8.3265 -1.375,-0.01 -7.225,-0.72625 -13,-1.59265 z m 103.6424,-0.11002 c -12.88768,-1.80977 -13.6424,-1.95861 -13.6424,-2.69051 0,-0.85926 8.93452,-7.212128 10.5701,-7.515847 0.86336,-0.160321 4.87444,0.173169 8.91351,0.741091 9.58015,1.347038 11.85859,1.303385 15.56236,-0.298179 3.95165,-1.708747 4.93712,-4.537197 2.4607,-7.062587 -0.94562,-0.96432 -7.73894,-4.80552 -15.09626,-8.53599 -15.28053,-7.74788 -18.59468,-10.3244 -18.67634,-14.51953 -0.0992,-5.09761 7.2094,-10.40217 18.74308,-13.60362 6.52189,-1.81031 10.29623,-1.79274 24.27285,0.11299 8.7805,1.19724 11.25,1.71786 11.25,2.37173 0,1.13758 -8.11366,7.17093 -10.06367,7.48337 -0.86001,0.1378 -3.78501,-0.0755 -6.5,-0.47408 -7.85771,-1.15347 -12.89912,-0.97629 -15.36375,0.53995 -2.495,1.53491 -2.65075,3.55502 -0.43403,5.6294 0.90119,0.84333 7.13565,4.28461 13.85435,7.64729 14.92263,7.46871 18.01847,10.08672 17.9849,15.209 -0.0292,4.44976 -3.41623,8.062252 -10.85368,11.576092 -5.88543,2.78058 -14.49242,5.13817 -18.57046,5.08675 -1.40451,-0.0177 -7.88958,-0.78151 -14.41126,-1.69732 z m 118.357596,0.69899 c -10.49589,-1.36003 -15.53355,-2.53044 -17.66566,-4.10435 -1.70424,-1.25805 -1.85462,-3.00528 -2.12034,-24.634132 -0.32641,-26.57039 -1.27284,-23.96954 9.38867,-25.80078 10.33688,-1.77547 9.30144,-4.05645 9.61826,21.18803 0.19295,15.37409 0.61893,22.400576 1.38035,22.768796 0.60571,0.292914 3.50606,0.839548 6.44524,1.214746 6.71522,0.857226 9.91873,0.255081 11.64704,-2.189229 0.84396,-1.193593 1.21009,-7.446633 1.25,-21.348283 0.0435,-15.14106 0.34377,-19.76309 1.30644,-20.10763 2.37726,-0.8508 14.748027,-2.67854 16.246227,-2.40033 1.30781,0.24285 1.50377,3.14276 1.50377,22.25329 0,18.56054 0.22425,22.0641 1.4436,22.553807 2.29176,0.920405 10.89849,1.855487 13.23256,1.437661 5.30934,-0.950432 5.32263,-1.0069 5.33915,-22.693938 0.008,-11.05267 0.35552,-20.35467 0.77133,-20.67114 0.83725,-0.6372 13.9903796,-3.05397 16.6211096,-3.05397 1.53518,0 1.64329,1.8174 1.37901,23.18084 l -0.28676,23.18085 -3.10297,2.103682 c -3.88948003,2.6369 -13.6972196,6.30668 -19.9368696,7.45982 -4.68683,0.86617 -4.86981,0.86272 -13.85486,-0.26077 -5.00791,-0.62619 -10.4553,-1.4433 -12.1053,-1.81579 -2.815327,-0.63558 -3.419967,-0.57119 -9.822657,1.04604 -7.83132,1.97808 -8.55181,2.00481 -18.67734,0.69278 z m 159.219577,-1.05525 c -9.29892,-1.32024 -15.40351,-2.46763 -17.5,-3.28923 l -3.21958,-1.26175 -0.28672,-19.546572 c -0.32797,-22.359 -0.366471,-22.2293 7.61242,-25.64047 7.29475,-3.11868 13.96107,-4.78438 19.16866,-4.78965 5.43355,-0.006 26.022047,2.84049 26.695857,3.69021 0.57657,0.72709 -8.09061,7.35432 -10.108,7.72894 -0.77959,0.14476 -4.87424,-0.20618 -9.09923,-0.77988 -8.718827,-1.1839 -12.346747,-0.86351 -14.353267,1.26757 -1.52933,1.62427 -1.47612,9.01967 0.07028,9.76799 0.77746,0.37623 4.8144,0.5807 11.46482,0.5807 12.298037,0 12.335177,0.0174 12.335177,5.77516 v 3.90313 h -12.499997 -12.5 v 5.49001 c 0,4.61876 0.27772,5.60967 1.75,6.243975 0.9625,0.414681 6.7,1.436916 12.749997,2.271635 6.05,0.834723 11.7875,1.632674 12.75,1.773222 0.9625,0.14056 1.72197,0.62196 1.6877,1.06979 -0.0899,1.17522 -9.20938,7.56218 -10.96052,7.67638 -0.81245,0.053 -7.903367,-0.81604 -15.757597,-1.93116 z m -631.184393,0.18194 c -1.21128,-1.09524 -1.45015,-50.745652 -0.24854,-51.660172 0.83083,-0.63232 13.98139,-3.05397 16.58435,-3.05397 1.48646,0 1.62901,2.43486 1.62901,27.82508 v 27.825072 h -8.46482 c -7.34546,0 -8.6017,-0.12377 -9.5,-0.93601 z m 719.8879,-0.47851 -2.92308,-1.41451 v -24.930262 c 0,-19.41642 0.27646,-25.01534 1.25,-25.31496 0.6875,-0.2116 4.13999,-0.87773 7.67221,-1.48031 11.18307,-1.90777 10.02083,-4.33269 10.3179,21.52741 l 0.25989,22.622996 15.20369,0.241957 c 8.48002,0.134954 15.66163,0.464355 16.2392,0.744841 0.71416,0.346822 0.5219,1.886138 -0.6195,4.960128 l -1.65502,4.45723 h -21.41111 -21.41111 z m 96.11326,0.0548 c -2.15269,-1.04171 -3.01006,-2.02079 -3.50454,-4.00199 -0.36004,-1.44259 -0.51449,-12.577892 -0.34321,-24.745112 0.26608,-18.90191 0.52976,-22.222 1.81141,-22.80754 2.03729,-0.93077 14.71672,-2.89195 16.52552,-2.55607 1.23837,0.22996 1.49309,3.5978 1.71447,22.66817 l 0.26001,22.398096 15.20369,0.241957 c 8.567,0.136338 15.65953,0.463324 16.24796,0.74908 0.72585,0.352488 0.51128,1.828049 -0.70369,4.839149 l -1.74796,4.33202 -21.30687,0.13068 -21.30687,0.13068 z"
     id="path861" />
</svg>
