<?xml version="1.0" encoding="UTF-8" standalone="no"?>
<svg
   version="1.1"
   width="111"
   height="111"
   viewBox="0 0 111 111"
   id="svg8"
   sodipodi:docname="15.svg"
   inkscape:version="1.1.2 (0a00cf5339, 2022-02-04)"
   xmlns:inkscape="http://www.inkscape.org/namespaces/inkscape"
   xmlns:sodipodi="http://sodipodi.sourceforge.net/DTD/sodipodi-0.dtd"
   xmlns="http://www.w3.org/2000/svg"
   xmlns:svg="http://www.w3.org/2000/svg">
  <defs
     id="defs12" />
  <sodipodi:namedview
     id="namedview10"
     pagecolor="#ffffff"
     bordercolor="#666666"
     borderopacity="1.0"
     inkscape:pageshadow="2"
     inkscape:pageopacity="0.0"
     inkscape:pagecheckerboard="0"
     showgrid="false"
     width="444px"
     inkscape:zoom="1.3014706"
     inkscape:cx="81.446328"
     inkscape:cy="79.141243"
     inkscape:window-width="1366"
     inkscape:window-height="702"
     inkscape:window-x="0"
     inkscape:window-y="29"
     inkscape:window-maximized="1"
     inkscape:current-layer="svg8"
     showguides="true" />
  <circle
     style="fill:#000000;stroke-width:1.09369;stroke:none"
     id="path1778"
     cx="53.496117"
     cy="55.5"
     r="101.87025" />
  <g
     id="g1754"
     transform="translate(-2)"
     style="fill:#000000">
    <g
       id="path1222"
       style="fill:#000000">
      <path
         style="color:#000000;fill:#000000;stroke-width:0;-inkscape-stroke:none"
         d="M 81.716797,153.02539 A 101.26249,101.26249 0 0 1 55.5,156.76172 a 101.26249,101.26249 0 0 1 -4.132812,-0.32422 15.00001,15.00001 0 0 1 6.929687,8.4043 l 2.304687,7.18164 15.082032,-1.58789 0.792968,-7.52149 a 15.00001,15.00001 0 0 1 5.240235,-9.88867 z"
         id="path3017" />
      <path
         style="color:#000000;fill:#000000;-inkscape-stroke:none"
         d="M 81.716797,153.02539 C 73.179103,155.41307 64.3648,156.66926 55.5,156.76172 c -1.379671,-0.0799 -2.757566,-0.18796 -4.132812,-0.32422 3.281402,1.83412 5.754515,4.83351 6.929687,8.4043 l 2.304687,7.18164 15.082032,-1.58789 0.792968,-7.52149 c 0.405658,-3.84881 2.283219,-7.39189 5.240235,-9.88867 z"
         id="path3019" />
    </g>
    <g
       id="path1218"
       style="fill:#000000">
      <path
         style="color:#000000;fill:#000000;stroke-width:0;-inkscape-stroke:none"
         d="m 119.64648,133.47266 a 101.26249,101.26249 0 0 1 -27.353511,16.05468 15.00001,15.00001 0 0 1 10.261721,4.91993 l 5.06445,5.63281 13.11524,-7.59766 -2.34376,-7.18164 a 15.00001,15.00001 0 0 1 1.25586,-11.82812 z"
         id="path3023" />
      <path
         style="color:#000000;fill:#000000;-inkscape-stroke:none"
         d="m 119.64648,133.47266 c -8.21793,6.75512 -17.44899,12.17313 -27.353511,16.05468 3.934035,0.22838 7.620203,1.99569 10.261721,4.91993 l 5.06445,5.63281 13.11524,-7.59766 -2.34376,-7.18164 c -1.22929,-3.9473 -0.7749,-8.22696 1.25586,-11.82812 z"
         id="path3025" />
    </g>
    <g
       id="path1216"
       style="fill:#000000">
      <path
         style="color:#000000;fill:#000000;stroke-width:0;-inkscape-stroke:none"
         d="m -22.021484,120.17578 a 15.00001,15.00001 0 0 1 -1.697266,10.19727 l -3.779297,6.53711 11.261719,10.13086 6.123047,-4.42188 A 15.00001,15.00001 0 0 1 0.00585938,139.89062 101.26249,101.26249 0 0 1 -22.021484,120.17578 Z"
         id="path3029" />
      <path
         style="color:#000000;fill:#000000;-inkscape-stroke:none"
         d="m -22.021484,120.17578 c 0.660392,3.49282 0.05889,7.10667 -1.697266,10.19727 l -3.779297,6.53711 11.261719,10.13086 6.123047,-4.42188 c 2.9352495,-2.09663 6.5277457,-3.06531 10.11914038,-2.72852 C -8.2614351,134.4319 -15.68296,127.78951 -22.021484,120.17578 Z"
         id="path3031" />
    </g>
    <g
       id="path1212"
       style="fill:#000000">
      <path
         style="color:#000000;fill:#000000;stroke-width:0;-inkscape-stroke:none"
         d="m -41.667969,83.199219 a 15.00001,15.00001 0 0 1 -5.597656,8.24414 l -6.123047,4.458985 6.160156,13.833986 7.408204,-1.54883 a 15.00001,15.00001 0 0 1 10.121093,1.48828 101.26249,101.26249 0 0 1 -11.96875,-26.476561 z"
         id="path3035" />
      <path
         style="color:#000000;fill:#000000;-inkscape-stroke:none"
         d="m -41.667969,83.199219 c -0.871894,3.305638 -2.84682,6.214278 -5.597656,8.24414 l -6.123047,4.458985 6.160156,13.833986 7.408204,-1.54883 c 3.443861,-0.7052 7.026017,-0.17845 10.121093,1.48828 -5.24161,-8.20426 -9.272689,-17.121579 -11.96875,-26.476561 z"
         id="path3037" />
    </g>
    <g
       id="path1210"
       style="fill:#000000">
      <path
         style="color:#000000;fill:#000000;stroke-width:0;-inkscape-stroke:none"
         d="m 156.40625,60.011719 a 101.26249,101.26249 0 0 1 -6.91602,32.371093 15.00001,15.00001 0 0 1 11.19336,-5.285156 h 7.56055 l 3.13672,-14.816406 -6.91797,-3.0625 a 15.00001,15.00001 0 0 1 -8.05664,-9.207031 z"
         id="path3041" />
      <path
         style="color:#000000;fill:#000000;-inkscape-stroke:none"
         d="m 156.40625,60.011719 c -0.51417,11.096657 -2.85072,22.033128 -6.91602,32.371093 2.79636,-3.290861 6.8754,-5.216858 11.19336,-5.285156 h 7.56055 l 3.13672,-14.816406 -6.91797,-3.0625 c -3.87196,-1.784584 -6.80158,-5.132524 -8.05664,-9.207031 z"
         id="path3043" />
    </g>
    <g
       id="path1206"
       style="fill:#000000">
      <path
         style="color:#000000;fill:#000000;stroke-width:0;-inkscape-stroke:none"
         d="m 150.17188,19.591797 a 101.26249,101.26249 0 0 1 6.43359,30.380859 15.00001,15.00001 0 0 1 7.85742,-8.191406 l 6.91797,-3.0625 -3.13672,-14.816406 h -7.56055 a 15.00001,15.00001 0 0 1 -10.51171,-4.310547 z"
         id="path3047" />
      <path
         style="color:#000000;fill:#000000;-inkscape-stroke:none"
         d="m 150.17188,19.591797 c 3.69384,9.735914 5.86389,19.983362 6.43359,30.380859 1.44506,-3.654279 4.26642,-6.595572 7.85742,-8.191406 l 6.91797,-3.0625 -3.13672,-14.816406 h -7.56055 c -3.93355,-0.003 -7.70854,-1.551001 -10.51171,-4.310547 z"
         id="path3049" />
    </g>
    <g
       id="path1204"
       style="fill:#000000">
      <path
         style="color:#000000;fill:#000000;stroke-width:0;-inkscape-stroke:none"
         d="m -47.228516,1.2636719 -6.160156,13.8339841 6.123047,4.458985 a 15.00001,15.00001 0 0 1 5.597656,8.24414 A 101.26249,101.26249 0 0 1 -29.699219,1.3242188 15.00001,15.00001 0 0 1 -39.820312,2.8125 Z"
         id="path3053" />
      <path
         style="color:#000000;fill:#000000;-inkscape-stroke:none"
         d="m -47.228516,1.2636719 -6.160156,13.8339841 6.123047,4.458985 c 2.750836,2.029862 4.725762,4.938502 5.597656,8.24414 2.696061,-9.354982 6.72714,-18.2722975 11.96875,-26.4765622 C -32.794295,2.990948 -36.376451,3.517695 -39.820312,2.8125 Z"
         id="path3055" />
    </g>
    <g
       id="path1200"
       style="fill:#000000">
      <path
         style="color:#000000;fill:#000000;stroke-width:0;-inkscape-stroke:none"
         d="m -16.236328,-36.041016 -11.261719,10.13086 3.779297,6.537109 A 15.00001,15.00001 0 0 1 -22.021484,-9.1757812 101.26249,101.26249 0 0 1 0.00585938,-28.890625 15.00001,15.00001 0 0 1 -10.113281,-31.619141 Z"
         id="path3059" />
      <path
         style="color:#000000;fill:#000000;-inkscape-stroke:none"
         d="m -16.236328,-36.041016 -11.261719,10.13086 3.779297,6.537109 c 1.756156,3.0906 2.357657,6.704448 1.697266,10.1972658 C -15.68296,-16.789514 -8.2614354,-23.431903 0.00585938,-28.890625 -3.5855349,-28.553836 -7.178031,-29.522514 -10.113281,-31.619141 Z"
         id="path3061" />
    </g>
    <g
       id="path1198"
       style="fill:#000000">
      <path
         style="color:#000000;fill:#000000;stroke-width:0;-inkscape-stroke:none"
         d="m 107.61914,-49.080078 -5.06445,5.632812 a 15.00001,15.00001 0 0 1 -9.730471,4.839844 101.26249,101.26249 0 0 1 26.308591,15.339844 15.00001,15.00001 0 0 1 -0.74219,-11.033203 l 2.34376,-7.181641 z"
         id="path3065" />
      <path
         style="color:#000000;fill:#000000;-inkscape-stroke:none"
         d="m 107.61914,-49.080078 -5.06445,5.632812 c -2.5245,2.772842 -5.996043,4.499554 -9.730471,4.839844 9.492671,3.757808 18.362501,8.929573 26.308591,15.339844 -1.64347,-3.449005 -1.90892,-7.395159 -0.74219,-11.033203 l 2.34376,-7.181641 z"
         id="path3067" />
    </g>
    <g
       id="path4"
       style="fill:#000000">
      <path
         style="color:#000000;fill:#000000;stroke-width:0;-inkscape-stroke:none"
         d="m 60.601562,-61.023438 -2.304687,7.181641 A 15.00001,15.00001 0 0 1 51.367188,-45.4375 101.26249,101.26249 0 0 1 55.5,-45.761719 a 101.26249,101.26249 0 0 1 25.929688,3.382813 15.00001,15.00001 0 0 1 -4.953126,-9.535156 l -0.792968,-7.521485 z"
         id="path3071" />
      <path
         style="color:#000000;fill:#000000;-inkscape-stroke:none"
         d="m 60.601562,-61.023438 -2.304687,7.181641 c -1.175173,3.570794 -3.648286,6.570175 -6.929687,8.404297 1.375246,-0.136263 2.753141,-0.244359 4.132812,-0.324219 8.753099,0.0022 17.468999,1.139272 25.929688,3.382813 -2.77183,-2.457708 -4.536164,-5.85419 -4.953126,-9.535156 l -0.792968,-7.521485 z"
         id="path3073" />
    </g>
  </g>
  <circle
     style="fill:#ffffff;stroke:none;stroke-width:1.18524"
     id="path3139"
     cx="53.664425"
     cy="55.349365"
     r="91.620018" />
</svg>
