<?xml version="1.0" encoding="UTF-8" standalone="no"?>
<!-- Created with Inkscape (http://www.inkscape.org/) -->

<svg
   width="210mm"
   height="297mm"
   viewBox="0 0 210 297"
   version="1.1"
   id="svg5"
   inkscape:version="1.1.2 (0a00cf5339, 2022-02-04)"
   sodipodi:docname="NEW_STAR.svg"
   xmlns:inkscape="http://www.inkscape.org/namespaces/inkscape"
   xmlns:sodipodi="http://sodipodi.sourceforge.net/DTD/sodipodi-0.dtd"
   xmlns="http://www.w3.org/2000/svg"
   xmlns:svg="http://www.w3.org/2000/svg">
  <sodipodi:namedview
     id="namedview7"
     pagecolor="#ffffff"
     bordercolor="#666666"
     borderopacity="1.0"
     inkscape:pageshadow="2"
     inkscape:pageopacity="0.0"
     inkscape:pagecheckerboard="0"
     inkscape:document-units="mm"
     showgrid="false"
     inkscape:zoom="0.11826073"
     inkscape:cx="-1166.9131"
     inkscape:cy="-668.01548"
     inkscape:window-width="1366"
     inkscape:window-height="702"
     inkscape:window-x="0"
     inkscape:window-y="29"
     inkscape:window-maximized="1"
     inkscape:current-layer="layer1" />
  <defs
     id="defs2" />
  <g
     inkscape:label="Layer 1"
     inkscape:groupmode="layer"
     id="layer1">
    <path
       sodipodi:type="star"
       style="fill:#800080;stroke:none;stroke-width:53.6693;stroke-linecap:round;stroke-miterlimit:4;stroke-dasharray:none"
       id="path1913"
       inkscape:flatsided="false"
       sodipodi:sides="5"
       sodipodi:cx="-1204.8173"
       sodipodi:cy="-67.842613"
       sodipodi:r1="60.577408"
       sodipodi:r2="163.72272"
       sodipodi:arg1="1.5707963"
       sodipodi:arg2="2.1991148"
       inkscape:rounded="0"
       inkscape:randomized="0"
       d="m -1204.8173,-7.2652054 -96.2338,71.8770584 38.6213,-113.735016 -98.097,-69.312547 120.103,1.58495 35.6065,-114.71457 35.6065,114.71456 120.1031,-1.58495 -98.097,69.312554 38.6212,113.735008 z"
       transform="matrix(0.40339045,0.2930803,-0.2930803,0.40339045,571.12844,521.17981)"
       inkscape:transform-center-y="20.40881"
       inkscape:transform-center-x="9.1641223" />
    <path
       id="path836"
       style="fill:#c8ab37;stroke-width:0.264583"
       d="m 14.177898,192.39639 c 0.0751,-0.0999 2.23332,-2.05813 4.79631,-4.35157 6.3495,-5.68173 7.35182,-6.98833 8.08464,-10.53921 l 0.3563,-1.72627 1.30305,2.92667 c 2.47803,5.56577 6.30456,12.02172 9.92137,16.73887 0.94057,1.22672 1.73708,2.29096 1.77006,2.365 0.033,0.0741 -0.67416,-0.11945 -1.57136,-0.42991 -2.05536,-0.71125 -3.94145,-0.91728 -5.85582,-0.6397 -0.82296,0.11933 -4.28885,1.11661 -7.70194,2.21619 -3.65932,1.17888 -6.32888,1.91853 -6.50599,1.80259 -0.16544,-0.10784 -0.57023,-0.79338 -0.90061,-1.52231 -0.33009,-0.72916 -1.29311,-2.45083 -2.1399,-3.82604 -1.80839,-2.93682 -1.72918,-2.78348 -1.55604,-3.01434 z M 3.3012876,156.19942 c -0.24376,-2.5198 -0.4376,-4.61788 -0.43077,-4.66243 0.008,-0.0443 2.67985,-0.94143 5.94003,-1.99313 3.2602004,-1.05169 6.5416104,-2.18548 7.2920404,-2.51952 1.56406,-0.69625 3.64742,-2.44329 4.79737,-4.02296 0.43423,-0.59649 0.84476,-1.06335 0.91239,-1.03738 0.0677,0.026 0.12167,1.47115 0.12015,3.21154 -0.005,6.26108 0.61597,12.28676 1.83974,17.83881 0.33574,1.52311 0.6729,3.06727 0.74928,3.43152 0.12659,0.60363 0.059,0.58242 -0.76291,-0.23957 -2.68735,-2.68748 -4.7084,-3.33988 -13.02268,-4.2038 -3.7611304,-0.39078 -6.8728704,-0.82555 -6.9149704,-0.9661 -0.042,-0.14051 -0.27596,-2.31719 -0.5197,-4.837 z M 78.875408,237.6766 c 0.0118,-4.08377 -0.13273,-7.31656 -0.37273,-8.33773 -0.44377,-1.88808 -1.6108,-4.11999 -2.84753,-5.44574 -0.45987,-0.493 -0.81063,-0.96292 -0.7794,-1.04426 0.0307,-0.0815 1.33583,0.3005 2.89915,0.84852 5.92569,2.07728 13.90819,3.75361 20.31448,4.2661 1.51642,0.12132 2.794472,0.30166 2.840092,0.40085 0.0454,0.0993 -0.49238,0.43649 -1.195662,0.74955 -1.61729,0.72006 -3.54515,2.25241 -4.65137,3.69707 -0.47171,0.61604 -2.12442,3.95133 -3.67271,7.41174 -1.54823,3.46043 -2.87338,6.32051 -2.94469,6.35577 -0.0713,0.035 -1.27706,-0.21095 -2.67944,-0.54705 -1.4024,-0.33611 -3.51391,-0.7745 -4.69226,-0.97416 -1.17838,-0.19967 -2.16381,-0.44122 -2.18982,-0.53692 -0.0261,-0.0957 -0.0387,-3.17535 -0.0281,-6.84377 z M 26.156478,80.418333 c 0.26043,-0.220144 1.76397,-1.828463 3.34133,-3.573876 1.57714,-1.745613 2.91831,-3.145634 2.97993,-3.111564 0.0616,0.03408 2.45798,1.428466 5.32531,3.09876 6.45673,3.761177 8.1877,4.487565 10.8714,4.562031 1.12898,0.03132 2.2702,0.03318 2.53601,0.0041 0.95042,-0.103913 0.65289,0.412444 -1.14366,1.984854 -4.28462,3.750258 -9.69246,9.757227 -12.82084,14.241981 -0.81794,1.172414 -1.55262,2.106551 -1.63269,2.075799 -0.08,-0.03073 -0.20795,-0.984467 -0.28424,-2.119439 -0.21908,-3.259039 -1.14203,-5.083437 -5.74729,-11.360857 -2.08976,-2.848534 -3.82179,-5.229105 -3.84896,-5.290161 -0.0271,-0.06098 0.16352,-0.291246 0.42391,-0.511476 z M 109.43998,228.12073 c 0.27443,-0.01 1.99693,-0.16592 3.8278,-0.34705 6.30741,-0.62401 13.62272,-2.27488 18.92672,-4.27126 3.72658,-1.40266 4.03473,-1.43223 2.77082,-0.26582 -1.429,1.31876 -2.73347,3.37951 -3.31785,5.24135 -0.57422,1.82946 -0.67396,3.51347 -0.63932,10.79219 l 0.0257,5.38841 -1.40322,0.22619 c -0.77176,0.12441 -2.6447,0.51139 -4.16208,0.85995 -1.51737,0.34857 -3.02706,0.69003 -3.35484,0.75883 l -0.59597,0.12504 -2.50459,-5.6131 c -1.37774,-3.08709 -2.95339,-6.32558 -3.50166,-7.19651 -1.16828,-1.85585 -3.10473,-3.61124 -5.00181,-4.53419 -1.46837,-0.71436 -1.8559,-1.1362 -1.06944,-1.16413 z M 60.738418,73.585042 c 1.32076,-3.049811 1.2628,-4.824655 -0.41302,-12.645821 l -1.40213,-6.543878 4.49804,-2.002667 4.49806,-2.002659 3.93048,5.418181 c 4.53879,6.256792 5.71655,7.427326 8.71346,8.659714 1.11033,0.456576 1.98281,0.923906 1.93883,1.038506 -0.0446,0.114363 -1.32048,0.587321 -2.83654,1.050801 -5.03321,1.538282 -17.09834,7.225122 -19.28562,9.09018 -0.62081,0.529234 -0.52476,-0.02291 0.35842,-2.062389 z M 170.53048,195.85544 c 4.1198,-5.37398 8.1502,-12.3129 10.67956,-18.38641 0.94778,-2.27582 1.27306,-2.83475 1.34956,-2.31931 0.86412,5.81841 1.26418,6.4419 8.09425,12.61506 2.65678,2.40119 4.94069,4.46931 5.07543,4.59575 0.13475,0.12645 -0.16903,0.85917 -0.67505,1.6283 -0.50603,0.76912 -1.56921,2.57489 -2.36264,4.01281 -0.79343,1.43794 -1.5656,2.68304 -1.71595,2.76692 -0.15033,0.0839 -2.8188,-0.66916 -5.92992,-1.67339 -3.11111,-1.00423 -6.36319,-1.99109 -7.22684,-2.19305 -2.18564,-0.51108 -4.41772,-0.32034 -6.97705,0.59622 l -2.16534,0.77545 z M 129.25516,64.450274 c 3.25785,-1.318088 4.04418,-2.090769 8.83199,-8.678758 l 3.92448,-5.400079 1.2338,0.560533 c 0.6786,0.308255 2.66723,1.183258 4.41916,1.944419 1.75196,0.76115 3.2177,1.456495 3.2572,1.54521 0.0396,0.08881 -0.47334,2.705366 -1.13966,5.814746 -1.92474,8.981805 -1.96717,9.8518 -0.65848,13.500692 l 0.71805,2.001982 -3.11276,-1.794378 c -1.71198,-0.986914 -4.53233,-2.465606 -6.26738,-3.286046 -3.20071,-1.513497 -11.30115,-4.578703 -12.702,-4.806432 -0.42144,-0.06851 -0.79711,-0.193609 -0.83481,-0.277971 -0.0377,-0.08432 1.01079,-0.590497 2.33045,-1.123949 z M 185.51,164.40059 c 1.4301,-5.84749 2.24918,-12.79021 2.26029,-19.15859 0.008,-4.26917 -0.0235,-4.21918 1.33142,-2.14726 0.8241,1.26012 2.74747,2.92208 4.26216,3.68282 0.72283,0.36305 4.11585,1.572 7.54002,2.68656 l 6.22577,2.02645 -0.32374,2.37694 c -0.17805,1.30732 -0.4067,3.45653 -0.5081,4.77602 -0.10141,1.3195 -0.19356,2.44354 -0.20479,2.49787 -0.0113,0.0544 -3.17498,0.43616 -7.03057,0.84848 -6.51881,0.69713 -7.15419,0.81372 -9.06515,1.66335 -1.46871,0.65304 -2.41833,1.25166 -3.32854,2.09837 -0.70045,0.65157 -1.33135,1.21046 -1.40203,1.2419 -0.32726,0.1457 -0.26546,-0.51265 0.24327,-2.59293 z M 157.80602,81.327409 c 0.0826,-0.03709 0.86104,-0.0031 1.72965,0.07486 2.09194,0.187877 4.2405,-0.126303 5.89149,-0.861523 0.74023,-0.329676 3.77023,-2.005861 6.73327,-3.724933 2.96317,-1.718873 5.41718,-3.104858 5.45358,-3.079575 0.20988,0.145812 6.55312,7.260853 6.5191,7.312361 -0.0228,0.03419 -1.8414,2.543314 -4.04163,5.575585 -4.54343,6.261662 -5.32969,7.880408 -5.50042,11.324684 -0.11541,2.327662 -0.12473,2.328182 -1.63295,0.09185 -2.84554,-4.219253 -7.60531,-9.615096 -12.09829,-13.715026 -1.472,-1.34323 -2.79512,-2.552277 -2.94026,-2.686773 -0.14517,-0.134482 -0.1963,-0.27462 -0.11352,-0.311498 z M 104.70879,62.524232 a 82.800985,82.800985 0 0 0 -82.800632,82.800628 82.800985,82.800985 0 0 0 82.800632,82.80115 82.800985,82.800985 0 0 0 82.80114,-82.80115 82.800985,82.800985 0 0 0 -82.80114,-82.800628 z m 0,14.812531 a 67.988036,67.988036 0 0 1 67.98809,67.988097 67.988036,67.988036 0 0 1 -67.98809,67.9881 67.988036,67.988036 0 0 1 -67.988102,-67.9881 67.988036,67.988036 0 0 1 67.988102,-67.988097 z" />
    <circle
       style="fill:#008080;stroke:none;stroke-width:21.2496;stroke-linecap:round;stroke-miterlimit:4;stroke-dasharray:none"
       id="path1494"
       cx="105"
       cy="148.5"
       r="48.526863" />
  </g>
</svg>
