<?xml version="1.0" encoding="UTF-8" standalone="no"?>
<!-- Created with Inkscape (http://www.inkscape.org/) -->

<svg
   width="132mm"
   height="66mm"
   viewBox="0 0 132 66"
   version="1.1"
   id="svg5"
   inkscape:version="1.1.2 (0a00cf5339, 2022-02-04)"
   sodipodi:docname="scgALPHA.svg"
   xmlns:inkscape="http://www.inkscape.org/namespaces/inkscape"
   xmlns:sodipodi="http://sodipodi.sourceforge.net/DTD/sodipodi-0.dtd"
   xmlns="http://www.w3.org/2000/svg"
   xmlns:svg="http://www.w3.org/2000/svg">
  <sodipodi:namedview
     id="namedview7"
     pagecolor="#ffffff"
     bordercolor="#666666"
     borderopacity="1.0"
     inkscape:pageshadow="2"
     inkscape:pageopacity="0.0"
     inkscape:pagecheckerboard="0"
     inkscape:document-units="mm"
     showgrid="true"
     inkscape:zoom="1.3379674"
     inkscape:cx="185.35578"
     inkscape:cy="-132.66392"
     inkscape:window-width="1440"
     inkscape:window-height="838"
     inkscape:window-x="0"
     inkscape:window-y="25"
     inkscape:window-maximized="1"
     inkscape:current-layer="layer1">
    <inkscape:grid
       type="xygrid"
       id="grid824" />
  </sodipodi:namedview>
  <defs
     id="defs2" />
  <g
     inkscape:label="Layer 1"
     inkscape:groupmode="layer"
     id="layer1">
    <path
       style="fill:none;stroke:#ffff00;stroke-width:0.8;stroke-linecap:round;stroke-linejoin:miter;stroke-miterlimit:4;stroke-dasharray:none;stroke-opacity:1"
       d="m 31.75,33.072913 v 6.61459"
       id="path863-2" />
    <path
       style="fill:none;stroke:#ff0000;stroke-width:0.8;stroke-linecap:round;stroke-linejoin:miter;stroke-miterlimit:4;stroke-dasharray:none;stroke-opacity:1"
       d="m 31.75,39.687503 c 0,0 0,-2.64583 2.64584,-2.64583 2.64584,0 2.64584,2.64583 2.64584,2.64583"
       id="path917-6-7"
       sodipodi:nodetypes="czc" />
    <path
       style="fill:none;stroke:#ff0000;stroke-width:0.8;stroke-linecap:round;stroke-linejoin:miter;stroke-miterlimit:4;stroke-dasharray:none;stroke-opacity:1"
       d="m 55.82708,39.687503 c 0,0 0,-2.64583 2.64584,-2.64583 2.64584,0 2.64584,2.64583 2.64584,2.64583"
       id="path917-6-7-6"
       sodipodi:nodetypes="czc" />
    <path
       style="fill:none;stroke:#808000;stroke-width:0.8;stroke-linecap:round;stroke-linejoin:miter;stroke-miterlimit:4;stroke-dasharray:none;stroke-opacity:1"
       d="m 39.68749,39.687503 c 0,0 0,-2.64583 2.64584,-2.64583 0.66146,0 1.15756,0.16536 1.52963,0.41341 0.37207,0.24805 0.62012,0.57878 0.78548,0.90951"
       id="path917-6-7-9"
       sodipodi:nodetypes="cssc" />
    <path
       style="fill:none;stroke:#808000;stroke-width:0.8;stroke-linecap:round;stroke-linejoin:miter;stroke-miterlimit:4;stroke-dasharray:none;stroke-opacity:1"
       d="m 39.6875,39.687503 c 0,0 0,2.64583 2.64584,2.64583 0.66146,0 1.15756,-0.16536 1.52963,-0.41341 0.37207,-0.24805 0.62012,-0.57878 0.78548,-0.90951"
       id="path917-6-7-9-1"
       sodipodi:nodetypes="cssc" />
    <path
       style="fill:none;stroke:#808000;stroke-width:0.8;stroke-linecap:round;stroke-linejoin:miter;stroke-miterlimit:4;stroke-dasharray:none;stroke-opacity:1"
       d="m 55.82708,39.687503 c 0,0 0,2.64583 2.64584,2.64583 0.66146,0 1.15756,-0.16536 1.52963,-0.41341 0.37207,-0.24805 0.62012,-0.57878 0.78548,-0.90951"
       id="path917-6-7-9-1-3"
       sodipodi:nodetypes="cssc" />
    <path
       style="fill:none;stroke:#ff0000;stroke-width:0.8;stroke-linecap:round;stroke-linejoin:miter;stroke-miterlimit:4;stroke-dasharray:none;stroke-opacity:1"
       d="m 31.74999,39.687503 c 0,0 0,2.64583 2.64584,2.64583 2.64584,0 2.64584,-2.64583 2.64584,-2.64583"
       id="path917-3-5"
       sodipodi:nodetypes="czc" />
    <path
       style="fill:none;stroke:#ffff00;stroke-width:0.8;stroke-linecap:round;stroke-linejoin:miter;stroke-miterlimit:4;stroke-dasharray:none;stroke-opacity:1"
       d="m 52.91667,33.072913 v 6.61459"
       id="path863-2-2" />
    <path
       style="fill:none;stroke:#00ffff;stroke-width:0.8;stroke-linecap:round;stroke-linejoin:miter;stroke-miterlimit:4;stroke-dasharray:none;stroke-opacity:1"
       d="m 66.14583,37.041663 v 5.29167"
       id="path863-2-2-0"
       sodipodi:nodetypes="cc" />
    <path
       style="fill:none;stroke:#ff0000;stroke-width:0.8;stroke-linecap:round;stroke-linejoin:miter;stroke-miterlimit:4;stroke-dasharray:none;stroke-opacity:1"
       d="m 52.91667,39.687503 c 0,0 0,-2.64583 -2.64584,-2.64583 -2.64584,0 -2.64584,2.64583 -2.64584,2.64583"
       id="path917-6-7-7"
       sodipodi:nodetypes="czc" />
    <path
       style="fill:none;stroke:#ff0000;stroke-width:0.8;stroke-linecap:round;stroke-linejoin:miter;stroke-miterlimit:4;stroke-dasharray:none;stroke-opacity:1"
       d="m 52.91668,39.687503 c 0,0 0,2.64583 -2.64584,2.64583 -2.64584,0 -2.64584,-2.64583 -2.64584,-2.64583"
       id="path917-3-5-0"
       sodipodi:nodetypes="czc" />
    <path
       style="fill:none;stroke:#00ff00;stroke-width:0.8;stroke-linecap:round;stroke-linejoin:miter;stroke-miterlimit:4;stroke-dasharray:none;stroke-opacity:1"
       d="m 55.82708,39.687503 h 5.29167"
       id="path4803"
       sodipodi:nodetypes="cc" />
    <path
       style="fill:none;stroke:#00ffff;stroke-width:0.8;stroke-linecap:round;stroke-linejoin:miter;stroke-miterlimit:4;stroke-dasharray:none;stroke-opacity:1"
       d="m 63.5,42.333333 h 3.96875 1.32291"
       id="path5355" />
    <path
       style="fill:none;stroke:#008080;stroke-width:0.8;stroke-linecap:round;stroke-linejoin:miter;stroke-miterlimit:4;stroke-dasharray:none;stroke-opacity:1"
       d="m 66.14583,37.041663 c 0.0436,-1.33288 0,-2.64583 2.64583,-2.64583"
       id="path7253"
       sodipodi:nodetypes="cc" />
    <path
       style="fill:none;stroke:#0000ff;stroke-width:0.8;stroke-linecap:round;stroke-linejoin:miter;stroke-miterlimit:4;stroke-dasharray:none;stroke-opacity:1"
       d="m 64.82291,38.364583 h 2.64584"
       id="path8113" />
    <path
       style="fill:none;stroke:#800080;stroke-width:0.8;stroke-linecap:round;stroke-linejoin:miter;stroke-miterlimit:4;stroke-dasharray:none;stroke-opacity:1"
       d="m 23.8125,40.216663 c 0,0 -2e-5,-1.85208 2.64582,-1.85208 2.64584,0 2.64584,1.85208 2.64584,1.85208"
       id="path917-6-1"
       sodipodi:nodetypes="czc" />
    <path
       style="fill:none;stroke:#800080;stroke-width:0.8;stroke-linecap:round;stroke-linejoin:miter;stroke-miterlimit:4;stroke-dasharray:none;stroke-opacity:1"
       d="m 23.81251,40.481253 c 0,0 -2e-5,1.85208 2.64582,1.85208 2.64584,0 2.64584,-1.85208 2.64584,-1.85208"
       id="path917-6-1-9"
       sodipodi:nodetypes="czc" />
    <path
       style="fill:none;stroke:#ff00ff;stroke-width:0.8;stroke-linecap:round;stroke-linejoin:miter;stroke-miterlimit:4;stroke-dasharray:none;stroke-opacity:1"
       d="m 29.10417,39.952083 c 0,-4.23333 -3.175,-3.175 -3.96875,-2.91042"
       id="path8622-7"
       sodipodi:nodetypes="cc" />
    <path
       style="fill:none;stroke:#2b634e;stroke-width:0.8;stroke-linecap:round;stroke-linejoin:miter;stroke-miterlimit:4;stroke-dasharray:none;stroke-opacity:1"
       d="M 27.78125,6.6145733 V 13.229163"
       id="path863-2-23" />
    <path
       style="fill:none;stroke:#2b634e;stroke-width:0.8;stroke-linecap:round;stroke-linejoin:miter;stroke-miterlimit:4;stroke-dasharray:none;stroke-opacity:1"
       d="m 27.78125,13.229163 c 0,0 0,-2.64583 2.64584,-2.64583 2.64584,0 2.64584,2.64583 2.64584,2.64583"
       id="path917-6-7-75"
       sodipodi:nodetypes="czc" />
    <path
       style="fill:none;stroke:#2b634e;stroke-width:0.8;stroke-linecap:round;stroke-linejoin:miter;stroke-miterlimit:4;stroke-dasharray:none;stroke-opacity:1"
       d="m 51.85833,13.229163 c 0,0 0,-2.64583 2.64584,-2.64583 1.32292,0 1.98438,0.66146 2.31511,1.32292 0.33073,0.66145 0.33073,1.32291 0.33073,1.32291"
       id="path917-6-7-6-9"
       sodipodi:nodetypes="cssc" />
    <path
       style="fill:none;stroke:#2b634e;stroke-width:0.8;stroke-linecap:round;stroke-linejoin:miter;stroke-miterlimit:4;stroke-dasharray:none;stroke-opacity:1"
       d="m 35.71874,13.229163 c 0,0 0,-2.64583 2.64584,-2.64583 0.66146,0 1.15756,0.16536 1.52963,0.41341 0.37207,0.24805 0.62012,0.57878 0.78548,0.90951"
       id="path917-6-7-9-2"
       sodipodi:nodetypes="cssc" />
    <path
       style="fill:none;stroke:#2b634e;stroke-width:0.8;stroke-linecap:round;stroke-linejoin:miter;stroke-miterlimit:4;stroke-dasharray:none;stroke-opacity:1"
       d="m 35.71875,13.229163 c 0,0 0,2.64583 2.64584,2.64583 0.66146,0 1.15756,-0.16536 1.52963,-0.41341 0.37207,-0.24805 0.62012,-0.57878 0.78548,-0.90951"
       id="path917-6-7-9-1-2"
       sodipodi:nodetypes="cssc" />
    <path
       style="fill:none;stroke:#2b634e;stroke-width:0.8;stroke-linecap:round;stroke-linejoin:miter;stroke-miterlimit:4;stroke-dasharray:none;stroke-opacity:1"
       d="m 51.85833,13.229163 c 0,0 0,2.64583 2.64584,2.64583 0.66146,0 1.15756,-0.16536 1.52963,-0.41341 0.37207,-0.24805 0.62012,-0.57878 0.78548,-0.90951"
       id="path917-6-7-9-1-3-8"
       sodipodi:nodetypes="cssc" />
    <path
       style="fill:none;stroke:#2b634e;stroke-width:0.8;stroke-linecap:round;stroke-linejoin:miter;stroke-miterlimit:4;stroke-dasharray:none;stroke-opacity:1"
       d="m 27.78124,13.229163 c 0,0 0,2.64583 2.64584,2.64583 2.64584,0 2.64584,-2.64583 2.64584,-2.64583"
       id="path917-3-5-9"
       sodipodi:nodetypes="czc" />
    <path
       style="fill:none;stroke:#2b634e;stroke-width:0.8;stroke-linecap:round;stroke-linejoin:miter;stroke-miterlimit:4;stroke-dasharray:none;stroke-opacity:1"
       d="M 48.94792,6.6145733 V 13.229163"
       id="path863-2-2-7" />
    <path
       style="fill:none;stroke:#2b634e;stroke-width:0.8;stroke-linecap:round;stroke-linejoin:miter;stroke-miterlimit:4;stroke-dasharray:none;stroke-opacity:1"
       d="m 62.17708,10.583323 v 5.29167"
       id="path863-2-2-0-3"
       sodipodi:nodetypes="cc" />
    <path
       style="fill:none;stroke:#2b634e;stroke-width:0.8;stroke-linecap:round;stroke-linejoin:miter;stroke-miterlimit:4;stroke-dasharray:none;stroke-opacity:1"
       d="m 48.94792,13.229163 c 0,0 0,-2.64583 -2.64584,-2.64583 -2.64584,0 -2.64584,2.64583 -2.64584,2.64583"
       id="path917-6-7-7-6"
       sodipodi:nodetypes="czc" />
    <path
       style="fill:none;stroke:#2b634e;stroke-width:0.8;stroke-linecap:round;stroke-linejoin:miter;stroke-miterlimit:4;stroke-dasharray:none;stroke-opacity:1"
       d="m 48.94793,13.229163 c 0,0 0,2.64583 -2.64584,2.64583 -2.64584,0 -2.64584,-2.64583 -2.64584,-2.64583"
       id="path917-3-5-0-1"
       sodipodi:nodetypes="czc" />
    <path
       style="fill:none;stroke:#2b634e;stroke-width:0.8;stroke-linecap:round;stroke-linejoin:miter;stroke-miterlimit:4;stroke-dasharray:none;stroke-opacity:1"
       d="M 51.85833,13.229163 H 57.15"
       id="path4803-2"
       sodipodi:nodetypes="cc" />
    <path
       style="fill:none;stroke:#2b634e;stroke-width:0.8;stroke-linecap:round;stroke-linejoin:miter;stroke-miterlimit:4;stroke-dasharray:none;stroke-opacity:1"
       d="m 60.85417,15.875003 2.64583,-10e-6 v 10e-6"
       id="path5355-9"
       sodipodi:nodetypes="ccc" />
    <path
       style="fill:none;stroke:#2b634e;stroke-width:0.8;stroke-linecap:round;stroke-linejoin:miter;stroke-miterlimit:4;stroke-dasharray:none;stroke-opacity:1"
       d="m 62.17708,10.583323 c 0.0436,-1.3328797 0,-2.6458297 2.64583,-2.6458297"
       id="path7253-3"
       sodipodi:nodetypes="cc" />
    <path
       style="fill:none;stroke:#2b634e;stroke-width:0.8;stroke-linecap:round;stroke-linejoin:miter;stroke-miterlimit:4;stroke-dasharray:none;stroke-opacity:1"
       d="M 60.85417,13.229163 H 63.5"
       id="path8113-1"
       sodipodi:nodetypes="cc" />
    <path
       style="fill:none;stroke:#2b634e;stroke-width:0.8;stroke-linecap:round;stroke-linejoin:miter;stroke-miterlimit:4;stroke-dasharray:none;stroke-opacity:1"
       d="m 19.843747,13.758323 c 0,0 -7e-6,-1.322906 2.645836,-1.322906 2.64584,0 2.645827,1.322906 2.645827,1.322906"
       id="path917-6-1-94"
       sodipodi:nodetypes="czc" />
    <path
       style="fill:none;stroke:#2b634e;stroke-width:0.8;stroke-linecap:round;stroke-linejoin:miter;stroke-miterlimit:4;stroke-dasharray:none;stroke-opacity:1"
       d="m 19.843757,14.022913 c 0,0 -2e-5,1.85208 2.645823,1.85208 2.64584,0 2.64584,-1.85208 2.64584,-1.85208"
       id="path917-6-1-9-7"
       sodipodi:nodetypes="czc" />
    <path
       style="fill:none;stroke:#2b634e;stroke-width:0.8;stroke-linecap:round;stroke-linejoin:miter;stroke-miterlimit:4;stroke-dasharray:none;stroke-opacity:1"
       d="m 25.13542,13.493743 c 0,-4.2333297 -3.175,-3.175 -3.96875,-2.91042"
       id="path8622-7-8"
       sodipodi:nodetypes="cc" />
    <path
       style="fill:none;stroke:#2b634e;stroke-width:0.8;stroke-linecap:round;stroke-linejoin:miter;stroke-miterlimit:4;stroke-dasharray:none;stroke-opacity:1"
       d="m 65.61665,12.649553 c 0,0 0,1.373364 2.64585,1.373364 2.64584,0 2.64582,-1.373364 2.64582,-1.373364"
       id="path917-6-1-94-3"
       sodipodi:nodetypes="czc" />
    <path
       style="fill:none;stroke:#2b634e;stroke-width:0.8;stroke-linecap:round;stroke-linejoin:miter;stroke-miterlimit:4;stroke-dasharray:none;stroke-opacity:1"
       d="m 65.61666,12.384963 c 0,0 -2e-5,-1.85208 2.64583,-1.85208 2.64584,0 2.64584,1.85208 2.64584,1.85208"
       id="path917-6-1-9-7-6"
       sodipodi:nodetypes="czc" />
    <path
       style="fill:none;stroke:#2b634e;stroke-width:0.8;stroke-linecap:round;stroke-linejoin:miter;stroke-miterlimit:4;stroke-dasharray:none;stroke-opacity:1"
       d="m 70.90833,12.914133 c 0,4.23333 -3.175,3.175 -3.96875,2.91042"
       id="path8622-7-8-7"
       sodipodi:nodetypes="cc" />
  </g>
</svg>
