<svg width="100" height="100" xmlns="http://www.w3.org/2000/svg">
<rect width="100" height="100" fill="#fff" />
<circle cx="50" cy="50" r="29.5" transform="translate({xx},{yy})" fill="#444" /><circle cx="50" cy="50" r="20" transform="translate({xx},{yy})" fill="#fff" /><circle cx="0" cy="0" r="3.46875" transform="translate(76.35306983254648,44.398482086943936)" fill="#0aa" /> 
<circle cx="0" cy="0" r="3.96875" transform="translate(80.54181308912523,50.0) scale(1,1.3)" fill="#f00" /> 
<circle cx="0" cy="0" r="3.46875" transform="translate(71.7963846483757,34.16399959619187)" fill="#0aa" /> 
<circle cx="0" cy="0" r="3.96875" transform="translate(77.90133461573969,37.57752547068067) scale(1,1.3)" fill="#f00" /> 
<circle cx="0" cy="0" r="3.46875" transform="translate(63.47090654456262,26.66770544080545)" fill="#0aa" /> 
<circle cx="0" cy="0" r="3.96875" transform="translate(70.43646191162529,27.303009642118834) scale(1,1.3)" fill="#f00" /> 
<circle cx="0" cy="0" r="3.46875" transform="translate(52.816186319850615,23.205776981945423)" fill="#0aa" /> 
<circle cx="0" cy="0" r="3.96875" transform="translate(59.43793928356291,20.953009642118836) scale(1,1.3)" fill="#f00" /> 
<circle cx="0" cy="0" r="3.46875" transform="translate(41.6745218961869,24.376813100781387)" fill="#0aa" /> 
<circle cx="0" cy="0" r="3.96875" transform="translate(46.80751121238583,19.62549815861964) scale(1,1.3)" fill="#f00" /> 
<circle cx="0" cy="0" r="3.46875" transform="translate(31.972408271266612,29.978331013837455)" fill="#0aa" /> 
<circle cx="0" cy="0" r="3.96875" transform="translate(34.72909345543739,23.550013987181465) scale(1,1.3)" fill="#f00" /> 
<circle cx="0" cy="0" r="3.46875" transform="translate(25.38742903177368,39.04177738575354)" fill="#0aa" /> 
<circle cx="0" cy="0" r="3.96875" transform="translate(25.29115417187448,32.047972687938966) scale(1,1.3)" fill="#f00" /> 
<circle cx="0" cy="0" r="3.46875" transform="translate(23.05818691087477,50.0)" fill="#0aa" /> 
<circle cx="0" cy="0" r="3.96875" transform="translate(20.125598804811812,43.65) scale(1,1.3)" fill="#f00" /> 
<circle cx="0" cy="0" r="3.46875" transform="translate(25.387429031773678,60.95822261424645)" fill="#0aa" /> 
<circle cx="0" cy="0" r="3.96875" transform="translate(20.125598804811816,56.35000000000001) scale(1,1.3)" fill="#f00" /> 
<circle cx="0" cy="0" r="3.46875" transform="translate(31.972408271266616,70.02166898616255)" fill="#0aa" /> 
<circle cx="0" cy="0" r="3.96875" transform="translate(25.291154171874474,67.95202731206103) scale(1,1.3)" fill="#f00" /> 
<circle cx="0" cy="0" r="3.46875" transform="translate(41.6745218961869,75.62318689921861)" fill="#0aa" /> 
<circle cx="0" cy="0" r="3.96875" transform="translate(34.72909345543737,76.44998601281853) scale(1,1.3)" fill="#f00" /> 
<circle cx="0" cy="0" r="3.46875" transform="translate(52.8161863198506,76.79422301805458)" fill="#0aa" /> 
<circle cx="0" cy="0" r="3.96875" transform="translate(46.80751121238584,80.37450184138036) scale(1,1.3)" fill="#f00" /> 
<circle cx="0" cy="0" r="3.46875" transform="translate(63.47090654456262,73.33229455919455)" fill="#0aa" /> 
<circle cx="0" cy="0" r="3.96875" transform="translate(59.4379392835629,79.04699035788117) scale(1,1.3)" fill="#f00" /> 
<circle cx="0" cy="0" r="3.46875" transform="translate(71.7963846483757,65.83600040380813)" fill="#0aa" /> 
<circle cx="0" cy="0" r="3.96875" transform="translate(70.43646191162526,72.69699035788118) scale(1,1.3)" fill="#f00" /> 
<circle cx="0" cy="0" r="3.46875" transform="translate(76.35306983254648,55.60151791305608)" fill="#0aa" /> 
<circle cx="0" cy="0" r="3.96875" transform="translate(77.90133461573969,62.42247452931933) scale(1,1.3)" fill="#f00" /> 
</svg>
