<?xml version="1.0" encoding="UTF-8" standalone="no"?>
<svg
   xmlns:dc="http://purl.org/dc/elements/1.1/"
   xmlns:cc="http://creativecommons.org/ns#"
   xmlns:rdf="http://www.w3.org/1999/02/22-rdf-syntax-ns#"
   xmlns:svg="http://www.w3.org/2000/svg"
   xmlns="http://www.w3.org/2000/svg"
   xmlns:sodipodi="http://sodipodi.sourceforge.net/DTD/sodipodi-0.dtd"
   xmlns:inkscape="http://www.inkscape.org/namespaces/inkscape"
   version="1.1"
   width="1056"
   height="816"
   viewBox="0 0 1056 816"
   id="svg20"
   sodipodi:docname="sprocket.svg"
   inkscape:version="0.92.4 (5da689c313, 2019-01-14)">
  <metadata
     id="metadata26">
    <rdf:RDF>
      <cc:Work
         rdf:about="">
        <dc:format>image/svg+xml</dc:format>
        <dc:type
           rdf:resource="http://purl.org/dc/dcmitype/StillImage" />
        <dc:title />
      </cc:Work>
    </rdf:RDF>
  </metadata>
  <defs
     id="defs24" />
  <sodipodi:namedview
     pagecolor="#ffffff"
     bordercolor="#666666"
     borderopacity="1"
     objecttolerance="10"
     gridtolerance="10"
     guidetolerance="10"
     inkscape:pageopacity="0"
     inkscape:pageshadow="2"
     inkscape:window-width="1280"
     inkscape:window-height="662"
     id="namedview22"
     showgrid="false"
     inkscape:zoom="1.125"
     inkscape:cx="374.276"
     inkscape:cy="591.13086"
     inkscape:window-x="0"
     inkscape:window-y="26"
     inkscape:window-maximized="1"
     inkscape:current-layer="svg20" />
  <rect
     width="1056"
     height="816"
     style="fill:#ffffff;stroke-width:0"
     id="rect2"
     x="0"
     y="0" />
  <path
     d="m 716.12607,451.5331 2.82107,-14.7433 -6.83806,-3.27047 a 15.00001,15.00001 0 0 1 1.74666,-27.76245 l 7.19405,-2.38764 -0.951,-14.98062 -7.407,-1.45063 a 15.00001,15.00001 0 0 1 -5.21081,-27.32917 l 6.35544,-4.10668 -4.63152,-14.26543 -7.56338,0.43303 a 15.00001,15.00001 0 0 1 -11.82243,-25.16997 l 5.12066,-5.54769 -8.02714,-12.66131 -7.22464,2.27211 a 15.00001,15.00001 0 0 1 -17.73684,-21.45211 l 3.59808,-6.6281 -10.94212,-10.26954 -6.38605,3.99115 a 15.00001,15.00001 0 0 1 -22.52725,-16.33809 l 1.82546,-7.34555 -13.14067,-7.22677 -5.19134,5.4675 a 15.00001,15.00001 0 0 1 -25.8658,-10.22383 l -0.0534,-7.57737 -14.53546,-3.71688 -3.70888,6.58326 a 15.00001,15.00001 0 0 1 -27.57784,-3.47707 l -1.9255,-7.31645 -15.03446,8.7e-4 -1.93625,7.3007 a 15.00001,15.00001 0 0 1 -27.56186,3.49202 l -3.71286,-6.59576 -14.51262,3.74496 -0.0597,7.57025 a 15.00001,15.00001 0 0 1 -25.86481,10.22604 l -5.22219,-5.47887 -13.14193,7.23949 1.81233,7.30933 a 15.00001,15.00001 0 0 1 -22.50304,16.38314 l -6.41102,-4.03887 -10.94826,10.2935 3.59495,6.66408 a 15.00001,15.00001 0 0 1 -17.7074,21.41862 l -7.2039,-2.271 -8.02816,12.63581 5.10429,5.5472 a 15.00001,15.00001 0 0 1 -11.84795,25.19556 l -7.54652,-0.43691 -4.6103,14.2899 6.3332,4.07185 a 15.00001,15.00001 0 0 1 -5.20273,27.31779 l -7.40113,1.46573 -0.94453,15.01285 7.15907,2.38178 a 15.00001,15.00001 0 0 1 1.73788,27.75446 l -6.79361,3.24597 2.78296,14.75505 7.54177,0.51236 a 15.00001,15.00001 0 0 1 8.59668,26.48183 l -5.75928,4.86372 6.38116,13.54237 7.43173,-1.3502 a 15.00001,15.00001 0 0 1 14.88331,23.46904 l -4.40184,6.16097 9.57181,11.58451 6.86667,-3.2035 a 15.00001,15.00001 0 0 1 20.27225,19.07433 l -2.71415,7.02455 12.13096,8.82953 5.8677,-4.78116 a 15.00001,15.00001 0 0 1 24.37919,13.38713 l -0.88957,7.51803 13.92881,5.53434 4.51026,-6.0784 a 15.00001,15.00001 0 0 1 26.90686,6.9189 l 1.00596,7.48582 14.9158,1.88517 2.82731,-7.01743 a 15.00001,15.00001 0 0 1 27.79617,0.007 l 2.85453,6.9962 14.8867,-1.86579 1.00272,-7.51092 a 15.00001,15.00001 0 0 1 26.94322,-6.90138 l 4.46516,6.07504 13.9428,-5.52283 -0.89042,-7.51641 a 15.00001,15.00001 0 0 1 24.39732,-13.38585 l 5.83547,4.76006 12.14295,-8.81714 -2.73899,-7.0268 a 15.00001,15.00001 0 0 1 20.28564,-19.05994 l 6.88291,3.15968 9.55072,-11.5554 -4.38497,-6.14574 a 15.00001,15.00001 0 0 1 14.88384,-23.48975 l 7.44947,1.37756 6.38293,-13.57246 -5.79063,-4.87085 a 15.00001,15.00001 0 0 1 8.59498,-26.46058 z"
     style="fill:#000000;fill-opacity:1;stroke:#ff0000;stroke-width:0"
     id="path4"
     inkscape:connector-curvature="0" />
  <g
     id="g851"
     transform="matrix(0.19042664,0.34782139,-0.34782139,0.19042664,569.01362,146.64482)"
     style="fill:#ffffff">
    <path
       inkscape:connector-curvature="0"
       id="path6"
       style="fill:#ffffff;fill-opacity:0;stroke:#ffffff;stroke-width:52.91342163;stroke-linecap:round"
       d="M 887.53602,291.25838 A 377.953,377.953 0 0 0 667.12603,56.609099" />
    <path
       inkscape:connector-curvature="0"
       id="path8"
       style="fill:#ffffff;fill-opacity:0;stroke:#ffffff;stroke-width:52.91342163;stroke-linecap:round"
       d="M 527.92035,30.052107 A 377.953,377.953 0 0 0 236.79371,167.00309" />
    <path
       inkscape:connector-curvature="0"
       id="path10"
       style="fill:#ffffff;fill-opacity:0;stroke:#ffffff;stroke-width:52.91342163;stroke-linecap:round"
       d="m 168.39546,291.07923 a 377.953,377.953 0 0 0 40.48958,319.51952" />
    <path
       inkscape:connector-curvature="0"
       id="path12"
       style="fill:#ffffff;fill-opacity:0;stroke:#ffffff;stroke-width:52.91342163;stroke-linecap:round"
       d="m 305.78725,713.6426 a 377.953,377.953 0 0 0 316.20077,60.41459" />
    <path
       inkscape:connector-curvature="0"
       id="path14"
       style="fill:#ffffff;fill-opacity:0;stroke:#ffffff;stroke-width:52.91342163;stroke-linecap:round"
       d="M 749.98372,713.94395 A 377.953,377.953 0 0 0 905.2072,431.73186" />
  </g>
  <circle
     style="opacity:0.98999999;fill:#ffffff;fill-opacity:1;stroke:none;stroke-width:13.47455406;stroke-linecap:round;stroke-linejoin:round;stroke-miterlimit:4;stroke-dasharray:none;stroke-dashoffset:0;stroke-opacity:1;paint-order:normal"
     id="path853"
     cx="528.00665"
     cy="407.71048"
     r="121.69462" />
</svg>
