<?xml version="1.0" encoding="UTF-8" standalone="no"?>
<svg
   xmlns:dc="http://purl.org/dc/elements/1.1/"
   xmlns:cc="http://creativecommons.org/ns#"
   xmlns:rdf="http://www.w3.org/1999/02/22-rdf-syntax-ns#"
   xmlns:svg="http://www.w3.org/2000/svg"
   xmlns="http://www.w3.org/2000/svg"
   xmlns:sodipodi="http://sodipodi.sourceforge.net/DTD/sodipodi-0.dtd"
   xmlns:inkscape="http://www.inkscape.org/namespaces/inkscape"
   version="1.1"
   width="1056"
   height="816"
   viewBox="0 0 1056 816"
   id="svg8"
   sodipodi:docname="teeth.svg"
   inkscape:version="0.92.4 (5da689c313, 2019-01-14)">
  <metadata
     id="metadata14">
    <rdf:RDF>
      <cc:Work
         rdf:about="">
        <dc:format>image/svg+xml</dc:format>
        <dc:type
           rdf:resource="http://purl.org/dc/dcmitype/StillImage" />
      </cc:Work>
    </rdf:RDF>
  </metadata>
  <defs
     id="defs12" />
  <sodipodi:namedview
     pagecolor="#ffffff"
     bordercolor="#666666"
     borderopacity="1"
     objecttolerance="10"
     gridtolerance="10"
     guidetolerance="10"
     inkscape:pageopacity="0"
     inkscape:pageshadow="2"
     inkscape:window-width="1280"
     inkscape:window-height="662"
     id="namedview10"
     showgrid="false"
     inkscape:zoom="1.125"
     inkscape:cx="492.08966"
     inkscape:cy="381.45608"
     inkscape:window-x="0"
     inkscape:window-y="26"
     inkscape:window-maximized="1"
     inkscape:current-layer="svg8" />
  <g
     transform="scale(3.77953,-3.77953) translate(139.6999097771416,-107.9499302823367)"
     id="g6">
    <path
       style="fill:#000000;fill-opacity:1;stroke:none;stroke-width:0"
       d="M 532.61133 291.47656 L 530.30469 298.6582 A 15.00001 15.00001 0 0 1 503.01758 301.53125 L 499.23828 294.99219 C 494.51615 296.79403 489.71577 298.35516 484.83789 299.67773 L 485.63086 307.19922 A 15.00001 15.00001 0 0 1 461.89648 320.88086 L 455.77344 316.45898 C 452.1877 320.02262 448.43269 323.40072 444.50977 326.58984 L 448.28906 333.12695 A 15.00001 15.00001 0 0 1 432.18945 355.3125 L 424.78125 353.76367 C 422.9579 358.47717 420.90483 363.0891 418.62109 367.59766 L 424.74414 372.05664 A 15.00001 15.00001 0 0 1 419.03711 398.85352 L 411.62891 400.40234 C 411.88087 405.46691 411.88087 410.53309 411.62891 415.59766 L 419.03711 417.14648 A 15.00001 15.00001 0 0 1 424.74414 443.94336 L 418.62109 448.40234 C 420.90483 452.9109 422.9579 457.52283 424.78125 462.23633 L 432.18945 460.6875 A 15.00001 15.00001 0 0 1 448.28906 482.87305 L 444.50977 489.41016 C 448.43269 492.59928 452.1877 495.97738 455.77344 499.54102 L 461.89648 495.11914 A 15.00001 15.00001 0 0 1 485.63086 508.80078 L 484.83789 516.32227 C 489.71577 517.64484 494.51615 519.20597 499.23828 521.00781 L 503.01758 514.46875 A 15.00001 15.00001 0 0 1 530.30469 517.3418 L 532.61133 524.52344 C 537.61179 523.74371 542.63832 523.21409 547.69141 522.93555 L 548.48438 515.41406 A 15.00001 15.00001 0 0 1 574.56445 506.94727 L 579.62891 512.58008 C 583.87458 509.82958 588.2465 507.2965 592.74414 504.98242 L 590.40039 497.80078 A 15.00001 15.00001 0 0 1 610.77148 479.4707 L 617.6875 482.5332 C 620.45687 478.29063 623.43033 474.19445 626.60742 470.24805 L 621.54297 464.6543 A 15.00001 15.00001 0 0 1 632.69336 439.59766 L 640.25195 439.59766 C 641.05116 434.60669 642.09654 429.66746 643.38867 424.78125 L 636.47266 421.71875 A 15.00001 15.00001 0 0 1 636.47266 394.28125 L 643.38867 391.21875 C 642.09654 386.33254 641.05116 381.39331 640.25195 376.40234 L 632.69336 376.40234 A 15.00001 15.00001 0 0 1 621.54297 351.3457 L 626.60742 345.75195 C 623.43033 341.80555 620.45687 337.70937 617.6875 333.4668 L 610.77148 336.5293 A 15.00001 15.00001 0 0 1 590.40039 318.19922 L 592.74414 311.01758 C 588.2465 308.7035 583.87458 306.17042 579.62891 303.41992 L 574.56445 309.05273 A 15.00001 15.00001 0 0 1 548.48438 300.58594 L 547.69141 293.06445 C 542.63832 292.78591 537.61179 292.25629 532.61133 291.47656 z M 527.50781 323 A 85 85 0 0 1 612.50781 408 A 85 85 0 0 1 527.50781 493 A 85 85 0 0 1 442.50781 408 A 85 85 0 0 1 527.50781 323 z "
       transform="matrix(0.26458316,0,0,-0.26458316,-139.69991,107.94993)"
       id="path4" />
    <!--  -->
  </g>
</svg>
