<?xml version="1.0" encoding="UTF-8" standalone="no"?>
<svg
   xmlns:dc="http://purl.org/dc/elements/1.1/"
   xmlns:cc="http://creativecommons.org/ns#"
   xmlns:rdf="http://www.w3.org/1999/02/22-rdf-syntax-ns#"
   xmlns:svg="http://www.w3.org/2000/svg"
   xmlns="http://www.w3.org/2000/svg"
   xmlns:sodipodi="http://sodipodi.sourceforge.net/DTD/sodipodi-0.dtd"
   xmlns:inkscape="http://www.inkscape.org/namespaces/inkscape"
   version="1.1"
   width="1056"
   height="816"
   viewBox="0 0 1056 816"
   id="svg8"
   sodipodi:docname="star2.svg"
   inkscape:version="0.92.4 (5da689c313, 2019-01-14)">
  <metadata
     id="metadata14">
    <rdf:RDF>
      <cc:Work
         rdf:about="">
        <dc:format>image/svg+xml</dc:format>
        <dc:type
           rdf:resource="http://purl.org/dc/dcmitype/StillImage" />
        <dc:title></dc:title>
      </cc:Work>
    </rdf:RDF>
  </metadata>
  <defs
     id="defs12" />
  <sodipodi:namedview
     pagecolor="#ffffff"
     bordercolor="#666666"
     borderopacity="1"
     objecttolerance="10"
     gridtolerance="10"
     guidetolerance="10"
     inkscape:pageopacity="0"
     inkscape:pageshadow="2"
     inkscape:window-width="1280"
     inkscape:window-height="662"
     id="namedview10"
     showgrid="false"
     inkscape:zoom="0.79549513"
     inkscape:cx="462.83788"
     inkscape:cy="378.91642"
     inkscape:window-x="0"
     inkscape:window-y="26"
     inkscape:window-maximized="1"
     inkscape:current-layer="svg8" />
  <rect
     width="1056"
     height="816"
     style="fill:#ffffff;stroke-width:0;stroke:#ffffff"
     id="rect2"
     x="-99.555557"
     y="-74.917778" />
  <g
     id="g833">
    <g
       style="fill:#000000"
       id="g6"
       transform="matrix(0,3.77953,3.77953,0,431.10856,315.07327)">
      <path
         inkscape:connector-curvature="0"
         id="path4"
         style="fill:#000000;fill-opacity:1;stroke:#ff0000;stroke-width:0"
         d="m 30.686664,-4.4289741 -1.854367,0.7492132 a 3.96875,3.96875 0 0 0 0,7.3595218 l 1.854367,0.7492132 -0.851575,4.0063476 -1.998782,-0.069799 A 3.96875,3.96875 0 0 0 24.84292,15.08878 l 1.389317,1.43868 -2.407481,3.313614 -1.797589,-0.876743 a 3.96875,3.96875 0 0 0 -5.46919,4.924482 l 0.68404,1.879385 -3.547111,2.047926 -1.285576,-1.532089 A 3.96875,3.96875 0 0 0 5.4100091,28.558252 L 5.2704961,30.55338 1.1970818,30.981514 0.64580714,29.05899 A 3.96875,3.96875 0 0 0 -6.6733985,28.289711 l -0.9389431,1.765895 -3.8953864,-1.265688 0.278346,-1.980536 a 3.96875,3.96875 0 0 0 -6.373533,-3.679761 l -1.576021,1.231323 -3.043811,-2.74066 1.059838,-1.696096 a 3.96875,3.96875 0 0 0 -4.325818,-5.953978 l -1.940592,0.483843 -1.665933,-3.741746 1.658075,-1.1183861 a 3.96875,3.96875 0 0 0 -1.53013,-7.1986987 l -1.969616,-0.3472963 v -4.0958518 l 1.969616,-0.3472963 a 3.96875,3.96875 0 0 0 1.53013,-7.1986987 l -1.658075,-1.1183861 1.665933,-3.741746 1.940592,0.483843 a 3.96875,3.96875 0 0 0 4.325818,-5.953978 l -1.059838,-1.696096 3.043811,-2.74066 1.576021,1.231323 a 3.96875,3.96875 0 0 0 6.373533,-3.679761 l -0.278346,-1.980536 3.8953864,-1.265688 0.9389431,1.765895 a 3.96875,3.96875 0 0 0 7.31920564,-0.769279 l 0.55127466,-1.922524 4.0734143,0.428134 0.139513,1.995128 a 3.96875,3.96875 0 0 0 6.9993209,2.274217 l 1.285576,-1.532089 3.547111,2.047926 -0.68404,1.879385 a 3.96875,3.96875 0 0 0 5.46919,4.924482 l 1.797589,-0.876743 2.407481,3.313614 -1.389317,1.43868 a 3.96875,3.96875 0 0 0 2.993387,6.7232573 l 1.998782,-0.069799 z" />
      <!--  -->
    </g>
    <circle
       r="84.790787"
       cy="314.60034"
       cx="431.10855"
       id="path825"
       style="opacity:1;fill:#ffffff;fill-opacity:1;stroke:#00ff00;stroke-width:0;stroke-linecap:round;stroke-linejoin:round;stroke-miterlimit:4;stroke-dasharray:none;stroke-dashoffset:0;stroke-opacity:1;paint-order:normal" />
  </g>
  <path
     sodipodi:type="star"
     style="opacity:1;fill:#000000;fill-opacity:1;stroke:#000000;stroke-width:10.30000019;stroke-linecap:round;stroke-linejoin:round;stroke-miterlimit:4;stroke-dasharray:none;stroke-dashoffset:0;stroke-opacity:1;paint-order:normal"
     id="path826"
     sodipodi:sides="5"
     sodipodi:cx="431.10855"
     sodipodi:cy="-315.06894"
     sodipodi:r1="138.95126"
     sodipodi:r2="26.40074"
     sodipodi:arg1="1.5707963"
     sodipodi:arg2="2.1991149"
     inkscape:flatsided="false"
     inkscape:rounded="0"
     inkscape:randomized="0"
     d="m 431.10855,-176.11768 -15.51797,-117.59261 -116.63253,21.57966 107.04191,-51.09659 -56.56492,-104.25565 81.67351,86.01319 81.6735,-86.01319 -56.5649,104.25565 107.04191,51.09658 -116.63254,-21.57965 z"
     inkscape:transform-center-y="-13.268664"
     transform="scale(1,-1)" />
</svg>
