<?xml version="1.0" encoding="UTF-8"?>

<!DOCTYPE svg PUBLIC "-//W3C//DTD SVG 1.1//EN" "http://www.w3.org/Graphics/SVG/1.1/DTD/svg11.dtd">

<svg xmlns="http://www.w3.org/2000/svg" version="1.1" width="1056" height="816" viewBox="0 0 1056 816">

<rect width="1056" height="816" style="fill:rgb(255,255,255);stroke-width:0" />

	<g transform="scale(1,-1) translate(139,-107)">

		<path d="M68.73,-8.34 L69.09,-4.43 L67.24,-3.68 A 3.96875 3.96875 0 0 0 67.24,3.68 L69.09,4.43 L68.73,8.34 L66.77,8.74 A 3.96875 3.96875 0 0 0 65.42,15.97 L67.1,17.05 L66.03,20.83 L64.03,20.86 A 3.96875 3.96875 0 0 0 61.37,27.72 L62.83,29.09 L61.07,32.61 L59.1,32.27 A 3.96875 3.96875 0 0 0 55.23,38.52 L56.41,40.14 L54.04,43.27 L52.17,42.58 A 3.96875 3.96875 0 0 0 47.21,48.02 L48.07,49.82 L45.17,52.47 L43.46,51.44 A 3.96875 3.96875 0 0 0 37.58,55.87 L38.1,57.8 L34.76,59.87 L33.26,58.55 A 3.96875 3.96875 0 0 0 26.68,61.83 L26.83,63.82 L23.17,65.24 L21.94,63.66 A 3.96875 3.96875 0 0 0 14.86,65.68 L14.65,67.67 L10.78,68.39 L9.87,66.61 A 3.96875 3.96875 0 0 0 2.54,67.29 L1.96,69.2 L-1.96,69.2 L-2.54,67.29 A 3.96875 3.96875 0 0 0 -9.87,66.61 L-10.78,68.39 L-14.65,67.67 L-14.86,65.68 A 3.96875 3.96875 0 0 0 -21.94,63.66 L-23.17,65.24 L-26.83,63.82 L-26.68,61.83 A 3.96875 3.96875 0 0 0 -33.26,58.55 L-34.76,59.87 L-38.1,57.8 L-37.58,55.87 A 3.96875 3.96875 0 0 0 -43.46,51.44 L-45.17,52.47 L-48.07,49.82 L-47.21,48.02 A 3.96875 3.96875 0 0 0 -52.17,42.58 L-54.04,43.27 L-56.41,40.14 L-55.23,38.52 A 3.96875 3.96875 0 0 0 -59.1,32.27 L-61.07,32.61 L-62.83,29.09 L-61.37,27.72 A 3.96875 3.96875 0 0 0 -64.03,20.86 L-66.03,20.83 L-67.1,17.05 L-65.42,15.97 A 3.96875 3.96875 0 0 0 -66.77,8.74 L-68.73,8.34 L-69.09,4.43 L-67.24,3.68 A 3.96875 3.96875 0 0 0 -67.24,-3.68 L-69.09,-4.43 L-68.73,-8.34 L-66.77,-8.74 A 3.96875 3.96875 0 0 0 -65.42,-15.97 L-67.1,-17.05 L-66.03,-20.83 L-64.03,-20.86 A 3.96875 3.96875 0 0 0 -61.37,-27.72 L-62.83,-29.09 L-61.07,-32.61 L-59.1,-32.27 A 3.96875 3.96875 0 0 0 -55.23,-38.52 L-56.41,-40.14 L-54.04,-43.27 L-52.17,-42.58 A 3.96875 3.96875 0 0 0 -47.21,-48.02 L-48.07,-49.82 L-45.17,-52.47 L-43.46,-51.44 A 3.96875 3.96875 0 0 0 -37.58,-55.87 L-38.1,-57.8 L-34.76,-59.87 L-33.26,-58.55 A 3.96875 3.96875 0 0 0 -26.68,-61.83 L-26.83,-63.82 L-23.17,-65.24 L-21.94,-63.66 A 3.96875 3.96875 0 0 0 -14.86,-65.68 L-14.65,-67.67 L-10.78,-68.39 L-9.87,-66.61 A 3.96875 3.96875 0 0 0 -2.54,-67.29 L-1.96,-69.2 L1.96,-69.2 L2.54,-67.29 A 3.96875 3.96875 0 0 0 9.87,-66.61 L10.78,-68.39 L14.65,-67.67 L14.86,-65.68 A 3.96875 3.96875 0 0 0 21.94,-63.66 L23.17,-65.24 L26.83,-63.82 L26.68,-61.83 A 3.96875 3.96875 0 0 0 33.26,-58.55 L34.76,-59.87 L38.1,-57.8 L37.58,-55.87 A 3.96875 3.96875 0 0 0 43.46,-51.44 L45.17,-52.47 L48.07,-49.82 L47.21,-48.02 A 3.96875 3.96875 0 0 0 52.17,-42.58 L54.04,-43.27 L56.41,-40.14 L55.23,-38.52 A 3.96875 3.96875 0 0 0 59.1,-32.27 L61.07,-32.61 L62.83,-29.09 L61.37,-27.72 A 3.96875 3.96875 0 0 0 64.03,-20.86 L66.03,-20.83 L67.1,-17.05 L65.42,-15.97 A 3.96875 3.96875 0 0 0 66.77,-8.74 L68.73,-8.34 Z" style="fill:#000;fill-opacity:1.0;stroke:#f00;stroke-width:0" /> <!--  -->

	</g>

</svg>
