<?xml version="1.0" encoding="UTF-8" standalone="no"?>
<svg
   version="1.1"
   width="1056"
   height="816"
   viewBox="0 0 1056 816"
   id="svg8"
   sodipodi:docname="teeth2i.svg"
   inkscape:version="1.1.2 (0a00cf5339, 2022-02-04)"
   xmlns:inkscape="http://www.inkscape.org/namespaces/inkscape"
   xmlns:sodipodi="http://sodipodi.sourceforge.net/DTD/sodipodi-0.dtd"
   xmlns="http://www.w3.org/2000/svg"
   xmlns:svg="http://www.w3.org/2000/svg">
  <defs
     id="defs12" />
  <sodipodi:namedview
     id="namedview10"
     pagecolor="#ffffff"
     bordercolor="#666666"
     borderopacity="1.0"
     inkscape:pageshadow="2"
     inkscape:pageopacity="0.0"
     inkscape:pagecheckerboard="0"
     showgrid="false"
     inkscape:zoom="0.92027868"
     inkscape:cx="445.51722"
     inkscape:cy="430.30444"
     inkscape:window-width="1366"
     inkscape:window-height="702"
     inkscape:window-x="0"
     inkscape:window-y="29"
     inkscape:window-maximized="1"
     inkscape:current-layer="svg8" />
  <rect
     width="1056"
     height="816"
     style="fill:rgb(255,255,255);stroke-width:0"
     id="rect2" />
  <g
     transform="matrix(-2.8087382,2.5289992,2.5289992,2.8087382,420.41403,376.64683)"
     id="g6"
     style="fill:#000000;stroke:none">
    <g
       id="path4"
       style="fill:#000000;stroke:none">
      <path
         id="path1180"
         style="color:#000000;fill:#000000;stroke:none;-inkscape-stroke:none"
         d="m 29.7,-8.36 c 0.211456,1.3205237 0.488123,2.627193 0.83,3.92 l -1.83,0.81 c -3.152473,1.3933348 -3.152473,5.8666652 0,7.26 l 1.83,0.81 C 30.188123,5.732807 29.911456,7.0394763 29.7,8.36 h -2 c -3.442763,-0.00497 -5.258555,4.075941 -2.95,6.63 l 1.34,1.48 c -0.840604,1.044151 -1.627272,2.127486 -2.36,3.25 L 21.9,18.91 c -3.13862,-1.398125 -6.450262,1.581738 -5.39,4.85 l 0.62,1.9 c -1.189999,0.612264 -2.346668,1.282265 -3.47,2.01 l -1.34,-1.49 c -2.298738,-2.559454 -6.5429456,-1.181624 -6.9,2.24 l -0.21,1.99 c -1.3369602,0.0737 -2.6669629,0.213698 -3.99,0.42 l -0.61,-1.9 c -1.0557361,-3.280853 -5.5042668,-3.749119 -7.22,-0.76 l -1,1.73 c -1.249395,-0.476736 -2.519397,-0.89007 -3.81,-1.24 l 0.21,-1.99 c 0.353762,-3.415115 -3.502079,-5.63775 -6.28,-3.62 l -1.62,1.17 c -0.948725,-0.942876 -1.94206,-1.836212 -2.98,-2.68 l 1,-1.73 c 1.72227,-2.975903 -0.89677,-6.584767 -4.26,-5.87 l -1.96,0.41 c -0.482428,-1.247111 -1.025763,-2.467113 -1.63,-3.66 l 1.62,-1.18 c 2.775801,-2.021401 1.848573,-6.3750737 -1.51,-7.09 l -1.96,-0.41 c 0.06667,-1.33999866 0.06667,-2.68000134 0,-4.02 l 1.96,-0.41 c 3.358573,-0.7149263 4.285801,-5.068599 1.51,-7.09 l -1.62,-1.18 c 0.604237,-1.192887 1.147572,-2.412889 1.63,-3.66 l 1.96,0.41 c 3.36323,0.714767 5.98227,-2.894097 4.26,-5.87 l -1,-1.73 c 1.03794,-0.843788 2.031275,-1.737124 2.98,-2.68 l 1.62,1.17 c 2.777921,2.01775 6.633762,-0.204885 6.28,-3.62 l -0.21,-1.99 c 1.290603,-0.34993 2.560605,-0.763264 3.81,-1.24 l 1,1.73 c 1.7157332,2.989119 6.1642639,2.520853 7.22,-0.76 l 0.61,-1.9 c 1.3230371,0.206302 2.6530398,0.346302 3.99,0.42 l 0.21,1.99 c 0.3570544,3.421624 4.601262,4.799454 6.9,2.24 l 1.34,-1.49 c 1.123332,0.727735 2.280001,1.397736 3.47,2.01 l -0.62,1.9 c -1.060262,3.268262 2.25138,6.248125 5.39,4.85 l 1.83,-0.81 c 0.732728,1.122514 1.519396,2.205849 2.36,3.25 l -1.34,1.48 c -2.308555,2.554059 -0.492763,6.634974 2.95,6.63 z m 0,0 q 0.317184,1.9807876 0.83,3.92 l -1.83,0.81 a 3.96875,3.96875 0 0 0 0,7.26 l 1.83,0.81 Q 30.017184,6.3792124 29.7,8.36 h -2 a 3.96875,3.96875 0 0 0 -2.95,6.63 l 1.34,1.48 q -1.260907,1.566228 -2.36,3.25 L 21.9,18.91 a 3.96875,3.96875 0 0 0 -5.39,4.85 l 0.62,1.9 q -1.785,0.918397 -3.47,2.01 l -1.34,-1.49 a 3.96875,3.96875 0 0 0 -6.9,2.24 l -0.21,1.99 q -2.0054423,0.110547 -3.99,0.42 l -0.61,-1.9 a 3.96875,3.96875 0 0 0 -7.22,-0.76 l -1,1.73 q -1.8740943,-0.715104 -3.81,-1.24 l 0.21,-1.99 a 3.96875,3.96875 0 0 0 -6.28,-3.62 l -1.62,1.17 q -1.423089,-1.414316 -2.98,-2.68 l 1,-1.73 a 3.96875,3.96875 0 0 0 -4.26,-5.87 l -1.96,0.41 q -0.723643,-1.870668 -1.63,-3.66 l 1.62,-1.18 a 3.96875,3.96875 0 0 0 -1.51,-7.09 l -1.96,-0.41 q 0.1,-2.01 0,-4.02 l 1.96,-0.41 a 3.96875,3.96875 0 0 0 1.51,-7.09 l -1.62,-1.18 q 0.906357,-1.789332 1.63,-3.66 l 1.96,0.41 a 3.96875,3.96875 0 0 0 4.26,-5.87 l -1,-1.73 q 1.556911,-1.265684 2.98,-2.68 l 1.62,1.17 a 3.96875,3.96875 0 0 0 6.28,-3.62 l -0.21,-1.99 q 1.9359057,-0.524896 3.81,-1.24 l 1,1.73 a 3.96875,3.96875 0 0 0 7.22,-0.76 l 0.61,-1.9 q 1.9845577,0.309453 3.99,0.42 l 0.21,1.99 a 3.96875,3.96875 0 0 0 6.9,2.24 l 1.34,-1.49 q 1.685,1.091603 3.47,2.01 l -0.62,1.9 a 3.96875,3.96875 0 0 0 5.39,4.85 l 1.83,-0.81 q 1.099093,1.683772 2.36,3.25 l -1.34,1.48 a 3.96875,3.96875 0 0 0 2.95,6.63 z" />
    </g>
    <!--  -->
  </g>
</svg>
