<?xml version="1.0" encoding="UTF-8"?>

<!DOCTYPE svg PUBLIC "-//W3C//DTD SVG 1.1//EN" "http://www.w3.org/Graphics/SVG/1.1/DTD/svg11.dtd">

<svg xmlns="http://www.w3.org/2000/svg" version="1.1" width="1056" height="816" viewBox="0 0 1056 816">

<rect width="1056" height="816" style="fill:rgb(255,255,255);stroke-width:0" />

	<g transform="scale(3.77953,-3.77953) translate(139.6999097771416,-107.9499302823367)">

		<path d="M31.9,-8.45 Q 32.14218349807964,-6.829217027352536 32.58,-5.25 L28.93,-3.63 A 3.96875 3.96875 0 0 0 28.93,3.63 L32.58,5.25 Q 32.14218349807964,6.82921702735253 31.9,8.45 L27.9,8.45 A 3.96875 3.96875 0 0 0 24.95,15.08 L27.63,18.05 Q 26.58410081598718,19.31621801274148 25.7,20.7 L22.05,19.07 A 3.96875 3.96875 0 0 0 16.66,23.92 L17.9,27.73 Q 16.430001054518822,28.458396850803386 15.06,29.36 L12.39,26.39 A 3.96875 3.96875 0 0 0 5.49,28.63 L5.07,32.61 Q 3.4345481044176918,32.6805477105405 1.82,32.95 L0.58,29.15 A 3.96875 3.96875 0 0 0 -6.63,28.39 L-8.63,31.85 Q -10.154097224421822,31.249894698036517 -11.74,30.84 L-11.32,26.86 A 3.96875 3.96875 0 0 0 -17.6,23.24 L-20.84,25.59 Q -21.988087604652392,24.42068491842939 -23.27,23.4 L-21.27,19.94 A 3.96875 3.96875 0 0 0 -25.53,14.07 L-29.45,14.9 Q -30.023642003189085,13.364334087755267 -30.78,11.91 L-27.54,9.56 A 3.96875 3.96875 0 0 0 -29.05,2.47 L-32.96,1.64 Q -32.86,4.0241893819982026e-15 -32.96,-1.64 L-29.05,-2.47 A 3.96875 3.96875 0 0 0 -27.54,-9.56 L-30.78,-11.91 Q -30.02364200318909,-13.364334087755259 -29.45,-14.9 L-25.53,-14.07 A 3.96875 3.96875 0 0 0 -21.27,-19.94 L-23.27,-23.4 Q -21.988087604652396,-24.420684918429387 -20.84,-25.59 L-17.6,-23.24 A 3.96875 3.96875 0 0 0 -11.32,-26.86 L-11.74,-30.84 Q -10.154097224421822,-31.249894698036517 -8.63,-31.85 L-6.63,-28.39 A 3.96875 3.96875 0 0 0 0.58,-29.15 L1.82,-32.95 Q 3.4345481044176913,-32.6805477105405 5.07,-32.61 L5.49,-28.63 A 3.96875 3.96875 0 0 0 12.39,-26.39 L15.06,-29.36 Q 16.430001054518822,-28.458396850803386 17.9,-27.73 L16.66,-23.92 A 3.96875 3.96875 0 0 0 22.05,-19.07 L25.7,-20.7 Q 26.584100815987185,-19.316218012741473 27.63,-18.05 L24.95,-15.08 A 3.96875 3.96875 0 0 0 27.9,-8.45 L31.9,-8.45 Z" style="fill:#000;fill-opacity:1.0;stroke:#f00;stroke-width:0" /> <!--  -->
		<circle cx="0.0" cy="0.0" r="26.77306308912523" style="fill:#f00;fill-opacity:1.0;stroke:#f00;stroke-width:0" /> <!-- cutout -->

	</g>

</svg>
