<?xml version="1.0" encoding="UTF-8" standalone="no"?>
<!-- Created with Inkscape (http://www.inkscape.org/) -->

<svg
   sodipodi:docname="luggage_tags_long.svg"
   inkscape:version="1.1.2 (0a00cf5339, 2022-02-04)"
   id="svg5"
   version="1.1"
   viewBox="0 0 215.9 279.4"
   height="11in"
   width="8.5in"
   xmlns:inkscape="http://www.inkscape.org/namespaces/inkscape"
   xmlns:sodipodi="http://sodipodi.sourceforge.net/DTD/sodipodi-0.dtd"
   xmlns="http://www.w3.org/2000/svg"
   xmlns:svg="http://www.w3.org/2000/svg">
  <sodipodi:namedview
     id="namedview7"
     pagecolor="#ffffff"
     bordercolor="#666666"
     borderopacity="1.0"
     inkscape:pageshadow="2"
     inkscape:pageopacity="0.0"
     inkscape:pagecheckerboard="0"
     inkscape:document-units="mm"
     showgrid="false"
     units="in"
     inkscape:zoom="0.46769782"
     inkscape:cx="425.48841"
     inkscape:cy="528.11878"
     inkscape:window-width="1366"
     inkscape:window-height="698"
     inkscape:window-x="0"
     inkscape:window-y="33"
     inkscape:window-maximized="1"
     inkscape:current-layer="layer1" />
  <defs
     id="defs2" />
  <g
     inkscape:label="Layer 1"
     inkscape:groupmode="layer"
     id="layer1">
    <path
       id="rect31-6"
       style="fill:#ff0000;stroke:none;stroke-width:0.999999"
       d="M 136.94531 146.0332 L 121.9707 148.85156 L 109.76758 156.55273 L 101.55469 167.99414 L 98.544922 182.0332 L 101.55469 196.07031 L 109.76758 207.51172 L 121.9707 215.21094 L 136.94531 218.0332 L 275.85352 218.0332 L 540.14648 218.0332 L 679.05469 218.0332 L 694.0293 215.21094 L 706.23242 207.51172 L 714.44531 196.07031 L 717.45508 182.0332 L 714.44531 167.99414 L 706.23242 156.55273 L 694.0293 148.85156 L 679.05469 146.0332 L 540.14648 146.0332 L 275.85352 146.0332 L 136.94531 146.0332 z "
       transform="scale(0.264583, 0.264583)" />
    <path
       id="rect31-6-7"
       style="fill:#ff0000;stroke:none;stroke-width:0.999999"
       d="M 136.94531 274.26953 L 121.9707 277.08984 L 109.76758 284.79102 L 101.55469 296.23047 L 98.544922 310.26953 L 101.55469 324.30859 L 109.76758 335.75 L 121.9707 343.44922 L 136.94531 346.26953 L 275.85352 346.26953 L 540.14648 346.26953 L 679.05469 346.26953 L 694.0293 343.44922 L 706.23242 335.75 L 714.44531 324.30859 L 717.45508 310.26953 L 714.44531 296.23047 L 706.23242 284.79102 L 694.0293 277.08984 L 679.05469 274.26953 L 540.14648 274.26953 L 275.85352 274.26953 L 136.94531 274.26953 z "
       transform="scale(0.264583, 0.264583)" />
    <path
       id="rect31-6-5"
       style="fill:#ff0000;stroke:none;stroke-width:0.999999"
       d="M 136.94531 402.50781 L 121.9707 405.32812 L 109.76758 413.0293 L 101.55469 424.46875 L 98.544922 438.50781 L 101.55469 452.54688 L 109.76758 463.98828 L 121.9707 471.6875 L 136.94531 474.50781 L 275.85352 474.50781 L 540.14648 474.50781 L 679.05469 474.50781 L 694.0293 471.6875 L 706.23242 463.98828 L 714.44531 452.54688 L 717.45508 438.50781 L 714.44531 424.46875 L 706.23242 413.0293 L 694.0293 405.32812 L 679.05469 402.50781 L 540.14648 402.50781 L 275.85352 402.50781 L 136.94531 402.50781 z "
       transform="scale(0.264583, 0.264583)" />
    <path
       id="rect31-6-3"
       style="fill:#ff0000;stroke:none;stroke-width:0.999999"
       d="M 136.94531 530.74609 L 121.9707 533.56641 L 109.76758 541.26758 L 101.55469 552.70703 L 98.544922 566.74609 L 101.55469 580.78516 L 109.76758 592.22461 L 121.9707 599.92578 L 136.94531 602.74609 L 275.85352 602.74609 L 540.14648 602.74609 L 679.05469 602.74609 L 694.0293 599.92578 L 706.23242 592.22461 L 714.44531 580.78516 L 717.45508 566.74609 L 714.44531 552.70703 L 706.23242 541.26758 L 694.0293 533.56641 L 679.05469 530.74609 L 540.14648 530.74609 L 275.85352 530.74609 L 136.94531 530.74609 z "
       transform="scale(0.264583, 0.264583)" />
  </g>
</svg>
