<?xml version="1.0" encoding="UTF-8" standalone="no"?>
<!-- Created with Inkscape (http://www.inkscape.org/) -->

<svg
   sodipodi:docname="luggage_tags.svg"
   inkscape:version="1.1.2 (0a00cf5339, 2022-02-04)"
   id="svg5"
   version="1.1"
   viewBox="0 0 215.9 279.4"
   height="11in"
   width="8.5in"
   xmlns:inkscape="http://www.inkscape.org/namespaces/inkscape"
   xmlns:sodipodi="http://sodipodi.sourceforge.net/DTD/sodipodi-0.dtd"
   xmlns="http://www.w3.org/2000/svg"
   xmlns:svg="http://www.w3.org/2000/svg">
  <sodipodi:namedview
     id="namedview7"
     pagecolor="#ffffff"
     bordercolor="#666666"
     borderopacity="1.0"
     inkscape:pageshadow="2"
     inkscape:pageopacity="0.0"
     inkscape:pagecheckerboard="0"
     inkscape:document-units="mm"
     showgrid="false"
     units="in"
     inkscape:zoom="0.93539564"
     inkscape:cx="373.10416"
     inkscape:cy="399.83081"
     inkscape:window-width="1366"
     inkscape:window-height="698"
     inkscape:window-x="0"
     inkscape:window-y="33"
     inkscape:window-maximized="1"
     inkscape:current-layer="layer1" />
  <defs
     id="defs2" />
  <g
     inkscape:label="Layer 1"
     inkscape:groupmode="layer"
     id="layer1">
    <path
       id="rect31"
       style="fill:#ff0000;stroke:#ffffff;stroke-width:0.264583"
       d="M 54.61 37.4691 L 161.29 37.4691 L 165.252 38.2153 L 168.481 40.2527 L 170.654 43.2796 L 171.45 46.9941 L 170.654 50.7085 L 168.481 53.7354 L 165.252 55.7728 L 161.29 56.5191 L 54.61 56.5191 L 50.6479 55.7728 L 47.4193 53.7354 L 45.246 50.7085 L 44.45 46.9941 L 45.246 43.2796 L 47.4193 40.2527 L 50.6479 38.2153 L 54.61 37.4691 L 54.61 37.4691" />
    <path
       id="rect31-3"
       style="fill:#ff0000;stroke:#ffffff;stroke-width:0.264583"
       d="M 54.61 64.7386 L 161.29 64.7386 L 165.252 65.4848 L 168.481 67.5223 L 170.654 70.5491 L 171.45 74.2636 L 170.654 77.978 L 168.481 81.0049 L 165.252 83.0424 L 161.29 83.7886 L 54.61 83.7886 L 50.6479 83.0424 L 47.4193 81.0049 L 45.246 77.978 L 44.45 74.2636 L 45.246 70.5491 L 47.4193 67.5223 L 50.6479 65.4848 L 54.61 64.7386 L 54.61 64.7386" />
    <path
       id="rect31-56"
       style="fill:#ff0000;stroke:#ffffff;stroke-width:0.264583"
       d="M 54.61 92.0081 L 161.29 92.0081 L 165.252 92.7543 L 168.481 94.7918 L 170.654 97.8187 L 171.45 101.533 L 170.654 105.248 L 168.481 108.274 L 165.252 110.312 L 161.29 111.058 L 54.61 111.058 L 50.6479 110.312 L 47.4193 108.274 L 45.246 105.248 L 44.45 101.533 L 45.246 97.8187 L 47.4193 94.7918 L 50.6479 92.7543 L 54.61 92.0081 L 54.61 92.0081" />
    <path
       id="rect31-3-2"
       style="fill:#ff0000;stroke:#ffffff;stroke-width:0.264583"
       d="M 54.61 119.278 L 161.29 119.278 L 165.252 120.024 L 168.481 122.061 L 170.654 125.088 L 171.45 128.803 L 170.654 132.517 L 168.481 135.544 L 165.252 137.581 L 161.29 138.328 L 54.61 138.328 L 50.6479 137.581 L 47.4193 135.544 L 45.246 132.517 L 44.45 128.803 L 45.246 125.088 L 47.4193 122.061 L 50.6479 120.024 L 54.61 119.278 L 54.61 119.278" />
    <path
       id="rect31-6"
       style="fill:#ff0000;stroke:#ffffff;stroke-width:0.264583"
       d="M 54.61 173.817 L 161.29 173.817 L 165.252 174.563 L 168.481 176.6 L 170.654 179.627 L 171.45 183.342 L 170.654 187.056 L 168.481 190.083 L 165.252 192.12 L 161.29 192.867 L 54.61 192.867 L 50.6479 192.12 L 47.4193 190.083 L 45.246 187.056 L 44.45 183.342 L 45.246 179.627 L 47.4193 176.6 L 50.6479 174.563 L 54.61 173.817 L 54.61 173.817" />
    <path
       id="rect31-3-7"
       style="fill:#ff0000;stroke:#ffffff;stroke-width:0.264583"
       d="M 54.61 146.547 L 161.29 146.547 L 165.252 147.293 L 168.481 149.331 L 170.654 152.358 L 171.45 156.072 L 170.654 159.787 L 168.481 162.814 L 165.252 164.851 L 161.29 165.597 L 54.61 165.597 L 50.6479 164.851 L 47.4193 162.814 L 45.246 159.787 L 44.45 156.072 L 45.246 152.358 L 47.4193 149.331 L 50.6479 147.293 L 54.61 146.547 L 54.61 146.547" />
    <path
       id="rect31-5"
       style="fill:#ff0000;stroke:#ffffff;stroke-width:0.264583"
       d="M 54.61 201.086 L 161.29 201.086 L 165.252 201.832 L 168.481 203.87 L 170.654 206.897 L 171.45 210.611 L 170.654 214.326 L 168.481 217.353 L 165.252 219.39 L 161.29 220.136 L 54.61 220.136 L 50.6479 219.39 L 47.4193 217.353 L 45.246 214.326 L 44.45 210.611 L 45.246 206.897 L 47.4193 203.87 L 50.6479 201.832 L 54.61 201.086 L 54.61 201.086" />
    <path
       id="rect31-3-3"
       style="fill:#ff0000;stroke:#ffffff;stroke-width:0.264583"
       d="M 54.61 228.356 L 161.29 228.356 L 165.252 229.102 L 168.481 231.139 L 170.654 234.166 L 171.45 237.881 L 170.654 241.595 L 168.481 244.622 L 165.252 246.66 L 161.29 247.406 L 54.61 247.406 L 50.6479 246.66 L 47.4193 244.622 L 45.246 241.595 L 44.45 237.881 L 45.246 234.166 L 47.4193 231.139 L 50.6479 229.102 L 54.61 228.356 L 54.61 228.356" />
  </g>
</svg>
