<?xml version="1.0" encoding="UTF-8" standalone="no"?>
<svg
   version="1.1"
   width="96"
   height="96"
   style="fill:#221f1f"
   id="svg1936"
   sodipodi:docname="aws.svg"
   inkscape:version="1.2.1 (9c6d41e4, 2022-07-14)"
   xml:space="preserve"
   xmlns:inkscape="http://www.inkscape.org/namespaces/inkscape"
   xmlns:sodipodi="http://sodipodi.sourceforge.net/DTD/sodipodi-0.dtd"
   xmlns="http://www.w3.org/2000/svg"
   xmlns:svg="http://www.w3.org/2000/svg"><defs
     id="defs13" /><sodipodi:namedview
     id="namedview11"
     pagecolor="#ffffff"
     bordercolor="#666666"
     borderopacity="1.0"
     inkscape:showpageshadow="2"
     inkscape:pageopacity="0.0"
     inkscape:pagecheckerboard="0"
     inkscape:deskcolor="#d1d1d1"
     showgrid="false"
     inkscape:zoom="3.68"
     inkscape:cx="-3.3967391"
     inkscape:cy="53.940217"
     inkscape:window-width="1250"
     inkscape:window-height="655"
     inkscape:window-x="0"
     inkscape:window-y="25"
     inkscape:window-maximized="0"
     inkscape:current-layer="svg1936" /><rect
     style="fill:none;stroke-width:1.24406"
     id="rect358"
     width="96"
     height="96"
     x="0"
     y="0"
     rx="10"
     ry="10" /><path
     style="fill:#ffae5e;fill-opacity:1;stroke:none;stroke-width:4.02238;stroke-dasharray:none;stroke-opacity:1"
     d="m 21.400218,69.96428 c -3.269316,-0.481409 -6.389636,-2.264428 -8.488431,-4.850475 -1.047586,-1.290791 -2.162051,-3.458285 -2.557602,-4.974216 -0.344912,-1.32186 -0.4721097,-3.90908 -0.262621,-5.341778 0.700343,-4.789674 4.201594,-8.918066 8.942828,-10.544662 1.250038,-0.428856 2.998675,-0.733364 4.211338,-0.733364 1.280853,0 1.567034,-0.261492 2.052459,-1.875387 1.811713,-6.023414 5.91733,-10.874374 11.488782,-13.574485 1.831198,-0.887459 3.273109,-1.387212 5.286621,-1.832292 1.467702,-0.324431 1.820507,-0.352345 4.502566,-0.356253 2.707727,-0.0039 3.026443,0.02086 4.583476,0.356651 4.220105,0.910126 7.756185,2.785318 10.816945,5.736257 1.782255,1.718306 2.723883,2.913007 4.013112,5.091676 0.500896,0.846465 0.979345,1.54745 1.06322,1.557742 0.08388,0.0103 1.374735,0.02833 2.868576,0.04007 2.526614,0.01986 2.809917,0.0465 4.061328,0.381858 6.289961,1.685613 10.764616,6.499659 11.857434,12.75679 0.305602,1.74977 0.190302,4.64247 -0.252401,6.332456 -1.562662,5.965344 -6.124194,10.31773 -12.238931,11.677779 -1.224707,0.272401 -1.309224,0.273375 -25.996737,0.299629 -20.20772,0.02149 -24.986021,-0.0058 -25.951962,-0.147994 z"
     id="path446" /><g
     id="g1106"
     transform="matrix(0.129337,0,0,0.129337,67.612109,27.199825)"
     style="fill:#000000;fill-opacity:1;stroke:none"><path
       style="fill:#000000;fill-opacity:1;stroke:none"
       d="m -164.36653,282.22866 c -44.30568,-3.56957 -84.69389,-19.71663 -117.91386,-47.14152 -7.29226,-6.02016 -9.37655,-9.23722 -5.98468,-9.23722 0.88081,0 6.16831,2.43279 11.75,5.4062 25.79101,13.73908 55.89074,23.62283 87.32645,28.67512 18.46186,2.96717 52.17021,3.69197 70.82209,1.52284 24.653843,-2.86713 45.532192,-7.8829 67.770372,-16.281 12.57011,-4.74703 15.72963,-4.91037 15.72963,-0.81318 0,1.85428 -1.69975,3.50132 -7.75,7.50977 -20.24232,13.41105 -46.88527,23.26952 -75.653082,27.9933 -11.6377,1.91094 -36.13611,3.1682 -46.09692,2.36569 z m 133.019322,-13.12875 c 3.083,-7.35755 8.51229,-24.68654 9.05023,-28.88625 0.55979,-4.37013 0.35339,-5.44079 -1.38374,-7.17792 -2.99304,-2.99304 -10.01377,-3.666 -24.61043,-2.35899 -7.10852,0.63651 -13.13515,0.94674 -13.3925,0.6894 -1.59019,-1.59021 6.43489,-6.56694 14.6986,-9.11528 10.94144,-3.37409 31.72686,-2.64975 35.61784,1.24124 5.1323003,5.13228 -3.30101,32.31103 -13.43029,43.28302 -3.8903,4.21395 -7.94429,5.65289 -6.54971,2.32478 z M -262.44637,200.50373 c -5.99559,-1.97263 -9.88403,-5.25276 -12.98838,-10.95648 -2.24828,-4.13082 -2.76689,-6.37139 -2.80809,-12.13193 -0.0428,-5.98174 0.39819,-7.88565 2.87515,-12.4134 6.56301,-11.99685 21.75141,-16.64308 41.75116,-12.77197 l 6.75,1.30651 -0.002,-7.59327 c -0.003,-13.32479 -4.37064,-18.06238 -17.36028,-18.82961 -5.72519,-0.33816 -8.82072,0.10024 -15.63817,2.21472 -14.17783,4.39735 -13.00001,4.51415 -13.00001,-1.28922 0,-4.18558 0.42432,-5.37777 2.49328,-7.00522 4.01927,-3.1612 17.04266,-6.18394 26.64377,-6.18394 14.95894,0 23.33223,3.84664 28.35943,13.02815 l 2.99604,5.47185 0.55888,24.5 c 0.52439,22.98839 0.70612,24.8337 2.94532,29.90856 l 2.38644,5.40857 -3.44135,2.88044 c -5.23277,4.37988 -7.83122,4.67832 -10.5916,1.21647 -1.26726,-1.5893 -2.81307,-4.11836 -3.43513,-5.62014 l -1.13101,-2.7305 -4.64181,3.91398 c -2.553,2.15269 -6.81652,4.87594 -9.47449,6.05167 -6.07118,2.68552 -17.5786,3.48978 -23.24715,1.62476 z m 21.65756,-11.79524 c 4.55711,-1.36534 10.4241,-5.99454 12.37238,-9.76208 0.77462,-1.49794 1.71572,-5.43992 2.09134,-8.75996 0.84542,-7.47255 0.88068,-7.45238 -14.04144,-8.03366 -12.26938,-0.47794 -15.98546,0.64468 -19.92892,6.02046 -4.45848,6.07785 -2.02718,17.04447 4.52531,20.41193 3.02513,1.55467 10.01191,1.61218 14.98133,0.12331 z m 170.837992,11.36817 c -3.62135,-0.97875 -7.76282,-2.55176 -9.20326,-3.49558 -3.00955,-1.97192 -4.47364,-7.44036 -2.81955,-10.53106 1.06843,-1.99638 1.12635,-1.99298 8.24788,0.48364 19.47963,6.77434 37.13194,2.66153 37.13194,-8.65137 0,-6.92995 -3.15372,-9.19935 -20.35211,-14.64528 -19.35057,-6.12743 -26.65555,-15.12355 -23.79921,-29.30887 1.45233,-7.21268 8.8122,-14.89899 16.80975,-17.55536 9.87845,-3.28109 28.55584,-1.52482 35.03578,3.29448 1.96483,1.4613 2.60144,2.92688 2.83785,6.53328 0.2717,4.14462 0.0782,4.64938 -1.78212,4.64938 -1.1478,0 -3.75995,-0.72001 -5.80479,-1.60001 -5.90528,-2.54138 -20.22731,-3.05001 -25.81323,-0.91673 -5.79943,2.21483 -8.16261,6.69007 -6.3819,12.08567 1.582,4.79349 4.84017,6.728 19.81568,11.76536 7.23739,2.43446 14.73865,5.63123 16.66946,7.10393 5.16343,3.93834 7.72204,9.64675 7.67884,17.13205 -0.0588,10.18356 -5.51451,18.02676 -15.68673,22.55121 -6.94041,3.08699 -23.21005,3.63885 -32.58428,1.10526 z m -107.164952,-1.47674 c -1.64085,-1.25718 -24.75076,-75.67863 -24.75076,-79.70556 0,-1.86356 0.6162,-2.04444 6.96481,-2.04444 5.61158,0 7.14582,0.34002 7.89644,1.75 0.5124,0.9625 4.41691,15.475 8.6767,32.25 4.25978,16.775 8.01888,30.81343 8.35355,31.19652 0.33467,0.38309 3.92419,-13.56691 7.9767,-31 4.05252,-17.43309 7.82012,-32.25902 8.37245,-32.94652 0.62632,-0.7796 3.57019,-1.25 7.82277,-1.25 4.37248,0 7.09814,0.44842 7.59795,1.25 0.42867,0.6875 4.23032,15.875 8.4481,33.75 4.21777,17.875 7.92754,31.825 8.24392,31 0.31637,-0.825 4.19146,-15.64855 8.61128,-32.94121 4.41985,-17.29267 8.59841,-31.79828 9.28569,-32.23469 0.6873,-0.43641 4.062143,-0.80037 7.499643,-0.80879 5.824039,-0.0143 6.248909,0.13803 6.234009,2.23469 -0.0263,3.7002 -23.745882,78.98301 -25.169962,79.88608 -2.33159,1.47855 -13.44296,1.016 -14.79739,-0.61599 -0.67552,-0.81395 -4.4995,-15.23285 -8.49777,-32.04199 -3.99825,-16.80914 -7.46534,-30.75787 -7.70465,-30.99718 -0.2393,-0.23931 -3.76604,13.56807 -7.83718,30.68307 -4.07115,17.11499 -8.0136,31.72968 -8.76101,32.47709 -1.73244,1.73244 -12.24299,1.81158 -14.46529,0.10892 z"
       id="path1103" /></g></svg>
